<svg width="734" height="328" viewBox="0 0 734 328" fill="none" xmlns="http://www.w3.org/2000/svg">
<path d="M52.0156 98.758H66.2171V117.504H66.5721C73.4361 103.033 83.3177 95.7979 96.2175 95.7979C101.898 95.7979 107.046 97.4423 111.662 100.731C116.277 104.02 119.531 109.611 121.425 117.504C124.502 110.598 128.526 105.253 133.496 101.471C138.585 97.6891 144.147 95.7979 150.183 95.7979C154.798 95.7979 158.94 96.538 162.609 98.0178C166.396 99.3335 169.591 101.471 172.195 104.431C174.917 107.391 176.988 111.256 178.408 116.024C179.946 120.629 180.716 126.22 180.716 132.797V226.284H165.627V142.664C165.627 138.717 165.39 135.017 164.917 131.564C164.443 128.111 163.556 125.151 162.254 122.684C160.952 120.053 159.118 117.998 156.751 116.518C154.502 115.038 151.544 114.298 147.875 114.298C140.419 114.298 134.561 117.258 130.301 123.178C126.04 129.098 123.91 136.991 123.91 146.857V226.284H108.821V142.664C108.821 138.553 108.525 134.771 107.934 131.318C107.46 127.864 106.573 124.904 105.271 122.438C103.969 119.806 102.194 117.833 99.9453 116.518C97.8151 115.038 95.034 114.298 91.6019 114.298C87.2232 114.298 83.4362 115.531 80.2409 117.998C77.1639 120.464 74.6196 123.424 72.6077 126.878C70.7141 130.331 69.2939 133.948 68.3472 137.731C67.5188 141.349 67.1046 144.391 67.1046 146.857V226.284H52.0156V98.758Z" fill="white"/>
<path d="M206.907 75.8181H191.817V50.165H206.907V75.8181ZM191.817 98.7578H206.907V226.284H191.817V98.7578Z" fill="white"/>
<path d="M217.855 98.758H232.058V118.984H232.412C238.685 103.527 248.626 95.7979 262.235 95.7979C268.27 95.7979 273.3 96.9489 277.325 99.2513C281.347 101.553 284.601 104.76 287.086 108.871C289.574 112.982 291.288 117.915 292.236 123.671C293.301 129.262 293.833 135.511 293.833 142.417V226.284H278.745V139.951C278.745 132.057 277.088 125.809 273.774 121.204C270.461 116.6 265.905 114.298 260.106 114.298C255.49 114.298 251.465 115.284 248.034 117.258C244.721 119.231 241.939 122.026 239.691 125.644C237.442 129.262 235.726 133.538 234.543 138.471C233.478 143.24 232.944 148.502 232.944 154.257V226.284H217.855V98.758Z" fill="white"/>
<path d="M315.075 163.63C315.075 169.55 315.608 175.388 316.674 181.144C317.857 186.735 319.573 191.75 321.821 196.191C324.187 200.63 327.146 204.165 330.697 206.797C334.365 209.428 338.626 210.742 343.477 210.742C348.567 210.742 352.886 209.345 356.437 206.55C359.987 203.754 362.887 200.136 365.135 195.697C367.383 191.092 368.982 185.912 369.928 180.157C370.994 174.401 371.525 168.564 371.525 162.644C371.525 156.395 370.994 150.393 369.928 144.637C368.863 138.717 367.146 133.537 364.781 129.097C362.532 124.658 359.573 121.122 355.905 118.491C352.235 115.695 347.798 114.298 342.591 114.298C337.501 114.298 333.182 115.695 329.631 118.491C326.081 121.286 323.241 124.986 321.11 129.591C318.982 134.195 317.442 139.457 316.496 145.377C315.549 151.297 315.075 157.381 315.075 163.63ZM386.082 226.284H370.994V209.017H370.639C368.154 216.087 364.247 221.184 358.922 224.31C353.597 227.434 347.739 228.996 341.348 228.996C334.247 228.996 328.034 227.187 322.709 223.569C317.502 219.951 313.123 215.101 309.573 209.017C306.14 202.932 303.537 195.861 301.762 187.803C299.986 179.746 299.098 171.195 299.098 162.15C299.098 153.106 299.927 144.555 301.583 136.497C303.36 128.44 305.962 121.451 309.395 115.531C312.946 109.447 317.325 104.678 322.53 101.224C327.857 97.6068 334.01 95.7977 340.992 95.7977C343.36 95.7977 345.905 96.1267 348.627 96.7844C351.349 97.4422 354.069 98.5933 356.791 100.238C359.513 101.718 362.058 103.773 364.426 106.404C366.911 108.871 368.982 111.995 370.639 115.778H370.994V50.165H386.082V226.284Z" fill="white"/>
<path d="M397.404 98.758H412.493V116.024H412.847C415.332 108.953 419.237 103.856 424.564 100.731C429.889 97.4423 435.748 95.7979 442.138 95.7979C449.239 95.7979 455.392 97.6069 460.6 101.225C465.924 104.842 470.303 109.775 473.736 116.024C477.287 122.109 479.949 129.18 481.724 137.237C483.5 145.295 484.386 153.846 484.386 162.89C484.386 171.935 483.5 180.486 481.724 188.544C480.067 196.602 477.464 203.673 473.914 209.756C470.481 215.676 466.102 220.362 460.777 223.816C455.569 227.27 449.476 228.997 442.492 228.997C440.244 228.997 437.699 228.667 434.859 228.011C432.137 227.353 429.415 226.284 426.693 224.804C423.971 223.322 421.368 221.35 418.883 218.883C416.515 216.253 414.504 213.046 412.847 209.262H412.493V274.876H397.404V98.758ZM468.41 161.41C468.41 155.491 467.818 149.735 466.635 144.144C465.57 138.388 463.853 133.291 461.488 128.851C459.239 124.411 456.28 120.875 452.61 118.244C449.062 115.613 444.86 114.298 440.007 114.298C434.919 114.298 430.6 115.695 427.049 118.491C423.499 121.287 420.599 124.986 418.351 129.591C416.101 134.031 414.444 139.129 413.381 144.884C412.433 150.639 411.959 156.477 411.959 162.397C411.959 168.646 412.493 174.73 413.558 180.65C414.623 186.406 416.28 191.503 418.528 195.944C420.894 200.383 423.913 204.001 427.581 206.797C431.249 209.428 435.688 210.742 440.895 210.742C446.103 210.742 450.422 209.345 453.855 206.55C457.403 203.754 460.245 200.055 462.374 195.45C464.505 190.846 466.044 185.583 466.99 179.664C467.938 173.744 468.41 167.659 468.41 161.41Z" fill="white"/>
<path d="M490.561 50.165H505.649V226.284H490.561V50.165Z" fill="white"/>
<path d="M592.575 226.284H578.375V206.056H578.018C574.824 213.949 570.74 219.787 565.77 223.569C560.799 227.187 554.941 228.996 548.196 228.996C542.16 228.996 537.13 227.927 533.108 225.79C529.083 223.488 525.829 220.281 523.344 216.17C520.859 212.058 519.083 207.208 518.017 201.616C517.071 195.861 516.597 189.53 516.597 182.623V98.7578H531.688V185.09C531.688 192.984 533.345 199.231 536.658 203.837C539.972 208.44 544.528 210.742 550.327 210.742C554.941 210.742 558.905 209.756 562.219 207.783C565.652 205.811 568.492 203.015 570.74 199.397C572.988 195.78 574.647 191.585 575.71 186.817C576.895 181.883 577.487 176.539 577.487 170.784V98.7578H592.575V226.284Z" fill="white"/>
<path d="M681.984 215.429C681.984 236.315 678.553 251.935 671.689 262.296C664.825 272.655 654.056 277.836 639.38 277.836C635.12 277.836 630.741 277.178 626.245 275.862C621.866 274.546 617.841 272.408 614.173 269.449C610.622 266.489 607.663 262.624 605.298 257.857C602.93 253.087 601.628 247.249 601.391 240.343H616.481C616.598 244.125 617.427 247.332 618.966 249.963C620.623 252.593 622.575 254.731 624.823 256.377C627.19 258.021 629.735 259.171 632.458 259.829C635.18 260.652 637.782 261.063 640.268 261.063C645.238 261.063 649.44 259.829 652.871 257.363C656.304 255.061 659.144 251.771 661.392 247.496C663.64 243.384 665.239 238.37 666.185 232.45C667.25 226.529 667.782 220.034 667.782 212.963V204.576H667.428C664.825 212.469 660.86 218.308 655.533 222.089C650.328 225.707 644.764 227.517 638.848 227.517C631.984 227.517 626.008 225.79 620.918 222.336C615.83 218.883 611.568 214.279 608.137 208.524C604.704 202.604 602.102 195.78 600.327 188.05C598.67 180.157 597.84 171.853 597.84 163.137C597.84 155.573 598.551 147.844 599.971 139.951C601.391 131.893 603.758 124.658 607.072 118.244C610.385 111.667 614.764 106.322 620.209 102.211C625.651 97.9356 632.338 95.7979 640.268 95.7979C646.066 95.7979 651.391 97.6069 656.244 101.225C661.097 104.678 664.883 109.94 667.605 117.011H667.782V98.758H681.984V215.429ZM639.736 209.263C644.706 209.263 648.906 207.866 652.339 205.07C655.89 202.11 658.729 198.329 660.86 193.723C662.991 188.954 664.528 183.61 665.476 177.69C666.539 171.77 667.073 165.85 667.073 159.931C667.073 154.339 666.599 148.831 665.653 143.404C664.705 137.977 663.168 133.126 661.037 128.851C659.026 124.411 656.362 120.875 653.048 118.244C649.734 115.613 645.712 114.298 640.978 114.298C636.126 114.298 631.984 115.613 628.551 118.244C625.119 120.711 622.28 124.082 620.032 128.357C617.901 132.633 616.302 137.566 615.238 143.157C614.291 148.748 613.817 154.586 613.817 160.67C613.817 166.426 614.231 172.182 615.061 177.937C615.888 183.692 617.309 188.954 619.321 193.723C621.332 198.329 623.994 202.11 627.308 205.07C630.623 207.866 634.766 209.263 639.736 209.263Z" fill="white"/>
<mask id="mask0_97_1278" style="mask-type:luminance" maskUnits="userSpaceOnUse" x="5" y="3" width="724" height="322">
<path d="M728.221 3.8584H5.77954V324.141H728.221V3.8584Z" fill="white"/>
<path d="M52.0159 98.757H66.2173V117.503H66.5724C73.4363 103.032 83.318 95.7969 96.2177 95.7969C101.898 95.7969 107.046 97.4413 111.662 100.73C116.277 104.019 119.532 109.61 121.425 117.503C124.502 110.597 128.526 105.252 133.496 101.47C138.585 97.6881 144.147 95.7969 150.183 95.7969C154.798 95.7969 158.94 96.537 162.609 98.0169C166.396 99.3325 169.591 101.47 172.195 104.43C174.917 107.39 176.988 111.255 178.408 116.023C179.947 120.628 180.716 126.219 180.716 132.796V226.283H165.627V142.663C165.627 138.716 165.39 135.016 164.917 131.563C164.443 128.11 163.556 125.15 162.254 122.683C160.952 120.052 159.118 117.997 156.751 116.517C154.503 115.037 151.544 114.297 147.875 114.297C140.42 114.297 134.561 117.257 130.301 123.177C126.041 129.097 123.91 136.99 123.91 146.856V226.283H108.821V142.663C108.821 138.552 108.526 134.77 107.934 131.317C107.46 127.863 106.573 124.903 105.271 122.437C103.969 119.806 102.194 117.832 99.9455 116.517C97.8154 115.037 95.0342 114.297 91.6022 114.297C87.2234 114.297 83.4365 115.53 80.2412 117.997C77.1641 120.463 74.6198 123.423 72.6079 126.877C70.7144 130.33 69.2941 133.948 68.3475 137.73C67.5191 141.348 67.1049 144.39 67.1049 146.856V226.283H52.0159V98.757Z" fill="black"/>
<path d="M206.907 75.8171H191.818V50.1641H206.907V75.8171ZM191.818 98.7569H206.907V226.283H191.818V98.7569Z" fill="black"/>
<path d="M217.855 98.757H232.058V118.983H232.412C238.685 103.526 248.626 95.7969 262.235 95.7969C268.27 95.7969 273.3 96.948 277.325 99.2503C281.347 101.553 284.601 104.759 287.086 108.87C289.574 112.981 291.288 117.915 292.236 123.67C293.301 129.261 293.833 135.51 293.833 142.416V226.283H278.745V139.95C278.745 132.057 277.088 125.808 273.774 121.203C270.461 116.599 265.905 114.297 260.106 114.297C255.49 114.297 251.465 115.283 248.034 117.257C244.721 119.23 241.939 122.025 239.691 125.643C237.442 129.261 235.726 133.537 234.543 138.47C233.478 143.239 232.944 148.501 232.944 154.256V226.283H217.855V98.757Z" fill="black"/>
<path d="M315.075 163.629C315.075 169.549 315.608 175.387 316.674 181.143C317.857 186.734 319.573 191.749 321.821 196.19C324.187 200.629 327.146 204.164 330.697 206.796C334.365 209.427 338.626 210.741 343.477 210.741C348.567 210.741 352.886 209.344 356.437 206.549C359.987 203.753 362.887 200.135 365.135 195.696C367.383 191.091 368.982 185.911 369.928 180.156C370.994 174.4 371.525 168.563 371.525 162.643C371.525 156.394 370.994 150.392 369.928 144.636C368.863 138.716 367.146 133.536 364.781 129.096C362.532 124.657 359.573 121.121 355.905 118.49C352.235 115.694 347.798 114.297 342.591 114.297C337.501 114.297 333.182 115.694 329.631 118.49C326.081 121.285 323.241 124.985 321.11 129.59C318.982 134.194 317.442 139.456 316.496 145.376C315.549 151.296 315.075 157.381 315.075 163.629ZM386.082 226.283H370.994V209.016H370.639C368.154 216.086 364.247 221.183 358.922 224.309C353.597 227.433 347.739 228.995 341.348 228.995C334.247 228.995 328.034 227.186 322.709 223.568C317.502 219.95 313.123 215.1 309.573 209.016C306.14 202.931 303.537 195.86 301.762 187.802C299.986 179.745 299.098 171.194 299.098 162.149C299.098 153.105 299.927 144.554 301.583 136.496C303.36 128.439 305.962 121.45 309.395 115.53C312.946 109.446 317.325 104.677 322.53 101.223C327.857 97.6058 334.01 95.7968 340.992 95.7968C343.36 95.7968 345.905 96.1257 348.627 96.7835C351.349 97.4412 354.069 98.5923 356.791 100.237C359.513 101.717 362.058 103.772 364.426 106.403C366.911 108.87 368.982 111.994 370.639 115.777H370.994V50.1641H386.082V226.283Z" fill="black"/>
<path d="M397.404 98.757H412.493V116.023H412.847C415.332 108.952 419.237 103.855 424.564 100.73C429.889 97.4413 435.748 95.7969 442.138 95.7969C449.239 95.7969 455.392 97.6059 460.6 101.224C465.924 104.841 470.303 109.774 473.736 116.023C477.287 122.108 479.949 129.179 481.724 137.236C483.5 145.294 484.386 153.845 484.386 162.889C484.386 171.934 483.5 180.485 481.724 188.543C480.067 196.601 477.464 203.672 473.914 209.755C470.481 215.675 466.102 220.361 460.777 223.815C455.569 227.269 449.476 228.996 442.492 228.996C440.244 228.996 437.699 228.666 434.859 228.01C432.137 227.352 429.415 226.283 426.693 224.803C423.971 223.321 421.368 221.349 418.883 218.882C416.515 216.252 414.504 213.045 412.847 209.262H412.493V274.875H397.404V98.757ZM468.41 161.409C468.41 155.49 467.818 149.734 466.635 144.143C465.57 138.387 463.853 133.29 461.488 128.85C459.239 124.41 456.28 120.874 452.61 118.243C449.062 115.612 444.86 114.297 440.007 114.297C434.919 114.297 430.6 115.695 427.049 118.49C423.499 121.286 420.599 124.985 418.351 129.59C416.101 134.03 414.444 139.128 413.381 144.883C412.433 150.638 411.959 156.476 411.959 162.396C411.959 168.645 412.493 174.729 413.558 180.649C414.623 186.405 416.28 191.502 418.528 195.943C420.894 200.382 423.913 204 427.581 206.796C431.249 209.427 435.688 210.741 440.895 210.741C446.103 210.741 450.422 209.344 453.855 206.549C457.403 203.753 460.245 200.054 462.374 195.449C464.505 190.845 466.044 185.582 466.99 179.663C467.938 173.743 468.41 167.658 468.41 161.409Z" fill="black"/>
<path d="M490.561 50.1641H505.649V226.283H490.561V50.1641Z" fill="black"/>
<path d="M592.575 226.283H578.375V206.055H578.018C574.824 213.948 570.74 219.786 565.769 223.568C560.799 227.186 554.94 228.995 548.196 228.995C542.16 228.995 537.13 227.927 533.107 225.789C529.083 223.487 525.829 220.28 523.344 216.169C520.859 212.057 519.082 207.207 518.017 201.615C517.071 195.86 516.597 189.529 516.597 182.622V98.7568H531.687V185.089C531.687 192.983 533.344 199.23 536.658 203.836C539.971 208.439 544.528 210.741 550.326 210.741C554.94 210.741 558.905 209.755 562.219 207.782C565.652 205.81 568.492 203.014 570.74 199.396C572.988 195.779 574.647 191.584 575.71 186.816C576.895 181.882 577.486 176.538 577.486 170.783V98.7568H592.575V226.283Z" fill="black"/>
<path d="M681.984 215.428C681.984 236.314 678.553 251.934 671.689 262.295C664.825 272.654 654.056 277.835 639.38 277.835C635.12 277.835 630.741 277.177 626.245 275.861C621.866 274.545 617.841 272.407 614.173 269.448C610.622 266.488 607.663 262.623 605.298 257.856C602.93 253.086 601.628 247.248 601.391 240.342H616.481C616.598 244.124 617.427 247.331 618.966 249.962C620.623 252.592 622.575 254.73 624.823 256.376C627.19 258.02 629.735 259.17 632.458 259.828C635.18 260.651 637.782 261.062 640.268 261.062C645.238 261.062 649.44 259.828 652.871 257.362C656.304 255.06 659.144 251.77 661.392 247.495C663.64 243.383 665.239 238.369 666.185 232.449C667.25 226.528 667.782 220.033 667.782 212.962V204.575H667.428C664.825 212.468 660.86 218.307 655.533 222.088C650.328 225.706 644.764 227.516 638.848 227.516C631.984 227.516 626.008 225.789 620.918 222.335C615.83 218.882 611.568 214.278 608.137 208.523C604.704 202.603 602.102 195.779 600.327 188.049C598.67 180.156 597.84 171.852 597.84 163.136C597.84 155.572 598.551 147.843 599.971 139.95C601.391 131.892 603.758 124.657 607.072 118.243C610.385 111.666 614.764 106.321 620.209 102.21C625.651 97.9347 632.338 95.7969 640.268 95.7969C646.066 95.7969 651.391 97.6059 656.244 101.224C661.097 104.677 664.883 109.939 667.605 117.01H667.782V98.757H681.984V215.428ZM639.736 209.262C644.706 209.262 648.906 207.865 652.339 205.069C655.89 202.109 658.729 198.328 660.86 193.722C662.991 188.954 664.528 183.609 665.476 177.689C666.539 171.769 667.073 165.849 667.073 159.93C667.073 154.339 666.599 148.83 665.653 143.403C664.705 137.977 663.168 133.125 661.037 128.85C659.026 124.41 656.362 120.874 653.048 118.243C649.734 115.612 645.712 114.297 640.978 114.297C636.126 114.297 631.984 115.612 628.551 118.243C625.119 120.71 622.28 124.081 620.032 128.356C617.901 132.632 616.302 137.565 615.238 143.156C614.291 148.747 613.817 154.585 613.817 160.669C613.817 166.425 614.231 172.181 615.061 177.936C615.888 183.691 617.309 188.954 619.321 193.722C621.332 198.328 623.994 202.109 627.308 205.069C630.623 207.865 634.766 209.262 639.736 209.262Z" fill="black"/>
</mask>
<g mask="url(#mask0_97_1278)">
<path d="M52.0159 98.757H66.2173V117.503H66.5724C73.4363 103.032 83.318 95.7969 96.2177 95.7969C101.898 95.7969 107.046 97.4413 111.662 100.73C116.277 104.019 119.532 109.61 121.425 117.503C124.502 110.597 128.526 105.252 133.496 101.47C138.585 97.6881 144.147 95.7969 150.183 95.7969C154.798 95.7969 158.94 96.537 162.609 98.0169C166.396 99.3325 169.591 101.47 172.195 104.43C174.917 107.39 176.988 111.255 178.408 116.023C179.947 120.628 180.716 126.219 180.716 132.796V226.283H165.627V142.663C165.627 138.716 165.39 135.016 164.917 131.563C164.443 128.11 163.556 125.15 162.254 122.683C160.952 120.052 159.118 117.997 156.751 116.517C154.503 115.037 151.544 114.297 147.875 114.297C140.42 114.297 134.561 117.257 130.301 123.177C126.041 129.097 123.91 136.99 123.91 146.856V226.283H108.821V142.663C108.821 138.552 108.526 134.77 107.934 131.317C107.46 127.863 106.573 124.903 105.271 122.437C103.969 119.806 102.194 117.832 99.9455 116.517C97.8154 115.037 95.0342 114.297 91.6022 114.297C87.2234 114.297 83.4365 115.53 80.2412 117.997C77.1641 120.463 74.6198 123.423 72.6079 126.877C70.7144 130.33 69.2942 133.948 68.3475 137.73C67.5191 141.348 67.1049 144.39 67.1049 146.856V226.283H52.0159V98.757Z" stroke="#C4C4C4" stroke-width="86"/>
</g>
<mask id="mask1_97_1278" style="mask-type:luminance" maskUnits="userSpaceOnUse" x="5" y="3" width="724" height="322">
<path d="M728.221 3.8584H5.77954V324.141H728.221V3.8584Z" fill="white"/>
<path d="M52.0159 98.757H66.2173V117.503H66.5724C73.4363 103.032 83.318 95.7969 96.2177 95.7969C101.898 95.7969 107.046 97.4413 111.662 100.73C116.277 104.019 119.532 109.61 121.425 117.503C124.502 110.597 128.526 105.252 133.496 101.47C138.585 97.6881 144.147 95.7969 150.183 95.7969C154.798 95.7969 158.94 96.537 162.609 98.0169C166.396 99.3325 169.591 101.47 172.195 104.43C174.917 107.39 176.988 111.255 178.408 116.023C179.947 120.628 180.716 126.219 180.716 132.796V226.283H165.627V142.663C165.627 138.716 165.39 135.016 164.917 131.563C164.443 128.11 163.556 125.15 162.254 122.683C160.952 120.052 159.118 117.997 156.751 116.517C154.503 115.037 151.544 114.297 147.875 114.297C140.42 114.297 134.561 117.257 130.301 123.177C126.041 129.097 123.91 136.99 123.91 146.856V226.283H108.821V142.663C108.821 138.552 108.526 134.77 107.934 131.317C107.46 127.863 106.573 124.903 105.271 122.437C103.969 119.806 102.194 117.832 99.9455 116.517C97.8154 115.037 95.0342 114.297 91.6022 114.297C87.2234 114.297 83.4365 115.53 80.2412 117.997C77.1641 120.463 74.6198 123.423 72.6079 126.877C70.7144 130.33 69.2941 133.948 68.3475 137.73C67.5191 141.348 67.1049 144.39 67.1049 146.856V226.283H52.0159V98.757Z" fill="black"/>
<path d="M206.907 75.8171H191.818V50.1641H206.907V75.8171ZM191.818 98.7569H206.907V226.283H191.818V98.7569Z" fill="black"/>
<path d="M217.855 98.757H232.058V118.983H232.412C238.685 103.526 248.626 95.7969 262.235 95.7969C268.27 95.7969 273.3 96.948 277.325 99.2503C281.347 101.553 284.601 104.759 287.086 108.87C289.574 112.981 291.288 117.915 292.236 123.67C293.301 129.261 293.833 135.51 293.833 142.416V226.283H278.745V139.95C278.745 132.057 277.088 125.808 273.774 121.203C270.461 116.599 265.905 114.297 260.106 114.297C255.49 114.297 251.465 115.283 248.034 117.257C244.721 119.23 241.939 122.025 239.691 125.643C237.442 129.261 235.726 133.537 234.543 138.47C233.478 143.239 232.944 148.501 232.944 154.256V226.283H217.855V98.757Z" fill="black"/>
<path d="M315.075 163.629C315.075 169.549 315.608 175.387 316.674 181.143C317.857 186.734 319.573 191.749 321.821 196.19C324.187 200.629 327.146 204.164 330.697 206.796C334.365 209.427 338.626 210.741 343.477 210.741C348.567 210.741 352.886 209.344 356.437 206.549C359.987 203.753 362.887 200.135 365.135 195.696C367.383 191.091 368.982 185.911 369.928 180.156C370.994 174.4 371.525 168.563 371.525 162.643C371.525 156.394 370.994 150.392 369.928 144.636C368.863 138.716 367.146 133.536 364.781 129.096C362.532 124.657 359.573 121.121 355.905 118.49C352.235 115.694 347.798 114.297 342.591 114.297C337.501 114.297 333.182 115.694 329.631 118.49C326.081 121.285 323.241 124.985 321.11 129.59C318.982 134.194 317.442 139.456 316.496 145.376C315.549 151.296 315.075 157.381 315.075 163.629ZM386.082 226.283H370.994V209.016H370.639C368.154 216.086 364.247 221.183 358.922 224.309C353.597 227.433 347.739 228.995 341.348 228.995C334.247 228.995 328.034 227.186 322.709 223.568C317.502 219.95 313.123 215.1 309.573 209.016C306.14 202.931 303.537 195.86 301.762 187.802C299.986 179.745 299.098 171.194 299.098 162.149C299.098 153.105 299.927 144.554 301.583 136.496C303.36 128.439 305.962 121.45 309.395 115.53C312.946 109.446 317.325 104.677 322.53 101.223C327.857 97.6058 334.01 95.7968 340.992 95.7968C343.36 95.7968 345.905 96.1257 348.627 96.7835C351.349 97.4412 354.069 98.5923 356.791 100.237C359.513 101.717 362.058 103.772 364.426 106.403C366.911 108.87 368.982 111.994 370.639 115.777H370.994V50.1641H386.082V226.283Z" fill="black"/>
<path d="M397.404 98.757H412.493V116.023H412.847C415.332 108.952 419.237 103.855 424.564 100.73C429.889 97.4413 435.748 95.7969 442.138 95.7969C449.239 95.7969 455.392 97.6059 460.6 101.224C465.924 104.841 470.303 109.774 473.736 116.023C477.287 122.108 479.949 129.179 481.724 137.236C483.5 145.294 484.386 153.845 484.386 162.889C484.386 171.934 483.5 180.485 481.724 188.543C480.067 196.601 477.464 203.672 473.914 209.755C470.481 215.675 466.102 220.361 460.777 223.815C455.569 227.269 449.476 228.996 442.492 228.996C440.244 228.996 437.699 228.666 434.859 228.01C432.137 227.352 429.415 226.283 426.693 224.803C423.971 223.321 421.368 221.349 418.883 218.882C416.515 216.252 414.504 213.045 412.847 209.262H412.493V274.875H397.404V98.757ZM468.41 161.409C468.41 155.49 467.818 149.734 466.635 144.143C465.57 138.387 463.853 133.29 461.488 128.85C459.239 124.41 456.28 120.874 452.61 118.243C449.062 115.612 444.86 114.297 440.007 114.297C434.919 114.297 430.6 115.695 427.049 118.49C423.499 121.286 420.599 124.985 418.351 129.59C416.101 134.03 414.444 139.128 413.381 144.883C412.433 150.638 411.959 156.476 411.959 162.396C411.959 168.645 412.493 174.729 413.558 180.649C414.623 186.405 416.28 191.502 418.528 195.943C420.894 200.382 423.913 204 427.581 206.796C431.249 209.427 435.688 210.741 440.895 210.741C446.103 210.741 450.422 209.344 453.855 206.549C457.403 203.753 460.245 200.054 462.374 195.449C464.505 190.845 466.044 185.582 466.99 179.663C467.938 173.743 468.41 167.658 468.41 161.409Z" fill="black"/>
<path d="M490.561 50.1641H505.649V226.283H490.561V50.1641Z" fill="black"/>
<path d="M592.575 226.283H578.375V206.055H578.018C574.824 213.948 570.74 219.786 565.769 223.568C560.799 227.186 554.94 228.995 548.196 228.995C542.16 228.995 537.13 227.927 533.107 225.789C529.083 223.487 525.829 220.28 523.344 216.169C520.859 212.057 519.082 207.207 518.017 201.615C517.071 195.86 516.597 189.529 516.597 182.622V98.7568H531.687V185.089C531.687 192.983 533.344 199.23 536.658 203.836C539.971 208.439 544.528 210.741 550.326 210.741C554.94 210.741 558.905 209.755 562.219 207.782C565.652 205.81 568.492 203.014 570.74 199.396C572.988 195.779 574.647 191.584 575.71 186.816C576.895 181.882 577.486 176.538 577.486 170.783V98.7568H592.575V226.283Z" fill="black"/>
<path d="M681.984 215.428C681.984 236.314 678.553 251.934 671.689 262.295C664.825 272.654 654.056 277.835 639.38 277.835C635.12 277.835 630.741 277.177 626.245 275.861C621.866 274.545 617.841 272.407 614.173 269.448C610.622 266.488 607.663 262.623 605.298 257.856C602.93 253.086 601.628 247.248 601.391 240.342H616.481C616.598 244.124 617.427 247.331 618.966 249.962C620.623 252.592 622.575 254.73 624.823 256.376C627.19 258.02 629.735 259.17 632.458 259.828C635.18 260.651 637.782 261.062 640.268 261.062C645.238 261.062 649.44 259.828 652.871 257.362C656.304 255.06 659.144 251.77 661.392 247.495C663.64 243.383 665.239 238.369 666.185 232.449C667.25 226.528 667.782 220.033 667.782 212.962V204.575H667.428C664.825 212.468 660.86 218.307 655.533 222.088C650.328 225.706 644.764 227.516 638.848 227.516C631.984 227.516 626.008 225.789 620.918 222.335C615.83 218.882 611.568 214.278 608.137 208.523C604.704 202.603 602.102 195.779 600.327 188.049C598.67 180.156 597.84 171.852 597.84 163.136C597.84 155.572 598.551 147.843 599.971 139.95C601.391 131.892 603.758 124.657 607.072 118.243C610.385 111.666 614.764 106.321 620.209 102.21C625.651 97.9347 632.338 95.7969 640.268 95.7969C646.066 95.7969 651.391 97.6059 656.244 101.224C661.097 104.677 664.883 109.939 667.605 117.01H667.782V98.757H681.984V215.428ZM639.736 209.262C644.706 209.262 648.906 207.865 652.339 205.069C655.89 202.109 658.729 198.328 660.86 193.722C662.991 188.954 664.528 183.609 665.476 177.689C666.539 171.769 667.073 165.849 667.073 159.93C667.073 154.339 666.599 148.83 665.653 143.403C664.705 137.977 663.168 133.125 661.037 128.85C659.026 124.41 656.362 120.874 653.048 118.243C649.734 115.612 645.712 114.297 640.978 114.297C636.126 114.297 631.984 115.612 628.551 118.243C625.119 120.71 622.28 124.081 620.032 128.356C617.901 132.632 616.302 137.565 615.238 143.156C614.291 148.747 613.817 154.585 613.817 160.669C613.817 166.425 614.231 172.181 615.061 177.936C615.888 183.691 617.309 188.954 619.321 193.722C621.332 198.328 623.994 202.109 627.308 205.069C630.623 207.865 634.766 209.262 639.736 209.262Z" fill="black"/>
</mask>
<g mask="url(#mask1_97_1278)">
<path d="M206.907 75.8171H191.818V50.1641H206.907V75.8171ZM191.818 98.7569H206.907V226.283H191.818V98.7569Z" stroke="#C4C4C4" stroke-width="86"/>
</g>
<mask id="mask2_97_1278" style="mask-type:luminance" maskUnits="userSpaceOnUse" x="5" y="3" width="724" height="322">
<path d="M728.221 3.8584H5.77954V324.141H728.221V3.8584Z" fill="white"/>
<path d="M52.0159 98.757H66.2173V117.503H66.5724C73.4363 103.032 83.318 95.7969 96.2177 95.7969C101.898 95.7969 107.046 97.4413 111.662 100.73C116.277 104.019 119.532 109.61 121.425 117.503C124.502 110.597 128.526 105.252 133.496 101.47C138.585 97.6881 144.147 95.7969 150.183 95.7969C154.798 95.7969 158.94 96.537 162.609 98.0169C166.396 99.3325 169.591 101.47 172.195 104.43C174.917 107.39 176.988 111.255 178.408 116.023C179.947 120.628 180.716 126.219 180.716 132.796V226.283H165.627V142.663C165.627 138.716 165.39 135.016 164.917 131.563C164.443 128.11 163.556 125.15 162.254 122.683C160.952 120.052 159.118 117.997 156.751 116.517C154.503 115.037 151.544 114.297 147.875 114.297C140.42 114.297 134.561 117.257 130.301 123.177C126.041 129.097 123.91 136.99 123.91 146.856V226.283H108.821V142.663C108.821 138.552 108.526 134.77 107.934 131.317C107.46 127.863 106.573 124.903 105.271 122.437C103.969 119.806 102.194 117.832 99.9455 116.517C97.8154 115.037 95.0342 114.297 91.6022 114.297C87.2234 114.297 83.4365 115.53 80.2412 117.997C77.1641 120.463 74.6198 123.423 72.6079 126.877C70.7144 130.33 69.2941 133.948 68.3475 137.73C67.5191 141.348 67.1049 144.39 67.1049 146.856V226.283H52.0159V98.757Z" fill="black"/>
<path d="M206.907 75.8171H191.818V50.1641H206.907V75.8171ZM191.818 98.7569H206.907V226.283H191.818V98.7569Z" fill="black"/>
<path d="M217.855 98.757H232.058V118.983H232.412C238.685 103.526 248.626 95.7969 262.235 95.7969C268.27 95.7969 273.3 96.948 277.325 99.2503C281.347 101.553 284.601 104.759 287.086 108.87C289.574 112.981 291.288 117.915 292.236 123.67C293.301 129.261 293.833 135.51 293.833 142.416V226.283H278.745V139.95C278.745 132.057 277.088 125.808 273.774 121.203C270.461 116.599 265.905 114.297 260.106 114.297C255.49 114.297 251.465 115.283 248.034 117.257C244.721 119.23 241.939 122.025 239.691 125.643C237.442 129.261 235.726 133.537 234.543 138.47C233.478 143.239 232.944 148.501 232.944 154.256V226.283H217.855V98.757Z" fill="black"/>
<path d="M315.075 163.629C315.075 169.549 315.608 175.387 316.674 181.143C317.857 186.734 319.573 191.749 321.821 196.19C324.187 200.629 327.146 204.164 330.697 206.796C334.365 209.427 338.626 210.741 343.477 210.741C348.567 210.741 352.886 209.344 356.437 206.549C359.987 203.753 362.887 200.135 365.135 195.696C367.383 191.091 368.982 185.911 369.928 180.156C370.994 174.4 371.525 168.563 371.525 162.643C371.525 156.394 370.994 150.392 369.928 144.636C368.863 138.716 367.146 133.536 364.781 129.096C362.532 124.657 359.573 121.121 355.905 118.49C352.235 115.694 347.798 114.297 342.591 114.297C337.501 114.297 333.182 115.694 329.631 118.49C326.081 121.285 323.241 124.985 321.11 129.59C318.982 134.194 317.442 139.456 316.496 145.376C315.549 151.296 315.075 157.381 315.075 163.629ZM386.082 226.283H370.994V209.016H370.639C368.154 216.086 364.247 221.183 358.922 224.309C353.597 227.433 347.739 228.995 341.348 228.995C334.247 228.995 328.034 227.186 322.709 223.568C317.502 219.95 313.123 215.1 309.573 209.016C306.14 202.931 303.537 195.86 301.762 187.802C299.986 179.745 299.098 171.194 299.098 162.149C299.098 153.105 299.927 144.554 301.583 136.496C303.36 128.439 305.962 121.45 309.395 115.53C312.946 109.446 317.325 104.677 322.53 101.223C327.857 97.6058 334.01 95.7968 340.992 95.7968C343.36 95.7968 345.905 96.1257 348.627 96.7835C351.349 97.4412 354.069 98.5923 356.791 100.237C359.513 101.717 362.058 103.772 364.426 106.403C366.911 108.87 368.982 111.994 370.639 115.777H370.994V50.1641H386.082V226.283Z" fill="black"/>
<path d="M397.404 98.757H412.493V116.023H412.847C415.332 108.952 419.237 103.855 424.564 100.73C429.889 97.4413 435.748 95.7969 442.138 95.7969C449.239 95.7969 455.392 97.6059 460.6 101.224C465.924 104.841 470.303 109.774 473.736 116.023C477.287 122.108 479.949 129.179 481.724 137.236C483.5 145.294 484.386 153.845 484.386 162.889C484.386 171.934 483.5 180.485 481.724 188.543C480.067 196.601 477.464 203.672 473.914 209.755C470.481 215.675 466.102 220.361 460.777 223.815C455.569 227.269 449.476 228.996 442.492 228.996C440.244 228.996 437.699 228.666 434.859 228.01C432.137 227.352 429.415 226.283 426.693 224.803C423.971 223.321 421.368 221.349 418.883 218.882C416.515 216.252 414.504 213.045 412.847 209.262H412.493V274.875H397.404V98.757ZM468.41 161.409C468.41 155.49 467.818 149.734 466.635 144.143C465.57 138.387 463.853 133.29 461.488 128.85C459.239 124.41 456.28 120.874 452.61 118.243C449.062 115.612 444.86 114.297 440.007 114.297C434.919 114.297 430.6 115.695 427.049 118.49C423.499 121.286 420.599 124.985 418.351 129.59C416.101 134.03 414.444 139.128 413.381 144.883C412.433 150.638 411.959 156.476 411.959 162.396C411.959 168.645 412.493 174.729 413.558 180.649C414.623 186.405 416.28 191.502 418.528 195.943C420.894 200.382 423.913 204 427.581 206.796C431.249 209.427 435.688 210.741 440.895 210.741C446.103 210.741 450.422 209.344 453.855 206.549C457.403 203.753 460.245 200.054 462.374 195.449C464.505 190.845 466.044 185.582 466.99 179.663C467.938 173.743 468.41 167.658 468.41 161.409Z" fill="black"/>
<path d="M490.561 50.1641H505.649V226.283H490.561V50.1641Z" fill="black"/>
<path d="M592.575 226.283H578.375V206.055H578.018C574.824 213.948 570.74 219.786 565.769 223.568C560.799 227.186 554.94 228.995 548.196 228.995C542.16 228.995 537.13 227.927 533.107 225.789C529.083 223.487 525.829 220.28 523.344 216.169C520.859 212.057 519.082 207.207 518.017 201.615C517.071 195.86 516.597 189.529 516.597 182.622V98.7568H531.687V185.089C531.687 192.983 533.344 199.23 536.658 203.836C539.971 208.439 544.528 210.741 550.326 210.741C554.94 210.741 558.905 209.755 562.219 207.782C565.652 205.81 568.492 203.014 570.74 199.396C572.988 195.779 574.647 191.584 575.71 186.816C576.895 181.882 577.486 176.538 577.486 170.783V98.7568H592.575V226.283Z" fill="black"/>
<path d="M681.984 215.428C681.984 236.314 678.553 251.934 671.689 262.295C664.825 272.654 654.056 277.835 639.38 277.835C635.12 277.835 630.741 277.177 626.245 275.861C621.866 274.545 617.841 272.407 614.173 269.448C610.622 266.488 607.663 262.623 605.298 257.856C602.93 253.086 601.628 247.248 601.391 240.342H616.481C616.598 244.124 617.427 247.331 618.966 249.962C620.623 252.592 622.575 254.73 624.823 256.376C627.19 258.02 629.735 259.17 632.458 259.828C635.18 260.651 637.782 261.062 640.268 261.062C645.238 261.062 649.44 259.828 652.871 257.362C656.304 255.06 659.144 251.77 661.392 247.495C663.64 243.383 665.239 238.369 666.185 232.449C667.25 226.528 667.782 220.033 667.782 212.962V204.575H667.428C664.825 212.468 660.86 218.307 655.533 222.088C650.328 225.706 644.764 227.516 638.848 227.516C631.984 227.516 626.008 225.789 620.918 222.335C615.83 218.882 611.568 214.278 608.137 208.523C604.704 202.603 602.102 195.779 600.327 188.049C598.67 180.156 597.84 171.852 597.84 163.136C597.84 155.572 598.551 147.843 599.971 139.95C601.391 131.892 603.758 124.657 607.072 118.243C610.385 111.666 614.764 106.321 620.209 102.21C625.651 97.9347 632.338 95.7969 640.268 95.7969C646.066 95.7969 651.391 97.6059 656.244 101.224C661.097 104.677 664.883 109.939 667.605 117.01H667.782V98.757H681.984V215.428ZM639.736 209.262C644.706 209.262 648.906 207.865 652.339 205.069C655.89 202.109 658.729 198.328 660.86 193.722C662.991 188.954 664.528 183.609 665.476 177.689C666.539 171.769 667.073 165.849 667.073 159.93C667.073 154.339 666.599 148.83 665.653 143.403C664.705 137.977 663.168 133.125 661.037 128.85C659.026 124.41 656.362 120.874 653.048 118.243C649.734 115.612 645.712 114.297 640.978 114.297C636.126 114.297 631.984 115.612 628.551 118.243C625.119 120.71 622.28 124.081 620.032 128.356C617.901 132.632 616.302 137.565 615.238 143.156C614.291 148.747 613.817 154.585 613.817 160.669C613.817 166.425 614.231 172.181 615.061 177.936C615.888 183.691 617.309 188.954 619.321 193.722C621.332 198.328 623.994 202.109 627.308 205.069C630.623 207.865 634.766 209.262 639.736 209.262Z" fill="black"/>
</mask>
<g mask="url(#mask2_97_1278)">
<path d="M217.855 98.757H232.058V118.983H232.412C238.685 103.526 248.626 95.7969 262.235 95.7969C268.27 95.7969 273.3 96.948 277.325 99.2503C281.347 101.553 284.601 104.759 287.086 108.87C289.574 112.981 291.288 117.915 292.236 123.67C293.301 129.261 293.833 135.51 293.833 142.416V226.283H278.745V139.95C278.745 132.057 277.088 125.808 273.774 121.203C270.461 116.599 265.905 114.297 260.106 114.297C255.49 114.297 251.465 115.283 248.034 117.257C244.721 119.23 241.939 122.025 239.691 125.643C237.442 129.261 235.726 133.537 234.543 138.47C233.478 143.239 232.944 148.501 232.944 154.256V226.283H217.855V98.757Z" stroke="#C4C4C4" stroke-width="86"/>
</g>
<mask id="mask3_97_1278" style="mask-type:luminance" maskUnits="userSpaceOnUse" x="5" y="3" width="724" height="322">
<path d="M728.221 3.8584H5.77954V324.141H728.221V3.8584Z" fill="white"/>
<path d="M52.0159 98.757H66.2173V117.503H66.5724C73.4363 103.032 83.318 95.7969 96.2177 95.7969C101.898 95.7969 107.046 97.4413 111.662 100.73C116.277 104.019 119.532 109.61 121.425 117.503C124.502 110.597 128.526 105.252 133.496 101.47C138.585 97.6881 144.147 95.7969 150.183 95.7969C154.798 95.7969 158.94 96.537 162.609 98.0169C166.396 99.3325 169.591 101.47 172.195 104.43C174.917 107.39 176.988 111.255 178.408 116.023C179.947 120.628 180.716 126.219 180.716 132.796V226.283H165.627V142.663C165.627 138.716 165.39 135.016 164.917 131.563C164.443 128.11 163.556 125.15 162.254 122.683C160.952 120.052 159.118 117.997 156.751 116.517C154.503 115.037 151.544 114.297 147.875 114.297C140.42 114.297 134.561 117.257 130.301 123.177C126.041 129.097 123.91 136.99 123.91 146.856V226.283H108.821V142.663C108.821 138.552 108.526 134.77 107.934 131.317C107.46 127.863 106.573 124.903 105.271 122.437C103.969 119.806 102.194 117.832 99.9455 116.517C97.8154 115.037 95.0342 114.297 91.6022 114.297C87.2234 114.297 83.4365 115.53 80.2412 117.997C77.1641 120.463 74.6198 123.423 72.6079 126.877C70.7144 130.33 69.2941 133.948 68.3475 137.73C67.5191 141.348 67.1049 144.39 67.1049 146.856V226.283H52.0159V98.757Z" fill="black"/>
<path d="M206.907 75.8171H191.818V50.1641H206.907V75.8171ZM191.818 98.7569H206.907V226.283H191.818V98.7569Z" fill="black"/>
<path d="M217.855 98.757H232.058V118.983H232.412C238.685 103.526 248.626 95.7969 262.235 95.7969C268.27 95.7969 273.3 96.948 277.325 99.2503C281.347 101.553 284.601 104.759 287.086 108.87C289.574 112.981 291.288 117.915 292.236 123.67C293.301 129.261 293.833 135.51 293.833 142.416V226.283H278.745V139.95C278.745 132.057 277.088 125.808 273.774 121.203C270.461 116.599 265.905 114.297 260.106 114.297C255.49 114.297 251.465 115.283 248.034 117.257C244.721 119.23 241.939 122.025 239.691 125.643C237.442 129.261 235.726 133.537 234.543 138.47C233.478 143.239 232.944 148.501 232.944 154.256V226.283H217.855V98.757Z" fill="black"/>
<path d="M315.075 163.629C315.075 169.549 315.608 175.387 316.674 181.143C317.857 186.734 319.573 191.749 321.821 196.19C324.187 200.629 327.146 204.164 330.697 206.796C334.365 209.427 338.626 210.741 343.477 210.741C348.567 210.741 352.886 209.344 356.437 206.549C359.987 203.753 362.887 200.135 365.135 195.696C367.383 191.091 368.982 185.911 369.928 180.156C370.994 174.4 371.525 168.563 371.525 162.643C371.525 156.394 370.994 150.392 369.928 144.636C368.863 138.716 367.146 133.536 364.781 129.096C362.532 124.657 359.573 121.121 355.905 118.49C352.235 115.694 347.798 114.297 342.591 114.297C337.501 114.297 333.182 115.694 329.631 118.49C326.081 121.285 323.241 124.985 321.11 129.59C318.982 134.194 317.442 139.456 316.496 145.376C315.549 151.296 315.075 157.381 315.075 163.629ZM386.082 226.283H370.994V209.016H370.639C368.154 216.086 364.247 221.183 358.922 224.309C353.597 227.433 347.739 228.995 341.348 228.995C334.247 228.995 328.034 227.186 322.709 223.568C317.502 219.95 313.123 215.1 309.573 209.016C306.14 202.931 303.537 195.86 301.762 187.802C299.986 179.745 299.098 171.194 299.098 162.149C299.098 153.105 299.927 144.554 301.583 136.496C303.36 128.439 305.962 121.45 309.395 115.53C312.946 109.446 317.325 104.677 322.53 101.223C327.857 97.6058 334.01 95.7968 340.992 95.7968C343.36 95.7968 345.905 96.1257 348.627 96.7835C351.349 97.4412 354.069 98.5923 356.791 100.237C359.513 101.717 362.058 103.772 364.426 106.403C366.911 108.87 368.982 111.994 370.639 115.777H370.994V50.1641H386.082V226.283Z" fill="black"/>
<path d="M397.404 98.757H412.493V116.023H412.847C415.332 108.952 419.237 103.855 424.564 100.73C429.889 97.4413 435.748 95.7969 442.138 95.7969C449.239 95.7969 455.392 97.6059 460.6 101.224C465.924 104.841 470.303 109.774 473.736 116.023C477.287 122.108 479.949 129.179 481.724 137.236C483.5 145.294 484.386 153.845 484.386 162.889C484.386 171.934 483.5 180.485 481.724 188.543C480.067 196.601 477.464 203.672 473.914 209.755C470.481 215.675 466.102 220.361 460.777 223.815C455.569 227.269 449.476 228.996 442.492 228.996C440.244 228.996 437.699 228.666 434.859 228.01C432.137 227.352 429.415 226.283 426.693 224.803C423.971 223.321 421.368 221.349 418.883 218.882C416.515 216.252 414.504 213.045 412.847 209.262H412.493V274.875H397.404V98.757ZM468.41 161.409C468.41 155.49 467.818 149.734 466.635 144.143C465.57 138.387 463.853 133.29 461.488 128.85C459.239 124.41 456.28 120.874 452.61 118.243C449.062 115.612 444.86 114.297 440.007 114.297C434.919 114.297 430.6 115.695 427.049 118.49C423.499 121.286 420.599 124.985 418.351 129.59C416.101 134.03 414.444 139.128 413.381 144.883C412.433 150.638 411.959 156.476 411.959 162.396C411.959 168.645 412.493 174.729 413.558 180.649C414.623 186.405 416.28 191.502 418.528 195.943C420.894 200.382 423.913 204 427.581 206.796C431.249 209.427 435.688 210.741 440.895 210.741C446.103 210.741 450.422 209.344 453.855 206.549C457.403 203.753 460.245 200.054 462.374 195.449C464.505 190.845 466.044 185.582 466.99 179.663C467.938 173.743 468.41 167.658 468.41 161.409Z" fill="black"/>
<path d="M490.561 50.1641H505.649V226.283H490.561V50.1641Z" fill="black"/>
<path d="M592.575 226.283H578.375V206.055H578.018C574.824 213.948 570.74 219.786 565.769 223.568C560.799 227.186 554.94 228.995 548.196 228.995C542.16 228.995 537.13 227.927 533.107 225.789C529.083 223.487 525.829 220.28 523.344 216.169C520.859 212.057 519.082 207.207 518.017 201.615C517.071 195.86 516.597 189.529 516.597 182.622V98.7568H531.687V185.089C531.687 192.983 533.344 199.23 536.658 203.836C539.971 208.439 544.528 210.741 550.326 210.741C554.94 210.741 558.905 209.755 562.219 207.782C565.652 205.81 568.492 203.014 570.74 199.396C572.988 195.779 574.647 191.584 575.71 186.816C576.895 181.882 577.486 176.538 577.486 170.783V98.7568H592.575V226.283Z" fill="black"/>
<path d="M681.984 215.428C681.984 236.314 678.553 251.934 671.689 262.295C664.825 272.654 654.056 277.835 639.38 277.835C635.12 277.835 630.741 277.177 626.245 275.861C621.866 274.545 617.841 272.407 614.173 269.448C610.622 266.488 607.663 262.623 605.298 257.856C602.93 253.086 601.628 247.248 601.391 240.342H616.481C616.598 244.124 617.427 247.331 618.966 249.962C620.623 252.592 622.575 254.73 624.823 256.376C627.19 258.02 629.735 259.17 632.458 259.828C635.18 260.651 637.782 261.062 640.268 261.062C645.238 261.062 649.44 259.828 652.871 257.362C656.304 255.06 659.144 251.77 661.392 247.495C663.64 243.383 665.239 238.369 666.185 232.449C667.25 226.528 667.782 220.033 667.782 212.962V204.575H667.428C664.825 212.468 660.86 218.307 655.533 222.088C650.328 225.706 644.764 227.516 638.848 227.516C631.984 227.516 626.008 225.789 620.918 222.335C615.83 218.882 611.568 214.278 608.137 208.523C604.704 202.603 602.102 195.779 600.327 188.049C598.67 180.156 597.84 171.852 597.84 163.136C597.84 155.572 598.551 147.843 599.971 139.95C601.391 131.892 603.758 124.657 607.072 118.243C610.385 111.666 614.764 106.321 620.209 102.21C625.651 97.9347 632.338 95.7969 640.268 95.7969C646.066 95.7969 651.391 97.6059 656.244 101.224C661.097 104.677 664.883 109.939 667.605 117.01H667.782V98.757H681.984V215.428ZM639.736 209.262C644.706 209.262 648.906 207.865 652.339 205.069C655.89 202.109 658.729 198.328 660.86 193.722C662.991 188.954 664.528 183.609 665.476 177.689C666.539 171.769 667.073 165.849 667.073 159.93C667.073 154.339 666.599 148.83 665.653 143.403C664.705 137.977 663.168 133.125 661.037 128.85C659.026 124.41 656.362 120.874 653.048 118.243C649.734 115.612 645.712 114.297 640.978 114.297C636.126 114.297 631.984 115.612 628.551 118.243C625.119 120.71 622.28 124.081 620.032 128.356C617.901 132.632 616.302 137.565 615.238 143.156C614.291 148.747 613.817 154.585 613.817 160.669C613.817 166.425 614.231 172.181 615.061 177.936C615.888 183.691 617.309 188.954 619.321 193.722C621.332 198.328 623.994 202.109 627.308 205.069C630.623 207.865 634.766 209.262 639.736 209.262Z" fill="black"/>
</mask>
<g mask="url(#mask3_97_1278)">
<path d="M315.075 163.629C315.075 169.549 315.608 175.387 316.674 181.143C317.857 186.734 319.573 191.749 321.821 196.19C324.187 200.629 327.146 204.164 330.697 206.796C334.365 209.427 338.626 210.741 343.477 210.741C348.567 210.741 352.886 209.344 356.437 206.549C359.987 203.753 362.887 200.135 365.135 195.696C367.383 191.091 368.982 185.911 369.928 180.156C370.994 174.4 371.525 168.563 371.525 162.643C371.525 156.394 370.994 150.392 369.928 144.636C368.863 138.716 367.146 133.536 364.781 129.096C362.532 124.657 359.573 121.121 355.905 118.49C352.235 115.694 347.798 114.297 342.591 114.297C337.501 114.297 333.182 115.694 329.631 118.49C326.081 121.285 323.241 124.985 321.11 129.59C318.982 134.194 317.442 139.456 316.496 145.376C315.549 151.296 315.075 157.38 315.075 163.629ZM386.082 226.283H370.994V209.016H370.639C368.154 216.086 364.247 221.183 358.922 224.309C353.597 227.433 347.739 228.995 341.348 228.995C334.247 228.995 328.034 227.186 322.709 223.568C317.502 219.95 313.123 215.1 309.573 209.016C306.14 202.931 303.537 195.86 301.762 187.802C299.986 179.745 299.098 171.194 299.098 162.149C299.098 153.105 299.927 144.554 301.583 136.496C303.36 128.439 305.962 121.45 309.395 115.53C312.946 109.446 317.325 104.677 322.53 101.223C327.857 97.6058 334.01 95.7968 340.992 95.7968C343.36 95.7968 345.905 96.1257 348.627 96.7835C351.349 97.4412 354.069 98.5923 356.791 100.237C359.513 101.717 362.058 103.772 364.426 106.403C366.911 108.87 368.982 111.994 370.639 115.777H370.994V50.1641H386.082V226.283Z" stroke="#C4C4C4" stroke-width="86"/>
</g>
<mask id="mask4_97_1278" style="mask-type:luminance" maskUnits="userSpaceOnUse" x="5" y="3" width="724" height="322">
<path d="M728.221 3.8584H5.77954V324.141H728.221V3.8584Z" fill="white"/>
<path d="M52.0159 98.757H66.2173V117.503H66.5724C73.4363 103.032 83.318 95.7969 96.2177 95.7969C101.898 95.7969 107.046 97.4413 111.662 100.73C116.277 104.019 119.532 109.61 121.425 117.503C124.502 110.597 128.526 105.252 133.496 101.47C138.585 97.6881 144.147 95.7969 150.183 95.7969C154.798 95.7969 158.94 96.537 162.609 98.0169C166.396 99.3325 169.591 101.47 172.195 104.43C174.917 107.39 176.988 111.255 178.408 116.023C179.947 120.628 180.716 126.219 180.716 132.796V226.283H165.627V142.663C165.627 138.716 165.39 135.016 164.917 131.563C164.443 128.11 163.556 125.15 162.254 122.683C160.952 120.052 159.118 117.997 156.751 116.517C154.503 115.037 151.544 114.297 147.875 114.297C140.42 114.297 134.561 117.257 130.301 123.177C126.041 129.097 123.91 136.99 123.91 146.856V226.283H108.821V142.663C108.821 138.552 108.526 134.77 107.934 131.317C107.46 127.863 106.573 124.903 105.271 122.437C103.969 119.806 102.194 117.832 99.9455 116.517C97.8154 115.037 95.0342 114.297 91.6022 114.297C87.2234 114.297 83.4365 115.53 80.2412 117.997C77.1641 120.463 74.6198 123.423 72.6079 126.877C70.7144 130.33 69.2941 133.948 68.3475 137.73C67.5191 141.348 67.1049 144.39 67.1049 146.856V226.283H52.0159V98.757Z" fill="black"/>
<path d="M206.907 75.8171H191.818V50.1641H206.907V75.8171ZM191.818 98.7569H206.907V226.283H191.818V98.7569Z" fill="black"/>
<path d="M217.855 98.757H232.058V118.983H232.412C238.685 103.526 248.626 95.7969 262.235 95.7969C268.27 95.7969 273.3 96.948 277.325 99.2503C281.347 101.553 284.601 104.759 287.086 108.87C289.574 112.981 291.288 117.915 292.236 123.67C293.301 129.261 293.833 135.51 293.833 142.416V226.283H278.745V139.95C278.745 132.057 277.088 125.808 273.774 121.203C270.461 116.599 265.905 114.297 260.106 114.297C255.49 114.297 251.465 115.283 248.034 117.257C244.721 119.23 241.939 122.025 239.691 125.643C237.442 129.261 235.726 133.537 234.543 138.47C233.478 143.239 232.944 148.501 232.944 154.256V226.283H217.855V98.757Z" fill="black"/>
<path d="M315.075 163.629C315.075 169.549 315.608 175.387 316.674 181.143C317.857 186.734 319.573 191.749 321.821 196.19C324.187 200.629 327.146 204.164 330.697 206.796C334.365 209.427 338.626 210.741 343.477 210.741C348.567 210.741 352.886 209.344 356.437 206.549C359.987 203.753 362.887 200.135 365.135 195.696C367.383 191.091 368.982 185.911 369.928 180.156C370.994 174.4 371.525 168.563 371.525 162.643C371.525 156.394 370.994 150.392 369.928 144.636C368.863 138.716 367.146 133.536 364.781 129.096C362.532 124.657 359.573 121.121 355.905 118.49C352.235 115.694 347.798 114.297 342.591 114.297C337.501 114.297 333.182 115.694 329.631 118.49C326.081 121.285 323.241 124.985 321.11 129.59C318.982 134.194 317.442 139.456 316.496 145.376C315.549 151.296 315.075 157.381 315.075 163.629ZM386.082 226.283H370.994V209.016H370.639C368.154 216.086 364.247 221.183 358.922 224.309C353.597 227.433 347.739 228.995 341.348 228.995C334.247 228.995 328.034 227.186 322.709 223.568C317.502 219.95 313.123 215.1 309.573 209.016C306.14 202.931 303.537 195.86 301.762 187.802C299.986 179.745 299.098 171.194 299.098 162.149C299.098 153.105 299.927 144.554 301.583 136.496C303.36 128.439 305.962 121.45 309.395 115.53C312.946 109.446 317.325 104.677 322.53 101.223C327.857 97.6058 334.01 95.7968 340.992 95.7968C343.36 95.7968 345.905 96.1257 348.627 96.7835C351.349 97.4412 354.069 98.5923 356.791 100.237C359.513 101.717 362.058 103.772 364.426 106.403C366.911 108.87 368.982 111.994 370.639 115.777H370.994V50.1641H386.082V226.283Z" fill="black"/>
<path d="M397.404 98.757H412.493V116.023H412.847C415.332 108.952 419.237 103.855 424.564 100.73C429.889 97.4413 435.748 95.7969 442.138 95.7969C449.239 95.7969 455.392 97.6059 460.6 101.224C465.924 104.841 470.303 109.774 473.736 116.023C477.287 122.108 479.949 129.179 481.724 137.236C483.5 145.294 484.386 153.845 484.386 162.889C484.386 171.934 483.5 180.485 481.724 188.543C480.067 196.601 477.464 203.672 473.914 209.755C470.481 215.675 466.102 220.361 460.777 223.815C455.569 227.269 449.476 228.996 442.492 228.996C440.244 228.996 437.699 228.666 434.859 228.01C432.137 227.352 429.415 226.283 426.693 224.803C423.971 223.321 421.368 221.349 418.883 218.882C416.515 216.252 414.504 213.045 412.847 209.262H412.493V274.875H397.404V98.757ZM468.41 161.409C468.41 155.49 467.818 149.734 466.635 144.143C465.57 138.387 463.853 133.29 461.488 128.85C459.239 124.41 456.28 120.874 452.61 118.243C449.062 115.612 444.86 114.297 440.007 114.297C434.919 114.297 430.6 115.695 427.049 118.49C423.499 121.286 420.599 124.985 418.351 129.59C416.101 134.03 414.444 139.128 413.381 144.883C412.433 150.638 411.959 156.476 411.959 162.396C411.959 168.645 412.493 174.729 413.558 180.649C414.623 186.405 416.28 191.502 418.528 195.943C420.894 200.382 423.913 204 427.581 206.796C431.249 209.427 435.688 210.741 440.895 210.741C446.103 210.741 450.422 209.344 453.855 206.549C457.403 203.753 460.245 200.054 462.374 195.449C464.505 190.845 466.044 185.582 466.99 179.663C467.938 173.743 468.41 167.658 468.41 161.409Z" fill="black"/>
<path d="M490.561 50.1641H505.649V226.283H490.561V50.1641Z" fill="black"/>
<path d="M592.575 226.283H578.375V206.055H578.018C574.824 213.948 570.74 219.786 565.769 223.568C560.799 227.186 554.94 228.995 548.196 228.995C542.16 228.995 537.13 227.927 533.107 225.789C529.083 223.487 525.829 220.28 523.344 216.169C520.859 212.057 519.082 207.207 518.017 201.615C517.071 195.86 516.597 189.529 516.597 182.622V98.7568H531.687V185.089C531.687 192.983 533.344 199.23 536.658 203.836C539.971 208.439 544.528 210.741 550.326 210.741C554.94 210.741 558.905 209.755 562.219 207.782C565.652 205.81 568.492 203.014 570.74 199.396C572.988 195.779 574.647 191.584 575.71 186.816C576.895 181.882 577.486 176.538 577.486 170.783V98.7568H592.575V226.283Z" fill="black"/>
<path d="M681.984 215.428C681.984 236.314 678.553 251.934 671.689 262.295C664.825 272.654 654.056 277.835 639.38 277.835C635.12 277.835 630.741 277.177 626.245 275.861C621.866 274.545 617.841 272.407 614.173 269.448C610.622 266.488 607.663 262.623 605.298 257.856C602.93 253.086 601.628 247.248 601.391 240.342H616.481C616.598 244.124 617.427 247.331 618.966 249.962C620.623 252.592 622.575 254.73 624.823 256.376C627.19 258.02 629.735 259.17 632.458 259.828C635.18 260.651 637.782 261.062 640.268 261.062C645.238 261.062 649.44 259.828 652.871 257.362C656.304 255.06 659.144 251.77 661.392 247.495C663.64 243.383 665.239 238.369 666.185 232.449C667.25 226.528 667.782 220.033 667.782 212.962V204.575H667.428C664.825 212.468 660.86 218.307 655.533 222.088C650.328 225.706 644.764 227.516 638.848 227.516C631.984 227.516 626.008 225.789 620.918 222.335C615.83 218.882 611.568 214.278 608.137 208.523C604.704 202.603 602.102 195.779 600.327 188.049C598.67 180.156 597.84 171.852 597.84 163.136C597.84 155.572 598.551 147.843 599.971 139.95C601.391 131.892 603.758 124.657 607.072 118.243C610.385 111.666 614.764 106.321 620.209 102.21C625.651 97.9347 632.338 95.7969 640.268 95.7969C646.066 95.7969 651.391 97.6059 656.244 101.224C661.097 104.677 664.883 109.939 667.605 117.01H667.782V98.757H681.984V215.428ZM639.736 209.262C644.706 209.262 648.906 207.865 652.339 205.069C655.89 202.109 658.729 198.328 660.86 193.722C662.991 188.954 664.528 183.609 665.476 177.689C666.539 171.769 667.073 165.849 667.073 159.93C667.073 154.339 666.599 148.83 665.653 143.403C664.705 137.977 663.168 133.125 661.037 128.85C659.026 124.41 656.362 120.874 653.048 118.243C649.734 115.612 645.712 114.297 640.978 114.297C636.126 114.297 631.984 115.612 628.551 118.243C625.119 120.71 622.28 124.081 620.032 128.356C617.901 132.632 616.302 137.565 615.238 143.156C614.291 148.747 613.817 154.585 613.817 160.669C613.817 166.425 614.231 172.181 615.061 177.936C615.888 183.691 617.309 188.954 619.321 193.722C621.332 198.328 623.994 202.109 627.308 205.069C630.623 207.865 634.766 209.262 639.736 209.262Z" fill="black"/>
</mask>
<g mask="url(#mask4_97_1278)">
<path d="M397.404 98.757H412.493V116.023H412.847C415.332 108.952 419.237 103.855 424.564 100.73C429.889 97.4413 435.748 95.7969 442.138 95.7969C449.239 95.7969 455.392 97.6059 460.6 101.224C465.924 104.841 470.303 109.774 473.736 116.023C477.287 122.108 479.949 129.179 481.724 137.236C483.5 145.294 484.386 153.845 484.386 162.889C484.386 171.934 483.5 180.485 481.724 188.543C480.067 196.601 477.464 203.672 473.914 209.755C470.481 215.675 466.102 220.361 460.777 223.815C455.569 227.269 449.476 228.996 442.492 228.996C440.244 228.996 437.699 228.666 434.859 228.01C432.137 227.352 429.415 226.283 426.693 224.803C423.971 223.321 421.368 221.349 418.883 218.882C416.515 216.252 414.504 213.045 412.847 209.262H412.493V274.875H397.404V98.757ZM468.41 161.409C468.41 155.49 467.818 149.734 466.635 144.143C465.57 138.387 463.853 133.29 461.488 128.85C459.239 124.41 456.28 120.874 452.61 118.243C449.062 115.612 444.86 114.297 440.007 114.297C434.919 114.297 430.6 115.695 427.049 118.49C423.499 121.286 420.599 124.985 418.351 129.59C416.101 134.03 414.444 139.128 413.381 144.883C412.433 150.638 411.959 156.476 411.959 162.396C411.959 168.645 412.493 174.729 413.558 180.649C414.623 186.405 416.28 191.502 418.528 195.943C420.894 200.382 423.913 204 427.581 206.796C431.249 209.427 435.688 210.741 440.895 210.741C446.103 210.741 450.422 209.344 453.855 206.549C457.404 203.753 460.245 200.054 462.374 195.449C464.505 190.845 466.044 185.582 466.99 179.663C467.938 173.743 468.41 167.658 468.41 161.409Z" stroke="#C4C4C4" stroke-width="86"/>
</g>
<mask id="mask5_97_1278" style="mask-type:luminance" maskUnits="userSpaceOnUse" x="5" y="3" width="724" height="322">
<path d="M728.221 3.8584H5.77954V324.141H728.221V3.8584Z" fill="white"/>
<path d="M52.0159 98.757H66.2173V117.503H66.5724C73.4363 103.032 83.318 95.7969 96.2177 95.7969C101.898 95.7969 107.046 97.4413 111.662 100.73C116.277 104.019 119.532 109.61 121.425 117.503C124.502 110.597 128.526 105.252 133.496 101.47C138.585 97.6881 144.147 95.7969 150.183 95.7969C154.798 95.7969 158.94 96.537 162.609 98.0169C166.396 99.3325 169.591 101.47 172.195 104.43C174.917 107.39 176.988 111.255 178.408 116.023C179.947 120.628 180.716 126.219 180.716 132.796V226.283H165.627V142.663C165.627 138.716 165.39 135.016 164.917 131.563C164.443 128.11 163.556 125.15 162.254 122.683C160.952 120.052 159.118 117.997 156.751 116.517C154.503 115.037 151.544 114.297 147.875 114.297C140.42 114.297 134.561 117.257 130.301 123.177C126.041 129.097 123.91 136.99 123.91 146.856V226.283H108.821V142.663C108.821 138.552 108.526 134.77 107.934 131.317C107.46 127.863 106.573 124.903 105.271 122.437C103.969 119.806 102.194 117.832 99.9455 116.517C97.8154 115.037 95.0342 114.297 91.6022 114.297C87.2234 114.297 83.4365 115.53 80.2412 117.997C77.1641 120.463 74.6198 123.423 72.6079 126.877C70.7144 130.33 69.2941 133.948 68.3475 137.73C67.5191 141.348 67.1049 144.39 67.1049 146.856V226.283H52.0159V98.757Z" fill="black"/>
<path d="M206.907 75.8171H191.818V50.1641H206.907V75.8171ZM191.818 98.7569H206.907V226.283H191.818V98.7569Z" fill="black"/>
<path d="M217.855 98.757H232.058V118.983H232.412C238.685 103.526 248.626 95.7969 262.235 95.7969C268.27 95.7969 273.3 96.948 277.325 99.2503C281.347 101.553 284.601 104.759 287.086 108.87C289.574 112.981 291.288 117.915 292.236 123.67C293.301 129.261 293.833 135.51 293.833 142.416V226.283H278.745V139.95C278.745 132.057 277.088 125.808 273.774 121.203C270.461 116.599 265.905 114.297 260.106 114.297C255.49 114.297 251.465 115.283 248.034 117.257C244.721 119.23 241.939 122.025 239.691 125.643C237.442 129.261 235.726 133.537 234.543 138.47C233.478 143.239 232.944 148.501 232.944 154.256V226.283H217.855V98.757Z" fill="black"/>
<path d="M315.075 163.629C315.075 169.549 315.608 175.387 316.674 181.143C317.857 186.734 319.573 191.749 321.821 196.19C324.187 200.629 327.146 204.164 330.697 206.796C334.365 209.427 338.626 210.741 343.477 210.741C348.567 210.741 352.886 209.344 356.437 206.549C359.987 203.753 362.887 200.135 365.135 195.696C367.383 191.091 368.982 185.911 369.928 180.156C370.994 174.4 371.525 168.563 371.525 162.643C371.525 156.394 370.994 150.392 369.928 144.636C368.863 138.716 367.146 133.536 364.781 129.096C362.532 124.657 359.573 121.121 355.905 118.49C352.235 115.694 347.798 114.297 342.591 114.297C337.501 114.297 333.182 115.694 329.631 118.49C326.081 121.285 323.241 124.985 321.11 129.59C318.982 134.194 317.442 139.456 316.496 145.376C315.549 151.296 315.075 157.381 315.075 163.629ZM386.082 226.283H370.994V209.016H370.639C368.154 216.086 364.247 221.183 358.922 224.309C353.597 227.433 347.739 228.995 341.348 228.995C334.247 228.995 328.034 227.186 322.709 223.568C317.502 219.95 313.123 215.1 309.573 209.016C306.14 202.931 303.537 195.86 301.762 187.802C299.986 179.745 299.098 171.194 299.098 162.149C299.098 153.105 299.927 144.554 301.583 136.496C303.36 128.439 305.962 121.45 309.395 115.53C312.946 109.446 317.325 104.677 322.53 101.223C327.857 97.6058 334.01 95.7968 340.992 95.7968C343.36 95.7968 345.905 96.1257 348.627 96.7835C351.349 97.4412 354.069 98.5923 356.791 100.237C359.513 101.717 362.058 103.772 364.426 106.403C366.911 108.87 368.982 111.994 370.639 115.777H370.994V50.1641H386.082V226.283Z" fill="black"/>
<path d="M397.404 98.757H412.493V116.023H412.847C415.332 108.952 419.237 103.855 424.564 100.73C429.889 97.4413 435.748 95.7969 442.138 95.7969C449.239 95.7969 455.392 97.6059 460.6 101.224C465.924 104.841 470.303 109.774 473.736 116.023C477.287 122.108 479.949 129.179 481.724 137.236C483.5 145.294 484.386 153.845 484.386 162.889C484.386 171.934 483.5 180.485 481.724 188.543C480.067 196.601 477.464 203.672 473.914 209.755C470.481 215.675 466.102 220.361 460.777 223.815C455.569 227.269 449.476 228.996 442.492 228.996C440.244 228.996 437.699 228.666 434.859 228.01C432.137 227.352 429.415 226.283 426.693 224.803C423.971 223.321 421.368 221.349 418.883 218.882C416.515 216.252 414.504 213.045 412.847 209.262H412.493V274.875H397.404V98.757ZM468.41 161.409C468.41 155.49 467.818 149.734 466.635 144.143C465.57 138.387 463.853 133.29 461.488 128.85C459.239 124.41 456.28 120.874 452.61 118.243C449.062 115.612 444.86 114.297 440.007 114.297C434.919 114.297 430.6 115.695 427.049 118.49C423.499 121.286 420.599 124.985 418.351 129.59C416.101 134.03 414.444 139.128 413.381 144.883C412.433 150.638 411.959 156.476 411.959 162.396C411.959 168.645 412.493 174.729 413.558 180.649C414.623 186.405 416.28 191.502 418.528 195.943C420.894 200.382 423.913 204 427.581 206.796C431.249 209.427 435.688 210.741 440.895 210.741C446.103 210.741 450.422 209.344 453.855 206.549C457.403 203.753 460.245 200.054 462.374 195.449C464.505 190.845 466.044 185.582 466.99 179.663C467.938 173.743 468.41 167.658 468.41 161.409Z" fill="black"/>
<path d="M490.561 50.1641H505.649V226.283H490.561V50.1641Z" fill="black"/>
<path d="M592.575 226.283H578.375V206.055H578.018C574.824 213.948 570.74 219.786 565.769 223.568C560.799 227.186 554.94 228.995 548.196 228.995C542.16 228.995 537.13 227.927 533.107 225.789C529.083 223.487 525.829 220.28 523.344 216.169C520.859 212.057 519.082 207.207 518.017 201.615C517.071 195.86 516.597 189.529 516.597 182.622V98.7568H531.687V185.089C531.687 192.983 533.344 199.23 536.658 203.836C539.971 208.439 544.528 210.741 550.326 210.741C554.94 210.741 558.905 209.755 562.219 207.782C565.652 205.81 568.492 203.014 570.74 199.396C572.988 195.779 574.647 191.584 575.71 186.816C576.895 181.882 577.486 176.538 577.486 170.783V98.7568H592.575V226.283Z" fill="black"/>
<path d="M681.984 215.428C681.984 236.314 678.553 251.934 671.689 262.295C664.825 272.654 654.056 277.835 639.38 277.835C635.12 277.835 630.741 277.177 626.245 275.861C621.866 274.545 617.841 272.407 614.173 269.448C610.622 266.488 607.663 262.623 605.298 257.856C602.93 253.086 601.628 247.248 601.391 240.342H616.481C616.598 244.124 617.427 247.331 618.966 249.962C620.623 252.592 622.575 254.73 624.823 256.376C627.19 258.02 629.735 259.17 632.458 259.828C635.18 260.651 637.782 261.062 640.268 261.062C645.238 261.062 649.44 259.828 652.871 257.362C656.304 255.06 659.144 251.77 661.392 247.495C663.64 243.383 665.239 238.369 666.185 232.449C667.25 226.528 667.782 220.033 667.782 212.962V204.575H667.428C664.825 212.468 660.86 218.307 655.533 222.088C650.328 225.706 644.764 227.516 638.848 227.516C631.984 227.516 626.008 225.789 620.918 222.335C615.83 218.882 611.568 214.278 608.137 208.523C604.704 202.603 602.102 195.779 600.327 188.049C598.67 180.156 597.84 171.852 597.84 163.136C597.84 155.572 598.551 147.843 599.971 139.95C601.391 131.892 603.758 124.657 607.072 118.243C610.385 111.666 614.764 106.321 620.209 102.21C625.651 97.9347 632.338 95.7969 640.268 95.7969C646.066 95.7969 651.391 97.6059 656.244 101.224C661.097 104.677 664.883 109.939 667.605 117.01H667.782V98.757H681.984V215.428ZM639.736 209.262C644.706 209.262 648.906 207.865 652.339 205.069C655.89 202.109 658.729 198.328 660.86 193.722C662.991 188.954 664.528 183.609 665.476 177.689C666.539 171.769 667.073 165.849 667.073 159.93C667.073 154.339 666.599 148.83 665.653 143.403C664.705 137.977 663.168 133.125 661.037 128.85C659.026 124.41 656.362 120.874 653.048 118.243C649.734 115.612 645.712 114.297 640.978 114.297C636.126 114.297 631.984 115.612 628.551 118.243C625.119 120.71 622.28 124.081 620.032 128.356C617.901 132.632 616.302 137.565 615.238 143.156C614.291 148.747 613.817 154.585 613.817 160.669C613.817 166.425 614.231 172.181 615.061 177.936C615.888 183.691 617.309 188.954 619.321 193.722C621.332 198.328 623.994 202.109 627.308 205.069C630.623 207.865 634.766 209.262 639.736 209.262Z" fill="black"/>
</mask>
<g mask="url(#mask5_97_1278)">
<path d="M490.561 50.1641H505.649V226.283H490.561V50.1641Z" stroke="#C4C4C4" stroke-width="86"/>
</g>
<mask id="mask6_97_1278" style="mask-type:luminance" maskUnits="userSpaceOnUse" x="5" y="3" width="724" height="322">
<path d="M728.221 3.8584H5.77954V324.141H728.221V3.8584Z" fill="white"/>
<path d="M52.0159 98.757H66.2173V117.503H66.5724C73.4363 103.032 83.318 95.7969 96.2177 95.7969C101.898 95.7969 107.046 97.4413 111.662 100.73C116.277 104.019 119.532 109.61 121.425 117.503C124.502 110.597 128.526 105.252 133.496 101.47C138.585 97.6881 144.147 95.7969 150.183 95.7969C154.798 95.7969 158.94 96.537 162.609 98.0169C166.396 99.3325 169.591 101.47 172.195 104.43C174.917 107.39 176.988 111.255 178.408 116.023C179.947 120.628 180.716 126.219 180.716 132.796V226.283H165.627V142.663C165.627 138.716 165.39 135.016 164.917 131.563C164.443 128.11 163.556 125.15 162.254 122.683C160.952 120.052 159.118 117.997 156.751 116.517C154.503 115.037 151.544 114.297 147.875 114.297C140.42 114.297 134.561 117.257 130.301 123.177C126.041 129.097 123.91 136.99 123.91 146.856V226.283H108.821V142.663C108.821 138.552 108.526 134.77 107.934 131.317C107.46 127.863 106.573 124.903 105.271 122.437C103.969 119.806 102.194 117.832 99.9455 116.517C97.8154 115.037 95.0342 114.297 91.6022 114.297C87.2234 114.297 83.4365 115.53 80.2412 117.997C77.1641 120.463 74.6198 123.423 72.6079 126.877C70.7144 130.33 69.2941 133.948 68.3475 137.73C67.5191 141.348 67.1049 144.39 67.1049 146.856V226.283H52.0159V98.757Z" fill="black"/>
<path d="M206.907 75.8171H191.818V50.1641H206.907V75.8171ZM191.818 98.7569H206.907V226.283H191.818V98.7569Z" fill="black"/>
<path d="M217.855 98.757H232.058V118.983H232.412C238.685 103.526 248.626 95.7969 262.235 95.7969C268.27 95.7969 273.3 96.948 277.325 99.2503C281.347 101.553 284.601 104.759 287.086 108.87C289.574 112.981 291.288 117.915 292.236 123.67C293.301 129.261 293.833 135.51 293.833 142.416V226.283H278.745V139.95C278.745 132.057 277.088 125.808 273.774 121.203C270.461 116.599 265.905 114.297 260.106 114.297C255.49 114.297 251.465 115.283 248.034 117.257C244.721 119.23 241.939 122.025 239.691 125.643C237.442 129.261 235.726 133.537 234.543 138.47C233.478 143.239 232.944 148.501 232.944 154.256V226.283H217.855V98.757Z" fill="black"/>
<path d="M315.075 163.629C315.075 169.549 315.608 175.387 316.674 181.143C317.857 186.734 319.573 191.749 321.821 196.19C324.187 200.629 327.146 204.164 330.697 206.796C334.365 209.427 338.626 210.741 343.477 210.741C348.567 210.741 352.886 209.344 356.437 206.549C359.987 203.753 362.887 200.135 365.135 195.696C367.383 191.091 368.982 185.911 369.928 180.156C370.994 174.4 371.525 168.563 371.525 162.643C371.525 156.394 370.994 150.392 369.928 144.636C368.863 138.716 367.146 133.536 364.781 129.096C362.532 124.657 359.573 121.121 355.905 118.49C352.235 115.694 347.798 114.297 342.591 114.297C337.501 114.297 333.182 115.694 329.631 118.49C326.081 121.285 323.241 124.985 321.11 129.59C318.982 134.194 317.442 139.456 316.496 145.376C315.549 151.296 315.075 157.381 315.075 163.629ZM386.082 226.283H370.994V209.016H370.639C368.154 216.086 364.247 221.183 358.922 224.309C353.597 227.433 347.739 228.995 341.348 228.995C334.247 228.995 328.034 227.186 322.709 223.568C317.502 219.95 313.123 215.1 309.573 209.016C306.14 202.931 303.537 195.86 301.762 187.802C299.986 179.745 299.098 171.194 299.098 162.149C299.098 153.105 299.927 144.554 301.583 136.496C303.36 128.439 305.962 121.45 309.395 115.53C312.946 109.446 317.325 104.677 322.53 101.223C327.857 97.6058 334.01 95.7968 340.992 95.7968C343.36 95.7968 345.905 96.1257 348.627 96.7835C351.349 97.4412 354.069 98.5923 356.791 100.237C359.513 101.717 362.058 103.772 364.426 106.403C366.911 108.87 368.982 111.994 370.639 115.777H370.994V50.1641H386.082V226.283Z" fill="black"/>
<path d="M397.404 98.757H412.493V116.023H412.847C415.332 108.952 419.237 103.855 424.564 100.73C429.889 97.4413 435.748 95.7969 442.138 95.7969C449.239 95.7969 455.392 97.6059 460.6 101.224C465.924 104.841 470.303 109.774 473.736 116.023C477.287 122.108 479.949 129.179 481.724 137.236C483.5 145.294 484.386 153.845 484.386 162.889C484.386 171.934 483.5 180.485 481.724 188.543C480.067 196.601 477.464 203.672 473.914 209.755C470.481 215.675 466.102 220.361 460.777 223.815C455.569 227.269 449.476 228.996 442.492 228.996C440.244 228.996 437.699 228.666 434.859 228.01C432.137 227.352 429.415 226.283 426.693 224.803C423.971 223.321 421.368 221.349 418.883 218.882C416.515 216.252 414.504 213.045 412.847 209.262H412.493V274.875H397.404V98.757ZM468.41 161.409C468.41 155.49 467.818 149.734 466.635 144.143C465.57 138.387 463.853 133.29 461.488 128.85C459.239 124.41 456.28 120.874 452.61 118.243C449.062 115.612 444.86 114.297 440.007 114.297C434.919 114.297 430.6 115.695 427.049 118.49C423.499 121.286 420.599 124.985 418.351 129.59C416.101 134.03 414.444 139.128 413.381 144.883C412.433 150.638 411.959 156.476 411.959 162.396C411.959 168.645 412.493 174.729 413.558 180.649C414.623 186.405 416.28 191.502 418.528 195.943C420.894 200.382 423.913 204 427.581 206.796C431.249 209.427 435.688 210.741 440.895 210.741C446.103 210.741 450.422 209.344 453.855 206.549C457.403 203.753 460.245 200.054 462.374 195.449C464.505 190.845 466.044 185.582 466.99 179.663C467.938 173.743 468.41 167.658 468.41 161.409Z" fill="black"/>
<path d="M490.561 50.1641H505.649V226.283H490.561V50.1641Z" fill="black"/>
<path d="M592.575 226.283H578.375V206.055H578.018C574.824 213.948 570.74 219.786 565.769 223.568C560.799 227.186 554.94 228.995 548.196 228.995C542.16 228.995 537.13 227.927 533.107 225.789C529.083 223.487 525.829 220.28 523.344 216.169C520.859 212.057 519.082 207.207 518.017 201.615C517.071 195.86 516.597 189.529 516.597 182.622V98.7568H531.687V185.089C531.687 192.983 533.344 199.23 536.658 203.836C539.971 208.439 544.528 210.741 550.326 210.741C554.94 210.741 558.905 209.755 562.219 207.782C565.652 205.81 568.492 203.014 570.74 199.396C572.988 195.779 574.647 191.584 575.71 186.816C576.895 181.882 577.486 176.538 577.486 170.783V98.7568H592.575V226.283Z" fill="black"/>
<path d="M681.984 215.428C681.984 236.314 678.553 251.934 671.689 262.295C664.825 272.654 654.056 277.835 639.38 277.835C635.12 277.835 630.741 277.177 626.245 275.861C621.866 274.545 617.841 272.407 614.173 269.448C610.622 266.488 607.663 262.623 605.298 257.856C602.93 253.086 601.628 247.248 601.391 240.342H616.481C616.598 244.124 617.427 247.331 618.966 249.962C620.623 252.592 622.575 254.73 624.823 256.376C627.19 258.02 629.735 259.17 632.458 259.828C635.18 260.651 637.782 261.062 640.268 261.062C645.238 261.062 649.44 259.828 652.871 257.362C656.304 255.06 659.144 251.77 661.392 247.495C663.64 243.383 665.239 238.369 666.185 232.449C667.25 226.528 667.782 220.033 667.782 212.962V204.575H667.428C664.825 212.468 660.86 218.307 655.533 222.088C650.328 225.706 644.764 227.516 638.848 227.516C631.984 227.516 626.008 225.789 620.918 222.335C615.83 218.882 611.568 214.278 608.137 208.523C604.704 202.603 602.102 195.779 600.327 188.049C598.67 180.156 597.84 171.852 597.84 163.136C597.84 155.572 598.551 147.843 599.971 139.95C601.391 131.892 603.758 124.657 607.072 118.243C610.385 111.666 614.764 106.321 620.209 102.21C625.651 97.9347 632.338 95.7969 640.268 95.7969C646.066 95.7969 651.391 97.6059 656.244 101.224C661.097 104.677 664.883 109.939 667.605 117.01H667.782V98.757H681.984V215.428ZM639.736 209.262C644.706 209.262 648.906 207.865 652.339 205.069C655.89 202.109 658.729 198.328 660.86 193.722C662.991 188.954 664.528 183.609 665.476 177.689C666.539 171.769 667.073 165.849 667.073 159.93C667.073 154.339 666.599 148.83 665.653 143.403C664.705 137.977 663.168 133.125 661.037 128.85C659.026 124.41 656.362 120.874 653.048 118.243C649.734 115.612 645.712 114.297 640.978 114.297C636.126 114.297 631.984 115.612 628.551 118.243C625.119 120.71 622.28 124.081 620.032 128.356C617.901 132.632 616.302 137.565 615.238 143.156C614.291 148.747 613.817 154.585 613.817 160.669C613.817 166.425 614.231 172.181 615.061 177.936C615.888 183.691 617.309 188.954 619.321 193.722C621.332 198.328 623.994 202.109 627.308 205.069C630.623 207.865 634.766 209.262 639.736 209.262Z" fill="black"/>
</mask>
<g mask="url(#mask6_97_1278)">
<path d="M592.575 226.283H578.375V206.055H578.018C574.824 213.948 570.74 219.786 565.769 223.568C560.799 227.186 554.94 228.995 548.196 228.995C542.16 228.995 537.13 227.927 533.107 225.789C529.083 223.487 525.829 220.28 523.344 216.169C520.859 212.057 519.082 207.207 518.017 201.615C517.071 195.86 516.597 189.529 516.597 182.622V98.7568H531.687V185.089C531.687 192.983 533.344 199.23 536.658 203.836C539.971 208.439 544.528 210.741 550.326 210.741C554.94 210.741 558.905 209.755 562.219 207.782C565.652 205.81 568.492 203.014 570.74 199.396C572.988 195.779 574.647 191.584 575.71 186.816C576.895 181.882 577.486 176.538 577.486 170.783V98.7568H592.575V226.283Z" stroke="#C4C4C4" stroke-width="86"/>
</g>
<mask id="mask7_97_1278" style="mask-type:luminance" maskUnits="userSpaceOnUse" x="5" y="3" width="724" height="322">
<path d="M728.221 3.8584H5.77954V324.141H728.221V3.8584Z" fill="white"/>
<path d="M52.0159 98.757H66.2173V117.503H66.5724C73.4363 103.032 83.318 95.7969 96.2177 95.7969C101.898 95.7969 107.046 97.4413 111.662 100.73C116.277 104.019 119.532 109.61 121.425 117.503C124.502 110.597 128.526 105.252 133.496 101.47C138.585 97.6881 144.147 95.7969 150.183 95.7969C154.798 95.7969 158.94 96.537 162.609 98.0169C166.396 99.3325 169.591 101.47 172.195 104.43C174.917 107.39 176.988 111.255 178.408 116.023C179.947 120.628 180.716 126.219 180.716 132.796V226.283H165.627V142.663C165.627 138.716 165.39 135.016 164.917 131.563C164.443 128.11 163.556 125.15 162.254 122.683C160.952 120.052 159.118 117.997 156.751 116.517C154.503 115.037 151.544 114.297 147.875 114.297C140.42 114.297 134.561 117.257 130.301 123.177C126.041 129.097 123.91 136.99 123.91 146.856V226.283H108.821V142.663C108.821 138.552 108.526 134.77 107.934 131.317C107.46 127.863 106.573 124.903 105.271 122.437C103.969 119.806 102.194 117.832 99.9455 116.517C97.8154 115.037 95.0342 114.297 91.6022 114.297C87.2234 114.297 83.4365 115.53 80.2412 117.997C77.1641 120.463 74.6198 123.423 72.6079 126.877C70.7144 130.33 69.2941 133.948 68.3475 137.73C67.5191 141.348 67.1049 144.39 67.1049 146.856V226.283H52.0159V98.757Z" fill="black"/>
<path d="M206.907 75.8171H191.818V50.1641H206.907V75.8171ZM191.818 98.7569H206.907V226.283H191.818V98.7569Z" fill="black"/>
<path d="M217.855 98.757H232.058V118.983H232.412C238.685 103.526 248.626 95.7969 262.235 95.7969C268.27 95.7969 273.3 96.948 277.325 99.2503C281.347 101.553 284.601 104.759 287.086 108.87C289.574 112.981 291.288 117.915 292.236 123.67C293.301 129.261 293.833 135.51 293.833 142.416V226.283H278.745V139.95C278.745 132.057 277.088 125.808 273.774 121.203C270.461 116.599 265.905 114.297 260.106 114.297C255.49 114.297 251.465 115.283 248.034 117.257C244.721 119.23 241.939 122.025 239.691 125.643C237.442 129.261 235.726 133.537 234.543 138.47C233.478 143.239 232.944 148.501 232.944 154.256V226.283H217.855V98.757Z" fill="black"/>
<path d="M315.075 163.629C315.075 169.549 315.608 175.387 316.674 181.143C317.857 186.734 319.573 191.749 321.821 196.19C324.187 200.629 327.146 204.164 330.697 206.796C334.365 209.427 338.626 210.741 343.477 210.741C348.567 210.741 352.886 209.344 356.437 206.549C359.987 203.753 362.887 200.135 365.135 195.696C367.383 191.091 368.982 185.911 369.928 180.156C370.994 174.4 371.525 168.563 371.525 162.643C371.525 156.394 370.994 150.392 369.928 144.636C368.863 138.716 367.146 133.536 364.781 129.096C362.532 124.657 359.573 121.121 355.905 118.49C352.235 115.694 347.798 114.297 342.591 114.297C337.501 114.297 333.182 115.694 329.631 118.49C326.081 121.285 323.241 124.985 321.11 129.59C318.982 134.194 317.442 139.456 316.496 145.376C315.549 151.296 315.075 157.381 315.075 163.629ZM386.082 226.283H370.994V209.016H370.639C368.154 216.086 364.247 221.183 358.922 224.309C353.597 227.433 347.739 228.995 341.348 228.995C334.247 228.995 328.034 227.186 322.709 223.568C317.502 219.95 313.123 215.1 309.573 209.016C306.14 202.931 303.537 195.86 301.762 187.802C299.986 179.745 299.098 171.194 299.098 162.149C299.098 153.105 299.927 144.554 301.583 136.496C303.36 128.439 305.962 121.45 309.395 115.53C312.946 109.446 317.325 104.677 322.53 101.223C327.857 97.6058 334.01 95.7968 340.992 95.7968C343.36 95.7968 345.905 96.1257 348.627 96.7835C351.349 97.4412 354.069 98.5923 356.791 100.237C359.513 101.717 362.058 103.772 364.426 106.403C366.911 108.87 368.982 111.994 370.639 115.777H370.994V50.1641H386.082V226.283Z" fill="black"/>
<path d="M397.404 98.757H412.493V116.023H412.847C415.332 108.952 419.237 103.855 424.564 100.73C429.889 97.4413 435.748 95.7969 442.138 95.7969C449.239 95.7969 455.392 97.6059 460.6 101.224C465.924 104.841 470.303 109.774 473.736 116.023C477.287 122.108 479.949 129.179 481.724 137.236C483.5 145.294 484.386 153.845 484.386 162.889C484.386 171.934 483.5 180.485 481.724 188.543C480.067 196.601 477.464 203.672 473.914 209.755C470.481 215.675 466.102 220.361 460.777 223.815C455.569 227.269 449.476 228.996 442.492 228.996C440.244 228.996 437.699 228.666 434.859 228.01C432.137 227.352 429.415 226.283 426.693 224.803C423.971 223.321 421.368 221.349 418.883 218.882C416.515 216.252 414.504 213.045 412.847 209.262H412.493V274.875H397.404V98.757ZM468.41 161.409C468.41 155.49 467.818 149.734 466.635 144.143C465.57 138.387 463.853 133.29 461.488 128.85C459.239 124.41 456.28 120.874 452.61 118.243C449.062 115.612 444.86 114.297 440.007 114.297C434.919 114.297 430.6 115.695 427.049 118.49C423.499 121.286 420.599 124.985 418.351 129.59C416.101 134.03 414.444 139.128 413.381 144.883C412.433 150.638 411.959 156.476 411.959 162.396C411.959 168.645 412.493 174.729 413.558 180.649C414.623 186.405 416.28 191.502 418.528 195.943C420.894 200.382 423.913 204 427.581 206.796C431.249 209.427 435.688 210.741 440.895 210.741C446.103 210.741 450.422 209.344 453.855 206.549C457.403 203.753 460.245 200.054 462.374 195.449C464.505 190.845 466.044 185.582 466.99 179.663C467.938 173.743 468.41 167.658 468.41 161.409Z" fill="black"/>
<path d="M490.561 50.1641H505.649V226.283H490.561V50.1641Z" fill="black"/>
<path d="M592.575 226.283H578.375V206.055H578.018C574.824 213.948 570.74 219.786 565.769 223.568C560.799 227.186 554.94 228.995 548.196 228.995C542.16 228.995 537.13 227.927 533.107 225.789C529.083 223.487 525.829 220.28 523.344 216.169C520.859 212.057 519.082 207.207 518.017 201.615C517.071 195.86 516.597 189.529 516.597 182.622V98.7568H531.687V185.089C531.687 192.983 533.344 199.23 536.658 203.836C539.971 208.439 544.528 210.741 550.326 210.741C554.94 210.741 558.905 209.755 562.219 207.782C565.652 205.81 568.492 203.014 570.74 199.396C572.988 195.779 574.647 191.584 575.71 186.816C576.895 181.882 577.486 176.538 577.486 170.783V98.7568H592.575V226.283Z" fill="black"/>
<path d="M681.984 215.428C681.984 236.314 678.553 251.934 671.689 262.295C664.825 272.654 654.056 277.835 639.38 277.835C635.12 277.835 630.741 277.177 626.245 275.861C621.866 274.545 617.841 272.407 614.173 269.448C610.622 266.488 607.663 262.623 605.298 257.856C602.93 253.086 601.628 247.248 601.391 240.342H616.481C616.598 244.124 617.427 247.331 618.966 249.962C620.623 252.592 622.575 254.73 624.823 256.376C627.19 258.02 629.735 259.17 632.458 259.828C635.18 260.651 637.782 261.062 640.268 261.062C645.238 261.062 649.44 259.828 652.871 257.362C656.304 255.06 659.144 251.77 661.392 247.495C663.64 243.383 665.239 238.369 666.185 232.449C667.25 226.528 667.782 220.033 667.782 212.962V204.575H667.428C664.825 212.468 660.86 218.307 655.533 222.088C650.328 225.706 644.764 227.516 638.848 227.516C631.984 227.516 626.008 225.789 620.918 222.335C615.83 218.882 611.568 214.278 608.137 208.523C604.704 202.603 602.102 195.779 600.327 188.049C598.67 180.156 597.84 171.852 597.84 163.136C597.84 155.572 598.551 147.843 599.971 139.95C601.391 131.892 603.758 124.657 607.072 118.243C610.385 111.666 614.764 106.321 620.209 102.21C625.651 97.9347 632.338 95.7969 640.268 95.7969C646.066 95.7969 651.391 97.6059 656.244 101.224C661.097 104.677 664.883 109.939 667.605 117.01H667.782V98.757H681.984V215.428ZM639.736 209.262C644.706 209.262 648.906 207.865 652.339 205.069C655.89 202.109 658.729 198.328 660.86 193.722C662.991 188.954 664.528 183.609 665.476 177.689C666.539 171.769 667.073 165.849 667.073 159.93C667.073 154.339 666.599 148.83 665.653 143.403C664.705 137.977 663.168 133.125 661.037 128.85C659.026 124.41 656.362 120.874 653.048 118.243C649.734 115.612 645.712 114.297 640.978 114.297C636.126 114.297 631.984 115.612 628.551 118.243C625.119 120.71 622.28 124.081 620.032 128.356C617.901 132.632 616.302 137.565 615.238 143.156C614.291 148.747 613.817 154.585 613.817 160.669C613.817 166.425 614.231 172.181 615.061 177.936C615.888 183.691 617.309 188.954 619.321 193.722C621.332 198.328 623.994 202.109 627.308 205.069C630.623 207.865 634.766 209.262 639.736 209.262Z" fill="black"/>
</mask>
<g mask="url(#mask7_97_1278)">
<path d="M681.984 215.428C681.984 236.314 678.553 251.934 671.689 262.295C664.825 272.654 654.056 277.835 639.38 277.835C635.12 277.835 630.741 277.177 626.245 275.861C621.866 274.545 617.841 272.407 614.173 269.448C610.622 266.488 607.663 262.623 605.298 257.856C602.93 253.086 601.628 247.248 601.391 240.342H616.481C616.598 244.124 617.427 247.331 618.966 249.962C620.623 252.592 622.575 254.73 624.823 256.376C627.19 258.02 629.735 259.17 632.458 259.828C635.18 260.651 637.782 261.062 640.268 261.062C645.238 261.062 649.44 259.828 652.871 257.362C656.304 255.06 659.144 251.77 661.392 247.495C663.64 243.383 665.239 238.369 666.185 232.449C667.25 226.528 667.782 220.033 667.782 212.962V204.575H667.428C664.825 212.468 660.86 218.307 655.533 222.088C650.328 225.706 644.764 227.516 638.848 227.516C631.984 227.516 626.008 225.789 620.918 222.335C615.83 218.882 611.568 214.278 608.137 208.523C604.704 202.603 602.102 195.779 600.327 188.049C598.67 180.156 597.84 171.852 597.84 163.136C597.84 155.572 598.551 147.843 599.971 139.95C601.391 131.892 603.758 124.657 607.072 118.243C610.386 111.666 614.764 106.321 620.209 102.21C625.651 97.9347 632.338 95.7969 640.268 95.7969C646.066 95.7969 651.391 97.6059 656.244 101.224C661.097 104.677 664.883 109.939 667.605 117.01H667.782V98.757H681.984V215.428ZM639.736 209.262C644.706 209.262 648.906 207.865 652.339 205.069C655.89 202.109 658.729 198.328 660.86 193.722C662.991 188.954 664.528 183.609 665.476 177.689C666.539 171.769 667.073 165.849 667.073 159.93C667.073 154.339 666.599 148.83 665.653 143.403C664.705 137.977 663.168 133.125 661.037 128.85C659.026 124.41 656.362 120.874 653.048 118.243C649.734 115.612 645.712 114.297 640.978 114.297C636.126 114.297 631.984 115.612 628.551 118.243C625.119 120.71 622.28 124.081 620.032 128.356C617.901 132.632 616.302 137.565 615.238 143.156C614.291 148.747 613.817 154.585 613.817 160.669C613.817 166.425 614.231 172.181 615.061 177.936C615.888 183.691 617.309 188.954 619.321 193.722C621.332 198.328 623.994 202.109 627.308 205.069C630.623 207.865 634.766 209.262 639.736 209.262Z" stroke="#C4C4C4" stroke-width="86"/>
</g>
</svg>
