<svg width="213" height="212" viewBox="0 0 213 212" fill="none" xmlns="http://www.w3.org/2000/svg">
<mask id="path-1-outside-1_245_155" maskUnits="userSpaceOnUse" x="4" y="176" width="49" height="31" fill="black">
<rect fill="white" x="4" y="176" width="49" height="31"/>
<path d="M13.3691 200.94C12.8891 200.193 12.4557 199.447 12.0691 198.7C11.6824 197.967 11.3491 197.22 11.0691 196.46C10.8024 195.7 10.5957 194.92 10.4491 194.12C10.3024 193.32 10.2291 192.48 10.2291 191.6C10.2291 190.027 10.4891 188.44 11.0091 186.84C11.5424 185.24 12.3291 183.753 13.3691 182.38H14.6691C13.7091 183.9 13.0291 185.407 12.6291 186.9C12.2291 188.393 12.0291 189.96 12.0291 191.6C12.0291 193.28 12.2291 194.873 12.6291 196.38C13.0424 197.887 13.7224 199.407 14.6691 200.94H13.3691ZM21.9913 188.9C22.0579 188.913 22.1179 188.92 22.1713 188.92C22.2379 188.92 22.3046 188.92 22.3713 188.92H22.7313C23.0913 188.92 23.4313 188.873 23.7513 188.78C24.0846 188.673 24.3713 188.527 24.6113 188.34C24.8646 188.14 25.0646 187.893 25.2113 187.6C25.3579 187.307 25.4313 186.973 25.4313 186.6C25.4313 185.84 25.1913 185.273 24.7113 184.9C24.2313 184.513 23.6313 184.32 22.9113 184.32C22.4579 184.32 22.0579 184.407 21.7113 184.58C21.3779 184.74 21.0979 184.96 20.8713 185.24C20.6579 185.52 20.4979 185.847 20.3913 186.22C20.2846 186.593 20.2313 186.987 20.2313 187.4H18.5313C18.5579 186.72 18.6646 186.1 18.8513 185.54C19.0513 184.98 19.3313 184.5 19.6913 184.1C20.0513 183.7 20.4979 183.387 21.0313 183.16C21.5779 182.933 22.2046 182.82 22.9113 182.82C23.5246 182.82 24.0913 182.9 24.6113 183.06C25.1446 183.207 25.6046 183.433 25.9913 183.74C26.3779 184.047 26.6779 184.44 26.8913 184.92C27.1179 185.4 27.2313 185.967 27.2313 186.62C27.2313 187.26 27.0446 187.827 26.6713 188.32C26.2979 188.813 25.8313 189.187 25.2713 189.44V189.48C26.1379 189.667 26.7779 190.073 27.1913 190.7C27.6179 191.327 27.8313 192.067 27.8313 192.92C27.8313 193.627 27.6979 194.253 27.4313 194.8C27.1779 195.333 26.8313 195.78 26.3913 196.14C25.9513 196.5 25.4313 196.773 24.8313 196.96C24.2446 197.133 23.6179 197.22 22.9513 197.22C22.2313 197.22 21.5779 197.12 20.9913 196.92C20.4046 196.72 19.9046 196.427 19.4913 196.04C19.0779 195.64 18.7579 195.153 18.5313 194.58C18.3179 194.007 18.2179 193.353 18.2313 192.62H19.9313C19.9579 193.54 20.2246 194.293 20.7313 194.88C21.2379 195.453 21.9779 195.74 22.9513 195.74C23.3646 195.74 23.7579 195.68 24.1313 195.56C24.5046 195.427 24.8313 195.247 25.1113 195.02C25.3913 194.78 25.6113 194.493 25.7713 194.16C25.9446 193.813 26.0313 193.427 26.0313 193C26.0313 192.56 25.9513 192.173 25.7913 191.84C25.6313 191.493 25.4179 191.207 25.1513 190.98C24.8846 190.74 24.5646 190.567 24.1913 190.46C23.8313 190.34 23.4379 190.28 23.0113 190.28C22.6513 190.28 22.3113 190.3 21.9913 190.34V188.9ZM36.9445 184.56H31.2245L30.4645 188.64L30.5045 188.68C30.8112 188.333 31.2045 188.08 31.6845 187.92C32.1779 187.747 32.6645 187.66 33.1445 187.66C33.7712 187.66 34.3645 187.76 34.9245 187.96C35.4845 188.16 35.9712 188.467 36.3845 188.88C36.7979 189.28 37.1245 189.787 37.3645 190.4C37.6045 191 37.7245 191.707 37.7245 192.52C37.7245 193.12 37.6179 193.707 37.4045 194.28C37.2045 194.84 36.8979 195.34 36.4845 195.78C36.0712 196.22 35.5512 196.573 34.9245 196.84C34.3112 197.093 33.5912 197.22 32.7645 197.22C32.1512 197.22 31.5712 197.133 31.0245 196.96C30.4912 196.773 30.0179 196.513 29.6045 196.18C29.1912 195.833 28.8645 195.407 28.6245 194.9C28.3845 194.393 28.2579 193.82 28.2445 193.18H29.9445C29.9712 193.54 30.0579 193.88 30.2045 194.2C30.3645 194.507 30.5712 194.78 30.8245 195.02C31.0912 195.247 31.3979 195.427 31.7445 195.56C32.1045 195.68 32.4979 195.74 32.9245 195.74C33.3245 195.74 33.7045 195.673 34.0645 195.54C34.4379 195.393 34.7579 195.18 35.0245 194.9C35.3045 194.62 35.5245 194.273 35.6845 193.86C35.8445 193.433 35.9245 192.94 35.9245 192.38C35.9245 191.913 35.8445 191.487 35.6845 191.1C35.5379 190.7 35.3245 190.36 35.0445 190.08C34.7645 189.787 34.4245 189.56 34.0245 189.4C33.6379 189.24 33.2045 189.16 32.7245 189.16C32.1645 189.16 31.6645 189.287 31.2245 189.54C30.7979 189.78 30.4179 190.1 30.0845 190.5L28.6245 190.42L29.9445 183.06H36.9445V184.56ZM41.6442 200.94C42.5909 199.433 43.2642 197.933 43.6642 196.44C44.0642 194.933 44.2642 193.367 44.2642 191.74C44.2642 190.06 44.0576 188.467 43.6442 186.96C43.2442 185.44 42.5776 183.913 41.6442 182.38H42.9242C43.4042 183.127 43.8376 183.873 44.2242 184.62C44.6109 185.353 44.9376 186.107 45.2042 186.88C45.4842 187.64 45.6976 188.42 45.8442 189.22C45.9909 190.02 46.0642 190.86 46.0642 191.74C46.0642 193.313 45.7976 194.9 45.2642 196.5C44.7442 198.087 43.9642 199.567 42.9242 200.94H41.6442Z"/>
</mask>
<path d="M13.3691 200.94C12.8891 200.193 12.4557 199.447 12.0691 198.7C11.6824 197.967 11.3491 197.22 11.0691 196.46C10.8024 195.7 10.5957 194.92 10.4491 194.12C10.3024 193.32 10.2291 192.48 10.2291 191.6C10.2291 190.027 10.4891 188.44 11.0091 186.84C11.5424 185.24 12.3291 183.753 13.3691 182.38H14.6691C13.7091 183.9 13.0291 185.407 12.6291 186.9C12.2291 188.393 12.0291 189.96 12.0291 191.6C12.0291 193.28 12.2291 194.873 12.6291 196.38C13.0424 197.887 13.7224 199.407 14.6691 200.94H13.3691ZM21.9913 188.9C22.0579 188.913 22.1179 188.92 22.1713 188.92C22.2379 188.92 22.3046 188.92 22.3713 188.92H22.7313C23.0913 188.92 23.4313 188.873 23.7513 188.78C24.0846 188.673 24.3713 188.527 24.6113 188.34C24.8646 188.14 25.0646 187.893 25.2113 187.6C25.3579 187.307 25.4313 186.973 25.4313 186.6C25.4313 185.84 25.1913 185.273 24.7113 184.9C24.2313 184.513 23.6313 184.32 22.9113 184.32C22.4579 184.32 22.0579 184.407 21.7113 184.58C21.3779 184.74 21.0979 184.96 20.8713 185.24C20.6579 185.52 20.4979 185.847 20.3913 186.22C20.2846 186.593 20.2313 186.987 20.2313 187.4H18.5313C18.5579 186.72 18.6646 186.1 18.8513 185.54C19.0513 184.98 19.3313 184.5 19.6913 184.1C20.0513 183.7 20.4979 183.387 21.0313 183.16C21.5779 182.933 22.2046 182.82 22.9113 182.82C23.5246 182.82 24.0913 182.9 24.6113 183.06C25.1446 183.207 25.6046 183.433 25.9913 183.74C26.3779 184.047 26.6779 184.44 26.8913 184.92C27.1179 185.4 27.2313 185.967 27.2313 186.62C27.2313 187.26 27.0446 187.827 26.6713 188.32C26.2979 188.813 25.8313 189.187 25.2713 189.44V189.48C26.1379 189.667 26.7779 190.073 27.1913 190.7C27.6179 191.327 27.8313 192.067 27.8313 192.92C27.8313 193.627 27.6979 194.253 27.4313 194.8C27.1779 195.333 26.8313 195.78 26.3913 196.14C25.9513 196.5 25.4313 196.773 24.8313 196.96C24.2446 197.133 23.6179 197.22 22.9513 197.22C22.2313 197.22 21.5779 197.12 20.9913 196.92C20.4046 196.72 19.9046 196.427 19.4913 196.04C19.0779 195.64 18.7579 195.153 18.5313 194.58C18.3179 194.007 18.2179 193.353 18.2313 192.62H19.9313C19.9579 193.54 20.2246 194.293 20.7313 194.88C21.2379 195.453 21.9779 195.74 22.9513 195.74C23.3646 195.74 23.7579 195.68 24.1313 195.56C24.5046 195.427 24.8313 195.247 25.1113 195.02C25.3913 194.78 25.6113 194.493 25.7713 194.16C25.9446 193.813 26.0313 193.427 26.0313 193C26.0313 192.56 25.9513 192.173 25.7913 191.84C25.6313 191.493 25.4179 191.207 25.1513 190.98C24.8846 190.74 24.5646 190.567 24.1913 190.46C23.8313 190.34 23.4379 190.28 23.0113 190.28C22.6513 190.28 22.3113 190.3 21.9913 190.34V188.9ZM36.9445 184.56H31.2245L30.4645 188.64L30.5045 188.68C30.8112 188.333 31.2045 188.08 31.6845 187.92C32.1779 187.747 32.6645 187.66 33.1445 187.66C33.7712 187.66 34.3645 187.76 34.9245 187.96C35.4845 188.16 35.9712 188.467 36.3845 188.88C36.7979 189.28 37.1245 189.787 37.3645 190.4C37.6045 191 37.7245 191.707 37.7245 192.52C37.7245 193.12 37.6179 193.707 37.4045 194.28C37.2045 194.84 36.8979 195.34 36.4845 195.78C36.0712 196.22 35.5512 196.573 34.9245 196.84C34.3112 197.093 33.5912 197.22 32.7645 197.22C32.1512 197.22 31.5712 197.133 31.0245 196.96C30.4912 196.773 30.0179 196.513 29.6045 196.18C29.1912 195.833 28.8645 195.407 28.6245 194.9C28.3845 194.393 28.2579 193.82 28.2445 193.18H29.9445C29.9712 193.54 30.0579 193.88 30.2045 194.2C30.3645 194.507 30.5712 194.78 30.8245 195.02C31.0912 195.247 31.3979 195.427 31.7445 195.56C32.1045 195.68 32.4979 195.74 32.9245 195.74C33.3245 195.74 33.7045 195.673 34.0645 195.54C34.4379 195.393 34.7579 195.18 35.0245 194.9C35.3045 194.62 35.5245 194.273 35.6845 193.86C35.8445 193.433 35.9245 192.94 35.9245 192.38C35.9245 191.913 35.8445 191.487 35.6845 191.1C35.5379 190.7 35.3245 190.36 35.0445 190.08C34.7645 189.787 34.4245 189.56 34.0245 189.4C33.6379 189.24 33.2045 189.16 32.7245 189.16C32.1645 189.16 31.6645 189.287 31.2245 189.54C30.7979 189.78 30.4179 190.1 30.0845 190.5L28.6245 190.42L29.9445 183.06H36.9445V184.56ZM41.6442 200.94C42.5909 199.433 43.2642 197.933 43.6642 196.44C44.0642 194.933 44.2642 193.367 44.2642 191.74C44.2642 190.06 44.0576 188.467 43.6442 186.96C43.2442 185.44 42.5776 183.913 41.6442 182.38H42.9242C43.4042 183.127 43.8376 183.873 44.2242 184.62C44.6109 185.353 44.9376 186.107 45.2042 186.88C45.4842 187.64 45.6976 188.42 45.8442 189.22C45.9909 190.02 46.0642 190.86 46.0642 191.74C46.0642 193.313 45.7976 194.9 45.2642 196.5C44.7442 198.087 43.9642 199.567 42.9242 200.94H41.6442Z" fill="black"/>
<path d="M13.3691 200.94L8.32199 204.185L10.0934 206.94H13.3691V200.94ZM12.0691 198.7L17.397 195.941L17.3868 195.921L17.3765 195.902L12.0691 198.7ZM11.0691 196.46L5.40746 198.447L5.42289 198.491L5.439 198.534L11.0691 196.46ZM10.4491 194.12L4.54742 195.202L10.4491 194.12ZM11.0091 186.84L5.31696 184.943L5.30983 184.964L5.30286 184.985L11.0091 186.84ZM13.3691 182.38V176.38H10.3865L8.58583 178.758L13.3691 182.38ZM14.6691 182.38L19.742 185.584L25.555 176.38H14.6691V182.38ZM12.6291 186.9L18.4248 188.452L12.6291 186.9ZM12.6291 196.38L6.82995 197.92L6.8363 197.944L6.84285 197.967L12.6291 196.38ZM14.6691 200.94V206.94H25.4248L19.7744 197.788L14.6691 200.94ZM18.4161 197.695C18.0317 197.097 17.6931 196.513 17.397 195.941L6.7411 201.459C7.21838 202.381 7.7464 203.289 8.32199 204.185L18.4161 197.695ZM17.3765 195.902C17.1103 195.397 16.8855 194.892 16.6991 194.386L5.439 198.534C5.81259 199.548 6.25448 200.537 6.76165 201.498L17.3765 195.902ZM16.7307 194.473C16.5685 194.011 16.4416 193.534 16.3507 193.038L4.54742 195.202C4.74988 196.306 5.03634 197.389 5.40746 198.447L16.7307 194.473ZM16.3507 193.038C16.2746 192.623 16.2291 192.146 16.2291 191.6H4.22906C4.22906 192.814 4.33024 194.017 4.54742 195.202L16.3507 193.038ZM16.2291 191.6C16.2291 190.699 16.3764 189.737 16.7153 188.695L5.30286 184.985C4.60171 187.143 4.22906 189.355 4.22906 191.6H16.2291ZM16.7012 188.737C17.0232 187.771 17.4987 186.865 18.1523 186.002L8.58583 178.758C7.15945 180.641 6.06164 182.709 5.31696 184.943L16.7012 188.737ZM13.3691 188.38H14.6691V176.38H13.3691V188.38ZM9.59613 179.176C8.36471 181.126 7.4128 183.184 6.83337 185.348L18.4248 188.452C18.6453 187.629 19.0534 186.674 19.742 185.584L9.59613 179.176ZM6.83337 185.348C6.28976 187.377 6.02906 189.468 6.02906 191.6H18.0291C18.0291 190.452 18.1684 189.41 18.4248 188.452L6.83337 185.348ZM6.02906 191.6C6.02906 193.76 6.28668 195.873 6.82995 197.92L18.4282 194.84C18.1714 193.873 18.0291 192.8 18.0291 191.6H6.02906ZM6.84285 197.967C7.42853 200.102 8.3617 202.145 9.56369 204.092L19.7744 197.788C19.0831 196.668 18.6563 195.671 18.4153 194.793L6.84285 197.967ZM14.6691 194.94H13.3691V206.94H14.6691V194.94ZM21.9913 188.9L23.168 183.017L15.9913 181.581V188.9H21.9913ZM23.7513 188.78L25.4312 194.54L25.5059 194.518L25.5799 194.495L23.7513 188.78ZM24.6113 188.34L28.2949 193.076L28.3121 193.063L28.3291 193.049L24.6113 188.34ZM25.2113 187.6L19.8447 184.917L19.8447 184.917L25.2113 187.6ZM24.7113 184.9L20.9473 189.573L20.9872 189.605L21.0276 189.636L24.7113 184.9ZM21.7113 184.58L24.3076 189.989L24.3513 189.968L24.3945 189.947L21.7113 184.58ZM20.8713 185.24L16.2078 181.465L16.1522 181.533L16.0987 181.604L20.8713 185.24ZM20.2313 187.4V193.4H26.2313V187.4H20.2313ZM18.5312 187.4L12.5359 187.165L12.2913 193.4H18.5312V187.4ZM18.8513 185.54L13.2008 183.522L13.1793 183.582L13.1592 183.643L18.8513 185.54ZM19.6913 184.1L15.2315 180.086L15.2315 180.086L19.6913 184.1ZM21.0312 183.16L18.7332 177.618L18.7087 177.628L18.6844 177.638L21.0312 183.16ZM24.6113 183.06L22.8467 188.795L22.9331 188.821L23.0203 188.845L24.6113 183.06ZM25.9913 183.74L22.2629 188.441L22.2629 188.441L25.9913 183.74ZM26.8913 184.92L21.4084 187.357L21.4364 187.42L21.4658 187.482L26.8913 184.92ZM25.2713 189.44L22.7982 183.973L19.2713 185.569V189.44H25.2713ZM25.2713 189.48H19.2713V194.325L24.0079 195.345L25.2713 189.48ZM27.1912 190.7L22.1826 194.004L22.2069 194.04L22.2317 194.077L27.1912 190.7ZM27.4313 194.8L22.0386 192.169L22.025 192.197L22.0116 192.226L27.4313 194.8ZM26.3913 196.14L22.5918 191.496L26.3913 196.14ZM24.8313 196.96L26.5313 202.714L26.5726 202.702L26.6136 202.689L24.8313 196.96ZM20.9913 196.92L22.9273 191.241H22.9273L20.9913 196.92ZM19.4913 196.04L15.3187 200.352L15.3552 200.387L15.3923 200.422L19.4913 196.04ZM18.5312 194.58L12.9079 196.672L12.9291 196.729L12.9515 196.786L18.5312 194.58ZM18.2313 192.62V186.62H12.3393L12.2322 192.511L18.2313 192.62ZM19.9313 192.62L25.9287 192.446L25.7599 186.62H19.9313V192.62ZM20.7313 194.88L16.1903 198.802L16.2126 198.828L16.2353 198.853L20.7313 194.88ZM24.1313 195.56L25.9673 201.272L26.0588 201.243L26.1493 201.21L24.1313 195.56ZM25.1112 195.02L28.8864 199.683L28.952 199.63L29.016 199.576L25.1112 195.02ZM25.7712 194.16L20.4047 191.477L20.383 191.52L20.3621 191.564L25.7712 194.16ZM25.7913 191.84L20.3435 194.354L20.3625 194.396L20.3821 194.436L25.7913 191.84ZM25.1513 190.98L21.1375 195.44L21.2006 195.497L21.2654 195.552L25.1513 190.98ZM24.1913 190.46L22.2939 196.152L22.4176 196.193L22.5429 196.229L24.1913 190.46ZM21.9913 190.34H15.9913V197.137L22.7355 196.294L21.9913 190.34ZM20.8145 194.783C21.1687 194.854 21.6325 194.92 22.1713 194.92V182.92C22.6034 182.92 22.9472 182.972 23.168 183.017L20.8145 194.783ZM22.1713 194.92C22.1714 194.92 22.1715 194.92 22.1716 194.92C22.1718 194.92 22.1719 194.92 22.172 194.92C22.1722 194.92 22.1723 194.92 22.1724 194.92C22.1726 194.92 22.1727 194.92 22.1728 194.92C22.1729 194.92 22.1731 194.92 22.1732 194.92C22.1733 194.92 22.1735 194.92 22.1736 194.92C22.1737 194.92 22.1739 194.92 22.174 194.92C22.1741 194.92 22.1742 194.92 22.1744 194.92C22.1745 194.92 22.1746 194.92 22.1748 194.92C22.1749 194.92 22.175 194.92 22.1752 194.92C22.1753 194.92 22.1754 194.92 22.1755 194.92C22.1757 194.92 22.1758 194.92 22.1759 194.92C22.1761 194.92 22.1762 194.92 22.1763 194.92C22.1765 194.92 22.1766 194.92 22.1767 194.92C22.1768 194.92 22.177 194.92 22.1771 194.92C22.1772 194.92 22.1774 194.92 22.1775 194.92C22.1776 194.92 22.1778 194.92 22.1779 194.92C22.178 194.92 22.1782 194.92 22.1783 194.92C22.1784 194.92 22.1785 194.92 22.1787 194.92C22.1788 194.92 22.1789 194.92 22.1791 194.92C22.1792 194.92 22.1793 194.92 22.1795 194.92C22.1796 194.92 22.1797 194.92 22.1798 194.92C22.18 194.92 22.1801 194.92 22.1802 194.92C22.1804 194.92 22.1805 194.92 22.1806 194.92C22.1808 194.92 22.1809 194.92 22.181 194.92C22.1811 194.92 22.1813 194.92 22.1814 194.92C22.1815 194.92 22.1817 194.92 22.1818 194.92C22.1819 194.92 22.1821 194.92 22.1822 194.92C22.1823 194.92 22.1824 194.92 22.1826 194.92C22.1827 194.92 22.1828 194.92 22.183 194.92C22.1831 194.92 22.1832 194.92 22.1834 194.92C22.1835 194.92 22.1836 194.92 22.1838 194.92C22.1839 194.92 22.184 194.92 22.1841 194.92C22.1843 194.92 22.1844 194.92 22.1845 194.92C22.1847 194.92 22.1848 194.92 22.1849 194.92C22.1851 194.92 22.1852 194.92 22.1853 194.92C22.1854 194.92 22.1856 194.92 22.1857 194.92C22.1858 194.92 22.186 194.92 22.1861 194.92C22.1862 194.92 22.1864 194.92 22.1865 194.92C22.1866 194.92 22.1867 194.92 22.1869 194.92C22.187 194.92 22.1871 194.92 22.1873 194.92C22.1874 194.92 22.1875 194.92 22.1877 194.92C22.1878 194.92 22.1879 194.92 22.188 194.92C22.1882 194.92 22.1883 194.92 22.1884 194.92C22.1886 194.92 22.1887 194.92 22.1888 194.92C22.189 194.92 22.1891 194.92 22.1892 194.92C22.1893 194.92 22.1895 194.92 22.1896 194.92C22.1897 194.92 22.1899 194.92 22.19 194.92C22.1901 194.92 22.1903 194.92 22.1904 194.92C22.1905 194.92 22.1907 194.92 22.1908 194.92C22.1909 194.92 22.191 194.92 22.1912 194.92C22.1913 194.92 22.1914 194.92 22.1916 194.92C22.1917 194.92 22.1918 194.92 22.192 194.92C22.1921 194.92 22.1922 194.92 22.1923 194.92C22.1925 194.92 22.1926 194.92 22.1927 194.92C22.1929 194.92 22.193 194.92 22.1931 194.92C22.1933 194.92 22.1934 194.92 22.1935 194.92C22.1936 194.92 22.1938 194.92 22.1939 194.92C22.194 194.92 22.1942 194.92 22.1943 194.92C22.1944 194.92 22.1946 194.92 22.1947 194.92C22.1948 194.92 22.1949 194.92 22.1951 194.92C22.1952 194.92 22.1953 194.92 22.1955 194.92C22.1956 194.92 22.1957 194.92 22.1959 194.92C22.196 194.92 22.1961 194.92 22.1963 194.92C22.1964 194.92 22.1965 194.92 22.1966 194.92C22.1968 194.92 22.1969 194.92 22.197 194.92C22.1972 194.92 22.1973 194.92 22.1974 194.92C22.1976 194.92 22.1977 194.92 22.1978 194.92C22.1979 194.92 22.1981 194.92 22.1982 194.92C22.1983 194.92 22.1985 194.92 22.1986 194.92C22.1987 194.92 22.1989 194.92 22.199 194.92C22.1991 194.92 22.1992 194.92 22.1994 194.92C22.1995 194.92 22.1996 194.92 22.1998 194.92C22.1999 194.92 22.2 194.92 22.2002 194.92C22.2003 194.92 22.2004 194.92 22.2005 194.92C22.2007 194.92 22.2008 194.92 22.2009 194.92C22.2011 194.92 22.2012 194.92 22.2013 194.92C22.2015 194.92 22.2016 194.92 22.2017 194.92C22.2018 194.92 22.202 194.92 22.2021 194.92C22.2022 194.92 22.2024 194.92 22.2025 194.92C22.2026 194.92 22.2028 194.92 22.2029 194.92C22.203 194.92 22.2032 194.92 22.2033 194.92C22.2034 194.92 22.2035 194.92 22.2037 194.92C22.2038 194.92 22.2039 194.92 22.2041 194.92C22.2042 194.92 22.2043 194.92 22.2045 194.92C22.2046 194.92 22.2047 194.92 22.2048 194.92C22.205 194.92 22.2051 194.92 22.2052 194.92C22.2054 194.92 22.2055 194.92 22.2056 194.92C22.2058 194.92 22.2059 194.92 22.206 194.92C22.2061 194.92 22.2063 194.92 22.2064 194.92C22.2065 194.92 22.2067 194.92 22.2068 194.92C22.2069 194.92 22.2071 194.92 22.2072 194.92C22.2073 194.92 22.2074 194.92 22.2076 194.92C22.2077 194.92 22.2078 194.92 22.208 194.92C22.2081 194.92 22.2082 194.92 22.2084 194.92C22.2085 194.92 22.2086 194.92 22.2088 194.92C22.2089 194.92 22.209 194.92 22.2091 194.92C22.2093 194.92 22.2094 194.92 22.2095 194.92C22.2097 194.92 22.2098 194.92 22.2099 194.92C22.2101 194.92 22.2102 194.92 22.2103 194.92C22.2104 194.92 22.2106 194.92 22.2107 194.92C22.2108 194.92 22.211 194.92 22.2111 194.92C22.2112 194.92 22.2114 194.92 22.2115 194.92C22.2116 194.92 22.2117 194.92 22.2119 194.92C22.212 194.92 22.2121 194.92 22.2123 194.92C22.2124 194.92 22.2125 194.92 22.2127 194.92C22.2128 194.92 22.2129 194.92 22.213 194.92C22.2132 194.92 22.2133 194.92 22.2134 194.92C22.2136 194.92 22.2137 194.92 22.2138 194.92C22.214 194.92 22.2141 194.92 22.2142 194.92C22.2143 194.92 22.2145 194.92 22.2146 194.92C22.2147 194.92 22.2149 194.92 22.215 194.92C22.2151 194.92 22.2153 194.92 22.2154 194.92C22.2155 194.92 22.2157 194.92 22.2158 194.92C22.2159 194.92 22.216 194.92 22.2162 194.92C22.2163 194.92 22.2164 194.92 22.2166 194.92C22.2167 194.92 22.2168 194.92 22.217 194.92C22.2171 194.92 22.2172 194.92 22.2173 194.92C22.2175 194.92 22.2176 194.92 22.2177 194.92C22.2179 194.92 22.218 194.92 22.2181 194.92C22.2183 194.92 22.2184 194.92 22.2185 194.92C22.2186 194.92 22.2188 194.92 22.2189 194.92C22.219 194.92 22.2192 194.92 22.2193 194.92C22.2194 194.92 22.2196 194.92 22.2197 194.92C22.2198 194.92 22.2199 194.92 22.2201 194.92C22.2202 194.92 22.2203 194.92 22.2205 194.92C22.2206 194.92 22.2207 194.92 22.2209 194.92C22.221 194.92 22.2211 194.92 22.2213 194.92C22.2214 194.92 22.2215 194.92 22.2216 194.92C22.2218 194.92 22.2219 194.92 22.222 194.92C22.2222 194.92 22.2223 194.92 22.2224 194.92C22.2226 194.92 22.2227 194.92 22.2228 194.92C22.2229 194.92 22.2231 194.92 22.2232 194.92C22.2233 194.92 22.2235 194.92 22.2236 194.92C22.2237 194.92 22.2239 194.92 22.224 194.92C22.2241 194.92 22.2242 194.92 22.2244 194.92C22.2245 194.92 22.2246 194.92 22.2248 194.92C22.2249 194.92 22.225 194.92 22.2252 194.92C22.2253 194.92 22.2254 194.92 22.2255 194.92C22.2257 194.92 22.2258 194.92 22.2259 194.92C22.2261 194.92 22.2262 194.92 22.2263 194.92C22.2265 194.92 22.2266 194.92 22.2267 194.92C22.2268 194.92 22.227 194.92 22.2271 194.92C22.2272 194.92 22.2274 194.92 22.2275 194.92C22.2276 194.92 22.2278 194.92 22.2279 194.92C22.228 194.92 22.2282 194.92 22.2283 194.92C22.2284 194.92 22.2285 194.92 22.2287 194.92C22.2288 194.92 22.2289 194.92 22.2291 194.92C22.2292 194.92 22.2293 194.92 22.2295 194.92C22.2296 194.92 22.2297 194.92 22.2298 194.92C22.23 194.92 22.2301 194.92 22.2302 194.92C22.2304 194.92 22.2305 194.92 22.2306 194.92C22.2308 194.92 22.2309 194.92 22.231 194.92C22.2311 194.92 22.2313 194.92 22.2314 194.92C22.2315 194.92 22.2317 194.92 22.2318 194.92C22.2319 194.92 22.2321 194.92 22.2322 194.92C22.2323 194.92 22.2324 194.92 22.2326 194.92C22.2327 194.92 22.2328 194.92 22.233 194.92C22.2331 194.92 22.2332 194.92 22.2334 194.92C22.2335 194.92 22.2336 194.92 22.2338 194.92C22.2339 194.92 22.234 194.92 22.2341 194.92C22.2343 194.92 22.2344 194.92 22.2345 194.92C22.2347 194.92 22.2348 194.92 22.2349 194.92C22.2351 194.92 22.2352 194.92 22.2353 194.92C22.2354 194.92 22.2356 194.92 22.2357 194.92C22.2358 194.92 22.236 194.92 22.2361 194.92C22.2362 194.92 22.2364 194.92 22.2365 194.92C22.2366 194.92 22.2367 194.92 22.2369 194.92C22.237 194.92 22.2371 194.92 22.2373 194.92C22.2374 194.92 22.2375 194.92 22.2377 194.92C22.2378 194.92 22.2379 194.92 22.238 194.92C22.2382 194.92 22.2383 194.92 22.2384 194.92C22.2386 194.92 22.2387 194.92 22.2388 194.92C22.239 194.92 22.2391 194.92 22.2392 194.92C22.2393 194.92 22.2395 194.92 22.2396 194.92C22.2397 194.92 22.2399 194.92 22.24 194.92C22.2401 194.92 22.2403 194.92 22.2404 194.92C22.2405 194.92 22.2407 194.92 22.2408 194.92C22.2409 194.92 22.241 194.92 22.2412 194.92C22.2413 194.92 22.2414 194.92 22.2416 194.92C22.2417 194.92 22.2418 194.92 22.242 194.92C22.2421 194.92 22.2422 194.92 22.2423 194.92C22.2425 194.92 22.2426 194.92 22.2427 194.92C22.2429 194.92 22.243 194.92 22.2431 194.92C22.2433 194.92 22.2434 194.92 22.2435 194.92C22.2436 194.92 22.2438 194.92 22.2439 194.92C22.244 194.92 22.2442 194.92 22.2443 194.92C22.2444 194.92 22.2446 194.92 22.2447 194.92C22.2448 194.92 22.2449 194.92 22.2451 194.92C22.2452 194.92 22.2453 194.92 22.2455 194.92C22.2456 194.92 22.2457 194.92 22.2459 194.92C22.246 194.92 22.2461 194.92 22.2463 194.92C22.2464 194.92 22.2465 194.92 22.2466 194.92C22.2468 194.92 22.2469 194.92 22.247 194.92C22.2472 194.92 22.2473 194.92 22.2474 194.92C22.2476 194.92 22.2477 194.92 22.2478 194.92C22.2479 194.92 22.2481 194.92 22.2482 194.92C22.2483 194.92 22.2485 194.92 22.2486 194.92C22.2487 194.92 22.2489 194.92 22.249 194.92C22.2491 194.92 22.2492 194.92 22.2494 194.92C22.2495 194.92 22.2496 194.92 22.2498 194.92C22.2499 194.92 22.25 194.92 22.2502 194.92C22.2503 194.92 22.2504 194.92 22.2505 194.92C22.2507 194.92 22.2508 194.92 22.2509 194.92C22.2511 194.92 22.2512 194.92 22.2513 194.92C22.2515 194.92 22.2516 194.92 22.2517 194.92C22.2518 194.92 22.252 194.92 22.2521 194.92C22.2522 194.92 22.2524 194.92 22.2525 194.92C22.2526 194.92 22.2528 194.92 22.2529 194.92C22.253 194.92 22.2532 194.92 22.2533 194.92C22.2534 194.92 22.2535 194.92 22.2537 194.92C22.2538 194.92 22.2539 194.92 22.2541 194.92C22.2542 194.92 22.2543 194.92 22.2545 194.92C22.2546 194.92 22.2547 194.92 22.2548 194.92C22.255 194.92 22.2551 194.92 22.2552 194.92C22.2554 194.92 22.2555 194.92 22.2556 194.92C22.2558 194.92 22.2559 194.92 22.256 194.92C22.2561 194.92 22.2563 194.92 22.2564 194.92C22.2565 194.92 22.2567 194.92 22.2568 194.92C22.2569 194.92 22.2571 194.92 22.2572 194.92C22.2573 194.92 22.2574 194.92 22.2576 194.92C22.2577 194.92 22.2578 194.92 22.258 194.92C22.2581 194.92 22.2582 194.92 22.2584 194.92C22.2585 194.92 22.2586 194.92 22.2588 194.92C22.2589 194.92 22.259 194.92 22.2591 194.92C22.2593 194.92 22.2594 194.92 22.2595 194.92C22.2597 194.92 22.2598 194.92 22.2599 194.92C22.2601 194.92 22.2602 194.92 22.2603 194.92C22.2604 194.92 22.2606 194.92 22.2607 194.92C22.2608 194.92 22.261 194.92 22.2611 194.92C22.2612 194.92 22.2614 194.92 22.2615 194.92C22.2616 194.92 22.2617 194.92 22.2619 194.92C22.262 194.92 22.2621 194.92 22.2623 194.92C22.2624 194.92 22.2625 194.92 22.2627 194.92C22.2628 194.92 22.2629 194.92 22.263 194.92C22.2632 194.92 22.2633 194.92 22.2634 194.92C22.2636 194.92 22.2637 194.92 22.2638 194.92C22.264 194.92 22.2641 194.92 22.2642 194.92C22.2643 194.92 22.2645 194.92 22.2646 194.92C22.2647 194.92 22.2649 194.92 22.265 194.92C22.2651 194.92 22.2653 194.92 22.2654 194.92C22.2655 194.92 22.2657 194.92 22.2658 194.92C22.2659 194.92 22.266 194.92 22.2662 194.92C22.2663 194.92 22.2664 194.92 22.2666 194.92C22.2667 194.92 22.2668 194.92 22.267 194.92C22.2671 194.92 22.2672 194.92 22.2673 194.92C22.2675 194.92 22.2676 194.92 22.2677 194.92C22.2679 194.92 22.268 194.92 22.2681 194.92C22.2683 194.92 22.2684 194.92 22.2685 194.92C22.2686 194.92 22.2688 194.92 22.2689 194.92C22.269 194.92 22.2692 194.92 22.2693 194.92C22.2694 194.92 22.2696 194.92 22.2697 194.92C22.2698 194.92 22.2699 194.92 22.2701 194.92C22.2702 194.92 22.2703 194.92 22.2705 194.92C22.2706 194.92 22.2707 194.92 22.2709 194.92C22.271 194.92 22.2711 194.92 22.2713 194.92C22.2714 194.92 22.2715 194.92 22.2716 194.92C22.2718 194.92 22.2719 194.92 22.272 194.92C22.2722 194.92 22.2723 194.92 22.2724 194.92C22.2726 194.92 22.2727 194.92 22.2728 194.92C22.2729 194.92 22.2731 194.92 22.2732 194.92C22.2733 194.92 22.2735 194.92 22.2736 194.92C22.2737 194.92 22.2739 194.92 22.274 194.92C22.2741 194.92 22.2742 194.92 22.2744 194.92C22.2745 194.92 22.2746 194.92 22.2748 194.92C22.2749 194.92 22.275 194.92 22.2752 194.92C22.2753 194.92 22.2754 194.92 22.2755 194.92C22.2757 194.92 22.2758 194.92 22.2759 194.92C22.2761 194.92 22.2762 194.92 22.2763 194.92C22.2765 194.92 22.2766 194.92 22.2767 194.92C22.2768 194.92 22.277 194.92 22.2771 194.92C22.2772 194.92 22.2774 194.92 22.2775 194.92C22.2776 194.92 22.2778 194.92 22.2779 194.92C22.278 194.92 22.2782 194.92 22.2783 194.92C22.2784 194.92 22.2785 194.92 22.2787 194.92C22.2788 194.92 22.2789 194.92 22.2791 194.92C22.2792 194.92 22.2793 194.92 22.2795 194.92C22.2796 194.92 22.2797 194.92 22.2798 194.92C22.28 194.92 22.2801 194.92 22.2802 194.92C22.2804 194.92 22.2805 194.92 22.2806 194.92C22.2808 194.92 22.2809 194.92 22.281 194.92C22.2811 194.92 22.2813 194.92 22.2814 194.92C22.2815 194.92 22.2817 194.92 22.2818 194.92C22.2819 194.92 22.2821 194.92 22.2822 194.92C22.2823 194.92 22.2824 194.92 22.2826 194.92C22.2827 194.92 22.2828 194.92 22.283 194.92C22.2831 194.92 22.2832 194.92 22.2834 194.92C22.2835 194.92 22.2836 194.92 22.2838 194.92C22.2839 194.92 22.284 194.92 22.2841 194.92C22.2843 194.92 22.2844 194.92 22.2845 194.92C22.2847 194.92 22.2848 194.92 22.2849 194.92C22.2851 194.92 22.2852 194.92 22.2853 194.92C22.2854 194.92 22.2856 194.92 22.2857 194.92C22.2858 194.92 22.286 194.92 22.2861 194.92C22.2862 194.92 22.2864 194.92 22.2865 194.92C22.2866 194.92 22.2867 194.92 22.2869 194.92C22.287 194.92 22.2871 194.92 22.2873 194.92C22.2874 194.92 22.2875 194.92 22.2877 194.92C22.2878 194.92 22.2879 194.92 22.288 194.92C22.2882 194.92 22.2883 194.92 22.2884 194.92C22.2886 194.92 22.2887 194.92 22.2888 194.92C22.289 194.92 22.2891 194.92 22.2892 194.92C22.2893 194.92 22.2895 194.92 22.2896 194.92C22.2897 194.92 22.2899 194.92 22.29 194.92C22.2901 194.92 22.2903 194.92 22.2904 194.92C22.2905 194.92 22.2907 194.92 22.2908 194.92C22.2909 194.92 22.291 194.92 22.2912 194.92C22.2913 194.92 22.2914 194.92 22.2916 194.92C22.2917 194.92 22.2918 194.92 22.292 194.92C22.2921 194.92 22.2922 194.92 22.2923 194.92C22.2925 194.92 22.2926 194.92 22.2927 194.92C22.2929 194.92 22.293 194.92 22.2931 194.92C22.2933 194.92 22.2934 194.92 22.2935 194.92C22.2936 194.92 22.2938 194.92 22.2939 194.92C22.294 194.92 22.2942 194.92 22.2943 194.92C22.2944 194.92 22.2946 194.92 22.2947 194.92C22.2948 194.92 22.2949 194.92 22.2951 194.92C22.2952 194.92 22.2953 194.92 22.2955 194.92C22.2956 194.92 22.2957 194.92 22.2959 194.92C22.296 194.92 22.2961 194.92 22.2963 194.92C22.2964 194.92 22.2965 194.92 22.2966 194.92C22.2968 194.92 22.2969 194.92 22.297 194.92C22.2972 194.92 22.2973 194.92 22.2974 194.92C22.2976 194.92 22.2977 194.92 22.2978 194.92C22.2979 194.92 22.2981 194.92 22.2982 194.92C22.2983 194.92 22.2985 194.92 22.2986 194.92C22.2987 194.92 22.2989 194.92 22.299 194.92C22.2991 194.92 22.2992 194.92 22.2994 194.92C22.2995 194.92 22.2996 194.92 22.2998 194.92C22.2999 194.92 22.3 194.92 22.3002 194.92C22.3003 194.92 22.3004 194.92 22.3005 194.92C22.3007 194.92 22.3008 194.92 22.3009 194.92C22.3011 194.92 22.3012 194.92 22.3013 194.92C22.3015 194.92 22.3016 194.92 22.3017 194.92C22.3018 194.92 22.302 194.92 22.3021 194.92C22.3022 194.92 22.3024 194.92 22.3025 194.92C22.3026 194.92 22.3028 194.92 22.3029 194.92C22.303 194.92 22.3032 194.92 22.3033 194.92C22.3034 194.92 22.3035 194.92 22.3037 194.92C22.3038 194.92 22.3039 194.92 22.3041 194.92C22.3042 194.92 22.3043 194.92 22.3045 194.92C22.3046 194.92 22.3047 194.92 22.3048 194.92C22.305 194.92 22.3051 194.92 22.3052 194.92C22.3054 194.92 22.3055 194.92 22.3056 194.92C22.3058 194.92 22.3059 194.92 22.306 194.92C22.3061 194.92 22.3063 194.92 22.3064 194.92C22.3065 194.92 22.3067 194.92 22.3068 194.92C22.3069 194.92 22.3071 194.92 22.3072 194.92C22.3073 194.92 22.3074 194.92 22.3076 194.92C22.3077 194.92 22.3078 194.92 22.308 194.92C22.3081 194.92 22.3082 194.92 22.3084 194.92C22.3085 194.92 22.3086 194.92 22.3088 194.92C22.3089 194.92 22.309 194.92 22.3091 194.92C22.3093 194.92 22.3094 194.92 22.3095 194.92C22.3097 194.92 22.3098 194.92 22.3099 194.92C22.3101 194.92 22.3102 194.92 22.3103 194.92C22.3104 194.92 22.3106 194.92 22.3107 194.92C22.3108 194.92 22.311 194.92 22.3111 194.92C22.3112 194.92 22.3114 194.92 22.3115 194.92C22.3116 194.92 22.3117 194.92 22.3119 194.92C22.312 194.92 22.3121 194.92 22.3123 194.92C22.3124 194.92 22.3125 194.92 22.3127 194.92C22.3128 194.92 22.3129 194.92 22.313 194.92C22.3132 194.92 22.3133 194.92 22.3134 194.92C22.3136 194.92 22.3137 194.92 22.3138 194.92C22.314 194.92 22.3141 194.92 22.3142 194.92C22.3143 194.92 22.3145 194.92 22.3146 194.92C22.3147 194.92 22.3149 194.92 22.315 194.92C22.3151 194.92 22.3153 194.92 22.3154 194.92C22.3155 194.92 22.3157 194.92 22.3158 194.92C22.3159 194.92 22.316 194.92 22.3162 194.92C22.3163 194.92 22.3164 194.92 22.3166 194.92C22.3167 194.92 22.3168 194.92 22.317 194.92C22.3171 194.92 22.3172 194.92 22.3173 194.92C22.3175 194.92 22.3176 194.92 22.3177 194.92C22.3179 194.92 22.318 194.92 22.3181 194.92C22.3183 194.92 22.3184 194.92 22.3185 194.92C22.3186 194.92 22.3188 194.92 22.3189 194.92C22.319 194.92 22.3192 194.92 22.3193 194.92C22.3194 194.92 22.3196 194.92 22.3197 194.92C22.3198 194.92 22.3199 194.92 22.3201 194.92C22.3202 194.92 22.3203 194.92 22.3205 194.92C22.3206 194.92 22.3207 194.92 22.3209 194.92C22.321 194.92 22.3211 194.92 22.3213 194.92C22.3214 194.92 22.3215 194.92 22.3216 194.92C22.3218 194.92 22.3219 194.92 22.322 194.92C22.3222 194.92 22.3223 194.92 22.3224 194.92C22.3226 194.92 22.3227 194.92 22.3228 194.92C22.3229 194.92 22.3231 194.92 22.3232 194.92C22.3233 194.92 22.3235 194.92 22.3236 194.92C22.3237 194.92 22.3239 194.92 22.324 194.92C22.3241 194.92 22.3242 194.92 22.3244 194.92C22.3245 194.92 22.3246 194.92 22.3248 194.92C22.3249 194.92 22.325 194.92 22.3252 194.92C22.3253 194.92 22.3254 194.92 22.3255 194.92C22.3257 194.92 22.3258 194.92 22.3259 194.92C22.3261 194.92 22.3262 194.92 22.3263 194.92C22.3265 194.92 22.3266 194.92 22.3267 194.92C22.3268 194.92 22.327 194.92 22.3271 194.92C22.3272 194.92 22.3274 194.92 22.3275 194.92C22.3276 194.92 22.3278 194.92 22.3279 194.92C22.328 194.92 22.3282 194.92 22.3283 194.92C22.3284 194.92 22.3285 194.92 22.3287 194.92C22.3288 194.92 22.3289 194.92 22.3291 194.92C22.3292 194.92 22.3293 194.92 22.3295 194.92C22.3296 194.92 22.3297 194.92 22.3298 194.92C22.33 194.92 22.3301 194.92 22.3302 194.92C22.3304 194.92 22.3305 194.92 22.3306 194.92C22.3308 194.92 22.3309 194.92 22.331 194.92C22.3311 194.92 22.3313 194.92 22.3314 194.92C22.3315 194.92 22.3317 194.92 22.3318 194.92C22.3319 194.92 22.3321 194.92 22.3322 194.92C22.3323 194.92 22.3324 194.92 22.3326 194.92C22.3327 194.92 22.3328 194.92 22.333 194.92C22.3331 194.92 22.3332 194.92 22.3334 194.92C22.3335 194.92 22.3336 194.92 22.3338 194.92C22.3339 194.92 22.334 194.92 22.3341 194.92C22.3343 194.92 22.3344 194.92 22.3345 194.92C22.3347 194.92 22.3348 194.92 22.3349 194.92C22.3351 194.92 22.3352 194.92 22.3353 194.92C22.3354 194.92 22.3356 194.92 22.3357 194.92C22.3358 194.92 22.336 194.92 22.3361 194.92C22.3362 194.92 22.3364 194.92 22.3365 194.92C22.3366 194.92 22.3367 194.92 22.3369 194.92C22.337 194.92 22.3371 194.92 22.3373 194.92C22.3374 194.92 22.3375 194.92 22.3377 194.92C22.3378 194.92 22.3379 194.92 22.338 194.92C22.3382 194.92 22.3383 194.92 22.3384 194.92C22.3386 194.92 22.3387 194.92 22.3388 194.92C22.339 194.92 22.3391 194.92 22.3392 194.92C22.3393 194.92 22.3395 194.92 22.3396 194.92C22.3397 194.92 22.3399 194.92 22.34 194.92C22.3401 194.92 22.3403 194.92 22.3404 194.92C22.3405 194.92 22.3407 194.92 22.3408 194.92C22.3409 194.92 22.341 194.92 22.3412 194.92C22.3413 194.92 22.3414 194.92 22.3416 194.92C22.3417 194.92 22.3418 194.92 22.342 194.92C22.3421 194.92 22.3422 194.92 22.3423 194.92C22.3425 194.92 22.3426 194.92 22.3427 194.92C22.3429 194.92 22.343 194.92 22.3431 194.92C22.3433 194.92 22.3434 194.92 22.3435 194.92C22.3436 194.92 22.3438 194.92 22.3439 194.92C22.344 194.92 22.3442 194.92 22.3443 194.92C22.3444 194.92 22.3446 194.92 22.3447 194.92C22.3448 194.92 22.3449 194.92 22.3451 194.92C22.3452 194.92 22.3453 194.92 22.3455 194.92C22.3456 194.92 22.3457 194.92 22.3459 194.92C22.346 194.92 22.3461 194.92 22.3463 194.92C22.3464 194.92 22.3465 194.92 22.3466 194.92C22.3468 194.92 22.3469 194.92 22.347 194.92C22.3472 194.92 22.3473 194.92 22.3474 194.92C22.3476 194.92 22.3477 194.92 22.3478 194.92C22.3479 194.92 22.3481 194.92 22.3482 194.92C22.3483 194.92 22.3485 194.92 22.3486 194.92C22.3487 194.92 22.3489 194.92 22.349 194.92C22.3491 194.92 22.3492 194.92 22.3494 194.92C22.3495 194.92 22.3496 194.92 22.3498 194.92C22.3499 194.92 22.35 194.92 22.3502 194.92C22.3503 194.92 22.3504 194.92 22.3505 194.92C22.3507 194.92 22.3508 194.92 22.3509 194.92C22.3511 194.92 22.3512 194.92 22.3513 194.92C22.3515 194.92 22.3516 194.92 22.3517 194.92C22.3518 194.92 22.352 194.92 22.3521 194.92C22.3522 194.92 22.3524 194.92 22.3525 194.92C22.3526 194.92 22.3528 194.92 22.3529 194.92C22.353 194.92 22.3532 194.92 22.3533 194.92C22.3534 194.92 22.3535 194.92 22.3537 194.92C22.3538 194.92 22.3539 194.92 22.3541 194.92C22.3542 194.92 22.3543 194.92 22.3545 194.92C22.3546 194.92 22.3547 194.92 22.3548 194.92C22.355 194.92 22.3551 194.92 22.3552 194.92C22.3554 194.92 22.3555 194.92 22.3556 194.92C22.3558 194.92 22.3559 194.92 22.356 194.92C22.3561 194.92 22.3563 194.92 22.3564 194.92C22.3565 194.92 22.3567 194.92 22.3568 194.92C22.3569 194.92 22.3571 194.92 22.3572 194.92C22.3573 194.92 22.3574 194.92 22.3576 194.92C22.3577 194.92 22.3578 194.92 22.358 194.92C22.3581 194.92 22.3582 194.92 22.3584 194.92C22.3585 194.92 22.3586 194.92 22.3588 194.92C22.3589 194.92 22.359 194.92 22.3591 194.92C22.3593 194.92 22.3594 194.92 22.3595 194.92C22.3597 194.92 22.3598 194.92 22.3599 194.92C22.3601 194.92 22.3602 194.92 22.3603 194.92C22.3604 194.92 22.3606 194.92 22.3607 194.92C22.3608 194.92 22.361 194.92 22.3611 194.92C22.3612 194.92 22.3614 194.92 22.3615 194.92C22.3616 194.92 22.3617 194.92 22.3619 194.92C22.362 194.92 22.3621 194.92 22.3623 194.92C22.3624 194.92 22.3625 194.92 22.3627 194.92C22.3628 194.92 22.3629 194.92 22.363 194.92C22.3632 194.92 22.3633 194.92 22.3634 194.92C22.3636 194.92 22.3637 194.92 22.3638 194.92C22.364 194.92 22.3641 194.92 22.3642 194.92C22.3643 194.92 22.3645 194.92 22.3646 194.92C22.3647 194.92 22.3649 194.92 22.365 194.92C22.3651 194.92 22.3653 194.92 22.3654 194.92C22.3655 194.92 22.3657 194.92 22.3658 194.92C22.3659 194.92 22.366 194.92 22.3662 194.92C22.3663 194.92 22.3664 194.92 22.3666 194.92C22.3667 194.92 22.3668 194.92 22.367 194.92C22.3671 194.92 22.3672 194.92 22.3673 194.92C22.3675 194.92 22.3676 194.92 22.3677 194.92C22.3679 194.92 22.368 194.92 22.3681 194.92C22.3683 194.92 22.3684 194.92 22.3685 194.92C22.3686 194.92 22.3688 194.92 22.3689 194.92C22.369 194.92 22.3692 194.92 22.3693 194.92C22.3694 194.92 22.3696 194.92 22.3697 194.92C22.3698 194.92 22.3699 194.92 22.3701 194.92C22.3702 194.92 22.3703 194.92 22.3705 194.92C22.3706 194.92 22.3707 194.92 22.3709 194.92C22.371 194.92 22.3711 194.92 22.3713 194.92V182.92C22.3711 182.92 22.371 182.92 22.3709 182.92C22.3707 182.92 22.3706 182.92 22.3705 182.92C22.3703 182.92 22.3702 182.92 22.3701 182.92C22.3699 182.92 22.3698 182.92 22.3697 182.92C22.3696 182.92 22.3694 182.92 22.3693 182.92C22.3692 182.92 22.369 182.92 22.3689 182.92C22.3688 182.92 22.3686 182.92 22.3685 182.92C22.3684 182.92 22.3683 182.92 22.3681 182.92C22.368 182.92 22.3679 182.92 22.3677 182.92C22.3676 182.92 22.3675 182.92 22.3673 182.92C22.3672 182.92 22.3671 182.92 22.367 182.92C22.3668 182.92 22.3667 182.92 22.3666 182.92C22.3664 182.92 22.3663 182.92 22.3662 182.92C22.366 182.92 22.3659 182.92 22.3658 182.92C22.3657 182.92 22.3655 182.92 22.3654 182.92C22.3653 182.92 22.3651 182.92 22.365 182.92C22.3649 182.92 22.3647 182.92 22.3646 182.92C22.3645 182.92 22.3643 182.92 22.3642 182.92C22.3641 182.92 22.364 182.92 22.3638 182.92C22.3637 182.92 22.3636 182.92 22.3634 182.92C22.3633 182.92 22.3632 182.92 22.363 182.92C22.3629 182.92 22.3628 182.92 22.3627 182.92C22.3625 182.92 22.3624 182.92 22.3623 182.92C22.3621 182.92 22.362 182.92 22.3619 182.92C22.3617 182.92 22.3616 182.92 22.3615 182.92C22.3614 182.92 22.3612 182.92 22.3611 182.92C22.361 182.92 22.3608 182.92 22.3607 182.92C22.3606 182.92 22.3604 182.92 22.3603 182.92C22.3602 182.92 22.3601 182.92 22.3599 182.92C22.3598 182.92 22.3597 182.92 22.3595 182.92C22.3594 182.92 22.3593 182.92 22.3591 182.92C22.359 182.92 22.3589 182.92 22.3588 182.92C22.3586 182.92 22.3585 182.92 22.3584 182.92C22.3582 182.92 22.3581 182.92 22.358 182.92C22.3578 182.92 22.3577 182.92 22.3576 182.92C22.3574 182.92 22.3573 182.92 22.3572 182.92C22.3571 182.92 22.3569 182.92 22.3568 182.92C22.3567 182.92 22.3565 182.92 22.3564 182.92C22.3563 182.92 22.3561 182.92 22.356 182.92C22.3559 182.92 22.3558 182.92 22.3556 182.92C22.3555 182.92 22.3554 182.92 22.3552 182.92C22.3551 182.92 22.355 182.92 22.3548 182.92C22.3547 182.92 22.3546 182.92 22.3545 182.92C22.3543 182.92 22.3542 182.92 22.3541 182.92C22.3539 182.92 22.3538 182.92 22.3537 182.92C22.3535 182.92 22.3534 182.92 22.3533 182.92C22.3532 182.92 22.353 182.92 22.3529 182.92C22.3528 182.92 22.3526 182.92 22.3525 182.92C22.3524 182.92 22.3522 182.92 22.3521 182.92C22.352 182.92 22.3518 182.92 22.3517 182.92C22.3516 182.92 22.3515 182.92 22.3513 182.92C22.3512 182.92 22.3511 182.92 22.3509 182.92C22.3508 182.92 22.3507 182.92 22.3505 182.92C22.3504 182.92 22.3503 182.92 22.3502 182.92C22.35 182.92 22.3499 182.92 22.3498 182.92C22.3496 182.92 22.3495 182.92 22.3494 182.92C22.3492 182.92 22.3491 182.92 22.349 182.92C22.3489 182.92 22.3487 182.92 22.3486 182.92C22.3485 182.92 22.3483 182.92 22.3482 182.92C22.3481 182.92 22.3479 182.92 22.3478 182.92C22.3477 182.92 22.3476 182.92 22.3474 182.92C22.3473 182.92 22.3472 182.92 22.347 182.92C22.3469 182.92 22.3468 182.92 22.3466 182.92C22.3465 182.92 22.3464 182.92 22.3463 182.92C22.3461 182.92 22.346 182.92 22.3459 182.92C22.3457 182.92 22.3456 182.92 22.3455 182.92C22.3453 182.92 22.3452 182.92 22.3451 182.92C22.3449 182.92 22.3448 182.92 22.3447 182.92C22.3446 182.92 22.3444 182.92 22.3443 182.92C22.3442 182.92 22.344 182.92 22.3439 182.92C22.3438 182.92 22.3436 182.92 22.3435 182.92C22.3434 182.92 22.3433 182.92 22.3431 182.92C22.343 182.92 22.3429 182.92 22.3427 182.92C22.3426 182.92 22.3425 182.92 22.3423 182.92C22.3422 182.92 22.3421 182.92 22.342 182.92C22.3418 182.92 22.3417 182.92 22.3416 182.92C22.3414 182.92 22.3413 182.92 22.3412 182.92C22.341 182.92 22.3409 182.92 22.3408 182.92C22.3407 182.92 22.3405 182.92 22.3404 182.92C22.3403 182.92 22.3401 182.92 22.34 182.92C22.3399 182.92 22.3397 182.92 22.3396 182.92C22.3395 182.92 22.3393 182.92 22.3392 182.92C22.3391 182.92 22.339 182.92 22.3388 182.92C22.3387 182.92 22.3386 182.92 22.3384 182.92C22.3383 182.92 22.3382 182.92 22.338 182.92C22.3379 182.92 22.3378 182.92 22.3377 182.92C22.3375 182.92 22.3374 182.92 22.3373 182.92C22.3371 182.92 22.337 182.92 22.3369 182.92C22.3367 182.92 22.3366 182.92 22.3365 182.92C22.3364 182.92 22.3362 182.92 22.3361 182.92C22.336 182.92 22.3358 182.92 22.3357 182.92C22.3356 182.92 22.3354 182.92 22.3353 182.92C22.3352 182.92 22.3351 182.92 22.3349 182.92C22.3348 182.92 22.3347 182.92 22.3345 182.92C22.3344 182.92 22.3343 182.92 22.3341 182.92C22.334 182.92 22.3339 182.92 22.3338 182.92C22.3336 182.92 22.3335 182.92 22.3334 182.92C22.3332 182.92 22.3331 182.92 22.333 182.92C22.3328 182.92 22.3327 182.92 22.3326 182.92C22.3324 182.92 22.3323 182.92 22.3322 182.92C22.3321 182.92 22.3319 182.92 22.3318 182.92C22.3317 182.92 22.3315 182.92 22.3314 182.92C22.3313 182.92 22.3311 182.92 22.331 182.92C22.3309 182.92 22.3308 182.92 22.3306 182.92C22.3305 182.92 22.3304 182.92 22.3302 182.92C22.3301 182.92 22.33 182.92 22.3298 182.92C22.3297 182.92 22.3296 182.92 22.3295 182.92C22.3293 182.92 22.3292 182.92 22.3291 182.92C22.3289 182.92 22.3288 182.92 22.3287 182.92C22.3285 182.92 22.3284 182.92 22.3283 182.92C22.3282 182.92 22.328 182.92 22.3279 182.92C22.3278 182.92 22.3276 182.92 22.3275 182.92C22.3274 182.92 22.3272 182.92 22.3271 182.92C22.327 182.92 22.3268 182.92 22.3267 182.92C22.3266 182.92 22.3265 182.92 22.3263 182.92C22.3262 182.92 22.3261 182.92 22.3259 182.92C22.3258 182.92 22.3257 182.92 22.3255 182.92C22.3254 182.92 22.3253 182.92 22.3252 182.92C22.325 182.92 22.3249 182.92 22.3248 182.92C22.3246 182.92 22.3245 182.92 22.3244 182.92C22.3242 182.92 22.3241 182.92 22.324 182.92C22.3239 182.92 22.3237 182.92 22.3236 182.92C22.3235 182.92 22.3233 182.92 22.3232 182.92C22.3231 182.92 22.3229 182.92 22.3228 182.92C22.3227 182.92 22.3226 182.92 22.3224 182.92C22.3223 182.92 22.3222 182.92 22.322 182.92C22.3219 182.92 22.3218 182.92 22.3216 182.92C22.3215 182.92 22.3214 182.92 22.3213 182.92C22.3211 182.92 22.321 182.92 22.3209 182.92C22.3207 182.92 22.3206 182.92 22.3205 182.92C22.3203 182.92 22.3202 182.92 22.3201 182.92C22.3199 182.92 22.3198 182.92 22.3197 182.92C22.3196 182.92 22.3194 182.92 22.3193 182.92C22.3192 182.92 22.319 182.92 22.3189 182.92C22.3188 182.92 22.3186 182.92 22.3185 182.92C22.3184 182.92 22.3183 182.92 22.3181 182.92C22.318 182.92 22.3179 182.92 22.3177 182.92C22.3176 182.92 22.3175 182.92 22.3173 182.92C22.3172 182.92 22.3171 182.92 22.317 182.92C22.3168 182.92 22.3167 182.92 22.3166 182.92C22.3164 182.92 22.3163 182.92 22.3162 182.92C22.316 182.92 22.3159 182.92 22.3158 182.92C22.3157 182.92 22.3155 182.92 22.3154 182.92C22.3153 182.92 22.3151 182.92 22.315 182.92C22.3149 182.92 22.3147 182.92 22.3146 182.92C22.3145 182.92 22.3143 182.92 22.3142 182.92C22.3141 182.92 22.314 182.92 22.3138 182.92C22.3137 182.92 22.3136 182.92 22.3134 182.92C22.3133 182.92 22.3132 182.92 22.313 182.92C22.3129 182.92 22.3128 182.92 22.3127 182.92C22.3125 182.92 22.3124 182.92 22.3123 182.92C22.3121 182.92 22.312 182.92 22.3119 182.92C22.3117 182.92 22.3116 182.92 22.3115 182.92C22.3114 182.92 22.3112 182.92 22.3111 182.92C22.311 182.92 22.3108 182.92 22.3107 182.92C22.3106 182.92 22.3104 182.92 22.3103 182.92C22.3102 182.92 22.3101 182.92 22.3099 182.92C22.3098 182.92 22.3097 182.92 22.3095 182.92C22.3094 182.92 22.3093 182.92 22.3091 182.92C22.309 182.92 22.3089 182.92 22.3088 182.92C22.3086 182.92 22.3085 182.92 22.3084 182.92C22.3082 182.92 22.3081 182.92 22.308 182.92C22.3078 182.92 22.3077 182.92 22.3076 182.92C22.3074 182.92 22.3073 182.92 22.3072 182.92C22.3071 182.92 22.3069 182.92 22.3068 182.92C22.3067 182.92 22.3065 182.92 22.3064 182.92C22.3063 182.92 22.3061 182.92 22.306 182.92C22.3059 182.92 22.3058 182.92 22.3056 182.92C22.3055 182.92 22.3054 182.92 22.3052 182.92C22.3051 182.92 22.305 182.92 22.3048 182.92C22.3047 182.92 22.3046 182.92 22.3045 182.92C22.3043 182.92 22.3042 182.92 22.3041 182.92C22.3039 182.92 22.3038 182.92 22.3037 182.92C22.3035 182.92 22.3034 182.92 22.3033 182.92C22.3032 182.92 22.303 182.92 22.3029 182.92C22.3028 182.92 22.3026 182.92 22.3025 182.92C22.3024 182.92 22.3022 182.92 22.3021 182.92C22.302 182.92 22.3018 182.92 22.3017 182.92C22.3016 182.92 22.3015 182.92 22.3013 182.92C22.3012 182.92 22.3011 182.92 22.3009 182.92C22.3008 182.92 22.3007 182.92 22.3005 182.92C22.3004 182.92 22.3003 182.92 22.3002 182.92C22.3 182.92 22.2999 182.92 22.2998 182.92C22.2996 182.92 22.2995 182.92 22.2994 182.92C22.2992 182.92 22.2991 182.92 22.299 182.92C22.2989 182.92 22.2987 182.92 22.2986 182.92C22.2985 182.92 22.2983 182.92 22.2982 182.92C22.2981 182.92 22.2979 182.92 22.2978 182.92C22.2977 182.92 22.2976 182.92 22.2974 182.92C22.2973 182.92 22.2972 182.92 22.297 182.92C22.2969 182.92 22.2968 182.92 22.2966 182.92C22.2965 182.92 22.2964 182.92 22.2963 182.92C22.2961 182.92 22.296 182.92 22.2959 182.92C22.2957 182.92 22.2956 182.92 22.2955 182.92C22.2953 182.92 22.2952 182.92 22.2951 182.92C22.2949 182.92 22.2948 182.92 22.2947 182.92C22.2946 182.92 22.2944 182.92 22.2943 182.92C22.2942 182.92 22.294 182.92 22.2939 182.92C22.2938 182.92 22.2936 182.92 22.2935 182.92C22.2934 182.92 22.2933 182.92 22.2931 182.92C22.293 182.92 22.2929 182.92 22.2927 182.92C22.2926 182.92 22.2925 182.92 22.2923 182.92C22.2922 182.92 22.2921 182.92 22.292 182.92C22.2918 182.92 22.2917 182.92 22.2916 182.92C22.2914 182.92 22.2913 182.92 22.2912 182.92C22.291 182.92 22.2909 182.92 22.2908 182.92C22.2907 182.92 22.2905 182.92 22.2904 182.92C22.2903 182.92 22.2901 182.92 22.29 182.92C22.2899 182.92 22.2897 182.92 22.2896 182.92C22.2895 182.92 22.2893 182.92 22.2892 182.92C22.2891 182.92 22.289 182.92 22.2888 182.92C22.2887 182.92 22.2886 182.92 22.2884 182.92C22.2883 182.92 22.2882 182.92 22.288 182.92C22.2879 182.92 22.2878 182.92 22.2877 182.92C22.2875 182.92 22.2874 182.92 22.2873 182.92C22.2871 182.92 22.287 182.92 22.2869 182.92C22.2867 182.92 22.2866 182.92 22.2865 182.92C22.2864 182.92 22.2862 182.92 22.2861 182.92C22.286 182.92 22.2858 182.92 22.2857 182.92C22.2856 182.92 22.2854 182.92 22.2853 182.92C22.2852 182.92 22.2851 182.92 22.2849 182.92C22.2848 182.92 22.2847 182.92 22.2845 182.92C22.2844 182.92 22.2843 182.92 22.2841 182.92C22.284 182.92 22.2839 182.92 22.2838 182.92C22.2836 182.92 22.2835 182.92 22.2834 182.92C22.2832 182.92 22.2831 182.92 22.283 182.92C22.2828 182.92 22.2827 182.92 22.2826 182.92C22.2824 182.92 22.2823 182.92 22.2822 182.92C22.2821 182.92 22.2819 182.92 22.2818 182.92C22.2817 182.92 22.2815 182.92 22.2814 182.92C22.2813 182.92 22.2811 182.92 22.281 182.92C22.2809 182.92 22.2808 182.92 22.2806 182.92C22.2805 182.92 22.2804 182.92 22.2802 182.92C22.2801 182.92 22.28 182.92 22.2798 182.92C22.2797 182.92 22.2796 182.92 22.2795 182.92C22.2793 182.92 22.2792 182.92 22.2791 182.92C22.2789 182.92 22.2788 182.92 22.2787 182.92C22.2785 182.92 22.2784 182.92 22.2783 182.92C22.2782 182.92 22.278 182.92 22.2779 182.92C22.2778 182.92 22.2776 182.92 22.2775 182.92C22.2774 182.92 22.2772 182.92 22.2771 182.92C22.277 182.92 22.2768 182.92 22.2767 182.92C22.2766 182.92 22.2765 182.92 22.2763 182.92C22.2762 182.92 22.2761 182.92 22.2759 182.92C22.2758 182.92 22.2757 182.92 22.2755 182.92C22.2754 182.92 22.2753 182.92 22.2752 182.92C22.275 182.92 22.2749 182.92 22.2748 182.92C22.2746 182.92 22.2745 182.92 22.2744 182.92C22.2742 182.92 22.2741 182.92 22.274 182.92C22.2739 182.92 22.2737 182.92 22.2736 182.92C22.2735 182.92 22.2733 182.92 22.2732 182.92C22.2731 182.92 22.2729 182.92 22.2728 182.92C22.2727 182.92 22.2726 182.92 22.2724 182.92C22.2723 182.92 22.2722 182.92 22.272 182.92C22.2719 182.92 22.2718 182.92 22.2716 182.92C22.2715 182.92 22.2714 182.92 22.2713 182.92C22.2711 182.92 22.271 182.92 22.2709 182.92C22.2707 182.92 22.2706 182.92 22.2705 182.92C22.2703 182.92 22.2702 182.92 22.2701 182.92C22.2699 182.92 22.2698 182.92 22.2697 182.92C22.2696 182.92 22.2694 182.92 22.2693 182.92C22.2692 182.92 22.269 182.92 22.2689 182.92C22.2688 182.92 22.2686 182.92 22.2685 182.92C22.2684 182.92 22.2683 182.92 22.2681 182.92C22.268 182.92 22.2679 182.92 22.2677 182.92C22.2676 182.92 22.2675 182.92 22.2673 182.92C22.2672 182.92 22.2671 182.92 22.267 182.92C22.2668 182.92 22.2667 182.92 22.2666 182.92C22.2664 182.92 22.2663 182.92 22.2662 182.92C22.266 182.92 22.2659 182.92 22.2658 182.92C22.2657 182.92 22.2655 182.92 22.2654 182.92C22.2653 182.92 22.2651 182.92 22.265 182.92C22.2649 182.92 22.2647 182.92 22.2646 182.92C22.2645 182.92 22.2643 182.92 22.2642 182.92C22.2641 182.92 22.264 182.92 22.2638 182.92C22.2637 182.92 22.2636 182.92 22.2634 182.92C22.2633 182.92 22.2632 182.92 22.263 182.92C22.2629 182.92 22.2628 182.92 22.2627 182.92C22.2625 182.92 22.2624 182.92 22.2623 182.92C22.2621 182.92 22.262 182.92 22.2619 182.92C22.2617 182.92 22.2616 182.92 22.2615 182.92C22.2614 182.92 22.2612 182.92 22.2611 182.92C22.261 182.92 22.2608 182.92 22.2607 182.92C22.2606 182.92 22.2604 182.92 22.2603 182.92C22.2602 182.92 22.2601 182.92 22.2599 182.92C22.2598 182.92 22.2597 182.92 22.2595 182.92C22.2594 182.92 22.2593 182.92 22.2591 182.92C22.259 182.92 22.2589 182.92 22.2588 182.92C22.2586 182.92 22.2585 182.92 22.2584 182.92C22.2582 182.92 22.2581 182.92 22.258 182.92C22.2578 182.92 22.2577 182.92 22.2576 182.92C22.2574 182.92 22.2573 182.92 22.2572 182.92C22.2571 182.92 22.2569 182.92 22.2568 182.92C22.2567 182.92 22.2565 182.92 22.2564 182.92C22.2563 182.92 22.2561 182.92 22.256 182.92C22.2559 182.92 22.2558 182.92 22.2556 182.92C22.2555 182.92 22.2554 182.92 22.2552 182.92C22.2551 182.92 22.255 182.92 22.2548 182.92C22.2547 182.92 22.2546 182.92 22.2545 182.92C22.2543 182.92 22.2542 182.92 22.2541 182.92C22.2539 182.92 22.2538 182.92 22.2537 182.92C22.2535 182.92 22.2534 182.92 22.2533 182.92C22.2532 182.92 22.253 182.92 22.2529 182.92C22.2528 182.92 22.2526 182.92 22.2525 182.92C22.2524 182.92 22.2522 182.92 22.2521 182.92C22.252 182.92 22.2518 182.92 22.2517 182.92C22.2516 182.92 22.2515 182.92 22.2513 182.92C22.2512 182.92 22.2511 182.92 22.2509 182.92C22.2508 182.92 22.2507 182.92 22.2505 182.92C22.2504 182.92 22.2503 182.92 22.2502 182.92C22.25 182.92 22.2499 182.92 22.2498 182.92C22.2496 182.92 22.2495 182.92 22.2494 182.92C22.2492 182.92 22.2491 182.92 22.249 182.92C22.2489 182.92 22.2487 182.92 22.2486 182.92C22.2485 182.92 22.2483 182.92 22.2482 182.92C22.2481 182.92 22.2479 182.92 22.2478 182.92C22.2477 182.92 22.2476 182.92 22.2474 182.92C22.2473 182.92 22.2472 182.92 22.247 182.92C22.2469 182.92 22.2468 182.92 22.2466 182.92C22.2465 182.92 22.2464 182.92 22.2463 182.92C22.2461 182.92 22.246 182.92 22.2459 182.92C22.2457 182.92 22.2456 182.92 22.2455 182.92C22.2453 182.92 22.2452 182.92 22.2451 182.92C22.2449 182.92 22.2448 182.92 22.2447 182.92C22.2446 182.92 22.2444 182.92 22.2443 182.92C22.2442 182.92 22.244 182.92 22.2439 182.92C22.2438 182.92 22.2436 182.92 22.2435 182.92C22.2434 182.92 22.2433 182.92 22.2431 182.92C22.243 182.92 22.2429 182.92 22.2427 182.92C22.2426 182.92 22.2425 182.92 22.2423 182.92C22.2422 182.92 22.2421 182.92 22.242 182.92C22.2418 182.92 22.2417 182.92 22.2416 182.92C22.2414 182.92 22.2413 182.92 22.2412 182.92C22.241 182.92 22.2409 182.92 22.2408 182.92C22.2407 182.92 22.2405 182.92 22.2404 182.92C22.2403 182.92 22.2401 182.92 22.24 182.92C22.2399 182.92 22.2397 182.92 22.2396 182.92C22.2395 182.92 22.2393 182.92 22.2392 182.92C22.2391 182.92 22.239 182.92 22.2388 182.92C22.2387 182.92 22.2386 182.92 22.2384 182.92C22.2383 182.92 22.2382 182.92 22.238 182.92C22.2379 182.92 22.2378 182.92 22.2377 182.92C22.2375 182.92 22.2374 182.92 22.2373 182.92C22.2371 182.92 22.237 182.92 22.2369 182.92C22.2367 182.92 22.2366 182.92 22.2365 182.92C22.2364 182.92 22.2362 182.92 22.2361 182.92C22.236 182.92 22.2358 182.92 22.2357 182.92C22.2356 182.92 22.2354 182.92 22.2353 182.92C22.2352 182.92 22.2351 182.92 22.2349 182.92C22.2348 182.92 22.2347 182.92 22.2345 182.92C22.2344 182.92 22.2343 182.92 22.2341 182.92C22.234 182.92 22.2339 182.92 22.2338 182.92C22.2336 182.92 22.2335 182.92 22.2334 182.92C22.2332 182.92 22.2331 182.92 22.233 182.92C22.2328 182.92 22.2327 182.92 22.2326 182.92C22.2324 182.92 22.2323 182.92 22.2322 182.92C22.2321 182.92 22.2319 182.92 22.2318 182.92C22.2317 182.92 22.2315 182.92 22.2314 182.92C22.2313 182.92 22.2311 182.92 22.231 182.92C22.2309 182.92 22.2308 182.92 22.2306 182.92C22.2305 182.92 22.2304 182.92 22.2302 182.92C22.2301 182.92 22.23 182.92 22.2298 182.92C22.2297 182.92 22.2296 182.92 22.2295 182.92C22.2293 182.92 22.2292 182.92 22.2291 182.92C22.2289 182.92 22.2288 182.92 22.2287 182.92C22.2285 182.92 22.2284 182.92 22.2283 182.92C22.2282 182.92 22.228 182.92 22.2279 182.92C22.2278 182.92 22.2276 182.92 22.2275 182.92C22.2274 182.92 22.2272 182.92 22.2271 182.92C22.227 182.92 22.2268 182.92 22.2267 182.92C22.2266 182.92 22.2265 182.92 22.2263 182.92C22.2262 182.92 22.2261 182.92 22.2259 182.92C22.2258 182.92 22.2257 182.92 22.2255 182.92C22.2254 182.92 22.2253 182.92 22.2252 182.92C22.225 182.92 22.2249 182.92 22.2248 182.92C22.2246 182.92 22.2245 182.92 22.2244 182.92C22.2242 182.92 22.2241 182.92 22.224 182.92C22.2239 182.92 22.2237 182.92 22.2236 182.92C22.2235 182.92 22.2233 182.92 22.2232 182.92C22.2231 182.92 22.2229 182.92 22.2228 182.92C22.2227 182.92 22.2226 182.92 22.2224 182.92C22.2223 182.92 22.2222 182.92 22.222 182.92C22.2219 182.92 22.2218 182.92 22.2216 182.92C22.2215 182.92 22.2214 182.92 22.2213 182.92C22.2211 182.92 22.221 182.92 22.2209 182.92C22.2207 182.92 22.2206 182.92 22.2205 182.92C22.2203 182.92 22.2202 182.92 22.2201 182.92C22.2199 182.92 22.2198 182.92 22.2197 182.92C22.2196 182.92 22.2194 182.92 22.2193 182.92C22.2192 182.92 22.219 182.92 22.2189 182.92C22.2188 182.92 22.2186 182.92 22.2185 182.92C22.2184 182.92 22.2183 182.92 22.2181 182.92C22.218 182.92 22.2179 182.92 22.2177 182.92C22.2176 182.92 22.2175 182.92 22.2173 182.92C22.2172 182.92 22.2171 182.92 22.217 182.92C22.2168 182.92 22.2167 182.92 22.2166 182.92C22.2164 182.92 22.2163 182.92 22.2162 182.92C22.216 182.92 22.2159 182.92 22.2158 182.92C22.2157 182.92 22.2155 182.92 22.2154 182.92C22.2153 182.92 22.2151 182.92 22.215 182.92C22.2149 182.92 22.2147 182.92 22.2146 182.92C22.2145 182.92 22.2143 182.92 22.2142 182.92C22.2141 182.92 22.214 182.92 22.2138 182.92C22.2137 182.92 22.2136 182.92 22.2134 182.92C22.2133 182.92 22.2132 182.92 22.213 182.92C22.2129 182.92 22.2128 182.92 22.2127 182.92C22.2125 182.92 22.2124 182.92 22.2123 182.92C22.2121 182.92 22.212 182.92 22.2119 182.92C22.2117 182.92 22.2116 182.92 22.2115 182.92C22.2114 182.92 22.2112 182.92 22.2111 182.92C22.211 182.92 22.2108 182.92 22.2107 182.92C22.2106 182.92 22.2104 182.92 22.2103 182.92C22.2102 182.92 22.2101 182.92 22.2099 182.92C22.2098 182.92 22.2097 182.92 22.2095 182.92C22.2094 182.92 22.2093 182.92 22.2091 182.92C22.209 182.92 22.2089 182.92 22.2088 182.92C22.2086 182.92 22.2085 182.92 22.2084 182.92C22.2082 182.92 22.2081 182.92 22.208 182.92C22.2078 182.92 22.2077 182.92 22.2076 182.92C22.2074 182.92 22.2073 182.92 22.2072 182.92C22.2071 182.92 22.2069 182.92 22.2068 182.92C22.2067 182.92 22.2065 182.92 22.2064 182.92C22.2063 182.92 22.2061 182.92 22.206 182.92C22.2059 182.92 22.2058 182.92 22.2056 182.92C22.2055 182.92 22.2054 182.92 22.2052 182.92C22.2051 182.92 22.205 182.92 22.2048 182.92C22.2047 182.92 22.2046 182.92 22.2045 182.92C22.2043 182.92 22.2042 182.92 22.2041 182.92C22.2039 182.92 22.2038 182.92 22.2037 182.92C22.2035 182.92 22.2034 182.92 22.2033 182.92C22.2032 182.92 22.203 182.92 22.2029 182.92C22.2028 182.92 22.2026 182.92 22.2025 182.92C22.2024 182.92 22.2022 182.92 22.2021 182.92C22.202 182.92 22.2018 182.92 22.2017 182.92C22.2016 182.92 22.2015 182.92 22.2013 182.92C22.2012 182.92 22.2011 182.92 22.2009 182.92C22.2008 182.92 22.2007 182.92 22.2005 182.92C22.2004 182.92 22.2003 182.92 22.2002 182.92C22.2 182.92 22.1999 182.92 22.1998 182.92C22.1996 182.92 22.1995 182.92 22.1994 182.92C22.1992 182.92 22.1991 182.92 22.199 182.92C22.1989 182.92 22.1987 182.92 22.1986 182.92C22.1985 182.92 22.1983 182.92 22.1982 182.92C22.1981 182.92 22.1979 182.92 22.1978 182.92C22.1977 182.92 22.1976 182.92 22.1974 182.92C22.1973 182.92 22.1972 182.92 22.197 182.92C22.1969 182.92 22.1968 182.92 22.1966 182.92C22.1965 182.92 22.1964 182.92 22.1963 182.92C22.1961 182.92 22.196 182.92 22.1959 182.92C22.1957 182.92 22.1956 182.92 22.1955 182.92C22.1953 182.92 22.1952 182.92 22.1951 182.92C22.1949 182.92 22.1948 182.92 22.1947 182.92C22.1946 182.92 22.1944 182.92 22.1943 182.92C22.1942 182.92 22.194 182.92 22.1939 182.92C22.1938 182.92 22.1936 182.92 22.1935 182.92C22.1934 182.92 22.1933 182.92 22.1931 182.92C22.193 182.92 22.1929 182.92 22.1927 182.92C22.1926 182.92 22.1925 182.92 22.1923 182.92C22.1922 182.92 22.1921 182.92 22.192 182.92C22.1918 182.92 22.1917 182.92 22.1916 182.92C22.1914 182.92 22.1913 182.92 22.1912 182.92C22.191 182.92 22.1909 182.92 22.1908 182.92C22.1907 182.92 22.1905 182.92 22.1904 182.92C22.1903 182.92 22.1901 182.92 22.19 182.92C22.1899 182.92 22.1897 182.92 22.1896 182.92C22.1895 182.92 22.1893 182.92 22.1892 182.92C22.1891 182.92 22.189 182.92 22.1888 182.92C22.1887 182.92 22.1886 182.92 22.1884 182.92C22.1883 182.92 22.1882 182.92 22.188 182.92C22.1879 182.92 22.1878 182.92 22.1877 182.92C22.1875 182.92 22.1874 182.92 22.1873 182.92C22.1871 182.92 22.187 182.92 22.1869 182.92C22.1867 182.92 22.1866 182.92 22.1865 182.92C22.1864 182.92 22.1862 182.92 22.1861 182.92C22.186 182.92 22.1858 182.92 22.1857 182.92C22.1856 182.92 22.1854 182.92 22.1853 182.92C22.1852 182.92 22.1851 182.92 22.1849 182.92C22.1848 182.92 22.1847 182.92 22.1845 182.92C22.1844 182.92 22.1843 182.92 22.1841 182.92C22.184 182.92 22.1839 182.92 22.1838 182.92C22.1836 182.92 22.1835 182.92 22.1834 182.92C22.1832 182.92 22.1831 182.92 22.183 182.92C22.1828 182.92 22.1827 182.92 22.1826 182.92C22.1824 182.92 22.1823 182.92 22.1822 182.92C22.1821 182.92 22.1819 182.92 22.1818 182.92C22.1817 182.92 22.1815 182.92 22.1814 182.92C22.1813 182.92 22.1811 182.92 22.181 182.92C22.1809 182.92 22.1808 182.92 22.1806 182.92C22.1805 182.92 22.1804 182.92 22.1802 182.92C22.1801 182.92 22.18 182.92 22.1798 182.92C22.1797 182.92 22.1796 182.92 22.1795 182.92C22.1793 182.92 22.1792 182.92 22.1791 182.92C22.1789 182.92 22.1788 182.92 22.1787 182.92C22.1785 182.92 22.1784 182.92 22.1783 182.92C22.1782 182.92 22.178 182.92 22.1779 182.92C22.1778 182.92 22.1776 182.92 22.1775 182.92C22.1774 182.92 22.1772 182.92 22.1771 182.92C22.177 182.92 22.1768 182.92 22.1767 182.92C22.1766 182.92 22.1765 182.92 22.1763 182.92C22.1762 182.92 22.1761 182.92 22.1759 182.92C22.1758 182.92 22.1757 182.92 22.1755 182.92C22.1754 182.92 22.1753 182.92 22.1752 182.92C22.175 182.92 22.1749 182.92 22.1748 182.92C22.1746 182.92 22.1745 182.92 22.1744 182.92C22.1742 182.92 22.1741 182.92 22.174 182.92C22.1739 182.92 22.1737 182.92 22.1736 182.92C22.1735 182.92 22.1733 182.92 22.1732 182.92C22.1731 182.92 22.1729 182.92 22.1728 182.92C22.1727 182.92 22.1726 182.92 22.1724 182.92C22.1723 182.92 22.1722 182.92 22.172 182.92C22.1719 182.92 22.1718 182.92 22.1716 182.92C22.1715 182.92 22.1714 182.92 22.1713 182.92V194.92ZM22.3713 194.92H22.7313V182.92H22.3713V194.92ZM22.7313 194.92C23.6145 194.92 24.5236 194.805 25.4312 194.54L22.0713 183.02C22.3389 182.942 22.568 182.92 22.7313 182.92V194.92ZM25.5799 194.495C26.4844 194.205 27.4217 193.755 28.2949 193.076L20.9276 183.604C21.3208 183.298 21.6848 183.142 21.9226 183.065L25.5799 194.495ZM28.3291 193.049C29.2855 192.294 30.0436 191.352 30.5778 190.283L19.8447 184.917C20.0856 184.435 20.4436 183.986 20.8934 183.631L28.3291 193.049ZM30.5778 190.283C31.1954 189.048 31.4313 187.775 31.4313 186.6H19.4313C19.4313 186.171 19.5205 185.565 19.8447 184.917L30.5778 190.283ZM31.4313 186.6C31.4313 184.498 30.6965 181.954 28.3949 180.164L21.0276 189.636C20.4494 189.186 20.0006 188.592 19.7263 187.945C19.4684 187.336 19.4313 186.841 19.4313 186.6H31.4313ZM28.4752 180.227C26.7552 178.842 24.7597 178.32 22.9113 178.32V190.32C22.7338 190.32 22.4334 190.296 22.0611 190.176C21.6779 190.052 21.2927 189.851 20.9473 189.573L28.4752 180.227ZM22.9113 178.32C21.6841 178.32 20.3381 178.558 19.028 179.213L24.3945 189.947C23.7777 190.255 23.2318 190.32 22.9113 190.32V178.32ZM19.1149 179.171C18.0017 179.705 17.0089 180.475 16.2078 181.465L25.5347 189.015C25.1869 189.445 24.7541 189.775 24.3076 189.989L19.1149 179.171ZM16.0987 181.604C15.3877 182.537 14.913 183.553 14.6221 184.572L26.1604 187.868C26.0828 188.14 25.9281 188.503 25.6438 188.876L16.0987 181.604ZM14.6221 184.572C14.3527 185.515 14.2313 186.465 14.2313 187.4H26.2313C26.2313 187.508 26.2164 187.672 26.1604 187.868L14.6221 184.572ZM20.2313 181.4H18.5312V193.4H20.2313V181.4ZM24.5266 187.635C24.5344 187.436 24.5606 187.386 24.5434 187.437L13.1592 183.643C12.7686 184.814 12.5814 186.004 12.5359 187.165L24.5266 187.635ZM24.5017 187.558C24.4663 187.657 24.3666 187.874 24.151 188.114L15.2315 180.086C14.296 181.126 13.6362 182.303 13.2008 183.522L24.5017 187.558ZM24.151 188.114C23.8811 188.414 23.5877 188.593 23.3781 188.682L18.6844 177.638C17.4081 178.18 16.2214 178.986 15.2315 180.086L24.151 188.114ZM23.3293 188.702C23.0207 188.83 22.8432 188.82 22.9113 188.82V176.82C21.5659 176.82 20.1352 177.036 18.7332 177.618L23.3293 188.702ZM22.9113 188.82C22.9571 188.82 22.971 188.823 22.9575 188.821C22.9434 188.819 22.9046 188.812 22.8467 188.795L26.3758 177.325C25.2166 176.969 24.0477 176.82 22.9113 176.82V188.82ZM23.0203 188.845C22.8695 188.804 22.5807 188.693 22.2629 188.441L29.7196 179.039C28.6285 178.174 27.4197 177.61 26.2022 177.275L23.0203 188.845ZM22.2629 188.441C21.8418 188.107 21.5625 187.704 21.4084 187.357L32.3741 182.483C31.7934 181.176 30.914 179.986 29.7196 179.039L22.2629 188.441ZM21.4658 187.482C21.2371 186.998 21.2313 186.653 21.2313 186.62H33.2313C33.2313 185.281 32.9987 183.802 32.3167 182.358L21.4658 187.482ZM21.2313 186.62C21.2313 186.349 21.2723 186.013 21.3925 185.648C21.5134 185.281 21.6897 184.96 21.8868 184.699L31.4557 191.941C32.6465 190.367 33.2313 188.519 33.2313 186.62H21.2313ZM21.8868 184.699C21.9895 184.564 22.1247 184.419 22.2931 184.285C22.4616 184.15 22.6353 184.047 22.7982 183.973L27.7443 194.907C29.223 194.238 30.4822 193.227 31.4557 191.941L21.8868 184.699ZM19.2713 189.44V189.48H31.2713V189.44H19.2713ZM24.0079 195.345C23.8626 195.314 23.5543 195.225 23.1834 194.989C22.7964 194.743 22.4468 194.404 22.1826 194.004L32.1999 187.396C30.7672 185.224 28.6389 184.068 26.5346 183.615L24.0079 195.345ZM22.2317 194.077C22.0816 193.856 21.9726 193.618 21.906 193.387C21.8412 193.162 21.8313 192.996 21.8313 192.92H33.8313C33.8313 191.019 33.3386 189.068 32.1508 187.323L22.2317 194.077ZM21.8313 192.92C21.8313 192.862 21.8458 192.565 22.0386 192.169L32.8239 197.431C33.5501 195.942 33.8313 194.391 33.8313 192.92H21.8313ZM22.0116 192.226C22.1237 191.99 22.3187 191.72 22.5918 191.496L30.1907 200.784C31.3438 199.84 32.2322 198.677 32.8509 197.374L22.0116 192.226ZM22.5918 191.496C22.808 191.319 22.9906 191.249 23.0489 191.231L26.6136 202.689C27.8719 202.298 29.0945 201.681 30.1907 200.784L22.5918 191.496ZM23.1312 191.206C23.1436 191.202 23.0937 191.22 22.9513 191.22V203.22C24.1422 203.22 25.3456 203.064 26.5313 202.714L23.1312 191.206ZM22.9513 191.22C22.8685 191.22 22.83 191.214 22.829 191.214C22.8289 191.214 22.8647 191.22 22.9273 191.241L19.0552 202.599C20.3568 203.043 21.6769 203.22 22.9513 203.22V191.22ZM22.9273 191.241C23.0681 191.289 23.3256 191.411 23.5902 191.658L15.3923 200.422C16.4835 201.442 17.7411 202.151 19.0552 202.599L22.9273 191.241ZM23.6638 191.728C23.9073 191.964 24.0467 192.211 24.111 192.374L12.9515 196.786C13.4691 198.095 14.2486 199.316 15.3187 200.352L23.6638 191.728ZM24.1546 192.488C24.2496 192.743 24.2279 192.857 24.2303 192.729L12.2322 192.511C12.2079 193.849 12.3862 195.27 12.9079 196.672L24.1546 192.488ZM18.2313 198.62H19.9313V186.62H18.2313V198.62ZM13.9338 192.794C13.9926 194.824 14.6198 196.983 16.1903 198.802L25.2722 190.958C25.5219 191.247 25.6994 191.568 25.8073 191.873C25.911 192.166 25.9267 192.375 25.9287 192.446L13.9338 192.794ZM16.2353 198.853C18.1754 201.049 20.7594 201.74 22.9513 201.74V189.74C23.0433 189.74 23.3755 189.753 23.8336 189.93C24.3239 190.12 24.8212 190.447 25.2272 190.907L16.2353 198.853ZM22.9513 201.74C23.954 201.74 24.9692 201.593 25.9673 201.272L22.2952 189.848C22.5466 189.767 22.7752 189.74 22.9513 189.74V201.74ZM26.1493 201.21C27.096 200.872 28.0304 200.376 28.8864 199.683L21.3361 190.357C21.6321 190.117 21.9131 189.981 22.1132 189.91L26.1493 201.21ZM29.016 199.576C29.9296 198.792 30.6612 197.838 31.1804 196.756L20.3621 191.564C20.5613 191.149 20.8529 190.768 21.2065 190.464L29.016 199.576ZM31.1378 196.843C31.7684 195.582 32.0312 194.263 32.0312 193H20.0313C20.0313 192.591 20.1208 192.044 20.4047 191.477L31.1378 196.843ZM32.0312 193C32.0312 191.83 31.8164 190.527 31.2004 189.244L20.3821 194.436C20.0861 193.82 20.0313 193.29 20.0313 193H32.0312ZM31.239 189.326C30.7475 188.261 30.0261 187.249 29.0371 186.408L21.2654 195.552C20.8097 195.164 20.515 194.726 20.3435 194.354L31.239 189.326ZM29.165 186.52C28.1651 185.62 27.0172 185.027 25.8396 184.691L22.5429 196.229C22.112 196.106 21.604 195.86 21.1375 195.44L29.165 186.52ZM26.0886 184.768C25.0459 184.42 24.0036 184.28 23.0113 184.28V196.28C22.8723 196.28 22.6166 196.26 22.2939 196.152L26.0886 184.768ZM23.0113 184.28C22.4306 184.28 21.8404 184.312 21.247 184.386L22.7355 196.294C22.7821 196.288 22.8719 196.28 23.0113 196.28V184.28ZM27.9913 190.34V188.9H15.9913V190.34H27.9913ZM36.9445 184.56V190.56H42.9445V184.56H36.9445ZM31.2245 184.56V178.56H26.239L25.326 183.461L31.2245 184.56ZM30.4645 188.64L24.566 187.541L23.9873 190.648L26.2219 192.883L30.4645 188.64ZM30.5045 188.68L26.2619 192.923L30.7722 197.433L34.9985 192.655L30.5045 188.68ZM31.6845 187.92L33.5819 193.612L33.6278 193.597L33.6734 193.581L31.6845 187.92ZM34.9245 187.96L36.9426 182.31L36.9425 182.31L34.9245 187.96ZM36.3845 188.88L32.1419 193.123L32.1767 193.157L32.212 193.192L36.3845 188.88ZM37.3645 190.4L31.7771 192.586L31.7853 192.607L31.7937 192.628L37.3645 190.4ZM37.4045 194.28L31.7812 192.188L31.7674 192.225L31.7541 192.262L37.4045 194.28ZM36.4845 195.78L40.8576 199.888L40.8576 199.888L36.4845 195.78ZM34.9245 196.84L37.2151 202.386L37.2445 202.373L37.2739 202.361L34.9245 196.84ZM31.0245 196.96L29.0424 202.623L29.1263 202.653L29.2111 202.679L31.0245 196.96ZM29.6045 196.18L25.7489 200.777L25.7931 200.814L25.838 200.85L29.6045 196.18ZM28.6245 194.9L23.2021 197.469L28.6245 194.9ZM28.2445 193.18V187.18H22.1182L22.2458 193.305L28.2445 193.18ZM29.9445 193.18L35.9281 192.737L35.5165 187.18H29.9445V193.18ZM30.2045 194.2L24.7501 196.7L24.8141 196.839L24.885 196.975L30.2045 194.2ZM30.8245 195.02L26.6981 199.376L26.8154 199.487L26.9386 199.592L30.8245 195.02ZM31.7445 195.56L29.5907 201.16L29.7179 201.209L29.8472 201.252L31.7445 195.56ZM34.0645 195.54L36.1484 201.166L36.2036 201.146L36.2584 201.125L34.0645 195.54ZM35.0245 194.9L30.7819 190.657L30.7302 190.709L30.6797 190.762L35.0245 194.9ZM35.6845 193.86L41.2799 196.026L41.2914 195.996L41.3025 195.967L35.6845 193.86ZM35.6845 191.1L30.0513 193.166L30.0935 193.281L30.1404 193.394L35.6845 191.1ZM35.0445 190.08L30.7044 194.223L30.7526 194.273L30.8019 194.323L35.0445 190.08ZM34.0245 189.4L31.7304 194.944L31.7632 194.958L31.7962 194.971L34.0245 189.4ZM31.2245 189.54L34.1661 194.769L34.1923 194.755L34.2183 194.74L31.2245 189.54ZM30.0845 190.5L29.7563 196.491L32.7649 196.656L34.6939 194.341L30.0845 190.5ZM28.6245 190.42L22.7188 189.361L21.5209 196.04L28.2963 196.411L28.6245 190.42ZM29.9445 183.06V177.06H24.9249L24.0388 182.001L29.9445 183.06ZM36.9445 183.06H42.9445V177.06H36.9445V183.06ZM36.9445 178.56H31.2245V190.56H36.9445V178.56ZM25.326 183.461L24.566 187.541L36.3631 189.739L37.1231 185.659L25.326 183.461ZM26.2219 192.883L26.2619 192.923L34.7472 184.437L34.7072 184.397L26.2219 192.883ZM34.9985 192.655C34.5416 193.172 34.0073 193.47 33.5819 193.612L29.7872 182.228C28.4017 182.69 27.0808 183.495 26.0105 184.705L34.9985 192.655ZM33.6734 193.581C33.5848 193.612 33.3998 193.66 33.1445 193.66V181.66C31.9292 181.66 30.771 181.881 29.6956 182.259L33.6734 193.581ZM33.1445 193.66C33.1375 193.66 33.1085 193.659 33.0624 193.652C33.0157 193.644 32.9622 193.63 32.9065 193.61L36.9425 182.31C35.7006 181.866 34.4216 181.66 33.1445 181.66V193.66ZM32.9065 193.61C32.6448 193.517 32.3679 193.349 32.1419 193.123L40.6272 184.637C39.5745 183.585 38.3242 182.803 36.9426 182.31L32.9065 193.61ZM32.212 193.192C31.923 192.912 31.8054 192.659 31.7771 192.586L42.952 188.214C42.4437 186.915 41.6727 185.648 40.5571 184.568L32.212 193.192ZM31.7937 192.628C31.7398 192.494 31.7227 192.405 31.7192 192.384C31.7159 192.365 31.7245 192.406 31.7245 192.52H43.7245C43.7245 191.133 43.5218 189.638 42.9354 188.172L31.7937 192.628ZM31.7245 192.52C31.7245 192.462 31.7299 192.4 31.7413 192.337C31.7527 192.274 31.768 192.223 31.7812 192.188L43.0279 196.372C43.4853 195.143 43.7245 193.848 43.7245 192.52H31.7245ZM31.7541 192.262C31.8359 192.033 31.9686 191.824 32.1114 191.672L40.8576 199.888C41.8271 198.856 42.5731 197.647 43.055 196.298L31.7541 192.262ZM32.1114 191.672C32.3362 191.433 32.5347 191.336 32.5752 191.319L37.2739 202.361C38.5677 201.81 39.8062 201.007 40.8576 199.888L32.1114 191.672ZM32.634 191.294C32.7682 191.239 32.8589 191.22 32.8849 191.216C32.9093 191.211 32.8737 191.22 32.7645 191.22V203.22C34.1904 203.22 35.7207 203.003 37.2151 202.386L32.634 191.294ZM32.7645 191.22C32.7411 191.22 32.7396 191.218 32.7562 191.221C32.7733 191.223 32.8018 191.229 32.838 191.241L29.2111 202.679C30.3837 203.051 31.5787 203.22 32.7645 203.22V191.22ZM33.0066 191.297C33.0787 191.322 33.2173 191.386 33.371 191.51L25.838 200.85C26.8185 201.641 27.9037 202.225 29.0424 202.623L33.0066 191.297ZM33.4602 191.583C33.7353 191.814 33.9318 192.088 34.047 192.331L23.2021 197.469C23.7972 198.725 24.6471 199.853 25.7489 200.777L33.4602 191.583ZM34.047 192.331C34.2172 192.691 34.2414 192.969 34.2432 193.055L22.2458 193.305C22.2743 194.671 22.5519 196.096 23.2021 197.469L34.047 192.331ZM28.2445 199.18H29.9445V187.18H28.2445V199.18ZM23.9609 193.623C24.0389 194.676 24.2986 195.715 24.7501 196.7L35.6589 191.7C35.8172 192.045 35.9035 192.404 35.9281 192.737L23.9609 193.623ZM24.885 196.975C25.3552 197.877 25.9666 198.683 26.6981 199.376L34.951 190.664C35.1758 190.877 35.3739 191.137 35.524 191.425L24.885 196.975ZM26.9386 199.592C27.7514 200.282 28.6517 200.799 29.5907 201.16L33.8984 189.96C34.144 190.054 34.431 190.211 34.7104 190.448L26.9386 199.592ZM29.8472 201.252C30.8899 201.6 31.9322 201.74 32.9245 201.74V189.74C33.0635 189.74 33.3192 189.76 33.6419 189.868L29.8472 201.252ZM32.9245 201.74C34.0056 201.74 35.0936 201.557 36.1484 201.166L31.9806 189.914C32.3154 189.79 32.6435 189.74 32.9245 189.74V201.74ZM36.2584 201.125C37.4144 200.67 38.477 199.975 39.3694 199.038L30.6797 190.762C31.0388 190.385 31.4614 190.116 31.8706 189.955L36.2584 201.125ZM39.2672 199.143C40.2045 198.205 40.8545 197.125 41.2799 196.026L30.0891 191.694C30.1945 191.422 30.4046 191.035 30.7819 190.657L39.2672 199.143ZM41.3025 195.967C41.7656 194.732 41.9245 193.5 41.9245 192.38H29.9245C29.9245 192.38 29.9235 192.135 30.0666 191.753L41.3025 195.967ZM41.9245 192.38C41.9245 191.217 41.7225 189.999 41.2286 188.806L30.1404 193.394C29.9666 192.974 29.9245 192.61 29.9245 192.38H41.9245ZM41.3178 189.034C40.8943 187.88 40.2291 186.779 39.2872 185.837L30.8019 194.323C30.4199 193.941 30.1814 193.52 30.0513 193.166L41.3178 189.034ZM39.3847 185.937C38.4745 184.984 37.4002 184.288 36.2529 183.829L31.7962 194.971C31.4488 194.832 31.0545 194.59 30.7044 194.223L39.3847 185.937ZM36.3186 183.856C35.1055 183.354 33.8769 183.16 32.7245 183.16V195.16C32.5321 195.16 32.1702 195.126 31.7304 194.944L36.3186 183.856ZM32.7245 183.16C31.2248 183.16 29.673 183.51 28.2307 184.34L34.2183 194.74C33.6561 195.063 33.1043 195.16 32.7245 195.16V183.16ZM28.283 184.311C27.181 184.93 26.2455 185.735 25.4752 186.659L34.6939 194.341C34.5903 194.465 34.4147 194.63 34.1661 194.769L28.283 184.311ZM30.4128 184.509L28.9528 184.429L28.2963 196.411L29.7563 196.491L30.4128 184.509ZM34.5303 191.479L35.8503 184.119L24.0388 182.001L22.7188 189.361L34.5303 191.479ZM29.9445 189.06H36.9445V177.06H29.9445V189.06ZM30.9445 183.06V184.56H42.9445V183.06H30.9445ZM41.6442 200.94L36.5638 197.748L30.7882 206.94H41.6442V200.94ZM43.6642 196.44L49.4599 197.992L49.4633 197.98L43.6642 196.44ZM43.6442 186.96L37.8418 188.487L37.8497 188.517L37.858 188.547L43.6442 186.96ZM41.6442 182.38V176.38H30.9679L36.519 185.5L41.6442 182.38ZM42.9242 182.38L47.9713 179.135L46.1999 176.38H42.9242V182.38ZM44.2242 184.62L38.8963 187.379L38.9065 187.399L38.9168 187.418L44.2242 184.62ZM45.2042 186.88L39.532 188.836L39.5525 188.895L39.5742 188.954L45.2042 186.88ZM45.8442 189.22L39.9426 190.302V190.302L45.8442 189.22ZM45.2642 196.5L39.5721 194.603L39.5673 194.617L39.5626 194.631L45.2642 196.5ZM42.9242 200.94V206.94H45.9068L47.7075 204.562L42.9242 200.94ZM46.7246 204.132C47.9432 202.193 48.8834 200.145 49.4599 197.992L37.8685 194.888C37.6451 195.722 37.2386 196.674 36.5638 197.748L46.7246 204.132ZM49.4633 197.98C50.0024 195.949 50.2642 193.864 50.2642 191.74H38.2642C38.2642 192.87 38.1261 193.918 37.8651 194.9L49.4633 197.98ZM50.2642 191.74C50.2642 189.564 49.9959 187.434 49.4304 185.373L37.858 188.547C38.1192 189.499 38.2642 190.556 38.2642 191.74H50.2642ZM49.4467 185.433C48.8798 183.279 47.9623 181.22 46.7694 179.26L36.519 185.5C37.1928 186.607 37.6086 187.601 37.8418 188.487L49.4467 185.433ZM41.6442 188.38H42.9242V176.38H41.6442V188.38ZM37.8771 185.625C38.2616 186.223 38.6002 186.807 38.8963 187.379L49.5522 181.861C49.0749 180.939 48.5469 180.031 47.9713 179.135L37.8771 185.625ZM38.9168 187.418C39.1624 187.884 39.3666 188.356 39.532 188.836L50.8765 184.924C50.5085 183.857 50.0593 182.822 49.5316 181.822L38.9168 187.418ZM39.5742 188.954C39.7349 189.391 39.8576 189.838 39.9426 190.302L51.7459 188.138C51.5375 187.002 51.2335 185.889 50.8343 184.806L39.5742 188.954ZM39.9426 190.302C40.0187 190.717 40.0642 191.194 40.0642 191.74H52.0642C52.0642 190.526 51.963 189.323 51.7459 188.138L39.9426 190.302ZM40.0642 191.74C40.0642 192.624 39.9162 193.57 39.5721 194.603L50.9563 198.397C51.6789 196.23 52.0642 194.003 52.0642 191.74H40.0642ZM39.5626 194.631C39.2561 195.567 38.7928 196.457 38.141 197.318L47.7075 204.562C49.1357 202.676 50.2324 200.607 50.9658 198.369L39.5626 194.631ZM42.9242 194.94H41.6442V206.94H42.9242V194.94Z" fill="#C4C4C4" mask="url(#path-1-outside-1_245_155)"/>
<path fill-rule="evenodd" clip-rule="evenodd" d="M164 96.2403L114.601 99.4282L164 96.2403L114.601 99.4282L99.2307 152.255L48 126.999L68.2621 75.2116L105.021 65.5226L141.834 59L164 96.2403Z" fill="white"/>
<path d="M164 96.2403L114.601 99.4282L99.2307 152.255L48 126.999L68.2621 75.2116L105.021 65.5226L141.834 59L164 96.2403Z" stroke="black"/>
</svg>
