<svg width="211" height="212" viewBox="0 0 211 212" fill="none" xmlns="http://www.w3.org/2000/svg">
<mask id="path-1-outside-1_245_156" maskUnits="userSpaceOnUse" x="4" y="176" width="49" height="31" fill="black">
<rect fill="white" x="4" y="176" width="49" height="31"/>
<path d="M13.3691 200.94C12.8891 200.193 12.4557 199.447 12.0691 198.7C11.6824 197.967 11.3491 197.22 11.0691 196.46C10.8024 195.7 10.5957 194.92 10.4491 194.12C10.3024 193.32 10.2291 192.48 10.2291 191.6C10.2291 190.027 10.4891 188.44 11.0091 186.84C11.5424 185.24 12.3291 183.753 13.3691 182.38H14.6691C13.7091 183.9 13.0291 185.407 12.6291 186.9C12.2291 188.393 12.0291 189.96 12.0291 191.6C12.0291 193.28 12.2291 194.873 12.6291 196.38C13.0424 197.887 13.7224 199.407 14.6691 200.94H13.3691ZM24.7513 197H23.0513V186.84H19.3713V185.48C19.8513 185.48 20.3179 185.447 20.7713 185.38C21.2246 185.3 21.6313 185.16 21.9913 184.96C22.3646 184.76 22.6779 184.487 22.9313 184.14C23.1846 183.793 23.3579 183.353 23.4513 182.82H24.7513V197ZM30.1845 190.02C30.1845 190.553 30.1979 191.153 30.2245 191.82C30.2645 192.473 30.3712 193.093 30.5445 193.68C30.7312 194.253 31.0245 194.74 31.4245 195.14C31.8245 195.54 32.3845 195.74 33.1045 195.74C33.8245 195.74 34.3845 195.54 34.7845 195.14C35.1845 194.74 35.4712 194.253 35.6445 193.68C35.8312 193.093 35.9379 192.473 35.9645 191.82C36.0045 191.153 36.0245 190.553 36.0245 190.02C36.0245 189.673 36.0179 189.293 36.0045 188.88C36.0045 188.453 35.9712 188.033 35.9045 187.62C35.8512 187.193 35.7645 186.78 35.6445 186.38C35.5379 185.98 35.3712 185.633 35.1445 185.34C34.9312 185.033 34.6579 184.787 34.3245 184.6C33.9912 184.413 33.5845 184.32 33.1045 184.32C32.6245 184.32 32.2179 184.413 31.8845 184.6C31.5512 184.787 31.2712 185.033 31.0445 185.34C30.8312 185.633 30.6645 185.98 30.5445 186.38C30.4379 186.78 30.3512 187.193 30.2845 187.62C30.2312 188.033 30.1979 188.453 30.1845 188.88C30.1845 189.293 30.1845 189.673 30.1845 190.02ZM28.3845 190.04C28.3845 189.52 28.3979 188.98 28.4245 188.42C28.4512 187.86 28.5179 187.313 28.6245 186.78C28.7312 186.247 28.8845 185.74 29.0845 185.26C29.2845 184.78 29.5579 184.36 29.9045 184C30.2512 183.64 30.6845 183.353 31.2045 183.14C31.7379 182.927 32.3712 182.82 33.1045 182.82C33.8379 182.82 34.4645 182.927 34.9845 183.14C35.5179 183.353 35.9579 183.64 36.3045 184C36.6512 184.36 36.9245 184.78 37.1245 185.26C37.3245 185.74 37.4779 186.247 37.5845 186.78C37.6912 187.313 37.7579 187.86 37.7845 188.42C37.8112 188.98 37.8245 189.52 37.8245 190.04C37.8245 190.56 37.8112 191.1 37.7845 191.66C37.7579 192.22 37.6912 192.767 37.5845 193.3C37.4779 193.833 37.3245 194.34 37.1245 194.82C36.9245 195.287 36.6512 195.7 36.3045 196.06C35.9579 196.42 35.5245 196.707 35.0045 196.92C34.4845 197.12 33.8512 197.22 33.1045 197.22C32.3712 197.22 31.7379 197.12 31.2045 196.92C30.6845 196.707 30.2512 196.42 29.9045 196.06C29.5579 195.7 29.2845 195.287 29.0845 194.82C28.8845 194.34 28.7312 193.833 28.6245 193.3C28.5179 192.767 28.4512 192.22 28.4245 191.66C28.3979 191.1 28.3845 190.56 28.3845 190.04ZM41.6442 200.94C42.5909 199.433 43.2642 197.933 43.6642 196.44C44.0642 194.933 44.2642 193.367 44.2642 191.74C44.2642 190.06 44.0576 188.467 43.6442 186.96C43.2442 185.44 42.5776 183.913 41.6442 182.38H42.9242C43.4042 183.127 43.8376 183.873 44.2242 184.62C44.6109 185.353 44.9376 186.107 45.2042 186.88C45.4842 187.64 45.6976 188.42 45.8442 189.22C45.9909 190.02 46.0642 190.86 46.0642 191.74C46.0642 193.313 45.7976 194.9 45.2642 196.5C44.7442 198.087 43.9642 199.567 42.9242 200.94H41.6442Z"/>
</mask>
<path d="M13.3691 200.94C12.8891 200.193 12.4557 199.447 12.0691 198.7C11.6824 197.967 11.3491 197.22 11.0691 196.46C10.8024 195.7 10.5957 194.92 10.4491 194.12C10.3024 193.32 10.2291 192.48 10.2291 191.6C10.2291 190.027 10.4891 188.44 11.0091 186.84C11.5424 185.24 12.3291 183.753 13.3691 182.38H14.6691C13.7091 183.9 13.0291 185.407 12.6291 186.9C12.2291 188.393 12.0291 189.96 12.0291 191.6C12.0291 193.28 12.2291 194.873 12.6291 196.38C13.0424 197.887 13.7224 199.407 14.6691 200.94H13.3691ZM24.7513 197H23.0513V186.84H19.3713V185.48C19.8513 185.48 20.3179 185.447 20.7713 185.38C21.2246 185.3 21.6313 185.16 21.9913 184.96C22.3646 184.76 22.6779 184.487 22.9313 184.14C23.1846 183.793 23.3579 183.353 23.4513 182.82H24.7513V197ZM30.1845 190.02C30.1845 190.553 30.1979 191.153 30.2245 191.82C30.2645 192.473 30.3712 193.093 30.5445 193.68C30.7312 194.253 31.0245 194.74 31.4245 195.14C31.8245 195.54 32.3845 195.74 33.1045 195.74C33.8245 195.74 34.3845 195.54 34.7845 195.14C35.1845 194.74 35.4712 194.253 35.6445 193.68C35.8312 193.093 35.9379 192.473 35.9645 191.82C36.0045 191.153 36.0245 190.553 36.0245 190.02C36.0245 189.673 36.0179 189.293 36.0045 188.88C36.0045 188.453 35.9712 188.033 35.9045 187.62C35.8512 187.193 35.7645 186.78 35.6445 186.38C35.5379 185.98 35.3712 185.633 35.1445 185.34C34.9312 185.033 34.6579 184.787 34.3245 184.6C33.9912 184.413 33.5845 184.32 33.1045 184.32C32.6245 184.32 32.2179 184.413 31.8845 184.6C31.5512 184.787 31.2712 185.033 31.0445 185.34C30.8312 185.633 30.6645 185.98 30.5445 186.38C30.4379 186.78 30.3512 187.193 30.2845 187.62C30.2312 188.033 30.1979 188.453 30.1845 188.88C30.1845 189.293 30.1845 189.673 30.1845 190.02ZM28.3845 190.04C28.3845 189.52 28.3979 188.98 28.4245 188.42C28.4512 187.86 28.5179 187.313 28.6245 186.78C28.7312 186.247 28.8845 185.74 29.0845 185.26C29.2845 184.78 29.5579 184.36 29.9045 184C30.2512 183.64 30.6845 183.353 31.2045 183.14C31.7379 182.927 32.3712 182.82 33.1045 182.82C33.8379 182.82 34.4645 182.927 34.9845 183.14C35.5179 183.353 35.9579 183.64 36.3045 184C36.6512 184.36 36.9245 184.78 37.1245 185.26C37.3245 185.74 37.4779 186.247 37.5845 186.78C37.6912 187.313 37.7579 187.86 37.7845 188.42C37.8112 188.98 37.8245 189.52 37.8245 190.04C37.8245 190.56 37.8112 191.1 37.7845 191.66C37.7579 192.22 37.6912 192.767 37.5845 193.3C37.4779 193.833 37.3245 194.34 37.1245 194.82C36.9245 195.287 36.6512 195.7 36.3045 196.06C35.9579 196.42 35.5245 196.707 35.0045 196.92C34.4845 197.12 33.8512 197.22 33.1045 197.22C32.3712 197.22 31.7379 197.12 31.2045 196.92C30.6845 196.707 30.2512 196.42 29.9045 196.06C29.5579 195.7 29.2845 195.287 29.0845 194.82C28.8845 194.34 28.7312 193.833 28.6245 193.3C28.5179 192.767 28.4512 192.22 28.4245 191.66C28.3979 191.1 28.3845 190.56 28.3845 190.04ZM41.6442 200.94C42.5909 199.433 43.2642 197.933 43.6642 196.44C44.0642 194.933 44.2642 193.367 44.2642 191.74C44.2642 190.06 44.0576 188.467 43.6442 186.96C43.2442 185.44 42.5776 183.913 41.6442 182.38H42.9242C43.4042 183.127 43.8376 183.873 44.2242 184.62C44.6109 185.353 44.9376 186.107 45.2042 186.88C45.4842 187.64 45.6976 188.42 45.8442 189.22C45.9909 190.02 46.0642 190.86 46.0642 191.74C46.0642 193.313 45.7976 194.9 45.2642 196.5C44.7442 198.087 43.9642 199.567 42.9242 200.94H41.6442Z" fill="black"/>
<path d="M13.3691 200.94L8.32199 204.185L10.0934 206.94H13.3691V200.94ZM12.0691 198.7L17.397 195.941L17.3868 195.921L17.3765 195.902L12.0691 198.7ZM11.0691 196.46L5.40746 198.447L5.42289 198.491L5.439 198.534L11.0691 196.46ZM10.4491 194.12L4.54742 195.202L10.4491 194.12ZM11.0091 186.84L5.31696 184.943L5.30983 184.964L5.30286 184.985L11.0091 186.84ZM13.3691 182.38V176.38H10.3865L8.58583 178.758L13.3691 182.38ZM14.6691 182.38L19.742 185.584L25.555 176.38H14.6691V182.38ZM12.6291 186.9L18.4248 188.452L12.6291 186.9ZM12.6291 196.38L6.82995 197.92L6.8363 197.944L6.84285 197.967L12.6291 196.38ZM14.6691 200.94V206.94H25.4248L19.7744 197.788L14.6691 200.94ZM18.4161 197.695C18.0317 197.097 17.6931 196.513 17.397 195.941L6.7411 201.459C7.21838 202.381 7.7464 203.289 8.32199 204.185L18.4161 197.695ZM17.3765 195.902C17.1103 195.397 16.8855 194.892 16.6991 194.386L5.439 198.534C5.81259 199.548 6.25448 200.537 6.76165 201.498L17.3765 195.902ZM16.7307 194.473C16.5685 194.011 16.4416 193.534 16.3507 193.038L4.54742 195.202C4.74988 196.306 5.03634 197.389 5.40746 198.447L16.7307 194.473ZM16.3507 193.038C16.2746 192.623 16.2291 192.146 16.2291 191.6H4.22906C4.22906 192.814 4.33024 194.017 4.54742 195.202L16.3507 193.038ZM16.2291 191.6C16.2291 190.699 16.3764 189.737 16.7153 188.695L5.30286 184.985C4.60171 187.143 4.22906 189.355 4.22906 191.6H16.2291ZM16.7012 188.737C17.0232 187.771 17.4987 186.865 18.1523 186.002L8.58583 178.758C7.15945 180.641 6.06164 182.709 5.31696 184.943L16.7012 188.737ZM13.3691 188.38H14.6691V176.38H13.3691V188.38ZM9.59613 179.176C8.36471 181.126 7.4128 183.184 6.83337 185.348L18.4248 188.452C18.6453 187.629 19.0534 186.674 19.742 185.584L9.59613 179.176ZM6.83337 185.348C6.28976 187.377 6.02906 189.468 6.02906 191.6H18.0291C18.0291 190.452 18.1684 189.41 18.4248 188.452L6.83337 185.348ZM6.02906 191.6C6.02906 193.76 6.28668 195.873 6.82995 197.92L18.4282 194.84C18.1714 193.873 18.0291 192.8 18.0291 191.6H6.02906ZM6.84285 197.967C7.42853 200.102 8.3617 202.145 9.56369 204.092L19.7744 197.788C19.0831 196.668 18.6563 195.671 18.4153 194.793L6.84285 197.967ZM14.6691 194.94H13.3691V206.94H14.6691V194.94ZM24.7513 197V203H30.7513V197H24.7513ZM23.0513 197H17.0513V203H23.0513V197ZM23.0513 186.84H29.0513V180.84H23.0513V186.84ZM19.3713 186.84H13.3713V192.84H19.3713V186.84ZM19.3713 185.48V179.48H13.3713V185.48H19.3713ZM20.7713 185.38L21.6442 191.316L21.7293 191.304L21.814 191.289L20.7713 185.38ZM21.9913 184.96L19.1579 179.671L19.1175 179.693L19.0774 179.715L21.9913 184.96ZM22.9313 184.14L27.7756 187.68L27.7756 187.68L22.9313 184.14ZM23.4513 182.82V176.82H18.4101L17.5411 181.786L23.4513 182.82ZM24.7513 182.82H30.7513V176.82H24.7513V182.82ZM24.7513 191H23.0513V203H24.7513V191ZM29.0513 197V186.84H17.0513V197H29.0513ZM23.0513 180.84H19.3713V192.84H23.0513V180.84ZM25.3713 186.84V185.48H13.3713V186.84H25.3713ZM19.3713 191.48C20.1296 191.48 20.8885 191.427 21.6442 191.316L19.8983 179.444C19.7473 179.466 19.5729 179.48 19.3713 179.48V191.48ZM21.814 191.289C22.8469 191.106 23.8983 190.764 24.9051 190.205L19.0774 179.715C19.3642 179.556 19.6022 179.494 19.7285 179.471L21.814 191.289ZM24.8246 190.249C26.0021 189.618 26.9991 188.743 27.7756 187.68L18.0869 180.6C18.3568 180.231 18.7271 179.902 19.1579 179.671L24.8246 190.249ZM27.7756 187.68C28.6944 186.423 29.1498 185.063 29.3614 183.854L17.5411 181.786C17.566 181.643 17.6748 181.164 18.0869 180.6L27.7756 187.68ZM23.4513 188.82H24.7513V176.82H23.4513V188.82ZM18.7513 182.82V197H30.7513V182.82H18.7513ZM30.2245 191.82L24.2293 192.06L24.2319 192.123L24.2357 192.187L30.2245 191.82ZM30.5445 193.68L24.7904 195.38L24.8138 195.459L24.8393 195.538L30.5445 193.68ZM35.6445 193.68L29.927 191.861L29.9138 191.902L29.9013 191.944L35.6445 193.68ZM35.9645 191.82L29.9753 191.461L29.9719 191.518L29.9695 191.575L35.9645 191.82ZM36.0045 188.88H30.0045V188.977L30.0077 189.073L36.0045 188.88ZM35.9045 187.62L29.9509 188.364L29.9641 188.47L29.9811 188.575L35.9045 187.62ZM35.6445 186.38L29.8471 187.926L29.871 188.015L29.8976 188.104L35.6445 186.38ZM35.1445 185.34L30.2191 188.766L30.3049 188.89L30.3968 189.009L35.1445 185.34ZM31.0445 185.34L26.2195 181.774L26.2057 181.792L26.1921 181.811L31.0445 185.34ZM30.5445 186.38L24.7976 184.656L24.771 184.745L24.7471 184.834L30.5445 186.38ZM30.2845 187.62L24.3565 186.694L24.3441 186.773L24.3339 186.852L30.2845 187.62ZM30.1845 188.88L24.1875 188.693L24.1845 188.786V188.88H30.1845ZM28.6245 186.78L22.741 185.603V185.603L28.6245 186.78ZM29.0845 185.26L34.623 187.568L29.0845 185.26ZM29.9045 184L25.5826 179.838L29.9045 184ZM31.2045 183.14L28.9762 177.569L28.9516 177.579L28.9272 177.589L31.2045 183.14ZM34.9845 183.14L32.7072 188.691L32.7316 188.701L32.7562 188.711L34.9845 183.14ZM37.1245 185.26L42.663 182.952V182.952L37.1245 185.26ZM37.5845 186.78L43.468 185.603V185.603L37.5845 186.78ZM37.7845 191.66L31.7913 191.375L37.7845 191.66ZM37.5845 193.3L43.468 194.477V194.477L37.5845 193.3ZM37.1245 194.82L42.6394 197.184L42.6513 197.156L42.663 197.128L37.1245 194.82ZM36.3045 196.06L31.9826 191.898L36.3045 196.06ZM35.0045 196.92L37.1584 202.52L37.2204 202.496L37.2819 202.471L35.0045 196.92ZM31.2045 196.92L28.9272 202.471L29.012 202.506L29.0978 202.538L31.2045 196.92ZM29.9045 196.06L34.2265 191.898L29.9045 196.06ZM29.0845 194.82L23.5461 197.128L23.5577 197.156L23.5697 197.184L29.0845 194.82ZM28.6245 193.3L22.741 194.477V194.477L28.6245 193.3ZM28.4245 191.66L34.4177 191.375L28.4245 191.66ZM24.1845 190.02C24.1845 190.65 24.2002 191.332 24.2293 192.06L36.2197 191.58C36.1955 190.975 36.1845 190.457 36.1845 190.02H24.1845ZM24.2357 192.187C24.3015 193.261 24.4802 194.33 24.7904 195.38L36.2986 191.98C36.2622 191.857 36.2276 191.686 36.2133 191.453L24.2357 192.187ZM24.8393 195.538C25.2989 196.949 26.0694 198.27 27.1819 199.383L35.6672 190.897C35.9796 191.21 36.1635 191.557 36.2498 191.822L24.8393 195.538ZM27.1819 199.383C28.9929 201.194 31.249 201.74 33.1045 201.74V189.74C33.2918 189.74 33.6746 189.765 34.1625 189.94C34.6753 190.123 35.2069 190.437 35.6672 190.897L27.1819 199.383ZM33.1045 201.74C34.9601 201.74 37.2162 201.194 39.0272 199.383L30.5419 190.897C31.0022 190.437 31.5338 190.123 32.0465 189.94C32.5344 189.765 32.9173 189.74 33.1045 189.74V201.74ZM39.0272 199.383C40.1674 198.242 40.9457 196.879 41.3878 195.416L29.9013 191.944C29.9967 191.628 30.2016 191.238 30.5419 190.897L39.0272 199.383ZM41.3621 195.499C41.7208 194.372 41.9124 193.22 41.9595 192.065L29.9695 191.575C29.9633 191.727 29.9416 191.815 29.927 191.861L41.3621 195.499ZM41.9538 192.179C41.9992 191.421 42.0245 190.699 42.0245 190.02H30.0245C30.0245 190.408 30.0098 190.885 29.9753 191.461L41.9538 192.179ZM42.0245 190.02C42.0245 189.598 42.0164 189.153 42.0014 188.687L30.0077 189.073C30.0193 189.434 30.0245 189.749 30.0245 190.02H42.0245ZM42.0045 188.88C42.0045 188.139 41.9466 187.4 41.828 186.665L29.9811 188.575C29.9958 188.667 30.0045 188.767 30.0045 188.88H42.0045ZM41.8582 186.876C41.7646 186.127 41.6104 185.386 41.3915 184.656L29.8976 188.104C29.9187 188.174 29.9378 188.26 29.9509 188.364L41.8582 186.876ZM41.4419 184.834C41.1539 183.754 40.6602 182.665 39.8922 181.671L30.3968 189.009C30.0822 188.602 29.9219 188.206 29.8471 187.926L41.4419 184.834ZM40.07 181.914C39.3256 180.844 38.3639 179.985 37.2562 179.365L31.3929 189.835C30.9518 189.588 30.5368 189.223 30.2191 188.766L40.07 181.914ZM37.2562 179.365C35.8255 178.564 34.3521 178.32 33.1045 178.32V190.32C32.8169 190.32 32.1569 190.263 31.3929 189.835L37.2562 179.365ZM33.1045 178.32C31.8569 178.32 30.3836 178.564 28.9529 179.365L34.8162 189.835C34.0521 190.263 33.3921 190.32 33.1045 190.32V178.32ZM28.9529 179.365C27.8787 179.967 26.9528 180.782 26.2195 181.774L35.8696 188.906C35.5896 189.285 35.2237 189.607 34.8162 189.835L28.9529 179.365ZM26.1921 181.811C25.5258 182.727 25.083 183.705 24.7976 184.656L36.2915 188.104C36.2461 188.255 36.1366 188.54 35.8969 188.869L26.1921 181.811ZM24.7471 184.834C24.5837 185.447 24.4543 186.067 24.3565 186.694L36.2126 188.546C36.2481 188.319 36.292 188.113 36.3419 187.926L24.7471 184.834ZM24.3339 186.852C24.2551 187.463 24.2067 188.077 24.1875 188.693L36.1816 189.067C36.189 188.83 36.2073 188.604 36.2352 188.388L24.3339 186.852ZM24.1845 188.88C24.1845 188.881 24.1845 188.882 24.1845 188.882C24.1845 188.883 24.1845 188.884 24.1845 188.885C24.1845 188.886 24.1845 188.886 24.1845 188.887C24.1845 188.888 24.1845 188.889 24.1845 188.89C24.1845 188.89 24.1845 188.891 24.1845 188.892C24.1845 188.893 24.1845 188.894 24.1845 188.895C24.1845 188.895 24.1845 188.896 24.1845 188.897C24.1845 188.898 24.1845 188.899 24.1845 188.899C24.1845 188.9 24.1845 188.901 24.1845 188.902C24.1845 188.903 24.1845 188.903 24.1845 188.904C24.1845 188.905 24.1845 188.906 24.1845 188.907C24.1845 188.907 24.1845 188.908 24.1845 188.909C24.1845 188.91 24.1845 188.911 24.1845 188.911C24.1845 188.912 24.1845 188.913 24.1845 188.914C24.1845 188.915 24.1845 188.915 24.1845 188.916C24.1845 188.917 24.1845 188.918 24.1845 188.919C24.1845 188.919 24.1845 188.92 24.1845 188.921C24.1845 188.922 24.1845 188.923 24.1845 188.923C24.1845 188.924 24.1845 188.925 24.1845 188.926C24.1845 188.927 24.1845 188.927 24.1845 188.928C24.1845 188.929 24.1845 188.93 24.1845 188.931C24.1845 188.931 24.1845 188.932 24.1845 188.933C24.1845 188.934 24.1845 188.935 24.1845 188.936C24.1845 188.936 24.1845 188.937 24.1845 188.938C24.1845 188.939 24.1845 188.94 24.1845 188.94C24.1845 188.941 24.1845 188.942 24.1845 188.943C24.1845 188.944 24.1845 188.944 24.1845 188.945C24.1845 188.946 24.1845 188.947 24.1845 188.948C24.1845 188.948 24.1845 188.949 24.1845 188.95C24.1845 188.951 24.1845 188.952 24.1845 188.952C24.1845 188.953 24.1845 188.954 24.1845 188.955C24.1845 188.956 24.1845 188.956 24.1845 188.957C24.1845 188.958 24.1845 188.959 24.1845 188.96C24.1845 188.96 24.1845 188.961 24.1845 188.962C24.1845 188.963 24.1845 188.963 24.1845 188.964C24.1845 188.965 24.1845 188.966 24.1845 188.967C24.1845 188.967 24.1845 188.968 24.1845 188.969C24.1845 188.97 24.1845 188.971 24.1845 188.971C24.1845 188.972 24.1845 188.973 24.1845 188.974C24.1845 188.975 24.1845 188.975 24.1845 188.976C24.1845 188.977 24.1845 188.978 24.1845 188.979C24.1845 188.979 24.1845 188.98 24.1845 188.981C24.1845 188.982 24.1845 188.983 24.1845 188.983C24.1845 188.984 24.1845 188.985 24.1845 188.986C24.1845 188.987 24.1845 188.987 24.1845 188.988C24.1845 188.989 24.1845 188.99 24.1845 188.991C24.1845 188.991 24.1845 188.992 24.1845 188.993C24.1845 188.994 24.1845 188.995 24.1845 188.995C24.1845 188.996 24.1845 188.997 24.1845 188.998C24.1845 188.999 24.1845 188.999 24.1845 189C24.1845 189.001 24.1845 189.002 24.1845 189.003C24.1845 189.003 24.1845 189.004 24.1845 189.005C24.1845 189.006 24.1845 189.006 24.1845 189.007C24.1845 189.008 24.1845 189.009 24.1845 189.01C24.1845 189.01 24.1845 189.011 24.1845 189.012C24.1845 189.013 24.1845 189.014 24.1845 189.014C24.1845 189.015 24.1845 189.016 24.1845 189.017C24.1845 189.018 24.1845 189.018 24.1845 189.019C24.1845 189.02 24.1845 189.021 24.1845 189.022C24.1845 189.022 24.1845 189.023 24.1845 189.024C24.1845 189.025 24.1845 189.026 24.1845 189.026C24.1845 189.027 24.1845 189.028 24.1845 189.029C24.1845 189.029 24.1845 189.03 24.1845 189.031C24.1845 189.032 24.1845 189.033 24.1845 189.033C24.1845 189.034 24.1845 189.035 24.1845 189.036C24.1845 189.037 24.1845 189.037 24.1845 189.038C24.1845 189.039 24.1845 189.04 24.1845 189.041C24.1845 189.041 24.1845 189.042 24.1845 189.043C24.1845 189.044 24.1845 189.045 24.1845 189.045C24.1845 189.046 24.1845 189.047 24.1845 189.048C24.1845 189.048 24.1845 189.049 24.1845 189.05C24.1845 189.051 24.1845 189.052 24.1845 189.052C24.1845 189.053 24.1845 189.054 24.1845 189.055C24.1845 189.056 24.1845 189.056 24.1845 189.057C24.1845 189.058 24.1845 189.059 24.1845 189.059C24.1845 189.06 24.1845 189.061 24.1845 189.062C24.1845 189.063 24.1845 189.063 24.1845 189.064C24.1845 189.065 24.1845 189.066 24.1845 189.067C24.1845 189.067 24.1845 189.068 24.1845 189.069C24.1845 189.07 24.1845 189.071 24.1845 189.071C24.1845 189.072 24.1845 189.073 24.1845 189.074C24.1845 189.074 24.1845 189.075 24.1845 189.076C24.1845 189.077 24.1845 189.078 24.1845 189.078C24.1845 189.079 24.1845 189.08 24.1845 189.081C24.1845 189.082 24.1845 189.082 24.1845 189.083C24.1845 189.084 24.1845 189.085 24.1845 189.085C24.1845 189.086 24.1845 189.087 24.1845 189.088C24.1845 189.089 24.1845 189.089 24.1845 189.09C24.1845 189.091 24.1845 189.092 24.1845 189.093C24.1845 189.093 24.1845 189.094 24.1845 189.095C24.1845 189.096 24.1845 189.096 24.1845 189.097C24.1845 189.098 24.1845 189.099 24.1845 189.1C24.1845 189.1 24.1845 189.101 24.1845 189.102C24.1845 189.103 24.1845 189.104 24.1845 189.104C24.1845 189.105 24.1845 189.106 24.1845 189.107C24.1845 189.107 24.1845 189.108 24.1845 189.109C24.1845 189.11 24.1845 189.111 24.1845 189.111C24.1845 189.112 24.1845 189.113 24.1845 189.114C24.1845 189.114 24.1845 189.115 24.1845 189.116C24.1845 189.117 24.1845 189.118 24.1845 189.118C24.1845 189.119 24.1845 189.12 24.1845 189.121C24.1845 189.121 24.1845 189.122 24.1845 189.123C24.1845 189.124 24.1845 189.125 24.1845 189.125C24.1845 189.126 24.1845 189.127 24.1845 189.128C24.1845 189.129 24.1845 189.129 24.1845 189.13C24.1845 189.131 24.1845 189.132 24.1845 189.132C24.1845 189.133 24.1845 189.134 24.1845 189.135C24.1845 189.136 24.1845 189.136 24.1845 189.137C24.1845 189.138 24.1845 189.139 24.1845 189.139C24.1845 189.14 24.1845 189.141 24.1845 189.142C24.1845 189.143 24.1845 189.143 24.1845 189.144C24.1845 189.145 24.1845 189.146 24.1845 189.146C24.1845 189.147 24.1845 189.148 24.1845 189.149C24.1845 189.15 24.1845 189.15 24.1845 189.151C24.1845 189.152 24.1845 189.153 24.1845 189.153C24.1845 189.154 24.1845 189.155 24.1845 189.156C24.1845 189.157 24.1845 189.157 24.1845 189.158C24.1845 189.159 24.1845 189.16 24.1845 189.16C24.1845 189.161 24.1845 189.162 24.1845 189.163C24.1845 189.164 24.1845 189.164 24.1845 189.165C24.1845 189.166 24.1845 189.167 24.1845 189.167C24.1845 189.168 24.1845 189.169 24.1845 189.17C24.1845 189.171 24.1845 189.171 24.1845 189.172C24.1845 189.173 24.1845 189.174 24.1845 189.174C24.1845 189.175 24.1845 189.176 24.1845 189.177C24.1845 189.178 24.1845 189.178 24.1845 189.179C24.1845 189.18 24.1845 189.181 24.1845 189.181C24.1845 189.182 24.1845 189.183 24.1845 189.184C24.1845 189.185 24.1845 189.185 24.1845 189.186C24.1845 189.187 24.1845 189.188 24.1845 189.188C24.1845 189.189 24.1845 189.19 24.1845 189.191C24.1845 189.191 24.1845 189.192 24.1845 189.193C24.1845 189.194 24.1845 189.195 24.1845 189.195C24.1845 189.196 24.1845 189.197 24.1845 189.198C24.1845 189.198 24.1845 189.199 24.1845 189.2C24.1845 189.201 24.1845 189.202 24.1845 189.202C24.1845 189.203 24.1845 189.204 24.1845 189.205C24.1845 189.205 24.1845 189.206 24.1845 189.207C24.1845 189.208 24.1845 189.208 24.1845 189.209C24.1845 189.21 24.1845 189.211 24.1845 189.212C24.1845 189.212 24.1845 189.213 24.1845 189.214C24.1845 189.215 24.1845 189.215 24.1845 189.216C24.1845 189.217 24.1845 189.218 24.1845 189.219C24.1845 189.219 24.1845 189.22 24.1845 189.221C24.1845 189.222 24.1845 189.222 24.1845 189.223C24.1845 189.224 24.1845 189.225 24.1845 189.225C24.1845 189.226 24.1845 189.227 24.1845 189.228C24.1845 189.229 24.1845 189.229 24.1845 189.23C24.1845 189.231 24.1845 189.232 24.1845 189.232C24.1845 189.233 24.1845 189.234 24.1845 189.235C24.1845 189.235 24.1845 189.236 24.1845 189.237C24.1845 189.238 24.1845 189.239 24.1845 189.239C24.1845 189.24 24.1845 189.241 24.1845 189.242C24.1845 189.242 24.1845 189.243 24.1845 189.244C24.1845 189.245 24.1845 189.245 24.1845 189.246C24.1845 189.247 24.1845 189.248 24.1845 189.249C24.1845 189.249 24.1845 189.25 24.1845 189.251C24.1845 189.252 24.1845 189.252 24.1845 189.253C24.1845 189.254 24.1845 189.255 24.1845 189.255C24.1845 189.256 24.1845 189.257 24.1845 189.258C24.1845 189.259 24.1845 189.259 24.1845 189.26C24.1845 189.261 24.1845 189.262 24.1845 189.262C24.1845 189.263 24.1845 189.264 24.1845 189.265C24.1845 189.265 24.1845 189.266 24.1845 189.267C24.1845 189.268 24.1845 189.268 24.1845 189.269C24.1845 189.27 24.1845 189.271 24.1845 189.272C24.1845 189.272 24.1845 189.273 24.1845 189.274C24.1845 189.275 24.1845 189.275 24.1845 189.276C24.1845 189.277 24.1845 189.278 24.1845 189.278C24.1845 189.279 24.1845 189.28 24.1845 189.281C24.1845 189.281 24.1845 189.282 24.1845 189.283C24.1845 189.284 24.1845 189.285 24.1845 189.285C24.1845 189.286 24.1845 189.287 24.1845 189.288C24.1845 189.288 24.1845 189.289 24.1845 189.29C24.1845 189.291 24.1845 189.291 24.1845 189.292C24.1845 189.293 24.1845 189.294 24.1845 189.294C24.1845 189.295 24.1845 189.296 24.1845 189.297C24.1845 189.297 24.1845 189.298 24.1845 189.299C24.1845 189.3 24.1845 189.301 24.1845 189.301C24.1845 189.302 24.1845 189.303 24.1845 189.304C24.1845 189.304 24.1845 189.305 24.1845 189.306C24.1845 189.307 24.1845 189.307 24.1845 189.308C24.1845 189.309 24.1845 189.31 24.1845 189.31C24.1845 189.311 24.1845 189.312 24.1845 189.313C24.1845 189.313 24.1845 189.314 24.1845 189.315C24.1845 189.316 24.1845 189.317 24.1845 189.317C24.1845 189.318 24.1845 189.319 24.1845 189.32C24.1845 189.32 24.1845 189.321 24.1845 189.322C24.1845 189.323 24.1845 189.323 24.1845 189.324C24.1845 189.325 24.1845 189.326 24.1845 189.326C24.1845 189.327 24.1845 189.328 24.1845 189.329C24.1845 189.329 24.1845 189.33 24.1845 189.331C24.1845 189.332 24.1845 189.332 24.1845 189.333C24.1845 189.334 24.1845 189.335 24.1845 189.335C24.1845 189.336 24.1845 189.337 24.1845 189.338C24.1845 189.339 24.1845 189.339 24.1845 189.34C24.1845 189.341 24.1845 189.342 24.1845 189.342C24.1845 189.343 24.1845 189.344 24.1845 189.345C24.1845 189.345 24.1845 189.346 24.1845 189.347C24.1845 189.348 24.1845 189.348 24.1845 189.349C24.1845 189.35 24.1845 189.351 24.1845 189.351C24.1845 189.352 24.1845 189.353 24.1845 189.354C24.1845 189.354 24.1845 189.355 24.1845 189.356C24.1845 189.357 24.1845 189.357 24.1845 189.358C24.1845 189.359 24.1845 189.36 24.1845 189.36C24.1845 189.361 24.1845 189.362 24.1845 189.363C24.1845 189.363 24.1845 189.364 24.1845 189.365C24.1845 189.366 24.1845 189.366 24.1845 189.367C24.1845 189.368 24.1845 189.369 24.1845 189.37C24.1845 189.37 24.1845 189.371 24.1845 189.372C24.1845 189.373 24.1845 189.373 24.1845 189.374C24.1845 189.375 24.1845 189.376 24.1845 189.376C24.1845 189.377 24.1845 189.378 24.1845 189.379C24.1845 189.379 24.1845 189.38 24.1845 189.381C24.1845 189.382 24.1845 189.382 24.1845 189.383C24.1845 189.384 24.1845 189.385 24.1845 189.385C24.1845 189.386 24.1845 189.387 24.1845 189.388C24.1845 189.388 24.1845 189.389 24.1845 189.39C24.1845 189.391 24.1845 189.391 24.1845 189.392C24.1845 189.393 24.1845 189.394 24.1845 189.394C24.1845 189.395 24.1845 189.396 24.1845 189.397C24.1845 189.397 24.1845 189.398 24.1845 189.399C24.1845 189.4 24.1845 189.4 24.1845 189.401C24.1845 189.402 24.1845 189.403 24.1845 189.403C24.1845 189.404 24.1845 189.405 24.1845 189.406C24.1845 189.406 24.1845 189.407 24.1845 189.408C24.1845 189.409 24.1845 189.409 24.1845 189.41C24.1845 189.411 24.1845 189.412 24.1845 189.412C24.1845 189.413 24.1845 189.414 24.1845 189.415C24.1845 189.415 24.1845 189.416 24.1845 189.417C24.1845 189.418 24.1845 189.418 24.1845 189.419C24.1845 189.42 24.1845 189.421 24.1845 189.421C24.1845 189.422 24.1845 189.423 24.1845 189.424C24.1845 189.424 24.1845 189.425 24.1845 189.426C24.1845 189.427 24.1845 189.427 24.1845 189.428C24.1845 189.429 24.1845 189.43 24.1845 189.43C24.1845 189.431 24.1845 189.432 24.1845 189.433C24.1845 189.433 24.1845 189.434 24.1845 189.435C24.1845 189.436 24.1845 189.436 24.1845 189.437C24.1845 189.438 24.1845 189.439 24.1845 189.439C24.1845 189.44 24.1845 189.441 24.1845 189.442C24.1845 189.442 24.1845 189.443 24.1845 189.444C24.1845 189.444 24.1845 189.445 24.1845 189.446C24.1845 189.447 24.1845 189.447 24.1845 189.448C24.1845 189.449 24.1845 189.45 24.1845 189.45C24.1845 189.451 24.1845 189.452 24.1845 189.453C24.1845 189.453 24.1845 189.454 24.1845 189.455C24.1845 189.456 24.1845 189.456 24.1845 189.457C24.1845 189.458 24.1845 189.459 24.1845 189.459C24.1845 189.46 24.1845 189.461 24.1845 189.462C24.1845 189.462 24.1845 189.463 24.1845 189.464C24.1845 189.465 24.1845 189.465 24.1845 189.466C24.1845 189.467 24.1845 189.468 24.1845 189.468C24.1845 189.469 24.1845 189.47 24.1845 189.471C24.1845 189.471 24.1845 189.472 24.1845 189.473C24.1845 189.474 24.1845 189.474 24.1845 189.475C24.1845 189.476 24.1845 189.476 24.1845 189.477C24.1845 189.478 24.1845 189.479 24.1845 189.479C24.1845 189.48 24.1845 189.481 24.1845 189.482C24.1845 189.482 24.1845 189.483 24.1845 189.484C24.1845 189.485 24.1845 189.485 24.1845 189.486C24.1845 189.487 24.1845 189.488 24.1845 189.488C24.1845 189.489 24.1845 189.49 24.1845 189.491C24.1845 189.491 24.1845 189.492 24.1845 189.493C24.1845 189.494 24.1845 189.494 24.1845 189.495C24.1845 189.496 24.1845 189.496 24.1845 189.497C24.1845 189.498 24.1845 189.499 24.1845 189.499C24.1845 189.5 24.1845 189.501 24.1845 189.502C24.1845 189.502 24.1845 189.503 24.1845 189.504C24.1845 189.505 24.1845 189.505 24.1845 189.506C24.1845 189.507 24.1845 189.508 24.1845 189.508C24.1845 189.509 24.1845 189.51 24.1845 189.511C24.1845 189.511 24.1845 189.512 24.1845 189.513C24.1845 189.513 24.1845 189.514 24.1845 189.515C24.1845 189.516 24.1845 189.516 24.1845 189.517C24.1845 189.518 24.1845 189.519 24.1845 189.519C24.1845 189.52 24.1845 189.521 24.1845 189.522C24.1845 189.522 24.1845 189.523 24.1845 189.524C24.1845 189.525 24.1845 189.525 24.1845 189.526C24.1845 189.527 24.1845 189.527 24.1845 189.528C24.1845 189.529 24.1845 189.53 24.1845 189.53C24.1845 189.531 24.1845 189.532 24.1845 189.533C24.1845 189.533 24.1845 189.534 24.1845 189.535C24.1845 189.536 24.1845 189.536 24.1845 189.537C24.1845 189.538 24.1845 189.539 24.1845 189.539C24.1845 189.54 24.1845 189.541 24.1845 189.541C24.1845 189.542 24.1845 189.543 24.1845 189.544C24.1845 189.544 24.1845 189.545 24.1845 189.546C24.1845 189.547 24.1845 189.547 24.1845 189.548C24.1845 189.549 24.1845 189.55 24.1845 189.55C24.1845 189.551 24.1845 189.552 24.1845 189.552C24.1845 189.553 24.1845 189.554 24.1845 189.555C24.1845 189.555 24.1845 189.556 24.1845 189.557C24.1845 189.558 24.1845 189.558 24.1845 189.559C24.1845 189.56 24.1845 189.561 24.1845 189.561C24.1845 189.562 24.1845 189.563 24.1845 189.563C24.1845 189.564 24.1845 189.565 24.1845 189.566C24.1845 189.566 24.1845 189.567 24.1845 189.568C24.1845 189.569 24.1845 189.569 24.1845 189.57C24.1845 189.571 24.1845 189.571 24.1845 189.572C24.1845 189.573 24.1845 189.574 24.1845 189.574C24.1845 189.575 24.1845 189.576 24.1845 189.577C24.1845 189.577 24.1845 189.578 24.1845 189.579C24.1845 189.58 24.1845 189.58 24.1845 189.581C24.1845 189.582 24.1845 189.582 24.1845 189.583C24.1845 189.584 24.1845 189.585 24.1845 189.585C24.1845 189.586 24.1845 189.587 24.1845 189.588C24.1845 189.588 24.1845 189.589 24.1845 189.59C24.1845 189.59 24.1845 189.591 24.1845 189.592C24.1845 189.593 24.1845 189.593 24.1845 189.594C24.1845 189.595 24.1845 189.596 24.1845 189.596C24.1845 189.597 24.1845 189.598 24.1845 189.598C24.1845 189.599 24.1845 189.6 24.1845 189.601C24.1845 189.601 24.1845 189.602 24.1845 189.603C24.1845 189.604 24.1845 189.604 24.1845 189.605C24.1845 189.606 24.1845 189.606 24.1845 189.607C24.1845 189.608 24.1845 189.609 24.1845 189.609C24.1845 189.61 24.1845 189.611 24.1845 189.612C24.1845 189.612 24.1845 189.613 24.1845 189.614C24.1845 189.614 24.1845 189.615 24.1845 189.616C24.1845 189.617 24.1845 189.617 24.1845 189.618C24.1845 189.619 24.1845 189.62 24.1845 189.62C24.1845 189.621 24.1845 189.622 24.1845 189.622C24.1845 189.623 24.1845 189.624 24.1845 189.625C24.1845 189.625 24.1845 189.626 24.1845 189.627C24.1845 189.628 24.1845 189.628 24.1845 189.629C24.1845 189.63 24.1845 189.63 24.1845 189.631C24.1845 189.632 24.1845 189.633 24.1845 189.633C24.1845 189.634 24.1845 189.635 24.1845 189.636C24.1845 189.636 24.1845 189.637 24.1845 189.638C24.1845 189.638 24.1845 189.639 24.1845 189.64C24.1845 189.641 24.1845 189.641 24.1845 189.642C24.1845 189.643 24.1845 189.643 24.1845 189.644C24.1845 189.645 24.1845 189.646 24.1845 189.646C24.1845 189.647 24.1845 189.648 24.1845 189.649C24.1845 189.649 24.1845 189.65 24.1845 189.651C24.1845 189.651 24.1845 189.652 24.1845 189.653C24.1845 189.654 24.1845 189.654 24.1845 189.655C24.1845 189.656 24.1845 189.656 24.1845 189.657C24.1845 189.658 24.1845 189.659 24.1845 189.659C24.1845 189.66 24.1845 189.661 24.1845 189.662C24.1845 189.662 24.1845 189.663 24.1845 189.664C24.1845 189.664 24.1845 189.665 24.1845 189.666C24.1845 189.667 24.1845 189.667 24.1845 189.668C24.1845 189.669 24.1845 189.669 24.1845 189.67C24.1845 189.671 24.1845 189.672 24.1845 189.672C24.1845 189.673 24.1845 189.674 24.1845 189.674C24.1845 189.675 24.1845 189.676 24.1845 189.677C24.1845 189.677 24.1845 189.678 24.1845 189.679C24.1845 189.679 24.1845 189.68 24.1845 189.681C24.1845 189.682 24.1845 189.682 24.1845 189.683C24.1845 189.684 24.1845 189.685 24.1845 189.685C24.1845 189.686 24.1845 189.687 24.1845 189.687C24.1845 189.688 24.1845 189.689 24.1845 189.69C24.1845 189.69 24.1845 189.691 24.1845 189.692C24.1845 189.692 24.1845 189.693 24.1845 189.694C24.1845 189.695 24.1845 189.695 24.1845 189.696C24.1845 189.697 24.1845 189.697 24.1845 189.698C24.1845 189.699 24.1845 189.7 24.1845 189.7C24.1845 189.701 24.1845 189.702 24.1845 189.702C24.1845 189.703 24.1845 189.704 24.1845 189.705C24.1845 189.705 24.1845 189.706 24.1845 189.707C24.1845 189.707 24.1845 189.708 24.1845 189.709C24.1845 189.71 24.1845 189.71 24.1845 189.711C24.1845 189.712 24.1845 189.712 24.1845 189.713C24.1845 189.714 24.1845 189.715 24.1845 189.715C24.1845 189.716 24.1845 189.717 24.1845 189.717C24.1845 189.718 24.1845 189.719 24.1845 189.72C24.1845 189.72 24.1845 189.721 24.1845 189.722C24.1845 189.722 24.1845 189.723 24.1845 189.724C24.1845 189.725 24.1845 189.725 24.1845 189.726C24.1845 189.727 24.1845 189.727 24.1845 189.728C24.1845 189.729 24.1845 189.73 24.1845 189.73C24.1845 189.731 24.1845 189.732 24.1845 189.732C24.1845 189.733 24.1845 189.734 24.1845 189.735C24.1845 189.735 24.1845 189.736 24.1845 189.737C24.1845 189.737 24.1845 189.738 24.1845 189.739C24.1845 189.74 24.1845 189.74 24.1845 189.741C24.1845 189.742 24.1845 189.742 24.1845 189.743C24.1845 189.744 24.1845 189.745 24.1845 189.745C24.1845 189.746 24.1845 189.747 24.1845 189.747C24.1845 189.748 24.1845 189.749 24.1845 189.749C24.1845 189.75 24.1845 189.751 24.1845 189.752C24.1845 189.752 24.1845 189.753 24.1845 189.754C24.1845 189.754 24.1845 189.755 24.1845 189.756C24.1845 189.757 24.1845 189.757 24.1845 189.758C24.1845 189.759 24.1845 189.759 24.1845 189.76C24.1845 189.761 24.1845 189.762 24.1845 189.762C24.1845 189.763 24.1845 189.764 24.1845 189.764C24.1845 189.765 24.1845 189.766 24.1845 189.767C24.1845 189.767 24.1845 189.768 24.1845 189.769C24.1845 189.769 24.1845 189.77 24.1845 189.771C24.1845 189.771 24.1845 189.772 24.1845 189.773C24.1845 189.774 24.1845 189.774 24.1845 189.775C24.1845 189.776 24.1845 189.776 24.1845 189.777C24.1845 189.778 24.1845 189.779 24.1845 189.779C24.1845 189.78 24.1845 189.781 24.1845 189.781C24.1845 189.782 24.1845 189.783 24.1845 189.783C24.1845 189.784 24.1845 189.785 24.1845 189.786C24.1845 189.786 24.1845 189.787 24.1845 189.788C24.1845 189.788 24.1845 189.789 24.1845 189.79C24.1845 189.791 24.1845 189.791 24.1845 189.792C24.1845 189.793 24.1845 189.793 24.1845 189.794C24.1845 189.795 24.1845 189.795 24.1845 189.796C24.1845 189.797 24.1845 189.798 24.1845 189.798C24.1845 189.799 24.1845 189.8 24.1845 189.8C24.1845 189.801 24.1845 189.802 24.1845 189.803C24.1845 189.803 24.1845 189.804 24.1845 189.805C24.1845 189.805 24.1845 189.806 24.1845 189.807C24.1845 189.807 24.1845 189.808 24.1845 189.809C24.1845 189.81 24.1845 189.81 24.1845 189.811C24.1845 189.812 24.1845 189.812 24.1845 189.813C24.1845 189.814 24.1845 189.814 24.1845 189.815C24.1845 189.816 24.1845 189.817 24.1845 189.817C24.1845 189.818 24.1845 189.819 24.1845 189.819C24.1845 189.82 24.1845 189.821 24.1845 189.821C24.1845 189.822 24.1845 189.823 24.1845 189.824C24.1845 189.824 24.1845 189.825 24.1845 189.826C24.1845 189.826 24.1845 189.827 24.1845 189.828C24.1845 189.828 24.1845 189.829 24.1845 189.83C24.1845 189.831 24.1845 189.831 24.1845 189.832C24.1845 189.833 24.1845 189.833 24.1845 189.834C24.1845 189.835 24.1845 189.835 24.1845 189.836C24.1845 189.837 24.1845 189.838 24.1845 189.838C24.1845 189.839 24.1845 189.84 24.1845 189.84C24.1845 189.841 24.1845 189.842 24.1845 189.842C24.1845 189.843 24.1845 189.844 24.1845 189.845C24.1845 189.845 24.1845 189.846 24.1845 189.847C24.1845 189.847 24.1845 189.848 24.1845 189.849C24.1845 189.849 24.1845 189.85 24.1845 189.851C24.1845 189.852 24.1845 189.852 24.1845 189.853C24.1845 189.854 24.1845 189.854 24.1845 189.855C24.1845 189.856 24.1845 189.856 24.1845 189.857C24.1845 189.858 24.1845 189.859 24.1845 189.859C24.1845 189.86 24.1845 189.861 24.1845 189.861C24.1845 189.862 24.1845 189.863 24.1845 189.863C24.1845 189.864 24.1845 189.865 24.1845 189.866C24.1845 189.866 24.1845 189.867 24.1845 189.868C24.1845 189.868 24.1845 189.869 24.1845 189.87C24.1845 189.87 24.1845 189.871 24.1845 189.872C24.1845 189.872 24.1845 189.873 24.1845 189.874C24.1845 189.875 24.1845 189.875 24.1845 189.876C24.1845 189.877 24.1845 189.877 24.1845 189.878C24.1845 189.879 24.1845 189.879 24.1845 189.88C24.1845 189.881 24.1845 189.881 24.1845 189.882C24.1845 189.883 24.1845 189.884 24.1845 189.884C24.1845 189.885 24.1845 189.886 24.1845 189.886C24.1845 189.887 24.1845 189.888 24.1845 189.888C24.1845 189.889 24.1845 189.89 24.1845 189.891C24.1845 189.891 24.1845 189.892 24.1845 189.893C24.1845 189.893 24.1845 189.894 24.1845 189.895C24.1845 189.895 24.1845 189.896 24.1845 189.897C24.1845 189.897 24.1845 189.898 24.1845 189.899C24.1845 189.9 24.1845 189.9 24.1845 189.901C24.1845 189.902 24.1845 189.902 24.1845 189.903C24.1845 189.904 24.1845 189.904 24.1845 189.905C24.1845 189.906 24.1845 189.906 24.1845 189.907C24.1845 189.908 24.1845 189.909 24.1845 189.909C24.1845 189.91 24.1845 189.911 24.1845 189.911C24.1845 189.912 24.1845 189.913 24.1845 189.913C24.1845 189.914 24.1845 189.915 24.1845 189.915C24.1845 189.916 24.1845 189.917 24.1845 189.917C24.1845 189.918 24.1845 189.919 24.1845 189.92C24.1845 189.92 24.1845 189.921 24.1845 189.922C24.1845 189.922 24.1845 189.923 24.1845 189.924C24.1845 189.924 24.1845 189.925 24.1845 189.926C24.1845 189.926 24.1845 189.927 24.1845 189.928C24.1845 189.929 24.1845 189.929 24.1845 189.93C24.1845 189.931 24.1845 189.931 24.1845 189.932C24.1845 189.933 24.1845 189.933 24.1845 189.934C24.1845 189.935 24.1845 189.935 24.1845 189.936C24.1845 189.937 24.1845 189.937 24.1845 189.938C24.1845 189.939 24.1845 189.94 24.1845 189.94C24.1845 189.941 24.1845 189.942 24.1845 189.942C24.1845 189.943 24.1845 189.944 24.1845 189.944C24.1845 189.945 24.1845 189.946 24.1845 189.946C24.1845 189.947 24.1845 189.948 24.1845 189.948C24.1845 189.949 24.1845 189.95 24.1845 189.95C24.1845 189.951 24.1845 189.952 24.1845 189.953C24.1845 189.953 24.1845 189.954 24.1845 189.955C24.1845 189.955 24.1845 189.956 24.1845 189.957C24.1845 189.957 24.1845 189.958 24.1845 189.959C24.1845 189.959 24.1845 189.96 24.1845 189.961C24.1845 189.961 24.1845 189.962 24.1845 189.963C24.1845 189.964 24.1845 189.964 24.1845 189.965C24.1845 189.966 24.1845 189.966 24.1845 189.967C24.1845 189.968 24.1845 189.968 24.1845 189.969C24.1845 189.97 24.1845 189.97 24.1845 189.971C24.1845 189.972 24.1845 189.972 24.1845 189.973C24.1845 189.974 24.1845 189.974 24.1845 189.975C24.1845 189.976 24.1845 189.976 24.1845 189.977C24.1845 189.978 24.1845 189.979 24.1845 189.979C24.1845 189.98 24.1845 189.981 24.1845 189.981C24.1845 189.982 24.1845 189.983 24.1845 189.983C24.1845 189.984 24.1845 189.985 24.1845 189.985C24.1845 189.986 24.1845 189.987 24.1845 189.987C24.1845 189.988 24.1845 189.989 24.1845 189.989C24.1845 189.99 24.1845 189.991 24.1845 189.991C24.1845 189.992 24.1845 189.993 24.1845 189.994C24.1845 189.994 24.1845 189.995 24.1845 189.996C24.1845 189.996 24.1845 189.997 24.1845 189.998C24.1845 189.998 24.1845 189.999 24.1845 190C24.1845 190 24.1845 190.001 24.1845 190.002C24.1845 190.002 24.1845 190.003 24.1845 190.004C24.1845 190.004 24.1845 190.005 24.1845 190.006C24.1845 190.006 24.1845 190.007 24.1845 190.008C24.1845 190.008 24.1845 190.009 24.1845 190.01C24.1845 190.011 24.1845 190.011 24.1845 190.012C24.1845 190.013 24.1845 190.013 24.1845 190.014C24.1845 190.015 24.1845 190.015 24.1845 190.016C24.1845 190.017 24.1845 190.017 24.1845 190.018C24.1845 190.019 24.1845 190.019 24.1845 190.02H36.1845C36.1845 190.019 36.1845 190.019 36.1845 190.018C36.1845 190.017 36.1845 190.017 36.1845 190.016C36.1845 190.015 36.1845 190.015 36.1845 190.014C36.1845 190.013 36.1845 190.013 36.1845 190.012C36.1845 190.011 36.1845 190.011 36.1845 190.01C36.1845 190.009 36.1845 190.008 36.1845 190.008C36.1845 190.007 36.1845 190.006 36.1845 190.006C36.1845 190.005 36.1845 190.004 36.1845 190.004C36.1845 190.003 36.1845 190.002 36.1845 190.002C36.1845 190.001 36.1845 190 36.1845 190C36.1845 189.999 36.1845 189.998 36.1845 189.998C36.1845 189.997 36.1845 189.996 36.1845 189.996C36.1845 189.995 36.1845 189.994 36.1845 189.994C36.1845 189.993 36.1845 189.992 36.1845 189.991C36.1845 189.991 36.1845 189.99 36.1845 189.989C36.1845 189.989 36.1845 189.988 36.1845 189.987C36.1845 189.987 36.1845 189.986 36.1845 189.985C36.1845 189.985 36.1845 189.984 36.1845 189.983C36.1845 189.983 36.1845 189.982 36.1845 189.981C36.1845 189.981 36.1845 189.98 36.1845 189.979C36.1845 189.979 36.1845 189.978 36.1845 189.977C36.1845 189.976 36.1845 189.976 36.1845 189.975C36.1845 189.974 36.1845 189.974 36.1845 189.973C36.1845 189.972 36.1845 189.972 36.1845 189.971C36.1845 189.97 36.1845 189.97 36.1845 189.969C36.1845 189.968 36.1845 189.968 36.1845 189.967C36.1845 189.966 36.1845 189.966 36.1845 189.965C36.1845 189.964 36.1845 189.964 36.1845 189.963C36.1845 189.962 36.1845 189.961 36.1845 189.961C36.1845 189.96 36.1845 189.959 36.1845 189.959C36.1845 189.958 36.1845 189.957 36.1845 189.957C36.1845 189.956 36.1845 189.955 36.1845 189.955C36.1845 189.954 36.1845 189.953 36.1845 189.953C36.1845 189.952 36.1845 189.951 36.1845 189.95C36.1845 189.95 36.1845 189.949 36.1845 189.948C36.1845 189.948 36.1845 189.947 36.1845 189.946C36.1845 189.946 36.1845 189.945 36.1845 189.944C36.1845 189.944 36.1845 189.943 36.1845 189.942C36.1845 189.942 36.1845 189.941 36.1845 189.94C36.1845 189.94 36.1845 189.939 36.1845 189.938C36.1845 189.937 36.1845 189.937 36.1845 189.936C36.1845 189.935 36.1845 189.935 36.1845 189.934C36.1845 189.933 36.1845 189.933 36.1845 189.932C36.1845 189.931 36.1845 189.931 36.1845 189.93C36.1845 189.929 36.1845 189.929 36.1845 189.928C36.1845 189.927 36.1845 189.926 36.1845 189.926C36.1845 189.925 36.1845 189.924 36.1845 189.924C36.1845 189.923 36.1845 189.922 36.1845 189.922C36.1845 189.921 36.1845 189.92 36.1845 189.92C36.1845 189.919 36.1845 189.918 36.1845 189.917C36.1845 189.917 36.1845 189.916 36.1845 189.915C36.1845 189.915 36.1845 189.914 36.1845 189.913C36.1845 189.913 36.1845 189.912 36.1845 189.911C36.1845 189.911 36.1845 189.91 36.1845 189.909C36.1845 189.909 36.1845 189.908 36.1845 189.907C36.1845 189.906 36.1845 189.906 36.1845 189.905C36.1845 189.904 36.1845 189.904 36.1845 189.903C36.1845 189.902 36.1845 189.902 36.1845 189.901C36.1845 189.9 36.1845 189.9 36.1845 189.899C36.1845 189.898 36.1845 189.897 36.1845 189.897C36.1845 189.896 36.1845 189.895 36.1845 189.895C36.1845 189.894 36.1845 189.893 36.1845 189.893C36.1845 189.892 36.1845 189.891 36.1845 189.891C36.1845 189.89 36.1845 189.889 36.1845 189.888C36.1845 189.888 36.1845 189.887 36.1845 189.886C36.1845 189.886 36.1845 189.885 36.1845 189.884C36.1845 189.884 36.1845 189.883 36.1845 189.882C36.1845 189.881 36.1845 189.881 36.1845 189.88C36.1845 189.879 36.1845 189.879 36.1845 189.878C36.1845 189.877 36.1845 189.877 36.1845 189.876C36.1845 189.875 36.1845 189.875 36.1845 189.874C36.1845 189.873 36.1845 189.872 36.1845 189.872C36.1845 189.871 36.1845 189.87 36.1845 189.87C36.1845 189.869 36.1845 189.868 36.1845 189.868C36.1845 189.867 36.1845 189.866 36.1845 189.866C36.1845 189.865 36.1845 189.864 36.1845 189.863C36.1845 189.863 36.1845 189.862 36.1845 189.861C36.1845 189.861 36.1845 189.86 36.1845 189.859C36.1845 189.859 36.1845 189.858 36.1845 189.857C36.1845 189.856 36.1845 189.856 36.1845 189.855C36.1845 189.854 36.1845 189.854 36.1845 189.853C36.1845 189.852 36.1845 189.852 36.1845 189.851C36.1845 189.85 36.1845 189.849 36.1845 189.849C36.1845 189.848 36.1845 189.847 36.1845 189.847C36.1845 189.846 36.1845 189.845 36.1845 189.845C36.1845 189.844 36.1845 189.843 36.1845 189.842C36.1845 189.842 36.1845 189.841 36.1845 189.84C36.1845 189.84 36.1845 189.839 36.1845 189.838C36.1845 189.838 36.1845 189.837 36.1845 189.836C36.1845 189.835 36.1845 189.835 36.1845 189.834C36.1845 189.833 36.1845 189.833 36.1845 189.832C36.1845 189.831 36.1845 189.831 36.1845 189.83C36.1845 189.829 36.1845 189.828 36.1845 189.828C36.1845 189.827 36.1845 189.826 36.1845 189.826C36.1845 189.825 36.1845 189.824 36.1845 189.824C36.1845 189.823 36.1845 189.822 36.1845 189.821C36.1845 189.821 36.1845 189.82 36.1845 189.819C36.1845 189.819 36.1845 189.818 36.1845 189.817C36.1845 189.817 36.1845 189.816 36.1845 189.815C36.1845 189.814 36.1845 189.814 36.1845 189.813C36.1845 189.812 36.1845 189.812 36.1845 189.811C36.1845 189.81 36.1845 189.81 36.1845 189.809C36.1845 189.808 36.1845 189.807 36.1845 189.807C36.1845 189.806 36.1845 189.805 36.1845 189.805C36.1845 189.804 36.1845 189.803 36.1845 189.803C36.1845 189.802 36.1845 189.801 36.1845 189.8C36.1845 189.8 36.1845 189.799 36.1845 189.798C36.1845 189.798 36.1845 189.797 36.1845 189.796C36.1845 189.795 36.1845 189.795 36.1845 189.794C36.1845 189.793 36.1845 189.793 36.1845 189.792C36.1845 189.791 36.1845 189.791 36.1845 189.79C36.1845 189.789 36.1845 189.788 36.1845 189.788C36.1845 189.787 36.1845 189.786 36.1845 189.786C36.1845 189.785 36.1845 189.784 36.1845 189.783C36.1845 189.783 36.1845 189.782 36.1845 189.781C36.1845 189.781 36.1845 189.78 36.1845 189.779C36.1845 189.779 36.1845 189.778 36.1845 189.777C36.1845 189.776 36.1845 189.776 36.1845 189.775C36.1845 189.774 36.1845 189.774 36.1845 189.773C36.1845 189.772 36.1845 189.771 36.1845 189.771C36.1845 189.77 36.1845 189.769 36.1845 189.769C36.1845 189.768 36.1845 189.767 36.1845 189.767C36.1845 189.766 36.1845 189.765 36.1845 189.764C36.1845 189.764 36.1845 189.763 36.1845 189.762C36.1845 189.762 36.1845 189.761 36.1845 189.76C36.1845 189.759 36.1845 189.759 36.1845 189.758C36.1845 189.757 36.1845 189.757 36.1845 189.756C36.1845 189.755 36.1845 189.754 36.1845 189.754C36.1845 189.753 36.1845 189.752 36.1845 189.752C36.1845 189.751 36.1845 189.75 36.1845 189.749C36.1845 189.749 36.1845 189.748 36.1845 189.747C36.1845 189.747 36.1845 189.746 36.1845 189.745C36.1845 189.745 36.1845 189.744 36.1845 189.743C36.1845 189.742 36.1845 189.742 36.1845 189.741C36.1845 189.74 36.1845 189.74 36.1845 189.739C36.1845 189.738 36.1845 189.737 36.1845 189.737C36.1845 189.736 36.1845 189.735 36.1845 189.735C36.1845 189.734 36.1845 189.733 36.1845 189.732C36.1845 189.732 36.1845 189.731 36.1845 189.73C36.1845 189.73 36.1845 189.729 36.1845 189.728C36.1845 189.727 36.1845 189.727 36.1845 189.726C36.1845 189.725 36.1845 189.725 36.1845 189.724C36.1845 189.723 36.1845 189.722 36.1845 189.722C36.1845 189.721 36.1845 189.72 36.1845 189.72C36.1845 189.719 36.1845 189.718 36.1845 189.717C36.1845 189.717 36.1845 189.716 36.1845 189.715C36.1845 189.715 36.1845 189.714 36.1845 189.713C36.1845 189.712 36.1845 189.712 36.1845 189.711C36.1845 189.71 36.1845 189.71 36.1845 189.709C36.1845 189.708 36.1845 189.707 36.1845 189.707C36.1845 189.706 36.1845 189.705 36.1845 189.705C36.1845 189.704 36.1845 189.703 36.1845 189.702C36.1845 189.702 36.1845 189.701 36.1845 189.7C36.1845 189.7 36.1845 189.699 36.1845 189.698C36.1845 189.697 36.1845 189.697 36.1845 189.696C36.1845 189.695 36.1845 189.695 36.1845 189.694C36.1845 189.693 36.1845 189.692 36.1845 189.692C36.1845 189.691 36.1845 189.69 36.1845 189.69C36.1845 189.689 36.1845 189.688 36.1845 189.687C36.1845 189.687 36.1845 189.686 36.1845 189.685C36.1845 189.685 36.1845 189.684 36.1845 189.683C36.1845 189.682 36.1845 189.682 36.1845 189.681C36.1845 189.68 36.1845 189.679 36.1845 189.679C36.1845 189.678 36.1845 189.677 36.1845 189.677C36.1845 189.676 36.1845 189.675 36.1845 189.674C36.1845 189.674 36.1845 189.673 36.1845 189.672C36.1845 189.672 36.1845 189.671 36.1845 189.67C36.1845 189.669 36.1845 189.669 36.1845 189.668C36.1845 189.667 36.1845 189.667 36.1845 189.666C36.1845 189.665 36.1845 189.664 36.1845 189.664C36.1845 189.663 36.1845 189.662 36.1845 189.662C36.1845 189.661 36.1845 189.66 36.1845 189.659C36.1845 189.659 36.1845 189.658 36.1845 189.657C36.1845 189.656 36.1845 189.656 36.1845 189.655C36.1845 189.654 36.1845 189.654 36.1845 189.653C36.1845 189.652 36.1845 189.651 36.1845 189.651C36.1845 189.65 36.1845 189.649 36.1845 189.649C36.1845 189.648 36.1845 189.647 36.1845 189.646C36.1845 189.646 36.1845 189.645 36.1845 189.644C36.1845 189.643 36.1845 189.643 36.1845 189.642C36.1845 189.641 36.1845 189.641 36.1845 189.64C36.1845 189.639 36.1845 189.638 36.1845 189.638C36.1845 189.637 36.1845 189.636 36.1845 189.636C36.1845 189.635 36.1845 189.634 36.1845 189.633C36.1845 189.633 36.1845 189.632 36.1845 189.631C36.1845 189.63 36.1845 189.63 36.1845 189.629C36.1845 189.628 36.1845 189.628 36.1845 189.627C36.1845 189.626 36.1845 189.625 36.1845 189.625C36.1845 189.624 36.1845 189.623 36.1845 189.622C36.1845 189.622 36.1845 189.621 36.1845 189.62C36.1845 189.62 36.1845 189.619 36.1845 189.618C36.1845 189.617 36.1845 189.617 36.1845 189.616C36.1845 189.615 36.1845 189.614 36.1845 189.614C36.1845 189.613 36.1845 189.612 36.1845 189.612C36.1845 189.611 36.1845 189.61 36.1845 189.609C36.1845 189.609 36.1845 189.608 36.1845 189.607C36.1845 189.606 36.1845 189.606 36.1845 189.605C36.1845 189.604 36.1845 189.604 36.1845 189.603C36.1845 189.602 36.1845 189.601 36.1845 189.601C36.1845 189.6 36.1845 189.599 36.1845 189.598C36.1845 189.598 36.1845 189.597 36.1845 189.596C36.1845 189.596 36.1845 189.595 36.1845 189.594C36.1845 189.593 36.1845 189.593 36.1845 189.592C36.1845 189.591 36.1845 189.59 36.1845 189.59C36.1845 189.589 36.1845 189.588 36.1845 189.588C36.1845 189.587 36.1845 189.586 36.1845 189.585C36.1845 189.585 36.1845 189.584 36.1845 189.583C36.1845 189.582 36.1845 189.582 36.1845 189.581C36.1845 189.58 36.1845 189.58 36.1845 189.579C36.1845 189.578 36.1845 189.577 36.1845 189.577C36.1845 189.576 36.1845 189.575 36.1845 189.574C36.1845 189.574 36.1845 189.573 36.1845 189.572C36.1845 189.571 36.1845 189.571 36.1845 189.57C36.1845 189.569 36.1845 189.569 36.1845 189.568C36.1845 189.567 36.1845 189.566 36.1845 189.566C36.1845 189.565 36.1845 189.564 36.1845 189.563C36.1845 189.563 36.1845 189.562 36.1845 189.561C36.1845 189.561 36.1845 189.56 36.1845 189.559C36.1845 189.558 36.1845 189.558 36.1845 189.557C36.1845 189.556 36.1845 189.555 36.1845 189.555C36.1845 189.554 36.1845 189.553 36.1845 189.552C36.1845 189.552 36.1845 189.551 36.1845 189.55C36.1845 189.55 36.1845 189.549 36.1845 189.548C36.1845 189.547 36.1845 189.547 36.1845 189.546C36.1845 189.545 36.1845 189.544 36.1845 189.544C36.1845 189.543 36.1845 189.542 36.1845 189.541C36.1845 189.541 36.1845 189.54 36.1845 189.539C36.1845 189.539 36.1845 189.538 36.1845 189.537C36.1845 189.536 36.1845 189.536 36.1845 189.535C36.1845 189.534 36.1845 189.533 36.1845 189.533C36.1845 189.532 36.1845 189.531 36.1845 189.53C36.1845 189.53 36.1845 189.529 36.1845 189.528C36.1845 189.527 36.1845 189.527 36.1845 189.526C36.1845 189.525 36.1845 189.525 36.1845 189.524C36.1845 189.523 36.1845 189.522 36.1845 189.522C36.1845 189.521 36.1845 189.52 36.1845 189.519C36.1845 189.519 36.1845 189.518 36.1845 189.517C36.1845 189.516 36.1845 189.516 36.1845 189.515C36.1845 189.514 36.1845 189.513 36.1845 189.513C36.1845 189.512 36.1845 189.511 36.1845 189.511C36.1845 189.51 36.1845 189.509 36.1845 189.508C36.1845 189.508 36.1845 189.507 36.1845 189.506C36.1845 189.505 36.1845 189.505 36.1845 189.504C36.1845 189.503 36.1845 189.502 36.1845 189.502C36.1845 189.501 36.1845 189.5 36.1845 189.499C36.1845 189.499 36.1845 189.498 36.1845 189.497C36.1845 189.496 36.1845 189.496 36.1845 189.495C36.1845 189.494 36.1845 189.494 36.1845 189.493C36.1845 189.492 36.1845 189.491 36.1845 189.491C36.1845 189.49 36.1845 189.489 36.1845 189.488C36.1845 189.488 36.1845 189.487 36.1845 189.486C36.1845 189.485 36.1845 189.485 36.1845 189.484C36.1845 189.483 36.1845 189.482 36.1845 189.482C36.1845 189.481 36.1845 189.48 36.1845 189.479C36.1845 189.479 36.1845 189.478 36.1845 189.477C36.1845 189.476 36.1845 189.476 36.1845 189.475C36.1845 189.474 36.1845 189.474 36.1845 189.473C36.1845 189.472 36.1845 189.471 36.1845 189.471C36.1845 189.47 36.1845 189.469 36.1845 189.468C36.1845 189.468 36.1845 189.467 36.1845 189.466C36.1845 189.465 36.1845 189.465 36.1845 189.464C36.1845 189.463 36.1845 189.462 36.1845 189.462C36.1845 189.461 36.1845 189.46 36.1845 189.459C36.1845 189.459 36.1845 189.458 36.1845 189.457C36.1845 189.456 36.1845 189.456 36.1845 189.455C36.1845 189.454 36.1845 189.453 36.1845 189.453C36.1845 189.452 36.1845 189.451 36.1845 189.45C36.1845 189.45 36.1845 189.449 36.1845 189.448C36.1845 189.447 36.1845 189.447 36.1845 189.446C36.1845 189.445 36.1845 189.444 36.1845 189.444C36.1845 189.443 36.1845 189.442 36.1845 189.442C36.1845 189.441 36.1845 189.44 36.1845 189.439C36.1845 189.439 36.1845 189.438 36.1845 189.437C36.1845 189.436 36.1845 189.436 36.1845 189.435C36.1845 189.434 36.1845 189.433 36.1845 189.433C36.1845 189.432 36.1845 189.431 36.1845 189.43C36.1845 189.43 36.1845 189.429 36.1845 189.428C36.1845 189.427 36.1845 189.427 36.1845 189.426C36.1845 189.425 36.1845 189.424 36.1845 189.424C36.1845 189.423 36.1845 189.422 36.1845 189.421C36.1845 189.421 36.1845 189.42 36.1845 189.419C36.1845 189.418 36.1845 189.418 36.1845 189.417C36.1845 189.416 36.1845 189.415 36.1845 189.415C36.1845 189.414 36.1845 189.413 36.1845 189.412C36.1845 189.412 36.1845 189.411 36.1845 189.41C36.1845 189.409 36.1845 189.409 36.1845 189.408C36.1845 189.407 36.1845 189.406 36.1845 189.406C36.1845 189.405 36.1845 189.404 36.1845 189.403C36.1845 189.403 36.1845 189.402 36.1845 189.401C36.1845 189.4 36.1845 189.4 36.1845 189.399C36.1845 189.398 36.1845 189.397 36.1845 189.397C36.1845 189.396 36.1845 189.395 36.1845 189.394C36.1845 189.394 36.1845 189.393 36.1845 189.392C36.1845 189.391 36.1845 189.391 36.1845 189.39C36.1845 189.389 36.1845 189.388 36.1845 189.388C36.1845 189.387 36.1845 189.386 36.1845 189.385C36.1845 189.385 36.1845 189.384 36.1845 189.383C36.1845 189.382 36.1845 189.382 36.1845 189.381C36.1845 189.38 36.1845 189.379 36.1845 189.379C36.1845 189.378 36.1845 189.377 36.1845 189.376C36.1845 189.376 36.1845 189.375 36.1845 189.374C36.1845 189.373 36.1845 189.373 36.1845 189.372C36.1845 189.371 36.1845 189.37 36.1845 189.37C36.1845 189.369 36.1845 189.368 36.1845 189.367C36.1845 189.366 36.1845 189.366 36.1845 189.365C36.1845 189.364 36.1845 189.363 36.1845 189.363C36.1845 189.362 36.1845 189.361 36.1845 189.36C36.1845 189.36 36.1845 189.359 36.1845 189.358C36.1845 189.357 36.1845 189.357 36.1845 189.356C36.1845 189.355 36.1845 189.354 36.1845 189.354C36.1845 189.353 36.1845 189.352 36.1845 189.351C36.1845 189.351 36.1845 189.35 36.1845 189.349C36.1845 189.348 36.1845 189.348 36.1845 189.347C36.1845 189.346 36.1845 189.345 36.1845 189.345C36.1845 189.344 36.1845 189.343 36.1845 189.342C36.1845 189.342 36.1845 189.341 36.1845 189.34C36.1845 189.339 36.1845 189.339 36.1845 189.338C36.1845 189.337 36.1845 189.336 36.1845 189.335C36.1845 189.335 36.1845 189.334 36.1845 189.333C36.1845 189.332 36.1845 189.332 36.1845 189.331C36.1845 189.33 36.1845 189.329 36.1845 189.329C36.1845 189.328 36.1845 189.327 36.1845 189.326C36.1845 189.326 36.1845 189.325 36.1845 189.324C36.1845 189.323 36.1845 189.323 36.1845 189.322C36.1845 189.321 36.1845 189.32 36.1845 189.32C36.1845 189.319 36.1845 189.318 36.1845 189.317C36.1845 189.317 36.1845 189.316 36.1845 189.315C36.1845 189.314 36.1845 189.313 36.1845 189.313C36.1845 189.312 36.1845 189.311 36.1845 189.31C36.1845 189.31 36.1845 189.309 36.1845 189.308C36.1845 189.307 36.1845 189.307 36.1845 189.306C36.1845 189.305 36.1845 189.304 36.1845 189.304C36.1845 189.303 36.1845 189.302 36.1845 189.301C36.1845 189.301 36.1845 189.3 36.1845 189.299C36.1845 189.298 36.1845 189.297 36.1845 189.297C36.1845 189.296 36.1845 189.295 36.1845 189.294C36.1845 189.294 36.1845 189.293 36.1845 189.292C36.1845 189.291 36.1845 189.291 36.1845 189.29C36.1845 189.289 36.1845 189.288 36.1845 189.288C36.1845 189.287 36.1845 189.286 36.1845 189.285C36.1845 189.285 36.1845 189.284 36.1845 189.283C36.1845 189.282 36.1845 189.281 36.1845 189.281C36.1845 189.28 36.1845 189.279 36.1845 189.278C36.1845 189.278 36.1845 189.277 36.1845 189.276C36.1845 189.275 36.1845 189.275 36.1845 189.274C36.1845 189.273 36.1845 189.272 36.1845 189.272C36.1845 189.271 36.1845 189.27 36.1845 189.269C36.1845 189.268 36.1845 189.268 36.1845 189.267C36.1845 189.266 36.1845 189.265 36.1845 189.265C36.1845 189.264 36.1845 189.263 36.1845 189.262C36.1845 189.262 36.1845 189.261 36.1845 189.26C36.1845 189.259 36.1845 189.259 36.1845 189.258C36.1845 189.257 36.1845 189.256 36.1845 189.255C36.1845 189.255 36.1845 189.254 36.1845 189.253C36.1845 189.252 36.1845 189.252 36.1845 189.251C36.1845 189.25 36.1845 189.249 36.1845 189.249C36.1845 189.248 36.1845 189.247 36.1845 189.246C36.1845 189.245 36.1845 189.245 36.1845 189.244C36.1845 189.243 36.1845 189.242 36.1845 189.242C36.1845 189.241 36.1845 189.24 36.1845 189.239C36.1845 189.239 36.1845 189.238 36.1845 189.237C36.1845 189.236 36.1845 189.235 36.1845 189.235C36.1845 189.234 36.1845 189.233 36.1845 189.232C36.1845 189.232 36.1845 189.231 36.1845 189.23C36.1845 189.229 36.1845 189.229 36.1845 189.228C36.1845 189.227 36.1845 189.226 36.1845 189.225C36.1845 189.225 36.1845 189.224 36.1845 189.223C36.1845 189.222 36.1845 189.222 36.1845 189.221C36.1845 189.22 36.1845 189.219 36.1845 189.219C36.1845 189.218 36.1845 189.217 36.1845 189.216C36.1845 189.215 36.1845 189.215 36.1845 189.214C36.1845 189.213 36.1845 189.212 36.1845 189.212C36.1845 189.211 36.1845 189.21 36.1845 189.209C36.1845 189.208 36.1845 189.208 36.1845 189.207C36.1845 189.206 36.1845 189.205 36.1845 189.205C36.1845 189.204 36.1845 189.203 36.1845 189.202C36.1845 189.202 36.1845 189.201 36.1845 189.2C36.1845 189.199 36.1845 189.198 36.1845 189.198C36.1845 189.197 36.1845 189.196 36.1845 189.195C36.1845 189.195 36.1845 189.194 36.1845 189.193C36.1845 189.192 36.1845 189.191 36.1845 189.191C36.1845 189.19 36.1845 189.189 36.1845 189.188C36.1845 189.188 36.1845 189.187 36.1845 189.186C36.1845 189.185 36.1845 189.185 36.1845 189.184C36.1845 189.183 36.1845 189.182 36.1845 189.181C36.1845 189.181 36.1845 189.18 36.1845 189.179C36.1845 189.178 36.1845 189.178 36.1845 189.177C36.1845 189.176 36.1845 189.175 36.1845 189.174C36.1845 189.174 36.1845 189.173 36.1845 189.172C36.1845 189.171 36.1845 189.171 36.1845 189.17C36.1845 189.169 36.1845 189.168 36.1845 189.167C36.1845 189.167 36.1845 189.166 36.1845 189.165C36.1845 189.164 36.1845 189.164 36.1845 189.163C36.1845 189.162 36.1845 189.161 36.1845 189.16C36.1845 189.16 36.1845 189.159 36.1845 189.158C36.1845 189.157 36.1845 189.157 36.1845 189.156C36.1845 189.155 36.1845 189.154 36.1845 189.153C36.1845 189.153 36.1845 189.152 36.1845 189.151C36.1845 189.15 36.1845 189.15 36.1845 189.149C36.1845 189.148 36.1845 189.147 36.1845 189.146C36.1845 189.146 36.1845 189.145 36.1845 189.144C36.1845 189.143 36.1845 189.143 36.1845 189.142C36.1845 189.141 36.1845 189.14 36.1845 189.139C36.1845 189.139 36.1845 189.138 36.1845 189.137C36.1845 189.136 36.1845 189.136 36.1845 189.135C36.1845 189.134 36.1845 189.133 36.1845 189.132C36.1845 189.132 36.1845 189.131 36.1845 189.13C36.1845 189.129 36.1845 189.129 36.1845 189.128C36.1845 189.127 36.1845 189.126 36.1845 189.125C36.1845 189.125 36.1845 189.124 36.1845 189.123C36.1845 189.122 36.1845 189.121 36.1845 189.121C36.1845 189.12 36.1845 189.119 36.1845 189.118C36.1845 189.118 36.1845 189.117 36.1845 189.116C36.1845 189.115 36.1845 189.114 36.1845 189.114C36.1845 189.113 36.1845 189.112 36.1845 189.111C36.1845 189.111 36.1845 189.11 36.1845 189.109C36.1845 189.108 36.1845 189.107 36.1845 189.107C36.1845 189.106 36.1845 189.105 36.1845 189.104C36.1845 189.104 36.1845 189.103 36.1845 189.102C36.1845 189.101 36.1845 189.1 36.1845 189.1C36.1845 189.099 36.1845 189.098 36.1845 189.097C36.1845 189.096 36.1845 189.096 36.1845 189.095C36.1845 189.094 36.1845 189.093 36.1845 189.093C36.1845 189.092 36.1845 189.091 36.1845 189.09C36.1845 189.089 36.1845 189.089 36.1845 189.088C36.1845 189.087 36.1845 189.086 36.1845 189.085C36.1845 189.085 36.1845 189.084 36.1845 189.083C36.1845 189.082 36.1845 189.082 36.1845 189.081C36.1845 189.08 36.1845 189.079 36.1845 189.078C36.1845 189.078 36.1845 189.077 36.1845 189.076C36.1845 189.075 36.1845 189.074 36.1845 189.074C36.1845 189.073 36.1845 189.072 36.1845 189.071C36.1845 189.071 36.1845 189.07 36.1845 189.069C36.1845 189.068 36.1845 189.067 36.1845 189.067C36.1845 189.066 36.1845 189.065 36.1845 189.064C36.1845 189.063 36.1845 189.063 36.1845 189.062C36.1845 189.061 36.1845 189.06 36.1845 189.059C36.1845 189.059 36.1845 189.058 36.1845 189.057C36.1845 189.056 36.1845 189.056 36.1845 189.055C36.1845 189.054 36.1845 189.053 36.1845 189.052C36.1845 189.052 36.1845 189.051 36.1845 189.05C36.1845 189.049 36.1845 189.048 36.1845 189.048C36.1845 189.047 36.1845 189.046 36.1845 189.045C36.1845 189.045 36.1845 189.044 36.1845 189.043C36.1845 189.042 36.1845 189.041 36.1845 189.041C36.1845 189.04 36.1845 189.039 36.1845 189.038C36.1845 189.037 36.1845 189.037 36.1845 189.036C36.1845 189.035 36.1845 189.034 36.1845 189.033C36.1845 189.033 36.1845 189.032 36.1845 189.031C36.1845 189.03 36.1845 189.029 36.1845 189.029C36.1845 189.028 36.1845 189.027 36.1845 189.026C36.1845 189.026 36.1845 189.025 36.1845 189.024C36.1845 189.023 36.1845 189.022 36.1845 189.022C36.1845 189.021 36.1845 189.02 36.1845 189.019C36.1845 189.018 36.1845 189.018 36.1845 189.017C36.1845 189.016 36.1845 189.015 36.1845 189.014C36.1845 189.014 36.1845 189.013 36.1845 189.012C36.1845 189.011 36.1845 189.01 36.1845 189.01C36.1845 189.009 36.1845 189.008 36.1845 189.007C36.1845 189.006 36.1845 189.006 36.1845 189.005C36.1845 189.004 36.1845 189.003 36.1845 189.003C36.1845 189.002 36.1845 189.001 36.1845 189C36.1845 188.999 36.1845 188.999 36.1845 188.998C36.1845 188.997 36.1845 188.996 36.1845 188.995C36.1845 188.995 36.1845 188.994 36.1845 188.993C36.1845 188.992 36.1845 188.991 36.1845 188.991C36.1845 188.99 36.1845 188.989 36.1845 188.988C36.1845 188.987 36.1845 188.987 36.1845 188.986C36.1845 188.985 36.1845 188.984 36.1845 188.983C36.1845 188.983 36.1845 188.982 36.1845 188.981C36.1845 188.98 36.1845 188.979 36.1845 188.979C36.1845 188.978 36.1845 188.977 36.1845 188.976C36.1845 188.975 36.1845 188.975 36.1845 188.974C36.1845 188.973 36.1845 188.972 36.1845 188.971C36.1845 188.971 36.1845 188.97 36.1845 188.969C36.1845 188.968 36.1845 188.967 36.1845 188.967C36.1845 188.966 36.1845 188.965 36.1845 188.964C36.1845 188.963 36.1845 188.963 36.1845 188.962C36.1845 188.961 36.1845 188.96 36.1845 188.96C36.1845 188.959 36.1845 188.958 36.1845 188.957C36.1845 188.956 36.1845 188.956 36.1845 188.955C36.1845 188.954 36.1845 188.953 36.1845 188.952C36.1845 188.952 36.1845 188.951 36.1845 188.95C36.1845 188.949 36.1845 188.948 36.1845 188.948C36.1845 188.947 36.1845 188.946 36.1845 188.945C36.1845 188.944 36.1845 188.944 36.1845 188.943C36.1845 188.942 36.1845 188.941 36.1845 188.94C36.1845 188.94 36.1845 188.939 36.1845 188.938C36.1845 188.937 36.1845 188.936 36.1845 188.936C36.1845 188.935 36.1845 188.934 36.1845 188.933C36.1845 188.932 36.1845 188.931 36.1845 188.931C36.1845 188.93 36.1845 188.929 36.1845 188.928C36.1845 188.927 36.1845 188.927 36.1845 188.926C36.1845 188.925 36.1845 188.924 36.1845 188.923C36.1845 188.923 36.1845 188.922 36.1845 188.921C36.1845 188.92 36.1845 188.919 36.1845 188.919C36.1845 188.918 36.1845 188.917 36.1845 188.916C36.1845 188.915 36.1845 188.915 36.1845 188.914C36.1845 188.913 36.1845 188.912 36.1845 188.911C36.1845 188.911 36.1845 188.91 36.1845 188.909C36.1845 188.908 36.1845 188.907 36.1845 188.907C36.1845 188.906 36.1845 188.905 36.1845 188.904C36.1845 188.903 36.1845 188.903 36.1845 188.902C36.1845 188.901 36.1845 188.9 36.1845 188.899C36.1845 188.899 36.1845 188.898 36.1845 188.897C36.1845 188.896 36.1845 188.895 36.1845 188.895C36.1845 188.894 36.1845 188.893 36.1845 188.892C36.1845 188.891 36.1845 188.89 36.1845 188.89C36.1845 188.889 36.1845 188.888 36.1845 188.887C36.1845 188.886 36.1845 188.886 36.1845 188.885C36.1845 188.884 36.1845 188.883 36.1845 188.882C36.1845 188.882 36.1845 188.881 36.1845 188.88H24.1845ZM34.3845 190.04C34.3845 189.622 34.3953 189.178 34.4177 188.705L22.4313 188.135C22.4005 188.782 22.3845 189.418 22.3845 190.04H34.3845ZM34.4177 188.705C34.4306 188.436 34.4619 188.187 34.508 187.957L22.741 185.603C22.5738 186.439 22.4718 187.284 22.4313 188.135L34.4177 188.705ZM34.508 187.957C34.5407 187.793 34.5818 187.667 34.623 187.568L23.5461 182.952C23.1873 183.813 22.9217 184.7 22.741 185.603L34.508 187.957ZM34.623 187.568C34.548 187.748 34.4178 187.963 34.2265 188.162L25.5826 179.838C24.6979 180.757 24.0211 181.812 23.5461 182.952L34.623 187.568ZM34.2265 188.162C33.9274 188.472 33.6363 188.628 33.4819 188.691L28.9272 177.589C27.7328 178.079 26.575 178.808 25.5826 179.838L34.2265 188.162ZM33.4329 188.711C33.259 188.78 33.1324 188.807 33.076 188.817C33.021 188.826 33.0259 188.82 33.1045 188.82V176.82C31.8101 176.82 30.3845 177.006 28.9762 177.569L33.4329 188.711ZM33.1045 188.82C33.1839 188.82 33.183 188.826 33.1177 188.815C33.0511 188.804 32.9052 188.772 32.7072 188.691L37.2619 177.589C35.8356 177.004 34.3924 176.82 33.1045 176.82V188.82ZM32.7562 188.711C32.6172 188.655 32.3079 188.5 31.9826 188.162L40.6265 179.838C39.6078 178.78 38.4186 178.051 37.2129 177.569L32.7562 188.711ZM31.9826 188.162C31.7912 187.963 31.6611 187.748 31.5861 187.568L42.663 182.952C42.188 181.812 41.5112 180.757 40.6265 179.838L31.9826 188.162ZM31.5861 187.568C31.6273 187.667 31.6683 187.793 31.701 187.957L43.468 185.603C43.2874 184.7 43.0218 183.813 42.663 182.952L31.5861 187.568ZM31.701 187.957C31.7472 188.187 31.7785 188.436 31.7913 188.705L43.7777 188.135C43.7373 187.284 43.6352 186.439 43.468 185.603L31.701 187.957ZM31.7913 188.705C31.8138 189.178 31.8245 189.622 31.8245 190.04H43.8245C43.8245 189.418 43.8086 188.782 43.7777 188.135L31.7913 188.705ZM31.8245 190.04C31.8245 190.458 31.8138 190.902 31.7913 191.375L43.7777 191.945C43.8086 191.298 43.8245 190.662 43.8245 190.04H31.8245ZM31.7913 191.375C31.7785 191.644 31.7472 191.893 31.701 192.123L43.468 194.477C43.6352 193.641 43.7373 192.796 43.7777 191.945L31.7913 191.375ZM31.701 192.123C31.6683 192.287 31.6273 192.413 31.5861 192.512L42.663 197.128C43.0218 196.267 43.2874 195.38 43.468 194.477L31.701 192.123ZM31.6097 192.456C31.6907 192.267 31.8181 192.069 31.9826 191.898L40.6265 200.222C41.4843 199.331 42.1583 198.306 42.6394 197.184L31.6097 192.456ZM31.9826 191.898C32.2816 191.588 32.5728 191.432 32.7272 191.369L37.2819 202.471C38.4763 201.981 39.6341 201.252 40.6265 200.222L31.9826 191.898ZM32.8507 191.32C33.0378 191.248 33.165 191.225 33.2038 191.218C33.2421 191.212 33.2142 191.22 33.1045 191.22V203.22C34.3521 203.22 35.7611 203.058 37.1584 202.52L32.8507 191.32ZM33.1045 191.22C33.0076 191.22 32.9821 191.213 33.0153 191.218C33.0493 191.224 33.1552 191.244 33.3113 191.302L29.0978 202.538C30.4673 203.052 31.8486 203.22 33.1045 203.22V191.22ZM33.4819 191.369C33.6363 191.432 33.9274 191.588 34.2265 191.898L25.5826 200.222C26.575 201.252 27.7328 201.981 28.9272 202.471L33.4819 191.369ZM34.2265 191.898C34.391 192.069 34.5183 192.267 34.5994 192.456L23.5697 197.184C24.0507 198.306 24.7248 199.331 25.5826 200.222L34.2265 191.898ZM34.623 192.512C34.5818 192.413 34.5407 192.287 34.508 192.123L22.741 194.477C22.9217 195.38 23.1873 196.267 23.5461 197.128L34.623 192.512ZM34.508 192.123C34.4619 191.893 34.4306 191.644 34.4177 191.375L22.4313 191.945C22.4718 192.796 22.5738 193.641 22.741 194.477L34.508 192.123ZM34.4177 191.375C34.3953 190.902 34.3845 190.458 34.3845 190.04H22.3845C22.3845 190.662 22.4005 191.298 22.4313 191.945L34.4177 191.375ZM41.6442 200.94L36.5638 197.748L30.7882 206.94H41.6442V200.94ZM43.6642 196.44L49.4599 197.992L49.4633 197.98L43.6642 196.44ZM43.6442 186.96L37.8418 188.487L37.8497 188.517L37.858 188.547L43.6442 186.96ZM41.6442 182.38V176.38H30.9679L36.519 185.5L41.6442 182.38ZM42.9242 182.38L47.9713 179.135L46.1999 176.38H42.9242V182.38ZM44.2242 184.62L38.8963 187.379L38.9065 187.399L38.9168 187.418L44.2242 184.62ZM45.2042 186.88L39.532 188.836L39.5525 188.895L39.5742 188.954L45.2042 186.88ZM45.8442 189.22L39.9426 190.302V190.302L45.8442 189.22ZM45.2642 196.5L39.5721 194.603L39.5673 194.617L39.5626 194.631L45.2642 196.5ZM42.9242 200.94V206.94H45.9068L47.7075 204.562L42.9242 200.94ZM46.7246 204.132C47.9432 202.193 48.8834 200.145 49.4599 197.992L37.8685 194.888C37.6451 195.722 37.2386 196.674 36.5638 197.748L46.7246 204.132ZM49.4633 197.98C50.0024 195.949 50.2642 193.864 50.2642 191.74H38.2642C38.2642 192.87 38.1261 193.918 37.8651 194.9L49.4633 197.98ZM50.2642 191.74C50.2642 189.564 49.9959 187.434 49.4304 185.373L37.858 188.547C38.1192 189.499 38.2642 190.556 38.2642 191.74H50.2642ZM49.4467 185.433C48.8798 183.279 47.9623 181.22 46.7694 179.26L36.519 185.5C37.1928 186.607 37.6086 187.601 37.8418 188.487L49.4467 185.433ZM41.6442 188.38H42.9242V176.38H41.6442V188.38ZM37.8771 185.625C38.2616 186.223 38.6002 186.807 38.8963 187.379L49.5522 181.861C49.0749 180.939 48.5469 180.031 47.9713 179.135L37.8771 185.625ZM38.9168 187.418C39.1624 187.884 39.3666 188.356 39.532 188.836L50.8765 184.924C50.5085 183.857 50.0593 182.822 49.5316 181.822L38.9168 187.418ZM39.5742 188.954C39.7349 189.391 39.8576 189.838 39.9426 190.302L51.7459 188.138C51.5375 187.002 51.2335 185.889 50.8343 184.806L39.5742 188.954ZM39.9426 190.302C40.0187 190.717 40.0642 191.194 40.0642 191.74H52.0642C52.0642 190.526 51.963 189.323 51.7459 188.138L39.9426 190.302ZM40.0642 191.74C40.0642 192.624 39.9162 193.57 39.5721 194.603L50.9563 198.397C51.6789 196.23 52.0642 194.003 52.0642 191.74H40.0642ZM39.5626 194.631C39.2561 195.567 38.7928 196.457 38.141 197.318L47.7075 204.562C49.1357 202.676 50.2324 200.607 50.9658 198.369L39.5626 194.631ZM42.9242 194.94H41.6442V206.94H42.9242V194.94Z" fill="#C4C4C4" mask="url(#path-1-outside-1_245_156)"/>
<path fill-rule="evenodd" clip-rule="evenodd" d="M164 106.838L109.934 111.574L164 106.838L109.934 111.574L111.263 131.882L86.5135 174.581L74.4791 133.481L48 106.838L95.5515 98.8449L86.2215 38L115.351 66.4657L136.167 78.8838L164 106.838Z" fill="white"/>
<path d="M164 106.838L109.934 111.574L111.263 131.882L86.5135 174.581L74.4791 133.481L48 106.838L95.5515 98.8449L86.2215 38L115.351 66.4657L136.167 78.8838L164 106.838Z" stroke="black"/>
</svg>
