<svg width="212" height="212" viewBox="0 0 212 212" fill="none" xmlns="http://www.w3.org/2000/svg">
<mask id="path-1-outside-1_245_157" maskUnits="userSpaceOnUse" x="5" y="176" width="49" height="31" fill="black">
<rect fill="white" x="5" y="176" width="49" height="31"/>
<path d="M14.3691 200.94C13.8891 200.193 13.4557 199.447 13.0691 198.7C12.6824 197.967 12.3491 197.22 12.0691 196.46C11.8024 195.7 11.5957 194.92 11.4491 194.12C11.3024 193.32 11.2291 192.48 11.2291 191.6C11.2291 190.027 11.4891 188.44 12.0091 186.84C12.5424 185.24 13.3291 183.753 14.3691 182.38H15.6691C14.7091 183.9 14.0291 185.407 13.6291 186.9C13.2291 188.393 13.0291 189.96 13.0291 191.6C13.0291 193.28 13.2291 194.873 13.6291 196.38C14.0424 197.887 14.7224 199.407 15.6691 200.94H14.3691ZM25.4113 192.18V185.24H25.3713L20.6513 192.18H25.4113ZM27.0113 192.18H28.9313V193.68H27.0113V197H25.4113V193.68H19.1913V192.04L25.6513 182.82H27.0113V192.18ZM29.4245 187.84C29.3845 187.12 29.4579 186.453 29.6445 185.84C29.8312 185.227 30.1179 184.7 30.5045 184.26C30.9045 183.807 31.3979 183.453 31.9845 183.2C32.5712 182.947 33.2379 182.82 33.9845 182.82C34.5979 182.82 35.1712 182.913 35.7045 183.1C36.2512 183.273 36.7245 183.533 37.1245 183.88C37.5245 184.213 37.8379 184.633 38.0645 185.14C38.3045 185.647 38.4245 186.233 38.4245 186.9C38.4245 187.527 38.3245 188.08 38.1245 188.56C37.9379 189.04 37.6845 189.473 37.3645 189.86C37.0445 190.233 36.6779 190.573 36.2645 190.88C35.8512 191.187 35.4245 191.48 34.9845 191.76C34.5445 192.027 34.1045 192.293 33.6645 192.56C33.2245 192.813 32.8179 193.087 32.4445 193.38C32.0845 193.673 31.7712 193.993 31.5045 194.34C31.2512 194.673 31.0845 195.06 31.0045 195.5H38.2845V197H29.0245C29.0912 196.16 29.2379 195.447 29.4645 194.86C29.7045 194.26 30.0045 193.74 30.3645 193.3C30.7245 192.86 31.1312 192.473 31.5845 192.14C32.0379 191.807 32.5112 191.493 33.0045 191.2C33.6045 190.827 34.1312 190.487 34.5845 190.18C35.0379 189.86 35.4112 189.54 35.7045 189.22C36.0112 188.9 36.2379 188.553 36.3845 188.18C36.5445 187.807 36.6245 187.373 36.6245 186.88C36.6245 186.493 36.5512 186.147 36.4045 185.84C36.2579 185.52 36.0579 185.247 35.8045 185.02C35.5645 184.793 35.2779 184.62 34.9445 184.5C34.6112 184.38 34.2579 184.32 33.8845 184.32C33.3912 184.32 32.9645 184.427 32.6045 184.64C32.2579 184.84 31.9712 185.107 31.7445 185.44C31.5179 185.773 31.3512 186.153 31.2445 186.58C31.1512 186.993 31.1112 187.413 31.1245 187.84H29.4245ZM42.6442 200.94C43.5909 199.433 44.2642 197.933 44.6642 196.44C45.0642 194.933 45.2642 193.367 45.2642 191.74C45.2642 190.06 45.0576 188.467 44.6442 186.96C44.2442 185.44 43.5776 183.913 42.6442 182.38H43.9242C44.4042 183.127 44.8376 183.873 45.2242 184.62C45.6109 185.353 45.9376 186.107 46.2042 186.88C46.4842 187.64 46.6976 188.42 46.8442 189.22C46.9909 190.02 47.0642 190.86 47.0642 191.74C47.0642 193.313 46.7976 194.9 46.2642 196.5C45.7442 198.087 44.9642 199.567 43.9242 200.94H42.6442Z"/>
</mask>
<path d="M14.3691 200.94C13.8891 200.193 13.4557 199.447 13.0691 198.7C12.6824 197.967 12.3491 197.22 12.0691 196.46C11.8024 195.7 11.5957 194.92 11.4491 194.12C11.3024 193.32 11.2291 192.48 11.2291 191.6C11.2291 190.027 11.4891 188.44 12.0091 186.84C12.5424 185.24 13.3291 183.753 14.3691 182.38H15.6691C14.7091 183.9 14.0291 185.407 13.6291 186.9C13.2291 188.393 13.0291 189.96 13.0291 191.6C13.0291 193.28 13.2291 194.873 13.6291 196.38C14.0424 197.887 14.7224 199.407 15.6691 200.94H14.3691ZM25.4113 192.18V185.24H25.3713L20.6513 192.18H25.4113ZM27.0113 192.18H28.9313V193.68H27.0113V197H25.4113V193.68H19.1913V192.04L25.6513 182.82H27.0113V192.18ZM29.4245 187.84C29.3845 187.12 29.4579 186.453 29.6445 185.84C29.8312 185.227 30.1179 184.7 30.5045 184.26C30.9045 183.807 31.3979 183.453 31.9845 183.2C32.5712 182.947 33.2379 182.82 33.9845 182.82C34.5979 182.82 35.1712 182.913 35.7045 183.1C36.2512 183.273 36.7245 183.533 37.1245 183.88C37.5245 184.213 37.8379 184.633 38.0645 185.14C38.3045 185.647 38.4245 186.233 38.4245 186.9C38.4245 187.527 38.3245 188.08 38.1245 188.56C37.9379 189.04 37.6845 189.473 37.3645 189.86C37.0445 190.233 36.6779 190.573 36.2645 190.88C35.8512 191.187 35.4245 191.48 34.9845 191.76C34.5445 192.027 34.1045 192.293 33.6645 192.56C33.2245 192.813 32.8179 193.087 32.4445 193.38C32.0845 193.673 31.7712 193.993 31.5045 194.34C31.2512 194.673 31.0845 195.06 31.0045 195.5H38.2845V197H29.0245C29.0912 196.16 29.2379 195.447 29.4645 194.86C29.7045 194.26 30.0045 193.74 30.3645 193.3C30.7245 192.86 31.1312 192.473 31.5845 192.14C32.0379 191.807 32.5112 191.493 33.0045 191.2C33.6045 190.827 34.1312 190.487 34.5845 190.18C35.0379 189.86 35.4112 189.54 35.7045 189.22C36.0112 188.9 36.2379 188.553 36.3845 188.18C36.5445 187.807 36.6245 187.373 36.6245 186.88C36.6245 186.493 36.5512 186.147 36.4045 185.84C36.2579 185.52 36.0579 185.247 35.8045 185.02C35.5645 184.793 35.2779 184.62 34.9445 184.5C34.6112 184.38 34.2579 184.32 33.8845 184.32C33.3912 184.32 32.9645 184.427 32.6045 184.64C32.2579 184.84 31.9712 185.107 31.7445 185.44C31.5179 185.773 31.3512 186.153 31.2445 186.58C31.1512 186.993 31.1112 187.413 31.1245 187.84H29.4245ZM42.6442 200.94C43.5909 199.433 44.2642 197.933 44.6642 196.44C45.0642 194.933 45.2642 193.367 45.2642 191.74C45.2642 190.06 45.0576 188.467 44.6442 186.96C44.2442 185.44 43.5776 183.913 42.6442 182.38H43.9242C44.4042 183.127 44.8376 183.873 45.2242 184.62C45.6109 185.353 45.9376 186.107 46.2042 186.88C46.4842 187.64 46.6976 188.42 46.8442 189.22C46.9909 190.02 47.0642 190.86 47.0642 191.74C47.0642 193.313 46.7976 194.9 46.2642 196.5C45.7442 198.087 44.9642 199.567 43.9242 200.94H42.6442Z" fill="black"/>
<path d="M14.3691 200.94L9.32199 204.185L11.0934 206.94H14.3691V200.94ZM13.0691 198.7L18.397 195.941L18.3868 195.921L18.3765 195.902L13.0691 198.7ZM12.0691 196.46L6.40746 198.447L6.42289 198.491L6.439 198.534L12.0691 196.46ZM11.4491 194.12L5.54742 195.202L11.4491 194.12ZM12.0091 186.84L6.31696 184.943L6.30983 184.964L6.30286 184.985L12.0091 186.84ZM14.3691 182.38V176.38H11.3865L9.58583 178.758L14.3691 182.38ZM15.6691 182.38L20.742 185.584L26.555 176.38H15.6691V182.38ZM13.6291 186.9L19.4248 188.452L13.6291 186.9ZM13.6291 196.38L7.82995 197.92L7.8363 197.944L7.84285 197.967L13.6291 196.38ZM15.6691 200.94V206.94H26.4248L20.7744 197.788L15.6691 200.94ZM19.4161 197.695C19.0317 197.097 18.6931 196.513 18.397 195.941L7.7411 201.459C8.21838 202.381 8.7464 203.289 9.32199 204.185L19.4161 197.695ZM18.3765 195.902C18.1103 195.397 17.8855 194.892 17.6991 194.386L6.439 198.534C6.81259 199.548 7.25448 200.537 7.76165 201.498L18.3765 195.902ZM17.7307 194.473C17.5685 194.011 17.4416 193.534 17.3507 193.038L5.54742 195.202C5.74988 196.306 6.03634 197.389 6.40746 198.447L17.7307 194.473ZM17.3507 193.038C17.2746 192.623 17.2291 192.146 17.2291 191.6H5.22906C5.22906 192.814 5.33024 194.017 5.54742 195.202L17.3507 193.038ZM17.2291 191.6C17.2291 190.699 17.3764 189.737 17.7153 188.695L6.30286 184.985C5.60171 187.143 5.22906 189.355 5.22906 191.6H17.2291ZM17.7012 188.737C18.0232 187.771 18.4987 186.865 19.1523 186.002L9.58583 178.758C8.15945 180.641 7.06164 182.709 6.31696 184.943L17.7012 188.737ZM14.3691 188.38H15.6691V176.38H14.3691V188.38ZM10.5961 179.176C9.36471 181.126 8.4128 183.184 7.83337 185.348L19.4248 188.452C19.6453 187.629 20.0534 186.674 20.742 185.584L10.5961 179.176ZM7.83337 185.348C7.28976 187.377 7.02906 189.468 7.02906 191.6H19.0291C19.0291 190.452 19.1684 189.41 19.4248 188.452L7.83337 185.348ZM7.02906 191.6C7.02906 193.76 7.28668 195.873 7.82995 197.92L19.4282 194.84C19.1714 193.873 19.0291 192.8 19.0291 191.6H7.02906ZM7.84285 197.967C8.42853 200.102 9.3617 202.145 10.5637 204.092L20.7744 197.788C20.0831 196.668 19.6563 195.671 19.4153 194.793L7.84285 197.967ZM15.6691 194.94H14.3691V206.94H15.6691V194.94ZM25.4113 192.18V198.18H31.4113V192.18H25.4113ZM25.4113 185.24H31.4113V179.24H25.4113V185.24ZM25.3713 185.24V179.24H22.1958L20.41 181.866L25.3713 185.24ZM20.6513 192.18L15.69 188.806L9.31439 198.18H20.6513V192.18ZM27.0113 192.18H21.0113V198.18H27.0113V192.18ZM28.9313 192.18H34.9313V186.18H28.9313V192.18ZM28.9313 193.68V199.68H34.9313V193.68H28.9313ZM27.0113 193.68V187.68H21.0113V193.68H27.0113ZM27.0113 197V203H33.0113V197H27.0113ZM25.4113 197H19.4113V203H25.4113V197ZM25.4113 193.68H31.4113V187.68H25.4113V193.68ZM19.1913 193.68H13.1913V199.68H19.1913V193.68ZM19.1913 192.04L14.2774 188.597L13.1913 190.147V192.04H19.1913ZM25.6513 182.82V176.82H22.529L20.7374 179.377L25.6513 182.82ZM27.0113 182.82H33.0113V176.82H27.0113V182.82ZM31.4113 192.18V185.24H19.4113V192.18H31.4113ZM25.4113 179.24H25.3713V191.24H25.4113V179.24ZM20.41 181.866L15.69 188.806L25.6125 195.554L30.3325 188.614L20.41 181.866ZM20.6513 198.18H25.4113V186.18H20.6513V198.18ZM27.0113 198.18H28.9313V186.18H27.0113V198.18ZM22.9313 192.18V193.68H34.9313V192.18H22.9313ZM28.9313 187.68H27.0113V199.68H28.9313V187.68ZM21.0113 193.68V197H33.0113V193.68H21.0113ZM27.0113 191H25.4113V203H27.0113V191ZM31.4113 197V193.68H19.4113V197H31.4113ZM25.4113 187.68H19.1913V199.68H25.4113V187.68ZM25.1913 193.68V192.04H13.1913V193.68H25.1913ZM24.1051 195.483L30.5651 186.263L20.7374 179.377L14.2774 188.597L24.1051 195.483ZM25.6513 188.82H27.0113V176.82H25.6513V188.82ZM21.0113 182.82V192.18H33.0113V182.82H21.0113ZM29.4245 187.84L23.4338 188.173L23.7486 193.84H29.4245V187.84ZM30.5045 184.26L26.0055 180.29L25.9975 180.299L30.5045 184.26ZM31.9845 183.2L29.6059 177.692L29.6059 177.692L31.9845 183.2ZM35.7045 183.1L33.7224 188.763L33.8063 188.793L33.8911 188.819L35.7045 183.1ZM37.1245 183.88L33.1949 188.414L33.2388 188.452L33.2834 188.489L37.1245 183.88ZM38.0645 185.14L32.5876 187.59L32.6142 187.65L32.6421 187.709L38.0645 185.14ZM38.1245 188.56L32.5861 186.252L32.5585 186.318L32.5325 186.385L38.1245 188.56ZM37.3645 189.86L41.9201 193.765L41.9538 193.725L41.9869 193.685L37.3645 189.86ZM36.2645 190.88L32.6895 186.061L32.6894 186.061L36.2645 190.88ZM34.9845 191.76L38.0943 196.891L38.1504 196.857L38.2058 196.822L34.9845 191.76ZM33.6645 192.56L36.6583 197.76L36.7167 197.726L36.7743 197.691L33.6645 192.56ZM32.4445 193.38L28.7376 188.662L28.6958 188.695L28.6545 188.729L32.4445 193.38ZM31.5045 194.34L26.7488 190.682L26.7381 190.696L26.7276 190.71L31.5045 194.34ZM31.0045 195.5L25.1013 194.427L23.8153 201.5H31.0045V195.5ZM38.2845 195.5H44.2845V189.5H38.2845V195.5ZM38.2845 197V203H44.2845V197H38.2845ZM29.0245 197L23.0433 196.525L22.5295 203H29.0245V197ZM29.4645 194.86L23.8937 192.632L23.8805 192.665L23.8677 192.698L29.4645 194.86ZM30.3645 193.3L35.0083 197.099V197.099L30.3645 193.3ZM31.5845 192.14L28.0302 187.306L28.0302 187.306L31.5845 192.14ZM33.0045 191.2L36.071 196.357L36.123 196.326L36.1743 196.294L33.0045 191.2ZM34.5845 190.18L37.9464 195.15L37.9958 195.116L38.0446 195.082L34.5845 190.18ZM35.7045 189.22L31.3726 185.069L31.3266 185.117L31.2816 185.166L35.7045 189.22ZM36.3845 188.18L30.8697 185.816L30.8335 185.901L30.8 185.986L36.3845 188.18ZM36.4045 185.84L30.9501 188.34L30.9706 188.384L30.9917 188.429L36.4045 185.84ZM35.8045 185.02L31.6848 189.382L31.7435 189.438L31.8038 189.491L35.8045 185.02ZM34.9445 184.5L32.9122 190.145L32.9122 190.145L34.9445 184.5ZM32.6045 184.64L35.6029 189.837L35.6332 189.82L35.6633 189.802L32.6045 184.64ZM31.7445 185.44L36.7061 188.814L36.7061 188.814L31.7445 185.44ZM31.2445 186.58L25.4237 185.125L25.407 185.191L25.3919 185.258L31.2445 186.58ZM31.1245 187.84V193.84H37.315L37.1216 187.653L31.1245 187.84ZM35.4153 187.507C35.4123 187.453 35.4156 187.438 35.4136 187.456C35.4114 187.476 35.4044 187.522 35.3846 187.587L23.9045 184.093C23.489 185.458 23.3596 186.837 23.4338 188.173L35.4153 187.507ZM35.3846 187.587C35.3463 187.713 35.2402 187.96 35.0115 188.221L25.9975 180.299C24.9955 181.44 24.3161 182.74 23.9045 184.093L35.3846 187.587ZM35.0036 188.23C34.7856 188.477 34.5407 188.632 34.3632 188.708L29.6059 177.692C28.255 178.275 27.0235 179.137 26.0055 180.29L35.0036 188.23ZM34.3631 188.708C34.083 188.829 33.9197 188.82 33.9845 188.82V176.82C32.556 176.82 31.0594 177.064 29.6059 177.692L34.3631 188.708ZM33.9845 188.82C33.9861 188.82 33.9597 188.82 33.9105 188.812C33.8606 188.804 33.796 188.789 33.7224 188.763L37.6866 177.437C36.464 177.009 35.2152 176.82 33.9845 176.82V188.82ZM33.8911 188.819C33.7247 188.767 33.4623 188.646 33.1949 188.414L41.0541 179.346C39.9868 178.421 38.7777 177.78 37.518 177.381L33.8911 188.819ZM33.2834 188.489C32.9347 188.199 32.7093 187.862 32.5876 187.59L43.5414 182.69C42.9664 181.405 42.1143 180.228 40.9656 179.271L33.2834 188.489ZM32.6421 187.709C32.4366 187.275 32.4245 186.956 32.4245 186.9H44.4245C44.4245 185.511 44.1725 184.019 43.487 182.571L32.6421 187.709ZM32.4245 186.9C32.4245 186.893 32.4257 186.637 32.5861 186.252L43.663 190.868C44.2233 189.523 44.4245 188.16 44.4245 186.9H32.4245ZM32.5325 186.385C32.5725 186.283 32.642 186.156 32.7422 186.035L41.9869 193.685C42.7271 192.791 43.3033 191.797 43.7166 190.735L32.5325 186.385ZM32.809 185.955C32.7939 185.973 32.7596 186.009 32.6895 186.061L39.8396 195.699C40.5961 195.137 41.2951 194.494 41.9201 193.765L32.809 185.955ZM32.6894 186.061C32.3926 186.282 32.0841 186.494 31.7633 186.698L38.2058 196.822C38.765 196.466 39.3098 196.092 39.8396 195.699L32.6894 186.061ZM31.8747 186.629C31.4347 186.895 30.9947 187.162 30.5547 187.429L36.7743 197.691C37.2143 197.425 37.6543 197.158 38.0943 196.891L31.8747 186.629ZM30.6707 187.36C29.9988 187.747 29.3518 188.18 28.7376 188.662L36.1515 198.098C36.284 197.994 36.4502 197.88 36.6583 197.76L30.6707 187.36ZM28.6545 188.729C27.9574 189.297 27.3148 189.946 26.7488 190.682L36.2603 197.998C36.2448 198.018 36.2327 198.031 36.2266 198.038C36.2206 198.044 36.2222 198.041 36.2346 198.031L28.6545 188.729ZM26.7276 190.71C25.8642 191.846 25.3384 193.122 25.1013 194.427L36.9078 196.573C36.8306 196.998 36.6382 197.501 36.2815 197.97L26.7276 190.71ZM31.0045 201.5H38.2845V189.5H31.0045V201.5ZM32.2845 195.5V197H44.2845V195.5H32.2845ZM38.2845 191H29.0245V203H38.2845V191ZM35.0057 197.475C35.0225 197.264 35.0451 197.124 35.0616 197.043C35.0783 196.962 35.0846 196.962 35.0613 197.022L23.8677 192.698C23.3749 193.973 23.1414 195.29 23.0433 196.525L35.0057 197.475ZM35.0354 197.088C35.0573 197.034 35.0698 197.013 35.0666 197.018C35.0632 197.024 35.0452 197.054 35.0083 197.099L25.7208 189.501C24.9247 190.474 24.3303 191.54 23.8937 192.632L35.0354 197.088ZM35.0083 197.099C35.0532 197.044 35.0948 197.006 35.1389 196.974L28.0302 187.306C27.1676 187.94 26.3958 188.676 25.7208 189.501L35.0083 197.099ZM35.1389 196.974C35.4318 196.758 35.7421 196.553 36.071 196.357L29.9381 186.043C29.2803 186.434 28.6439 186.855 28.0302 187.306L35.1389 196.974ZM36.1743 196.294C36.8216 195.892 37.4148 195.509 37.9464 195.15L31.2227 185.21C30.8476 185.464 30.3874 185.762 29.8347 186.106L36.1743 196.294ZM38.0446 195.082C38.7567 194.579 39.4774 193.984 40.1275 193.274L31.2816 185.166C31.3171 185.127 31.3273 185.121 31.2998 185.144C31.2726 185.168 31.2167 185.213 31.1244 185.278L38.0446 195.082ZM40.0365 193.371C40.8273 192.546 41.5078 191.548 41.969 190.374L30.8 185.986C30.9679 185.559 31.1951 185.254 31.3726 185.069L40.0365 193.371ZM41.8994 190.544C42.4404 189.281 42.6245 188.016 42.6245 186.88H30.6245C30.6245 186.731 30.6487 186.332 30.8697 185.816L41.8994 190.544ZM42.6245 186.88C42.6245 185.721 42.4005 184.471 41.8173 183.251L30.9917 188.429C30.7019 187.823 30.6245 187.266 30.6245 186.88H42.6245ZM41.8589 183.34C41.3809 182.297 40.6956 181.345 39.8053 180.549L31.8038 189.491C31.4202 189.148 31.1348 188.743 30.9501 188.34L41.8589 183.34ZM39.9243 180.658C39.0412 179.824 38.0292 179.234 36.9768 178.855L32.9122 190.145C32.5265 190.006 32.0879 189.763 31.6848 189.382L39.9243 180.658ZM36.9768 178.855C35.9572 178.488 34.9131 178.32 33.8845 178.32V190.32C33.6026 190.32 33.2652 190.272 32.9122 190.145L36.9768 178.855ZM33.8845 178.32C32.5091 178.32 30.9856 178.625 29.5457 179.478L35.6633 189.802C34.9434 190.228 34.2733 190.32 33.8845 190.32V178.32ZM29.6062 179.443C28.4702 180.098 27.5145 180.99 26.783 182.066L36.7061 188.814C36.4279 189.223 36.0455 189.582 35.6029 189.837L29.6062 179.443ZM26.783 182.066C26.1246 183.034 25.686 184.075 25.4237 185.125L37.0654 188.035C37.0164 188.231 36.9112 188.512 36.7061 188.814L26.783 182.066ZM25.3919 185.258C25.186 186.17 25.0984 187.097 25.1275 188.027L37.1216 187.653C37.124 187.729 37.1164 187.816 37.0972 187.902L25.3919 185.258ZM31.1245 181.84H29.4245V193.84H31.1245V181.84ZM42.6442 200.94L37.5638 197.748L31.7882 206.94H42.6442V200.94ZM44.6642 196.44L50.4599 197.992L50.4633 197.98L44.6642 196.44ZM44.6442 186.96L38.8418 188.487L38.8497 188.517L38.858 188.547L44.6442 186.96ZM42.6442 182.38V176.38H31.9679L37.519 185.5L42.6442 182.38ZM43.9242 182.38L48.9713 179.135L47.1999 176.38H43.9242V182.38ZM45.2242 184.62L39.8963 187.379L39.9065 187.399L39.9168 187.418L45.2242 184.62ZM46.2042 186.88L40.532 188.836L40.5525 188.895L40.5742 188.954L46.2042 186.88ZM46.8442 189.22L40.9426 190.302V190.302L46.8442 189.22ZM46.2642 196.5L40.5721 194.603L40.5673 194.617L40.5626 194.631L46.2642 196.5ZM43.9242 200.94V206.94H46.9068L48.7075 204.562L43.9242 200.94ZM47.7246 204.132C48.9432 202.193 49.8834 200.145 50.4599 197.992L38.8685 194.888C38.6451 195.722 38.2386 196.674 37.5638 197.748L47.7246 204.132ZM50.4633 197.98C51.0024 195.949 51.2642 193.864 51.2642 191.74H39.2642C39.2642 192.87 39.1261 193.918 38.8651 194.9L50.4633 197.98ZM51.2642 191.74C51.2642 189.564 50.9959 187.434 50.4304 185.373L38.858 188.547C39.1192 189.499 39.2642 190.556 39.2642 191.74H51.2642ZM50.4467 185.433C49.8798 183.279 48.9623 181.22 47.7694 179.26L37.519 185.5C38.1928 186.607 38.6086 187.601 38.8418 188.487L50.4467 185.433ZM42.6442 188.38H43.9242V176.38H42.6442V188.38ZM38.8771 185.625C39.2616 186.223 39.6002 186.807 39.8963 187.379L50.5522 181.861C50.0749 180.939 49.5469 180.031 48.9713 179.135L38.8771 185.625ZM39.9168 187.418C40.1624 187.884 40.3666 188.356 40.532 188.836L51.8765 184.924C51.5085 183.857 51.0593 182.822 50.5316 181.822L39.9168 187.418ZM40.5742 188.954C40.7349 189.391 40.8576 189.838 40.9426 190.302L52.7459 188.138C52.5375 187.002 52.2335 185.889 51.8343 184.806L40.5742 188.954ZM40.9426 190.302C41.0187 190.717 41.0642 191.194 41.0642 191.74H53.0642C53.0642 190.526 52.963 189.323 52.7459 188.138L40.9426 190.302ZM41.0642 191.74C41.0642 192.624 40.9162 193.57 40.5721 194.603L51.9563 198.397C52.6789 196.23 53.0642 194.003 53.0642 191.74H41.0642ZM40.5626 194.631C40.2561 195.567 39.7928 196.457 39.141 197.318L48.7075 204.562C50.1357 202.676 51.2324 200.607 51.9658 198.369L40.5626 194.631ZM43.9242 194.94H42.6442V206.94H43.9242V194.94Z" fill="#C4C4C4" mask="url(#path-1-outside-1_245_157)"/>
<path fill-rule="evenodd" clip-rule="evenodd" d="M122.332 48L139.828 53.9107L122.332 48L139.828 53.9107L163.043 59.1206L153.595 83.3048L146.616 96.2461L168.838 139.316L141.385 164L115.134 116.14L112.993 97.5709L86.4016 100.641L44 77.6179L71.3705 52.0803L106.875 57.7765L122.332 48Z" fill="white"/>
<path d="M122.332 48L139.828 53.9107L163.043 59.1206L153.595 83.3048L146.616 96.2461L168.838 139.316L141.385 164L115.134 116.14L112.993 97.5709L86.4016 100.641L44 77.6179L71.3705 52.0803L106.875 57.7765L122.332 48Z" stroke="black"/>
</svg>
