<svg width="213" height="212" viewBox="0 0 213 212" fill="none" xmlns="http://www.w3.org/2000/svg">
<mask id="path-1-outside-1_245_158" maskUnits="userSpaceOnUse" x="4" y="177" width="49" height="31" fill="black">
<rect fill="white" x="4" y="177" width="49" height="31"/>
<path d="M13.3691 201.94C12.8891 201.193 12.4557 200.447 12.0691 199.7C11.6824 198.967 11.3491 198.22 11.0691 197.46C10.8024 196.7 10.5957 195.92 10.4491 195.12C10.3024 194.32 10.2291 193.48 10.2291 192.6C10.2291 191.027 10.4891 189.44 11.0091 187.84C11.5424 186.24 12.3291 184.753 13.3691 183.38H14.6691C13.7091 184.9 13.0291 186.407 12.6291 187.9C12.2291 189.393 12.0291 190.96 12.0291 192.6C12.0291 194.28 12.2291 195.873 12.6291 197.38C13.0424 198.887 13.7224 200.407 14.6691 201.94H13.3691ZM18.5113 188.84C18.4713 188.12 18.5446 187.453 18.7313 186.84C18.9179 186.227 19.2046 185.7 19.5913 185.26C19.9913 184.807 20.4846 184.453 21.0713 184.2C21.6579 183.947 22.3246 183.82 23.0713 183.82C23.6846 183.82 24.2579 183.913 24.7913 184.1C25.3379 184.273 25.8113 184.533 26.2113 184.88C26.6113 185.213 26.9246 185.633 27.1513 186.14C27.3913 186.647 27.5113 187.233 27.5113 187.9C27.5113 188.527 27.4113 189.08 27.2113 189.56C27.0246 190.04 26.7713 190.473 26.4513 190.86C26.1313 191.233 25.7646 191.573 25.3513 191.88C24.9379 192.187 24.5113 192.48 24.0713 192.76C23.6313 193.027 23.1913 193.293 22.7513 193.56C22.3113 193.813 21.9046 194.087 21.5313 194.38C21.1713 194.673 20.8579 194.993 20.5913 195.34C20.3379 195.673 20.1713 196.06 20.0913 196.5H27.3713V198H18.1113C18.1779 197.16 18.3246 196.447 18.5513 195.86C18.7913 195.26 19.0913 194.74 19.4513 194.3C19.8113 193.86 20.2179 193.473 20.6713 193.14C21.1246 192.807 21.5979 192.493 22.0913 192.2C22.6913 191.827 23.2179 191.487 23.6713 191.18C24.1246 190.86 24.4979 190.54 24.7913 190.22C25.0979 189.9 25.3246 189.553 25.4713 189.18C25.6313 188.807 25.7113 188.373 25.7113 187.88C25.7113 187.493 25.6379 187.147 25.4913 186.84C25.3446 186.52 25.1446 186.247 24.8913 186.02C24.6513 185.793 24.3646 185.62 24.0313 185.5C23.6979 185.38 23.3446 185.32 22.9713 185.32C22.4779 185.32 22.0513 185.427 21.6913 185.64C21.3446 185.84 21.0579 186.107 20.8313 186.44C20.6046 186.773 20.4379 187.153 20.3313 187.58C20.2379 187.993 20.1979 188.413 20.2113 188.84H18.5113ZM34.6645 198H32.9645V187.84H29.2845V186.48C29.7645 186.48 30.2312 186.447 30.6845 186.38C31.1379 186.3 31.5445 186.16 31.9045 185.96C32.2779 185.76 32.5912 185.487 32.8445 185.14C33.0979 184.793 33.2712 184.353 33.3645 183.82H34.6645V198ZM41.6442 201.94C42.5909 200.433 43.2642 198.933 43.6642 197.44C44.0642 195.933 44.2642 194.367 44.2642 192.74C44.2642 191.06 44.0576 189.467 43.6442 187.96C43.2442 186.44 42.5776 184.913 41.6442 183.38H42.9242C43.4042 184.127 43.8376 184.873 44.2242 185.62C44.6109 186.353 44.9376 187.107 45.2042 187.88C45.4842 188.64 45.6976 189.42 45.8442 190.22C45.9909 191.02 46.0642 191.86 46.0642 192.74C46.0642 194.313 45.7976 195.9 45.2642 197.5C44.7442 199.087 43.9642 200.567 42.9242 201.94H41.6442Z"/>
</mask>
<path d="M13.3691 201.94C12.8891 201.193 12.4557 200.447 12.0691 199.7C11.6824 198.967 11.3491 198.22 11.0691 197.46C10.8024 196.7 10.5957 195.92 10.4491 195.12C10.3024 194.32 10.2291 193.48 10.2291 192.6C10.2291 191.027 10.4891 189.44 11.0091 187.84C11.5424 186.24 12.3291 184.753 13.3691 183.38H14.6691C13.7091 184.9 13.0291 186.407 12.6291 187.9C12.2291 189.393 12.0291 190.96 12.0291 192.6C12.0291 194.28 12.2291 195.873 12.6291 197.38C13.0424 198.887 13.7224 200.407 14.6691 201.94H13.3691ZM18.5113 188.84C18.4713 188.12 18.5446 187.453 18.7313 186.84C18.9179 186.227 19.2046 185.7 19.5913 185.26C19.9913 184.807 20.4846 184.453 21.0713 184.2C21.6579 183.947 22.3246 183.82 23.0713 183.82C23.6846 183.82 24.2579 183.913 24.7913 184.1C25.3379 184.273 25.8113 184.533 26.2113 184.88C26.6113 185.213 26.9246 185.633 27.1513 186.14C27.3913 186.647 27.5113 187.233 27.5113 187.9C27.5113 188.527 27.4113 189.08 27.2113 189.56C27.0246 190.04 26.7713 190.473 26.4513 190.86C26.1313 191.233 25.7646 191.573 25.3513 191.88C24.9379 192.187 24.5113 192.48 24.0713 192.76C23.6313 193.027 23.1913 193.293 22.7513 193.56C22.3113 193.813 21.9046 194.087 21.5313 194.38C21.1713 194.673 20.8579 194.993 20.5913 195.34C20.3379 195.673 20.1713 196.06 20.0913 196.5H27.3713V198H18.1113C18.1779 197.16 18.3246 196.447 18.5513 195.86C18.7913 195.26 19.0913 194.74 19.4513 194.3C19.8113 193.86 20.2179 193.473 20.6713 193.14C21.1246 192.807 21.5979 192.493 22.0913 192.2C22.6913 191.827 23.2179 191.487 23.6713 191.18C24.1246 190.86 24.4979 190.54 24.7913 190.22C25.0979 189.9 25.3246 189.553 25.4713 189.18C25.6313 188.807 25.7113 188.373 25.7113 187.88C25.7113 187.493 25.6379 187.147 25.4913 186.84C25.3446 186.52 25.1446 186.247 24.8913 186.02C24.6513 185.793 24.3646 185.62 24.0313 185.5C23.6979 185.38 23.3446 185.32 22.9713 185.32C22.4779 185.32 22.0513 185.427 21.6913 185.64C21.3446 185.84 21.0579 186.107 20.8313 186.44C20.6046 186.773 20.4379 187.153 20.3313 187.58C20.2379 187.993 20.1979 188.413 20.2113 188.84H18.5113ZM34.6645 198H32.9645V187.84H29.2845V186.48C29.7645 186.48 30.2312 186.447 30.6845 186.38C31.1379 186.3 31.5445 186.16 31.9045 185.96C32.2779 185.76 32.5912 185.487 32.8445 185.14C33.0979 184.793 33.2712 184.353 33.3645 183.82H34.6645V198ZM41.6442 201.94C42.5909 200.433 43.2642 198.933 43.6642 197.44C44.0642 195.933 44.2642 194.367 44.2642 192.74C44.2642 191.06 44.0576 189.467 43.6442 187.96C43.2442 186.44 42.5776 184.913 41.6442 183.38H42.9242C43.4042 184.127 43.8376 184.873 44.2242 185.62C44.6109 186.353 44.9376 187.107 45.2042 187.88C45.4842 188.64 45.6976 189.42 45.8442 190.22C45.9909 191.02 46.0642 191.86 46.0642 192.74C46.0642 194.313 45.7976 195.9 45.2642 197.5C44.7442 199.087 43.9642 200.567 42.9242 201.94H41.6442Z" fill="black"/>
<path d="M13.3691 201.94L8.32199 205.185L10.0934 207.94H13.3691V201.94ZM12.0691 199.7L17.397 196.941L17.3868 196.921L17.3765 196.902L12.0691 199.7ZM11.0691 197.46L5.40746 199.447L5.42289 199.491L5.439 199.534L11.0691 197.46ZM10.4491 195.12L4.54742 196.202L10.4491 195.12ZM11.0091 187.84L5.31696 185.943L5.30983 185.964L5.30286 185.985L11.0091 187.84ZM13.3691 183.38V177.38H10.3865L8.58583 179.758L13.3691 183.38ZM14.6691 183.38L19.742 186.584L25.555 177.38H14.6691V183.38ZM12.6291 187.9L18.4248 189.452L12.6291 187.9ZM12.6291 197.38L6.82995 198.92L6.8363 198.944L6.84285 198.967L12.6291 197.38ZM14.6691 201.94V207.94H25.4248L19.7744 198.788L14.6691 201.94ZM18.4161 198.695C18.0317 198.097 17.6931 197.513 17.397 196.941L6.7411 202.459C7.21838 203.381 7.7464 204.289 8.32199 205.185L18.4161 198.695ZM17.3765 196.902C17.1103 196.397 16.8855 195.892 16.6991 195.386L5.439 199.534C5.81259 200.548 6.25448 201.537 6.76165 202.498L17.3765 196.902ZM16.7307 195.473C16.5685 195.011 16.4416 194.534 16.3507 194.038L4.54742 196.202C4.74988 197.306 5.03634 198.389 5.40746 199.447L16.7307 195.473ZM16.3507 194.038C16.2746 193.623 16.2291 193.146 16.2291 192.6H4.22906C4.22906 193.814 4.33024 195.017 4.54742 196.202L16.3507 194.038ZM16.2291 192.6C16.2291 191.699 16.3764 190.737 16.7153 189.695L5.30286 185.985C4.60171 188.143 4.22906 190.355 4.22906 192.6H16.2291ZM16.7012 189.737C17.0232 188.771 17.4987 187.865 18.1523 187.002L8.58583 179.758C7.15945 181.641 6.06164 183.709 5.31696 185.943L16.7012 189.737ZM13.3691 189.38H14.6691V177.38H13.3691V189.38ZM9.59613 180.176C8.36471 182.126 7.4128 184.184 6.83337 186.348L18.4248 189.452C18.6453 188.629 19.0534 187.674 19.742 186.584L9.59613 180.176ZM6.83337 186.348C6.28976 188.377 6.02906 190.468 6.02906 192.6H18.0291C18.0291 191.452 18.1684 190.41 18.4248 189.452L6.83337 186.348ZM6.02906 192.6C6.02906 194.76 6.28668 196.873 6.82995 198.92L18.4282 195.84C18.1714 194.873 18.0291 193.8 18.0291 192.6H6.02906ZM6.84285 198.967C7.42853 201.102 8.3617 203.145 9.56369 205.092L19.7744 198.788C19.0831 197.668 18.6563 196.671 18.4153 195.793L6.84285 198.967ZM14.6691 195.94H13.3691V207.94H14.6691V195.94ZM18.5113 188.84L12.5205 189.173L12.8353 194.84H18.5113V188.84ZM19.5913 185.26L15.0922 181.29L15.0843 181.299L19.5913 185.26ZM21.0713 184.2L18.6926 178.692L18.6926 178.692L21.0713 184.2ZM24.7913 184.1L22.8091 189.763L22.8931 189.793L22.9778 189.819L24.7913 184.1ZM26.2113 184.88L22.2817 189.414L22.3255 189.452L22.3701 189.489L26.2113 184.88ZM27.1513 186.14L21.6743 188.59L21.7009 188.65L21.7288 188.709L27.1513 186.14ZM27.2113 189.56L21.6728 187.252L21.6452 187.318L21.6192 187.385L27.2113 189.56ZM26.4513 190.86L31.0068 194.765L31.0405 194.725L31.0736 194.685L26.4513 190.86ZM25.3512 191.88L21.7762 187.061L21.7762 187.061L25.3512 191.88ZM24.0713 192.76L27.1811 197.891L27.2372 197.857L27.2925 197.822L24.0713 192.76ZM22.7513 193.56L25.745 198.76L25.8034 198.726L25.8611 198.691L22.7513 193.56ZM21.5313 194.38L17.8243 189.662L17.7825 189.695L17.7412 189.729L21.5313 194.38ZM20.5913 195.34L15.8355 191.682L15.8249 191.696L15.8143 191.71L20.5913 195.34ZM20.0913 196.5L14.188 195.427L12.902 202.5H20.0913V196.5ZM27.3713 196.5H33.3713V190.5H27.3713V196.5ZM27.3713 198V204H33.3713V198H27.3713ZM18.1112 198L12.1301 197.525L11.6162 204H18.1112V198ZM18.5513 195.86L12.9804 193.632L12.9672 193.665L12.9545 193.698L18.5513 195.86ZM19.4513 194.3L24.095 198.099L24.095 198.099L19.4513 194.3ZM20.6713 193.14L17.1169 188.306L17.1169 188.306L20.6713 193.14ZM22.0913 192.2L25.1577 197.357L25.2097 197.326L25.2611 197.294L22.0913 192.2ZM23.6713 191.18L27.0331 196.15L27.0826 196.116L27.1313 196.082L23.6713 191.18ZM24.7913 190.22L20.4593 186.069L20.4133 186.117L20.3683 186.166L24.7913 190.22ZM25.4713 189.18L19.9564 186.816L19.9203 186.901L19.8867 186.986L25.4713 189.18ZM25.4913 186.84L20.0369 189.34L20.0573 189.384L20.0784 189.429L25.4913 186.84ZM24.8913 186.02L20.7715 190.382L20.8303 190.438L20.8905 190.491L24.8913 186.02ZM24.0313 185.5L21.9989 191.145L21.9989 191.145L24.0313 185.5ZM21.6913 185.64L24.6896 190.837L24.7199 190.82L24.7501 190.802L21.6913 185.64ZM20.8313 186.44L25.7928 189.814L25.7928 189.814L20.8313 186.44ZM20.3313 187.58L14.5104 186.125L14.4937 186.191L14.4786 186.258L20.3313 187.58ZM20.2113 188.84V194.84H26.4017L26.2083 188.653L20.2113 188.84ZM24.502 188.507C24.499 188.453 24.5023 188.438 24.5003 188.456C24.4981 188.476 24.4911 188.522 24.4713 188.587L12.9912 185.093C12.5757 186.458 12.4463 187.837 12.5205 189.173L24.502 188.507ZM24.4713 188.587C24.433 188.713 24.327 188.96 24.0982 189.221L15.0843 181.299C14.0822 182.44 13.4029 183.74 12.9912 185.093L24.4713 188.587ZM24.0903 189.23C23.8723 189.477 23.6274 189.632 23.4499 189.708L18.6926 178.692C17.3417 179.275 16.1102 180.137 15.0922 181.29L24.0903 189.23ZM23.4499 189.708C23.1698 189.829 23.0064 189.82 23.0713 189.82V177.82C21.6427 177.82 20.1461 178.064 18.6926 178.692L23.4499 189.708ZM23.0713 189.82C23.0729 189.82 23.0464 189.82 22.9972 189.812C22.9473 189.804 22.8827 189.789 22.8091 189.763L26.7734 178.437C25.5507 178.009 24.3019 177.82 23.0713 177.82V189.82ZM22.9778 189.819C22.8114 189.767 22.549 189.646 22.2817 189.414L30.1408 180.346C29.0735 179.421 27.8644 178.78 26.6047 178.381L22.9778 189.819ZM22.3701 189.489C22.0215 189.199 21.796 188.862 21.6743 188.59L32.6282 183.69C32.0532 182.405 31.201 181.228 30.0524 180.271L22.3701 189.489ZM21.7288 188.709C21.5233 188.275 21.5113 187.956 21.5113 187.9H33.5113C33.5113 186.511 33.2592 185.019 32.5737 183.571L21.7288 188.709ZM21.5113 187.9C21.5113 187.893 21.5125 187.637 21.6728 187.252L32.7497 191.868C33.31 190.523 33.5113 189.16 33.5113 187.9H21.5113ZM21.6192 187.385C21.6592 187.283 21.7287 187.156 21.8289 187.035L31.0736 194.685C31.8138 193.791 32.39 192.797 32.8033 191.735L21.6192 187.385ZM21.8957 186.955C21.8807 186.973 21.8464 187.009 21.7762 187.061L28.9263 196.699C29.6828 196.137 30.3818 195.494 31.0068 194.765L21.8957 186.955ZM21.7762 187.061C21.4794 187.282 21.1708 187.494 20.85 187.698L27.2925 197.822C27.8517 197.466 28.3965 197.092 28.9263 196.699L21.7762 187.061ZM20.9614 187.629C20.5214 187.895 20.0814 188.162 19.6414 188.429L25.8611 198.691C26.3011 198.425 26.7411 198.158 27.1811 197.891L20.9614 187.629ZM19.7575 188.36C19.0856 188.747 18.4385 189.18 17.8243 189.662L25.2382 199.098C25.3707 198.994 25.5369 198.88 25.745 198.76L19.7575 188.36ZM17.7412 189.729C17.0441 190.297 16.4015 190.946 15.8355 191.682L25.347 198.998C25.3315 199.018 25.3195 199.031 25.3133 199.038C25.3073 199.044 25.3089 199.041 25.3213 199.031L17.7412 189.729ZM15.8143 191.71C14.9509 192.846 14.4252 194.122 14.188 195.427L25.9945 197.573C25.9173 197.998 25.725 198.501 25.3682 198.97L15.8143 191.71ZM20.0913 202.5H27.3713V190.5H20.0913V202.5ZM21.3713 196.5V198H33.3713V196.5H21.3713ZM27.3713 192H18.1112V204H27.3713V192ZM24.0924 198.475C24.1092 198.264 24.1318 198.124 24.1483 198.043C24.165 197.962 24.1713 197.962 24.148 198.022L12.9545 193.698C12.4616 194.973 12.2281 196.29 12.1301 197.525L24.0924 198.475ZM24.1221 198.088C24.144 198.034 24.1565 198.013 24.1534 198.018C24.1499 198.024 24.132 198.054 24.095 198.099L14.8075 190.501C14.0114 191.474 13.417 192.54 12.9804 193.632L24.1221 198.088ZM24.095 198.099C24.14 198.044 24.1815 198.006 24.2256 197.974L17.1169 188.306C16.2543 188.94 15.4825 189.676 14.8075 190.501L24.095 198.099ZM24.2256 197.974C24.5185 197.758 24.8288 197.553 25.1577 197.357L19.0248 187.043C18.367 187.434 17.7306 187.855 17.1169 188.306L24.2256 197.974ZM25.2611 197.294C25.9083 196.892 26.5015 196.509 27.0331 196.15L20.3094 186.21C19.9343 186.464 19.4742 186.762 18.9214 187.106L25.2611 197.294ZM27.1313 196.082C27.8434 195.579 28.5641 194.984 29.2142 194.274L20.3683 186.166C20.4038 186.127 20.414 186.121 20.3865 186.144C20.3593 186.168 20.3034 186.213 20.2112 186.278L27.1313 196.082ZM29.1232 194.371C29.914 193.546 30.5945 192.548 31.0558 191.374L19.8867 186.986C20.0547 186.559 20.2818 186.254 20.4593 186.069L29.1232 194.371ZM30.9861 191.544C31.5271 190.281 31.7113 189.016 31.7113 187.88H19.7113C19.7113 187.731 19.7354 187.332 19.9564 186.816L30.9861 191.544ZM31.7113 187.88C31.7113 186.721 31.4872 185.471 30.9041 184.251L20.0784 189.429C19.7886 188.823 19.7113 188.266 19.7113 187.88H31.7113ZM30.9456 184.34C30.4677 183.297 29.7823 182.345 28.892 181.549L20.8905 190.491C20.5069 190.148 20.2215 189.743 20.0369 189.34L30.9456 184.34ZM29.011 181.658C28.1279 180.824 27.116 180.234 26.0636 179.855L21.9989 191.145C21.6132 191.006 21.1746 190.763 20.7715 190.382L29.011 181.658ZM26.0636 179.855C25.0439 179.488 23.9998 179.32 22.9713 179.32V191.32C22.6894 191.32 22.3519 191.272 21.9989 191.145L26.0636 179.855ZM22.9713 179.32C21.5959 179.32 20.0724 179.625 18.6324 180.478L24.7501 190.802C24.0301 191.228 23.36 191.32 22.9713 191.32V179.32ZM18.6929 180.443C17.557 181.098 16.6012 181.99 15.8697 183.066L25.7928 189.814C25.5147 190.223 25.1322 190.582 24.6896 190.837L18.6929 180.443ZM15.8697 183.066C15.2113 184.034 14.7727 185.075 14.5104 186.125L26.1521 189.035C26.1031 189.231 25.9979 189.512 25.7928 189.814L15.8697 183.066ZM14.4786 186.258C14.2727 187.17 14.1851 188.097 14.2142 189.027L26.2083 188.653C26.2107 188.729 26.2031 188.816 26.1839 188.902L14.4786 186.258ZM20.2113 182.84H18.5113V194.84H20.2113V182.84ZM34.6645 198V204H40.6645V198H34.6645ZM32.9645 198H26.9645V204H32.9645V198ZM32.9645 187.84H38.9645V181.84H32.9645V187.84ZM29.2845 187.84H23.2845V193.84H29.2845V187.84ZM29.2845 186.48V180.48H23.2845V186.48H29.2845ZM30.6845 186.38L31.5575 192.316L31.6426 192.304L31.7272 192.289L30.6845 186.38ZM31.9045 185.96L29.0712 180.671L29.0308 180.693L28.9907 180.715L31.9045 185.96ZM32.8445 185.14L37.6889 188.68L37.6889 188.68L32.8445 185.14ZM33.3645 183.82V177.82H28.3233L27.4543 182.786L33.3645 183.82ZM34.6645 183.82H40.6645V177.82H34.6645V183.82ZM34.6645 192H32.9645V204H34.6645V192ZM38.9645 198V187.84H26.9645V198H38.9645ZM32.9645 181.84H29.2845V193.84H32.9645V181.84ZM35.2845 187.84V186.48H23.2845V187.84H35.2845ZM29.2845 192.48C30.0429 192.48 30.8018 192.427 31.5575 192.316L29.8116 180.444C29.6606 180.466 29.4862 180.48 29.2845 180.48V192.48ZM31.7272 192.289C32.7602 192.106 33.8115 191.764 34.8184 191.205L28.9907 180.715C29.2775 180.556 29.5155 180.494 29.6418 180.471L31.7272 192.289ZM34.7379 191.249C35.9154 190.618 36.9123 189.743 37.6889 188.68L28.0002 181.6C28.2701 181.231 28.6403 180.902 29.0712 180.671L34.7379 191.249ZM37.6889 188.68C38.6076 187.423 39.0631 186.063 39.2747 184.854L27.4543 182.786C27.4793 182.643 27.5881 182.164 28.0002 181.6L37.6889 188.68ZM33.3645 189.82H34.6645V177.82H33.3645V189.82ZM28.6645 183.82V198H40.6645V183.82H28.6645ZM41.6442 201.94L36.5638 198.748L30.7882 207.94H41.6442V201.94ZM43.6642 197.44L49.4599 198.992L49.4633 198.98L43.6642 197.44ZM43.6442 187.96L37.8418 189.487L37.8497 189.517L37.858 189.547L43.6442 187.96ZM41.6442 183.38V177.38H30.9679L36.519 186.5L41.6442 183.38ZM42.9242 183.38L47.9713 180.135L46.1999 177.38H42.9242V183.38ZM44.2242 185.62L38.8963 188.379L38.9065 188.399L38.9168 188.418L44.2242 185.62ZM45.2042 187.88L39.532 189.836L39.5525 189.895L39.5742 189.954L45.2042 187.88ZM45.8442 190.22L39.9426 191.302V191.302L45.8442 190.22ZM45.2642 197.5L39.5721 195.603L39.5673 195.617L39.5626 195.631L45.2642 197.5ZM42.9242 201.94V207.94H45.9068L47.7075 205.562L42.9242 201.94ZM46.7246 205.132C47.9432 203.193 48.8834 201.145 49.4599 198.992L37.8685 195.888C37.6451 196.722 37.2386 197.674 36.5638 198.748L46.7246 205.132ZM49.4633 198.98C50.0024 196.949 50.2642 194.864 50.2642 192.74H38.2642C38.2642 193.87 38.1261 194.918 37.8651 195.9L49.4633 198.98ZM50.2642 192.74C50.2642 190.564 49.9959 188.434 49.4304 186.373L37.858 189.547C38.1192 190.499 38.2642 191.556 38.2642 192.74H50.2642ZM49.4467 186.433C48.8798 184.279 47.9623 182.22 46.7694 180.26L36.519 186.5C37.1928 187.607 37.6086 188.601 37.8418 189.487L49.4467 186.433ZM41.6442 189.38H42.9242V177.38H41.6442V189.38ZM37.8771 186.625C38.2616 187.223 38.6002 187.807 38.8963 188.379L49.5522 182.861C49.0749 181.939 48.5469 181.031 47.9713 180.135L37.8771 186.625ZM38.9168 188.418C39.1624 188.884 39.3666 189.356 39.532 189.836L50.8765 185.924C50.5085 184.857 50.0593 183.822 49.5316 182.822L38.9168 188.418ZM39.5742 189.954C39.7349 190.391 39.8576 190.838 39.9426 191.302L51.7459 189.138C51.5375 188.002 51.2335 186.889 50.8343 185.806L39.5742 189.954ZM39.9426 191.302C40.0187 191.717 40.0642 192.194 40.0642 192.74H52.0642C52.0642 191.526 51.963 190.323 51.7459 189.138L39.9426 191.302ZM40.0642 192.74C40.0642 193.624 39.9162 194.57 39.5721 195.603L50.9563 199.397C51.6789 197.23 52.0642 195.003 52.0642 192.74H40.0642ZM39.5626 195.631C39.2561 196.567 38.7928 197.457 38.141 198.318L47.7075 205.562C49.1357 203.676 50.2324 201.607 50.9658 199.369L39.5626 195.631ZM42.9242 195.94H41.6442V207.94H42.9242V195.94Z" fill="#C4C4C4" mask="url(#path-1-outside-1_245_158)"/>
<path fill-rule="evenodd" clip-rule="evenodd" d="M153.391 99.041L170.725 116.993L132.283 112.44L137.187 129.852L123.232 125.994L114.5 172L91.8569 118.416L55 126.894L75.3233 104.687L43 50L95.0803 68.472L132.283 39L135.361 70.5255L171 59.1736L145.09 89.0176L153.391 99.041Z" fill="white" stroke="black"/>
</svg>
