<svg width="211" height="212" viewBox="0 0 211 212" fill="none" xmlns="http://www.w3.org/2000/svg">
<mask id="path-1-outside-1_245_159" maskUnits="userSpaceOnUse" x="5" y="177" width="49" height="31" fill="black">
<rect fill="white" x="5" y="177" width="49" height="31"/>
<path d="M14.3691 201.94C13.8891 201.193 13.4557 200.447 13.0691 199.7C12.6824 198.967 12.3491 198.22 12.0691 197.46C11.8024 196.7 11.5957 195.92 11.4491 195.12C11.3024 194.32 11.2291 193.48 11.2291 192.6C11.2291 191.027 11.4891 189.44 12.0091 187.84C12.5424 186.24 13.3291 184.753 14.3691 183.38H15.6691C14.7091 184.9 14.0291 186.407 13.6291 187.9C13.2291 189.393 13.0291 190.96 13.0291 192.6C13.0291 194.28 13.2291 195.873 13.6291 197.38C14.0424 198.887 14.7224 200.407 15.6691 201.94H14.3691ZM21.3113 194.58C21.3779 195.273 21.6579 195.807 22.1513 196.18C22.6446 196.553 23.2313 196.74 23.9113 196.74C24.9513 196.74 25.7313 196.293 26.2513 195.4C26.7713 194.493 27.0579 193.113 27.1113 191.26L27.0713 191.22C26.7513 191.82 26.2979 192.3 25.7113 192.66C25.1246 193.007 24.4846 193.18 23.7913 193.18C23.0713 193.18 22.4313 193.067 21.8713 192.84C21.3113 192.6 20.8379 192.273 20.4513 191.86C20.0779 191.447 19.7913 190.947 19.5913 190.36C19.4046 189.773 19.3113 189.133 19.3113 188.44C19.3113 187.76 19.4246 187.14 19.6513 186.58C19.8779 186.007 20.1979 185.52 20.6113 185.12C21.0246 184.707 21.5179 184.387 22.0913 184.16C22.6646 183.933 23.2913 183.82 23.9713 183.82C24.6379 183.82 25.2646 183.927 25.8513 184.14C26.4379 184.34 26.9513 184.693 27.3913 185.2C27.8313 185.707 28.1779 186.4 28.4313 187.28C28.6979 188.147 28.8313 189.253 28.8313 190.6C28.8313 193.053 28.4379 194.94 27.6513 196.26C26.8779 197.567 25.6313 198.22 23.9113 198.22C22.7246 198.22 21.7379 197.92 20.9513 197.32C20.1646 196.72 19.7179 195.807 19.6113 194.58H21.3113ZM26.8113 188.56C26.8113 188.12 26.7446 187.707 26.6113 187.32C26.4913 186.933 26.3046 186.593 26.0513 186.3C25.8113 185.993 25.5113 185.753 25.1513 185.58C24.7913 185.407 24.3713 185.32 23.8913 185.32C23.3846 185.32 22.9513 185.413 22.5913 185.6C22.2446 185.787 21.9579 186.04 21.7313 186.36C21.5179 186.667 21.3579 187.02 21.2513 187.42C21.1579 187.82 21.1113 188.24 21.1113 188.68C21.1113 189.067 21.1779 189.44 21.3113 189.8C21.4579 190.16 21.6513 190.48 21.8913 190.76C22.1446 191.04 22.4379 191.267 22.7713 191.44C23.1179 191.6 23.4979 191.68 23.9113 191.68C24.3513 191.68 24.7513 191.6 25.1113 191.44C25.4713 191.267 25.7779 191.04 26.0313 190.76C26.2846 190.467 26.4779 190.133 26.6113 189.76C26.7446 189.373 26.8113 188.973 26.8113 188.56ZM35.3245 193.18V186.24H35.2845L30.5645 193.18H35.3245ZM36.9245 193.18H38.8445V194.68H36.9245V198H35.3245V194.68H29.1045V193.04L35.5645 183.82H36.9245V193.18ZM42.6442 201.94C43.5909 200.433 44.2642 198.933 44.6642 197.44C45.0642 195.933 45.2642 194.367 45.2642 192.74C45.2642 191.06 45.0576 189.467 44.6442 187.96C44.2442 186.44 43.5776 184.913 42.6442 183.38H43.9242C44.4042 184.127 44.8376 184.873 45.2242 185.62C45.6109 186.353 45.9376 187.107 46.2042 187.88C46.4842 188.64 46.6976 189.42 46.8442 190.22C46.9909 191.02 47.0642 191.86 47.0642 192.74C47.0642 194.313 46.7976 195.9 46.2642 197.5C45.7442 199.087 44.9642 200.567 43.9242 201.94H42.6442Z"/>
</mask>
<path d="M14.3691 201.94C13.8891 201.193 13.4557 200.447 13.0691 199.7C12.6824 198.967 12.3491 198.22 12.0691 197.46C11.8024 196.7 11.5957 195.92 11.4491 195.12C11.3024 194.32 11.2291 193.48 11.2291 192.6C11.2291 191.027 11.4891 189.44 12.0091 187.84C12.5424 186.24 13.3291 184.753 14.3691 183.38H15.6691C14.7091 184.9 14.0291 186.407 13.6291 187.9C13.2291 189.393 13.0291 190.96 13.0291 192.6C13.0291 194.28 13.2291 195.873 13.6291 197.38C14.0424 198.887 14.7224 200.407 15.6691 201.94H14.3691ZM21.3113 194.58C21.3779 195.273 21.6579 195.807 22.1513 196.18C22.6446 196.553 23.2313 196.74 23.9113 196.74C24.9513 196.74 25.7313 196.293 26.2513 195.4C26.7713 194.493 27.0579 193.113 27.1113 191.26L27.0713 191.22C26.7513 191.82 26.2979 192.3 25.7113 192.66C25.1246 193.007 24.4846 193.18 23.7913 193.18C23.0713 193.18 22.4313 193.067 21.8713 192.84C21.3113 192.6 20.8379 192.273 20.4513 191.86C20.0779 191.447 19.7913 190.947 19.5913 190.36C19.4046 189.773 19.3113 189.133 19.3113 188.44C19.3113 187.76 19.4246 187.14 19.6513 186.58C19.8779 186.007 20.1979 185.52 20.6113 185.12C21.0246 184.707 21.5179 184.387 22.0913 184.16C22.6646 183.933 23.2913 183.82 23.9713 183.82C24.6379 183.82 25.2646 183.927 25.8513 184.14C26.4379 184.34 26.9513 184.693 27.3913 185.2C27.8313 185.707 28.1779 186.4 28.4313 187.28C28.6979 188.147 28.8313 189.253 28.8313 190.6C28.8313 193.053 28.4379 194.94 27.6513 196.26C26.8779 197.567 25.6313 198.22 23.9113 198.22C22.7246 198.22 21.7379 197.92 20.9513 197.32C20.1646 196.72 19.7179 195.807 19.6113 194.58H21.3113ZM26.8113 188.56C26.8113 188.12 26.7446 187.707 26.6113 187.32C26.4913 186.933 26.3046 186.593 26.0513 186.3C25.8113 185.993 25.5113 185.753 25.1513 185.58C24.7913 185.407 24.3713 185.32 23.8913 185.32C23.3846 185.32 22.9513 185.413 22.5913 185.6C22.2446 185.787 21.9579 186.04 21.7313 186.36C21.5179 186.667 21.3579 187.02 21.2513 187.42C21.1579 187.82 21.1113 188.24 21.1113 188.68C21.1113 189.067 21.1779 189.44 21.3113 189.8C21.4579 190.16 21.6513 190.48 21.8913 190.76C22.1446 191.04 22.4379 191.267 22.7713 191.44C23.1179 191.6 23.4979 191.68 23.9113 191.68C24.3513 191.68 24.7513 191.6 25.1113 191.44C25.4713 191.267 25.7779 191.04 26.0313 190.76C26.2846 190.467 26.4779 190.133 26.6113 189.76C26.7446 189.373 26.8113 188.973 26.8113 188.56ZM35.3245 193.18V186.24H35.2845L30.5645 193.18H35.3245ZM36.9245 193.18H38.8445V194.68H36.9245V198H35.3245V194.68H29.1045V193.04L35.5645 183.82H36.9245V193.18ZM42.6442 201.94C43.5909 200.433 44.2642 198.933 44.6642 197.44C45.0642 195.933 45.2642 194.367 45.2642 192.74C45.2642 191.06 45.0576 189.467 44.6442 187.96C44.2442 186.44 43.5776 184.913 42.6442 183.38H43.9242C44.4042 184.127 44.8376 184.873 45.2242 185.62C45.6109 186.353 45.9376 187.107 46.2042 187.88C46.4842 188.64 46.6976 189.42 46.8442 190.22C46.9909 191.02 47.0642 191.86 47.0642 192.74C47.0642 194.313 46.7976 195.9 46.2642 197.5C45.7442 199.087 44.9642 200.567 43.9242 201.94H42.6442Z" fill="black"/>
<path d="M14.3691 201.94L9.32199 205.185L11.0934 207.94H14.3691V201.94ZM13.0691 199.7L18.397 196.941L18.3868 196.921L18.3765 196.902L13.0691 199.7ZM12.0691 197.46L6.40746 199.447L6.42289 199.491L6.439 199.534L12.0691 197.46ZM11.4491 195.12L5.54742 196.202L11.4491 195.12ZM12.0091 187.84L6.31696 185.943L6.30983 185.964L6.30286 185.985L12.0091 187.84ZM14.3691 183.38V177.38H11.3865L9.58583 179.758L14.3691 183.38ZM15.6691 183.38L20.742 186.584L26.555 177.38H15.6691V183.38ZM13.6291 187.9L19.4248 189.452L13.6291 187.9ZM13.6291 197.38L7.82995 198.92L7.8363 198.944L7.84285 198.967L13.6291 197.38ZM15.6691 201.94V207.94H26.4248L20.7744 198.788L15.6691 201.94ZM19.4161 198.695C19.0317 198.097 18.6931 197.513 18.397 196.941L7.7411 202.459C8.21838 203.381 8.7464 204.289 9.32199 205.185L19.4161 198.695ZM18.3765 196.902C18.1103 196.397 17.8855 195.892 17.6991 195.386L6.439 199.534C6.81259 200.548 7.25448 201.537 7.76165 202.498L18.3765 196.902ZM17.7307 195.473C17.5685 195.011 17.4416 194.534 17.3507 194.038L5.54742 196.202C5.74988 197.306 6.03634 198.389 6.40746 199.447L17.7307 195.473ZM17.3507 194.038C17.2746 193.623 17.2291 193.146 17.2291 192.6H5.22906C5.22906 193.814 5.33024 195.017 5.54742 196.202L17.3507 194.038ZM17.2291 192.6C17.2291 191.699 17.3764 190.737 17.7153 189.695L6.30286 185.985C5.60171 188.143 5.22906 190.355 5.22906 192.6H17.2291ZM17.7012 189.737C18.0232 188.771 18.4987 187.865 19.1523 187.002L9.58583 179.758C8.15945 181.641 7.06164 183.709 6.31696 185.943L17.7012 189.737ZM14.3691 189.38H15.6691V177.38H14.3691V189.38ZM10.5961 180.176C9.36471 182.126 8.4128 184.184 7.83337 186.348L19.4248 189.452C19.6453 188.629 20.0534 187.674 20.742 186.584L10.5961 180.176ZM7.83337 186.348C7.28976 188.377 7.02906 190.468 7.02906 192.6H19.0291C19.0291 191.452 19.1684 190.41 19.4248 189.452L7.83337 186.348ZM7.02906 192.6C7.02906 194.76 7.28668 196.873 7.82995 198.92L19.4282 195.84C19.1714 194.873 19.0291 193.8 19.0291 192.6H7.02906ZM7.84285 198.967C8.42853 201.102 9.3617 203.145 10.5637 205.092L20.7744 198.788C20.0831 197.668 19.6563 196.671 19.4153 195.793L7.84285 198.967ZM15.6691 195.94H14.3691V207.94H15.6691V195.94ZM21.3113 194.58L27.2837 194.006L26.762 188.58H21.3113V194.58ZM22.1513 196.18L25.7719 191.396V191.396L22.1513 196.18ZM26.2513 195.4L31.4367 198.418L31.4464 198.402L31.456 198.385L26.2513 195.4ZM27.1113 191.26L33.1088 191.433L33.1832 188.847L31.3539 187.017L27.1113 191.26ZM27.0713 191.22L31.3139 186.977L25.5879 181.251L21.7771 188.396L27.0713 191.22ZM25.7113 192.66L28.7636 197.826L28.8067 197.8L28.8493 197.774L25.7113 192.66ZM21.8713 192.84L19.5077 198.355L19.5637 198.379L19.6201 198.402L21.8713 192.84ZM20.4513 191.86L15.9986 195.882L16.0338 195.921L16.0696 195.959L20.4513 191.86ZM19.5913 190.36L13.8737 192.179L13.8923 192.238L13.9122 192.296L19.5913 190.36ZM19.6513 186.58L25.2129 188.831L25.2221 188.809L25.231 188.786L19.6513 186.58ZM20.6113 185.12L24.7838 189.432L24.8191 189.397L24.8539 189.363L20.6113 185.12ZM25.8513 184.14L23.8008 189.779L23.8578 189.799L23.9152 189.819L25.8513 184.14ZM28.4313 187.28L22.6654 188.94L22.6805 188.992L22.6966 189.045L28.4313 187.28ZM27.6513 196.26L22.4971 193.188L22.4924 193.196L22.4878 193.204L27.6513 196.26ZM20.9513 197.32L17.3126 202.091L17.3126 202.091L20.9513 197.32ZM19.6113 194.58V188.58H13.0669L13.6338 195.1L19.6113 194.58ZM26.6112 187.32L20.8809 189.098L20.9086 189.188L20.939 189.276L26.6112 187.32ZM26.0513 186.3L21.3262 189.998L21.4156 190.112L21.5103 190.222L26.0513 186.3ZM25.1513 185.58L27.7541 180.174L27.7541 180.174L25.1513 185.58ZM22.5913 185.6L19.8293 180.273L19.7878 180.295L19.7467 180.317L22.5913 185.6ZM21.7313 186.36L16.8351 182.892L16.8204 182.913L16.8058 182.934L21.7313 186.36ZM21.2513 187.42L15.4538 185.874L15.4296 185.965L15.4082 186.057L21.2513 187.42ZM21.3113 189.8L15.6848 191.884L15.7183 191.974L15.7547 192.064L21.3113 189.8ZM21.8913 190.76L17.3357 194.665L17.3881 194.726L17.442 194.785L21.8913 190.76ZM22.7713 191.44L20.0031 196.763L20.1286 196.829L20.2569 196.888L22.7713 191.44ZM25.1112 191.44L27.5481 196.923L27.6317 196.886L27.7141 196.846L25.1112 191.44ZM26.0312 190.76L30.4805 194.785L30.5269 194.734L30.5722 194.682L26.0312 190.76ZM26.6112 189.76L32.2617 191.778L32.2728 191.747L32.2835 191.716L26.6112 189.76ZM15.3388 195.154C15.5437 197.286 16.5234 199.446 18.5306 200.964L25.7719 191.396C26.2094 191.727 26.6021 192.175 26.8836 192.711C27.1571 193.232 27.2541 193.698 27.2837 194.006L15.3388 195.154ZM18.5306 200.964C20.1703 202.205 22.0611 202.74 23.9113 202.74V190.74C24.1246 190.74 24.4275 190.77 24.7805 190.882C25.1395 190.997 25.4781 191.173 25.7719 191.396L18.5306 200.964ZM23.9113 202.74C27.071 202.74 29.834 201.172 31.4367 198.418L21.0658 192.382C21.255 192.056 21.641 191.573 22.2946 191.198C22.9464 190.825 23.5514 190.74 23.9113 190.74V202.74ZM31.456 198.385C32.7148 196.19 33.0459 193.618 33.1088 191.433L21.1137 191.087C21.0942 191.765 21.035 192.208 20.9817 192.465C20.9253 192.736 20.9033 192.665 21.0465 192.415L31.456 198.385ZM31.3539 187.017L31.3139 186.977L22.8286 195.463L22.8686 195.503L31.3539 187.017ZM21.7771 188.396C21.8611 188.239 21.9779 188.07 22.1292 187.91C22.2801 187.75 22.4357 187.63 22.5732 187.546L28.8493 197.774C30.3339 196.863 31.5368 195.597 32.3654 194.044L21.7771 188.396ZM22.6589 187.494C22.8168 187.401 23.0079 187.317 23.2228 187.259C23.437 187.201 23.6324 187.18 23.7913 187.18V199.18C25.5387 199.18 27.2357 198.728 28.7636 197.826L22.6589 187.494ZM23.7913 187.18C23.6979 187.18 23.8441 187.166 24.1224 187.278L19.6201 198.402C21.0184 198.968 22.4446 199.18 23.7913 199.18V187.18ZM24.2348 187.325C24.3791 187.387 24.6097 187.523 24.8329 187.761L16.0696 195.959C17.0661 197.024 18.2434 197.813 19.5077 198.355L24.2348 187.325ZM24.9039 187.838C25.1353 188.095 25.2371 188.327 25.2703 188.424L13.9122 192.296C14.3454 193.567 15.0205 194.799 15.9986 195.882L24.9039 187.838ZM25.3088 188.541C25.3194 188.574 25.3203 188.587 25.3184 188.574C25.3165 188.561 25.3113 188.517 25.3113 188.44H13.3113C13.3113 189.674 13.4779 190.935 13.8737 192.179L25.3088 188.541ZM25.3113 188.44C25.3113 188.435 25.3099 188.592 25.2129 188.831L14.0896 184.329C13.5393 185.688 13.3113 187.085 13.3113 188.44H25.3113ZM25.231 188.786C25.1667 188.949 25.0273 189.196 24.7838 189.432L16.4387 180.808C15.3686 181.844 14.5891 183.065 14.0715 184.374L25.231 188.786ZM24.8539 189.363C24.6555 189.561 24.4446 189.682 24.2972 189.74L19.8853 178.58C18.5913 179.092 17.3937 179.852 16.3686 180.877L24.8539 189.363ZM24.2972 189.74C24.2042 189.777 24.122 189.798 24.059 189.809C23.9972 189.82 23.9653 189.82 23.9713 189.82V177.82C22.6139 177.82 21.2299 178.049 19.8853 178.58L24.2972 189.74ZM23.9713 189.82C23.9835 189.82 23.9695 189.821 23.9345 189.815C23.8988 189.809 23.8525 189.798 23.8008 189.779L27.9017 178.501C26.6144 178.033 25.2894 177.82 23.9713 177.82V189.82ZM23.9152 189.819C23.6857 189.741 23.4678 189.631 23.2744 189.497C23.0832 189.366 22.9478 189.234 22.8611 189.134L31.9214 181.266C30.8455 180.027 29.46 179.031 27.7873 178.461L23.9152 189.819ZM22.8611 189.134C22.7045 188.954 22.6326 188.819 22.6147 188.783C22.5976 188.749 22.6226 188.791 22.6654 188.94L34.1971 185.62C33.7853 184.19 33.1027 182.626 31.9214 181.266L22.8611 189.134ZM22.6966 189.045C22.7244 189.135 22.8313 189.591 22.8313 190.6H34.8313C34.8313 188.916 34.6715 187.159 34.1659 185.515L22.6966 189.045ZM22.8313 190.6C22.8313 191.521 22.7561 192.182 22.6625 192.63C22.5686 193.081 22.4759 193.224 22.4971 193.188L32.8054 199.332C34.3831 196.684 34.8313 193.551 34.8313 190.6H22.8313ZM22.4878 193.204C22.6223 192.977 22.9095 192.647 23.3511 192.416C23.7576 192.203 24.0138 192.22 23.9113 192.22V204.22C27.4148 204.22 30.8001 202.72 32.8147 199.316L22.4878 193.204ZM23.9113 192.22C23.8221 192.22 23.8764 192.209 24.0267 192.254C24.1878 192.303 24.3911 192.398 24.5899 192.549L17.3126 202.091C19.3409 203.638 21.68 204.22 23.9113 204.22V192.22ZM24.5899 192.549C24.9593 192.831 25.2414 193.192 25.4162 193.549C25.5777 193.879 25.5912 194.089 25.5887 194.06L13.6338 195.1C13.8484 197.567 14.8663 200.225 17.3126 202.091L24.5899 192.549ZM19.6113 200.58H21.3113V188.58H19.6113V200.58ZM32.8113 188.56C32.8113 187.505 32.6497 186.426 32.2835 185.364L20.939 189.276C20.8395 188.987 20.8113 188.735 20.8113 188.56H32.8113ZM32.3416 185.542C31.988 184.402 31.4093 183.324 30.5922 182.378L21.5103 190.222C21.1999 189.862 20.9945 189.465 20.8809 189.098L32.3416 185.542ZM30.7763 182.602C29.9542 181.552 28.9208 180.736 27.7541 180.174L22.5484 190.986C22.1017 190.771 21.6683 190.435 21.3262 189.998L30.7763 182.602ZM27.7541 180.174C26.4349 179.539 25.0934 179.32 23.8913 179.32V191.32C23.6491 191.32 23.1476 191.275 22.5484 190.986L27.7541 180.174ZM23.8913 179.32C22.6582 179.32 21.2294 179.548 19.8293 180.273L25.3532 190.927C24.6731 191.279 24.111 191.32 23.8913 191.32V179.32ZM19.7467 180.317C18.5888 180.941 17.5988 181.814 16.8351 182.892L26.6274 189.828C26.317 190.266 25.9004 190.633 25.4358 190.883L19.7467 180.317ZM16.8058 182.934C16.1543 183.87 15.7206 184.874 15.4538 185.874L27.0487 188.966C26.9953 189.166 26.8816 189.463 26.6567 189.786L16.8058 182.934ZM15.4082 186.057C15.2035 186.934 15.1113 187.813 15.1113 188.68H27.1112C27.1112 188.667 27.1124 188.706 27.0943 188.783L15.4082 186.057ZM15.1113 188.68C15.1113 189.773 15.3026 190.852 15.6848 191.884L26.9377 187.716C27.0533 188.028 27.1112 188.361 27.1112 188.68H15.1113ZM15.7547 192.064C16.1314 192.989 16.6538 193.869 17.3357 194.665L26.4468 186.855C26.6487 187.091 26.7844 187.331 26.8678 187.536L15.7547 192.064ZM17.442 194.785C18.1716 195.592 19.0335 196.259 20.0031 196.763L25.5394 186.117C25.8424 186.274 26.1175 186.488 26.3405 186.735L17.442 194.785ZM20.2569 196.888C21.4553 197.441 22.7025 197.68 23.9113 197.68V185.68C24.2934 185.68 24.7805 185.759 25.2856 185.992L20.2569 196.888ZM23.9113 197.68C25.0923 197.68 26.3358 197.462 27.5481 196.923L22.6744 185.957C23.1667 185.738 23.6102 185.68 23.9113 185.68V197.68ZM27.7141 196.846C28.7318 196.356 29.6769 195.674 30.4805 194.785L21.582 186.735C21.8789 186.406 22.2107 186.177 22.5084 186.034L27.7141 196.846ZM30.5722 194.682C31.3209 193.815 31.885 192.833 32.2617 191.778L20.9608 187.742C21.0708 187.434 21.2483 187.118 21.4903 186.838L30.5722 194.682ZM32.2835 191.716C32.6361 190.693 32.8113 189.632 32.8113 188.56H20.8113C20.8113 188.315 20.853 188.053 20.939 187.804L32.2835 191.716ZM35.3245 193.18V199.18H41.3245V193.18H35.3245ZM35.3245 186.24H41.3245V180.24H35.3245V186.24ZM35.2845 186.24V180.24H32.1091L30.3232 182.866L35.2845 186.24ZM30.5645 193.18L25.6032 189.806L19.2277 199.18H30.5645V193.18ZM36.9245 193.18H30.9245V199.18H36.9245V193.18ZM38.8445 193.18H44.8445V187.18H38.8445V193.18ZM38.8445 194.68V200.68H44.8445V194.68H38.8445ZM36.9245 194.68V188.68H30.9245V194.68H36.9245ZM36.9245 198V204H42.9245V198H36.9245ZM35.3245 198H29.3245V204H35.3245V198ZM35.3245 194.68H41.3245V188.68H35.3245V194.68ZM29.1045 194.68H23.1045V200.68H29.1045V194.68ZM29.1045 193.04L24.1906 189.597L23.1045 191.147V193.04H29.1045ZM35.5645 183.82V177.82H32.4423L30.6506 180.377L35.5645 183.82ZM36.9245 183.82H42.9245V177.82H36.9245V183.82ZM41.3245 193.18V186.24H29.3245V193.18H41.3245ZM35.3245 180.24H35.2845V192.24H35.3245V180.24ZM30.3232 182.866L25.6032 189.806L35.5258 196.554L40.2458 189.614L30.3232 182.866ZM30.5645 199.18H35.3245V187.18H30.5645V199.18ZM36.9245 199.18H38.8445V187.18H36.9245V199.18ZM32.8445 193.18V194.68H44.8445V193.18H32.8445ZM38.8445 188.68H36.9245V200.68H38.8445V188.68ZM30.9245 194.68V198H42.9245V194.68H30.9245ZM36.9245 192H35.3245V204H36.9245V192ZM41.3245 198V194.68H29.3245V198H41.3245ZM35.3245 188.68H29.1045V200.68H35.3245V188.68ZM35.1045 194.68V193.04H23.1045V194.68H35.1045ZM34.0184 196.483L40.4784 187.263L30.6506 180.377L24.1906 189.597L34.0184 196.483ZM35.5645 189.82H36.9245V177.82H35.5645V189.82ZM30.9245 183.82V193.18H42.9245V183.82H30.9245ZM42.6442 201.94L37.5638 198.748L31.7882 207.94H42.6442V201.94ZM44.6642 197.44L50.4599 198.992L50.4633 198.98L44.6642 197.44ZM44.6442 187.96L38.8418 189.487L38.8497 189.517L38.858 189.547L44.6442 187.96ZM42.6442 183.38V177.38H31.9679L37.519 186.5L42.6442 183.38ZM43.9242 183.38L48.9713 180.135L47.1999 177.38H43.9242V183.38ZM45.2242 185.62L39.8963 188.379L39.9065 188.399L39.9168 188.418L45.2242 185.62ZM46.2042 187.88L40.532 189.836L40.5525 189.895L40.5742 189.954L46.2042 187.88ZM46.8442 190.22L40.9426 191.302V191.302L46.8442 190.22ZM46.2642 197.5L40.5721 195.603L40.5673 195.617L40.5626 195.631L46.2642 197.5ZM43.9242 201.94V207.94H46.9068L48.7075 205.562L43.9242 201.94ZM47.7246 205.132C48.9432 203.193 49.8834 201.145 50.4599 198.992L38.8685 195.888C38.6451 196.722 38.2386 197.674 37.5638 198.748L47.7246 205.132ZM50.4633 198.98C51.0024 196.949 51.2642 194.864 51.2642 192.74H39.2642C39.2642 193.87 39.1261 194.918 38.8651 195.9L50.4633 198.98ZM51.2642 192.74C51.2642 190.564 50.9959 188.434 50.4304 186.373L38.858 189.547C39.1192 190.499 39.2642 191.556 39.2642 192.74H51.2642ZM50.4467 186.433C49.8798 184.279 48.9623 182.22 47.7694 180.26L37.519 186.5C38.1928 187.607 38.6086 188.601 38.8418 189.487L50.4467 186.433ZM42.6442 189.38H43.9242V177.38H42.6442V189.38ZM38.8771 186.625C39.2616 187.223 39.6002 187.807 39.8963 188.379L50.5522 182.861C50.0749 181.939 49.5469 181.031 48.9713 180.135L38.8771 186.625ZM39.9168 188.418C40.1624 188.884 40.3666 189.356 40.532 189.836L51.8765 185.924C51.5085 184.857 51.0593 183.822 50.5316 182.822L39.9168 188.418ZM40.5742 189.954C40.7349 190.391 40.8576 190.838 40.9426 191.302L52.7459 189.138C52.5375 188.002 52.2335 186.889 51.8343 185.806L40.5742 189.954ZM40.9426 191.302C41.0187 191.717 41.0642 192.194 41.0642 192.74H53.0642C53.0642 191.526 52.963 190.323 52.7459 189.138L40.9426 191.302ZM41.0642 192.74C41.0642 193.624 40.9162 194.57 40.5721 195.603L51.9563 199.397C52.6789 197.23 53.0642 195.003 53.0642 192.74H41.0642ZM40.5626 195.631C40.2561 196.567 39.7928 197.457 39.141 198.318L48.7075 205.562C50.1357 203.676 51.2324 201.607 51.9658 199.369L40.5626 195.631ZM43.9242 195.94H42.6442V207.94H43.9242V195.94Z" fill="#C4C4C4" mask="url(#path-1-outside-1_245_159)"/>
<path fill-rule="evenodd" clip-rule="evenodd" d="M67.7028 107.522L58.4171 135.917L67.7028 107.522L58.4171 135.917L86.7466 130.302L133.179 154.062L164 107.522L124.032 70.1489L86.7466 58L48 68.6845L67.7028 107.522Z" fill="white"/>
<path d="M67.7028 107.522L58.4171 135.917L86.7466 130.302L133.179 154.062L164 107.522L124.032 70.1489L86.7466 58L48 68.6845L67.7028 107.522Z" stroke="black"/>
</svg>
