<svg width="212" height="212" viewBox="0 0 212 212" fill="none" xmlns="http://www.w3.org/2000/svg">
<mask id="path-1-outside-1_245_160" maskUnits="userSpaceOnUse" x="4" y="177" width="39" height="31" fill="black">
<rect fill="white" x="4" y="177" width="39" height="31"/>
<path d="M13.2823 201.94C12.8023 201.193 12.369 200.447 11.9823 199.7C11.5957 198.967 11.2623 198.22 10.9823 197.46C10.7157 196.7 10.509 195.92 10.3623 195.12C10.2157 194.32 10.1423 193.48 10.1423 192.6C10.1423 191.027 10.4023 189.44 10.9223 187.84C11.4557 186.24 12.2423 184.753 13.2823 183.38H14.5823C13.6223 184.9 12.9423 186.407 12.5423 187.9C12.1423 189.393 11.9423 190.96 11.9423 192.6C11.9423 194.28 12.1423 195.873 12.5423 197.38C12.9557 198.887 13.6357 200.407 14.5823 201.94H13.2823ZM27.7245 185.52C27.0045 186.227 26.3312 187.067 25.7045 188.04C25.0779 189.013 24.5179 190.053 24.0245 191.16C23.5445 192.267 23.1512 193.407 22.8445 194.58C22.5379 195.753 22.3512 196.893 22.2845 198H20.3845C20.4645 196.8 20.6579 195.633 20.9645 194.5C21.2845 193.353 21.6912 192.26 22.1845 191.22C22.6779 190.167 23.2445 189.173 23.8845 188.24C24.5379 187.307 25.2379 186.447 25.9845 185.66H18.5445V184.06H27.7245V185.52ZM31.6442 201.94C32.5909 200.433 33.2642 198.933 33.6642 197.44C34.0642 195.933 34.2642 194.367 34.2642 192.74C34.2642 191.06 34.0576 189.467 33.6442 187.96C33.2442 186.44 32.5776 184.913 31.6442 183.38H32.9242C33.4042 184.127 33.8376 184.873 34.2242 185.62C34.6109 186.353 34.9376 187.107 35.2042 187.88C35.4842 188.64 35.6976 189.42 35.8442 190.22C35.9909 191.02 36.0642 191.86 36.0642 192.74C36.0642 194.313 35.7976 195.9 35.2642 197.5C34.7442 199.087 33.9642 200.567 32.9242 201.94H31.6442Z"/>
</mask>
<path d="M13.2823 201.94C12.8023 201.193 12.369 200.447 11.9823 199.7C11.5957 198.967 11.2623 198.22 10.9823 197.46C10.7157 196.7 10.509 195.92 10.3623 195.12C10.2157 194.32 10.1423 193.48 10.1423 192.6C10.1423 191.027 10.4023 189.44 10.9223 187.84C11.4557 186.24 12.2423 184.753 13.2823 183.38H14.5823C13.6223 184.9 12.9423 186.407 12.5423 187.9C12.1423 189.393 11.9423 190.96 11.9423 192.6C11.9423 194.28 12.1423 195.873 12.5423 197.38C12.9557 198.887 13.6357 200.407 14.5823 201.94H13.2823ZM27.7245 185.52C27.0045 186.227 26.3312 187.067 25.7045 188.04C25.0779 189.013 24.5179 190.053 24.0245 191.16C23.5445 192.267 23.1512 193.407 22.8445 194.58C22.5379 195.753 22.3512 196.893 22.2845 198H20.3845C20.4645 196.8 20.6579 195.633 20.9645 194.5C21.2845 193.353 21.6912 192.26 22.1845 191.22C22.6779 190.167 23.2445 189.173 23.8845 188.24C24.5379 187.307 25.2379 186.447 25.9845 185.66H18.5445V184.06H27.7245V185.52ZM31.6442 201.94C32.5909 200.433 33.2642 198.933 33.6642 197.44C34.0642 195.933 34.2642 194.367 34.2642 192.74C34.2642 191.06 34.0576 189.467 33.6442 187.96C33.2442 186.44 32.5776 184.913 31.6442 183.38H32.9242C33.4042 184.127 33.8376 184.873 34.2242 185.62C34.6109 186.353 34.9376 187.107 35.2042 187.88C35.4842 188.64 35.6976 189.42 35.8442 190.22C35.9909 191.02 36.0642 191.86 36.0642 192.74C36.0642 194.313 35.7976 195.9 35.2642 197.5C34.7442 199.087 33.9642 200.567 32.9242 201.94H31.6442Z" fill="black"/>
<path d="M13.2823 201.94L8.23527 205.185L10.0066 207.94H13.2823V201.94ZM11.9823 199.7L17.3103 196.941L17.3001 196.921L17.2898 196.902L11.9823 199.7ZM10.9823 197.46L5.32074 199.447L5.33617 199.491L5.35228 199.534L10.9823 197.46ZM10.3623 195.12L4.4607 196.202L4.4607 196.202L10.3623 195.12ZM10.9223 187.84L5.23024 185.943L5.22311 185.964L5.21614 185.985L10.9223 187.84ZM13.2823 183.38V177.38H10.2997L8.49911 179.758L13.2823 183.38ZM14.5823 183.38L19.6553 186.584L25.4683 177.38H14.5823V183.38ZM12.5423 187.9L18.338 189.452L18.338 189.452L12.5423 187.9ZM12.5423 197.38L6.74323 198.92L6.74958 198.944L6.75613 198.967L12.5423 197.38ZM14.5823 201.94V207.94H25.3381L19.6877 198.788L14.5823 201.94ZM18.3294 198.695C17.945 198.097 17.6064 197.513 17.3103 196.941L6.65438 202.459C7.13166 203.381 7.65969 204.289 8.23527 205.185L18.3294 198.695ZM17.2898 196.902C17.0236 196.397 16.7988 195.892 16.6124 195.386L5.35228 199.534C5.72587 200.548 6.16777 201.537 6.67493 202.498L17.2898 196.902ZM16.6439 195.473C16.4817 195.011 16.3549 194.534 16.264 194.038L4.4607 196.202C4.66316 197.306 4.94962 198.389 5.32074 199.447L16.6439 195.473ZM16.264 194.038C16.1878 193.623 16.1423 193.146 16.1423 192.6H4.14234C4.14234 193.814 4.24352 195.017 4.4607 196.202L16.264 194.038ZM16.1423 192.6C16.1423 191.699 16.2897 190.737 16.6285 189.695L5.21614 185.985C4.51499 188.143 4.14234 190.355 4.14234 192.6H16.1423ZM16.6144 189.737C16.9364 188.771 17.412 187.865 18.0656 187.002L8.49911 179.758C7.07273 181.641 5.97492 183.709 5.23024 185.943L16.6144 189.737ZM13.2823 189.38H14.5823V177.38H13.2823V189.38ZM9.50941 180.176C8.27799 182.126 7.32608 184.184 6.74665 186.348L18.338 189.452C18.5586 188.629 18.9667 187.674 19.6553 186.584L9.50941 180.176ZM6.74665 186.348C6.20304 188.377 5.94234 190.468 5.94234 192.6H17.9423C17.9423 191.452 18.0816 190.41 18.338 189.452L6.74665 186.348ZM5.94234 192.6C5.94234 194.76 6.19996 196.873 6.74323 198.92L18.3415 195.84C18.0847 194.873 17.9423 193.8 17.9423 192.6H5.94234ZM6.75613 198.967C7.34181 201.102 8.27498 203.145 9.47697 205.092L19.6877 198.788C18.9964 197.668 18.5695 196.671 18.3286 195.793L6.75613 198.967ZM14.5823 195.94H13.2823V207.94H14.5823V195.94ZM27.7245 185.52L31.9273 189.802L33.7245 188.038V185.52H27.7245ZM25.7045 188.04L30.7494 191.288L25.7045 188.04ZM24.0245 191.16L18.5444 188.717L18.5321 188.745L18.52 188.772L24.0245 191.16ZM22.8445 194.58L17.0395 193.063L22.8445 194.58ZM22.2845 198V204H27.934L28.2737 198.361L22.2845 198ZM20.3845 198L14.3978 197.601L13.9712 204H20.3845V198ZM20.9645 194.5L15.1854 192.887L15.179 192.91L15.1728 192.933L20.9645 194.5ZM22.1845 191.22L27.6055 193.792L27.6119 193.778L27.6181 193.765L22.1845 191.22ZM23.8845 188.24L18.9691 184.799L18.9525 184.823L18.9362 184.847L23.8845 188.24ZM25.9845 185.66L30.3364 189.791L39.9518 179.66H25.9845V185.66ZM18.5445 185.66H12.5445V191.66H18.5445V185.66ZM18.5445 184.06V178.06H12.5445V184.06H18.5445ZM27.7245 184.06H33.7245V178.06H27.7245V184.06ZM23.5217 181.238C22.4409 182.299 21.4931 183.497 20.6597 184.792L30.7494 191.288C31.1693 190.636 31.5682 190.155 31.9273 189.802L23.5217 181.238ZM20.6597 184.792C19.8602 186.034 19.1564 187.344 18.5444 188.717L29.5047 193.603C29.8794 192.762 30.2956 191.993 30.7494 191.288L20.6597 184.792ZM18.52 188.772C17.917 190.163 17.4235 191.594 17.0395 193.063L28.6495 196.097C28.8789 195.22 29.172 194.371 29.5291 193.548L18.52 188.772ZM17.0395 193.063C16.6431 194.58 16.3877 196.108 16.2954 197.639L28.2737 198.361C28.3147 197.679 28.4327 196.927 28.6495 196.097L17.0395 193.063ZM22.2845 192H20.3845V204H22.2845V192ZM26.3712 198.399C26.4256 197.584 26.5554 196.809 26.7562 196.067L15.1728 192.933C14.7603 194.457 14.5035 196.016 14.3978 197.601L26.3712 198.399ZM26.7437 196.113C26.975 195.284 27.2636 194.512 27.6055 193.792L16.7635 188.648C16.1188 190.008 15.5941 191.423 15.1854 192.887L26.7437 196.113ZM27.6181 193.765C27.9769 192.999 28.3825 192.29 28.8329 191.633L18.9362 184.847C18.1066 186.057 17.3788 187.335 16.751 188.675L27.6181 193.765ZM28.7999 191.681C29.2913 190.979 29.8044 190.351 30.3364 189.791L21.6327 181.529C20.6714 182.542 19.7845 183.634 18.9691 184.799L28.7999 191.681ZM25.9845 179.66H18.5445V191.66H25.9845V179.66ZM24.5445 185.66V184.06H12.5445V185.66H24.5445ZM18.5445 190.06H27.7245V178.06H18.5445V190.06ZM21.7245 184.06V185.52H33.7245V184.06H21.7245ZM31.6442 201.94L26.5638 198.748L20.7882 207.94H31.6442V201.94ZM33.6642 197.44L39.4599 198.992L39.4633 198.98L33.6642 197.44ZM33.6442 187.96L27.8418 189.487L27.8497 189.517L27.858 189.547L33.6442 187.96ZM31.6442 183.38V177.38H20.9679L26.519 186.5L31.6442 183.38ZM32.9242 183.38L37.9713 180.135L36.1999 177.38H32.9242V183.38ZM34.2242 185.62L28.8963 188.379L28.9065 188.399L28.9168 188.418L34.2242 185.62ZM35.2042 187.88L29.532 189.836L29.5525 189.895L29.5742 189.954L35.2042 187.88ZM35.8442 190.22L29.9426 191.302L29.9426 191.302L35.8442 190.22ZM35.2642 197.5L29.5721 195.603L29.5673 195.617L29.5626 195.631L35.2642 197.5ZM32.9242 201.94V207.94H35.9068L37.7074 205.562L32.9242 201.94ZM36.7246 205.132C37.9432 203.193 38.8834 201.145 39.4599 198.992L27.8685 195.888C27.6451 196.722 27.2386 197.674 26.5638 198.748L36.7246 205.132ZM39.4633 198.98C40.0024 196.949 40.2642 194.864 40.2642 192.74H28.2642C28.2642 193.87 28.1261 194.918 27.8651 195.9L39.4633 198.98ZM40.2642 192.74C40.2642 190.564 39.9959 188.434 39.4304 186.373L27.858 189.547C28.1192 190.499 28.2642 191.556 28.2642 192.74H40.2642ZM39.4467 186.433C38.8798 184.279 37.9623 182.22 36.7694 180.26L26.519 186.5C27.1928 187.607 27.6086 188.601 27.8418 189.487L39.4467 186.433ZM31.6442 189.38H32.9242V177.38H31.6442V189.38ZM27.8771 186.625C28.2616 187.223 28.6002 187.807 28.8963 188.379L39.5522 182.861C39.0749 181.939 38.5469 181.031 37.9713 180.135L27.8771 186.625ZM28.9168 188.418C29.1624 188.884 29.3666 189.356 29.532 189.836L40.8765 185.924C40.5085 184.857 40.0593 183.822 39.5316 182.822L28.9168 188.418ZM29.5742 189.954C29.7349 190.391 29.8576 190.838 29.9426 191.302L41.7459 189.138C41.5375 188.002 41.2335 186.889 40.8343 185.806L29.5742 189.954ZM29.9426 191.302C30.0187 191.717 30.0642 192.194 30.0642 192.74H42.0642C42.0642 191.526 41.963 190.323 41.7459 189.138L29.9426 191.302ZM30.0642 192.74C30.0642 193.624 29.9162 194.57 29.5721 195.603L40.9563 199.397C41.6789 197.23 42.0642 195.003 42.0642 192.74H30.0642ZM29.5626 195.631C29.2561 196.567 28.7928 197.457 28.141 198.318L37.7074 205.562C39.1357 203.676 40.2324 201.607 40.9658 199.369L29.5626 195.631ZM32.9242 195.94H31.6442V207.94H32.9242V195.94Z" fill="#C4C4C4" mask="url(#path-1-outside-1_245_160)"/>
<path fill-rule="evenodd" clip-rule="evenodd" d="M164 112.959L136 130.789L132.963 154.749L113.872 141.771L84.9165 174V132.937L59.6816 130.789L48 112.959L86.0447 101L65.6667 66.785L86.0447 73.6705L100.62 66.785L122.204 37L129.002 78.0139L148.5 88.5L132.963 105.5L164 112.959Z" fill="white" stroke="black"/>
</svg>
