<svg width="439" height="433" viewBox="0 0 439 433" fill="none" xmlns="http://www.w3.org/2000/svg">
<path fill-rule="evenodd" clip-rule="evenodd" d="M316.106 63.105L281.604 98.4206L316.106 63.105L281.604 98.4206L289.365 118.49L299.57 145.199L261.603 148.274L267.986 184.076L237.297 175.235L215.051 151.606L200.391 179.196L158.99 232.765L128.815 215.289L130.24 170.336L101.972 154.239L70.7753 128.254L136.683 99.8903L184.622 98.8833L140.538 57.2247L147.181 29.7541L188.868 61.4427L197.289 26.0826L216.723 45.1336L228.366 60.5825L289.143 2.10628L290.979 44.5073L316.106 63.105Z" fill="white"/>
<path d="M316.106 63.105L281.604 98.4206L289.365 118.49L299.57 145.199L261.603 148.274L267.986 184.076L237.297 175.235L215.051 151.606L200.391 179.196L158.99 232.765L128.815 215.289L130.24 170.336L101.972 154.239L70.7753 128.254L136.683 99.8903L184.622 98.8833L140.538 57.2247L147.181 29.7541L188.868 61.4427L197.289 26.0826L216.723 45.1336L228.366 60.5825L289.143 2.10628L290.979 44.5073L316.106 63.105Z" stroke="black"/>
<path fill-rule="evenodd" clip-rule="evenodd" d="M1.34639 323.856L17.9408 340.841L1.34639 323.856L17.9408 340.841L14.2078 350.494L9.29966 363.34L27.5604 364.819L24.4902 382.038L39.2505 377.786L49.95 366.422L57.001 379.691L116.966 432.304L131.479 423.899L130.794 402.278L144.389 394.536L159.394 382.039L87.6421 341.548L64.5855 341.064L85.7883 321.028L82.593 307.815L62.5432 323.056L58.4932 306.049L49.1461 315.212L43.5461 322.643L14.3145 294.518L13.4318 314.911L1.34639 323.856Z" fill="white"/>
<path d="M1.3464 323.856L17.9408 340.841L14.2078 350.494L9.29966 363.34L27.5604 364.819L24.4902 382.038L39.2505 377.786L49.95 366.422L57.001 379.691L116.966 432.304L131.479 423.899L130.794 402.278L144.389 394.536L159.394 382.039L87.6421 341.548L64.5855 341.064L85.7883 321.028L82.593 307.815L62.5432 323.056L58.4932 306.049L49.1461 315.212L43.5461 322.643L14.3145 294.518L13.4318 314.911L1.3464 323.856Z" stroke="black"/>
<path fill-rule="evenodd" clip-rule="evenodd" d="M477.691 279.905L454.462 284.835L477.691 279.905L454.462 284.835L448.305 276.517L440.079 265.497L429.059 280.132L416.155 268.325L411.849 283.07L415.725 298.19L400.742 297.046L341.932 270.383L341.268 287.14L359.899 298.13L359.165 313.759L361.695 333.122L404.307 308.207L429.316 324.122L434.898 352.755L447.769 357.125L445.622 332.032L462.156 337.71L459.417 324.911L456.136 316.204L495.537 306.558L478.781 294.901L477.691 279.905Z" fill="white"/>
<path d="M477.691 279.905L454.462 284.835L448.305 276.517L440.079 265.497L429.059 280.132L416.155 268.325L411.849 283.07L415.725 298.19L400.742 297.046L341.932 270.383L341.268 287.14L359.899 298.13L359.165 313.759L361.695 333.122L404.307 308.207L429.316 324.122L434.898 352.755L447.769 357.125L445.622 332.032L462.156 337.71L459.417 324.911L456.136 316.204L495.537 306.558L478.781 294.901L477.691 279.905Z" stroke="black"/>
</svg>
