<svg width="640" height="640" viewBox="0 0 640 640" fill="none" xmlns="http://www.w3.org/2000/svg">
<mask id="path-1-outside-1_229_239" maskUnits="userSpaceOnUse" x="18" y="17" width="605" height="605" fill="black">
<rect fill="white" x="18" y="17" width="605" height="605"/>
<path d="M90.4446 567C87.8602 553.131 85.4912 538.018 83.3375 521.661C81.1839 505.303 79.3174 488.589 77.738 471.52C76.3023 454.451 75.1537 437.383 74.2922 420.314C73.4307 402.889 73 386.531 73 371.24C73 341.014 74.364 312.566 77.0919 285.895C79.9635 259.225 83.84 233.8 88.7217 209.619C93.7468 185.082 99.6335 161.612 106.382 139.209C113.273 116.45 120.667 94.0474 128.564 72H143.64C135.887 95.1142 128.78 118.94 122.319 143.476C115.858 168.013 110.33 193.439 105.736 219.753C101.141 246.068 97.5516 273.449 94.9672 301.898C92.5264 329.99 91.306 359.505 91.306 390.443C91.306 420.669 92.1675 450.362 93.8904 479.522C95.6133 509.037 98.4849 538.196 102.505 567H90.4446Z"/>
<path d="M204.612 246.423C209.493 247.135 214.375 246.957 219.256 245.89C224.282 244.468 228.804 241.445 232.824 236.822C236.988 231.844 240.362 224.554 242.947 214.953C245.531 205.351 246.823 192.372 246.823 176.014C246.823 164.635 246.034 155.567 244.454 148.81C243.018 142.054 241.08 136.898 238.639 133.342C236.199 129.43 233.399 126.941 230.24 125.874C227.225 124.451 224.138 123.74 220.979 123.74C212.365 123.74 205.33 129.963 199.874 142.409C194.561 154.5 191.259 173.88 189.967 200.551H170.584C171.445 184.904 173.097 170.147 175.537 156.278C177.978 142.054 181.28 129.608 185.444 118.94C189.608 108.272 194.705 99.7371 200.735 93.3362C206.765 86.9353 213.872 83.7349 222.056 83.7349C235.552 83.7349 246.249 91.5582 254.146 107.205C262.186 122.496 266.206 146.143 266.206 178.148C266.206 189.171 265.416 199.484 263.837 209.085C262.258 218.331 260.176 226.687 257.591 234.155C255.151 241.623 252.279 248.024 248.977 253.358C245.675 258.336 242.301 262.07 238.855 264.559C246.321 272.738 251.489 283.584 254.361 297.097C257.233 310.61 258.668 325.901 258.668 342.97C258.668 356.127 257.52 370.173 255.222 385.109C253.069 399.689 249.695 413.201 245.1 425.648C240.649 437.738 234.978 447.873 228.086 456.052C221.195 463.875 213.011 467.787 203.535 467.787C188.459 467.787 176.614 458.008 168 438.449C159.529 418.536 155.365 387.42 155.508 345.103H174.891C174.748 355.416 175.035 365.551 175.753 375.508C176.471 385.464 177.906 394.355 180.06 402.178C182.214 410.001 185.229 416.402 189.105 421.38C192.982 426.003 197.935 428.315 203.966 428.315C209.134 428.315 213.872 426.359 218.18 422.447C222.487 418.536 226.148 413.024 229.163 405.912C232.322 398.8 234.763 390.087 236.486 379.775C238.352 369.462 239.285 357.905 239.285 345.103C239.285 330.524 238.137 319.144 235.84 310.965C233.686 302.787 230.814 296.564 227.225 292.296C223.636 288.029 219.544 285.362 214.949 284.295C210.498 283.228 205.976 282.695 201.381 282.695L204.612 246.423Z"/>
<path d="M371.447 130.141H308.776L296.716 232.555L297.146 233.622C300.879 226.51 305.115 221.353 309.853 218.153C314.591 214.597 319.329 212.819 324.067 212.819C330.959 212.819 337.061 215.842 342.373 221.887C347.685 227.576 352.136 235.578 355.726 245.89C359.459 255.847 362.258 267.937 364.125 282.162C365.991 296.03 366.925 310.966 366.925 326.968C366.925 347.237 365.561 366.617 362.833 385.109C360.105 403.245 355.726 419.069 349.695 432.582C343.665 445.384 337.42 454.451 330.959 459.786C324.498 465.12 317.319 467.787 309.422 467.787C295.495 467.787 284.368 458.541 276.041 440.05C267.713 421.558 263.549 395.066 263.549 360.572H282.932C282.932 405.734 292.121 428.315 310.499 428.315C316.529 428.315 321.842 425.825 326.436 420.847C331.03 415.513 334.835 408.401 337.85 399.511C341.009 390.265 343.378 379.597 344.957 367.506C346.68 355.416 347.542 342.614 347.542 329.101C347.542 304.565 344.957 285.718 339.789 272.56C334.62 259.403 327.082 252.824 317.175 252.824C311.719 252.824 306.479 256.203 301.454 262.959C296.428 269.36 292.624 278.25 290.039 289.629H273.672L297.362 90.1358H374.678L371.447 130.141Z"/>
<path d="M429.524 461.919H410.141L434.908 174.414C428.016 178.325 421.483 181.17 415.309 182.948C409.136 184.371 402.531 185.082 395.496 185.082L398.511 148.81C403.249 148.81 407.987 147.566 412.725 145.076C417.607 142.232 422.273 138.142 426.724 132.808C431.175 127.119 435.195 120.184 438.784 112.005C442.517 103.827 445.532 94.403 447.83 83.7349H462.044L429.524 461.919Z"/>
<path d="M497.576 567C505.329 544.597 512.436 521.127 518.897 496.591C525.358 472.054 530.814 446.628 535.264 420.314C539.859 393.999 543.377 366.617 545.817 338.169C548.402 309.721 549.694 280.206 549.694 249.624C549.694 219.398 548.832 189.527 547.11 160.012C545.387 130.141 542.515 100.804 538.495 72H550.555C553.14 86.2241 555.437 101.693 557.447 118.406C559.601 134.764 561.467 151.477 563.047 168.546C564.626 185.615 565.846 202.684 566.708 219.753C567.569 236.822 568 253.18 568 268.826C568 299.408 566.564 328.034 563.693 354.705C560.821 381.019 556.873 406.267 551.848 430.448C546.966 454.274 541.151 477.388 534.403 499.791C527.655 522.194 520.404 544.597 512.651 567H497.576Z"/>
</mask>
<path d="M90.4446 567C87.8602 553.131 85.4912 538.018 83.3375 521.661C81.1839 505.303 79.3174 488.589 77.738 471.52C76.3023 454.451 75.1537 437.383 74.2922 420.314C73.4307 402.889 73 386.531 73 371.24C73 341.014 74.364 312.566 77.0919 285.895C79.9635 259.225 83.84 233.8 88.7217 209.619C93.7468 185.082 99.6335 161.612 106.382 139.209C113.273 116.45 120.667 94.0474 128.564 72H143.64C135.887 95.1142 128.78 118.94 122.319 143.476C115.858 168.013 110.33 193.439 105.736 219.753C101.141 246.068 97.5516 273.449 94.9672 301.898C92.5264 329.99 91.306 359.505 91.306 390.443C91.306 420.669 92.1675 450.362 93.8904 479.522C95.6133 509.037 98.4849 538.196 102.505 567H90.4446Z" fill="black"/>
<path d="M204.612 246.423C209.493 247.135 214.375 246.957 219.256 245.89C224.282 244.468 228.804 241.445 232.824 236.822C236.988 231.844 240.362 224.554 242.947 214.953C245.531 205.351 246.823 192.372 246.823 176.014C246.823 164.635 246.034 155.567 244.454 148.81C243.018 142.054 241.08 136.898 238.639 133.342C236.199 129.43 233.399 126.941 230.24 125.874C227.225 124.451 224.138 123.74 220.979 123.74C212.365 123.74 205.33 129.963 199.874 142.409C194.561 154.5 191.259 173.88 189.967 200.551H170.584C171.445 184.904 173.097 170.147 175.537 156.278C177.978 142.054 181.28 129.608 185.444 118.94C189.608 108.272 194.705 99.7371 200.735 93.3362C206.765 86.9353 213.872 83.7349 222.056 83.7349C235.552 83.7349 246.249 91.5582 254.146 107.205C262.186 122.496 266.206 146.143 266.206 178.148C266.206 189.171 265.416 199.484 263.837 209.085C262.258 218.331 260.176 226.687 257.591 234.155C255.151 241.623 252.279 248.024 248.977 253.358C245.675 258.336 242.301 262.07 238.855 264.559C246.321 272.738 251.489 283.584 254.361 297.097C257.233 310.61 258.668 325.901 258.668 342.97C258.668 356.127 257.52 370.173 255.222 385.109C253.069 399.689 249.695 413.201 245.1 425.648C240.649 437.738 234.978 447.873 228.086 456.052C221.195 463.875 213.011 467.787 203.535 467.787C188.459 467.787 176.614 458.008 168 438.449C159.529 418.536 155.365 387.42 155.508 345.103H174.891C174.748 355.416 175.035 365.551 175.753 375.508C176.471 385.464 177.906 394.355 180.06 402.178C182.214 410.001 185.229 416.402 189.105 421.38C192.982 426.003 197.935 428.315 203.966 428.315C209.134 428.315 213.872 426.359 218.18 422.447C222.487 418.536 226.148 413.024 229.163 405.912C232.322 398.8 234.763 390.087 236.486 379.775C238.352 369.462 239.285 357.905 239.285 345.103C239.285 330.524 238.137 319.144 235.84 310.965C233.686 302.787 230.814 296.564 227.225 292.296C223.636 288.029 219.544 285.362 214.949 284.295C210.498 283.228 205.976 282.695 201.381 282.695L204.612 246.423Z" fill="black"/>
<path d="M371.447 130.141H308.776L296.716 232.555L297.146 233.622C300.879 226.51 305.115 221.353 309.853 218.153C314.591 214.597 319.329 212.819 324.067 212.819C330.959 212.819 337.061 215.842 342.373 221.887C347.685 227.576 352.136 235.578 355.726 245.89C359.459 255.847 362.258 267.937 364.125 282.162C365.991 296.03 366.925 310.966 366.925 326.968C366.925 347.237 365.561 366.617 362.833 385.109C360.105 403.245 355.726 419.069 349.695 432.582C343.665 445.384 337.42 454.451 330.959 459.786C324.498 465.12 317.319 467.787 309.422 467.787C295.495 467.787 284.368 458.541 276.041 440.05C267.713 421.558 263.549 395.066 263.549 360.572H282.932C282.932 405.734 292.121 428.315 310.499 428.315C316.529 428.315 321.842 425.825 326.436 420.847C331.03 415.513 334.835 408.401 337.85 399.511C341.009 390.265 343.378 379.597 344.957 367.506C346.68 355.416 347.542 342.614 347.542 329.101C347.542 304.565 344.957 285.718 339.789 272.56C334.62 259.403 327.082 252.824 317.175 252.824C311.719 252.824 306.479 256.203 301.454 262.959C296.428 269.36 292.624 278.25 290.039 289.629H273.672L297.362 90.1358H374.678L371.447 130.141Z" fill="black"/>
<path d="M429.524 461.919H410.141L434.908 174.414C428.016 178.325 421.483 181.17 415.309 182.948C409.136 184.371 402.531 185.082 395.496 185.082L398.511 148.81C403.249 148.81 407.987 147.566 412.725 145.076C417.607 142.232 422.273 138.142 426.724 132.808C431.175 127.119 435.195 120.184 438.784 112.005C442.517 103.827 445.532 94.403 447.83 83.7349H462.044L429.524 461.919Z" fill="black"/>
<path d="M497.576 567C505.329 544.597 512.436 521.127 518.897 496.591C525.358 472.054 530.814 446.628 535.264 420.314C539.859 393.999 543.377 366.617 545.817 338.169C548.402 309.721 549.694 280.206 549.694 249.624C549.694 219.398 548.832 189.527 547.11 160.012C545.387 130.141 542.515 100.804 538.495 72H550.555C553.14 86.2241 555.437 101.693 557.447 118.406C559.601 134.764 561.467 151.477 563.047 168.546C564.626 185.615 565.846 202.684 566.708 219.753C567.569 236.822 568 253.18 568 268.826C568 299.408 566.564 328.034 563.693 354.705C560.821 381.019 556.873 406.267 551.848 430.448C546.966 454.274 541.151 477.388 534.403 499.791C527.655 522.194 520.404 544.597 512.651 567H497.576Z" fill="black"/>
<path d="M90.4446 567C87.8602 553.131 85.4912 538.018 83.3375 521.661C81.1839 505.303 79.3174 488.589 77.738 471.52C76.3023 454.451 75.1537 437.383 74.2922 420.314C73.4307 402.889 73 386.531 73 371.24C73 341.014 74.364 312.566 77.0919 285.895C79.9635 259.225 83.84 233.8 88.7217 209.619C93.7468 185.082 99.6335 161.612 106.382 139.209C113.273 116.45 120.667 94.0474 128.564 72H143.64C135.887 95.1142 128.78 118.94 122.319 143.476C115.858 168.013 110.33 193.439 105.736 219.753C101.141 246.068 97.5516 273.449 94.9672 301.898C92.5264 329.99 91.306 359.505 91.306 390.443C91.306 420.669 92.1675 450.362 93.8904 479.522C95.6133 509.037 98.4849 538.196 102.505 567H90.4446Z" stroke="#C4C4C4" stroke-width="110" mask="url(#path-1-outside-1_229_239)"/>
<path d="M204.612 246.423C209.493 247.135 214.375 246.957 219.256 245.89C224.282 244.468 228.804 241.445 232.824 236.822C236.988 231.844 240.362 224.554 242.947 214.953C245.531 205.351 246.823 192.372 246.823 176.014C246.823 164.635 246.034 155.567 244.454 148.81C243.018 142.054 241.08 136.898 238.639 133.342C236.199 129.43 233.399 126.941 230.24 125.874C227.225 124.451 224.138 123.74 220.979 123.74C212.365 123.74 205.33 129.963 199.874 142.409C194.561 154.5 191.259 173.88 189.967 200.551H170.584C171.445 184.904 173.097 170.147 175.537 156.278C177.978 142.054 181.28 129.608 185.444 118.94C189.608 108.272 194.705 99.7371 200.735 93.3362C206.765 86.9353 213.872 83.7349 222.056 83.7349C235.552 83.7349 246.249 91.5582 254.146 107.205C262.186 122.496 266.206 146.143 266.206 178.148C266.206 189.171 265.416 199.484 263.837 209.085C262.258 218.331 260.176 226.687 257.591 234.155C255.151 241.623 252.279 248.024 248.977 253.358C245.675 258.336 242.301 262.07 238.855 264.559C246.321 272.738 251.489 283.584 254.361 297.097C257.233 310.61 258.668 325.901 258.668 342.97C258.668 356.127 257.52 370.173 255.222 385.109C253.069 399.689 249.695 413.201 245.1 425.648C240.649 437.738 234.978 447.873 228.086 456.052C221.195 463.875 213.011 467.787 203.535 467.787C188.459 467.787 176.614 458.008 168 438.449C159.529 418.536 155.365 387.42 155.508 345.103H174.891C174.748 355.416 175.035 365.551 175.753 375.508C176.471 385.464 177.906 394.355 180.06 402.178C182.214 410.001 185.229 416.402 189.105 421.38C192.982 426.003 197.935 428.315 203.966 428.315C209.134 428.315 213.872 426.359 218.18 422.447C222.487 418.536 226.148 413.024 229.163 405.912C232.322 398.8 234.763 390.087 236.486 379.775C238.352 369.462 239.285 357.905 239.285 345.103C239.285 330.524 238.137 319.144 235.84 310.965C233.686 302.787 230.814 296.564 227.225 292.296C223.636 288.029 219.544 285.362 214.949 284.295C210.498 283.228 205.976 282.695 201.381 282.695L204.612 246.423Z" stroke="#C4C4C4" stroke-width="110" mask="url(#path-1-outside-1_229_239)"/>
<path d="M371.447 130.141H308.776L296.716 232.555L297.146 233.622C300.879 226.51 305.115 221.353 309.853 218.153C314.591 214.597 319.329 212.819 324.067 212.819C330.959 212.819 337.061 215.842 342.373 221.887C347.685 227.576 352.136 235.578 355.726 245.89C359.459 255.847 362.258 267.937 364.125 282.162C365.991 296.03 366.925 310.966 366.925 326.968C366.925 347.237 365.561 366.617 362.833 385.109C360.105 403.245 355.726 419.069 349.695 432.582C343.665 445.384 337.42 454.451 330.959 459.786C324.498 465.12 317.319 467.787 309.422 467.787C295.495 467.787 284.368 458.541 276.041 440.05C267.713 421.558 263.549 395.066 263.549 360.572H282.932C282.932 405.734 292.121 428.315 310.499 428.315C316.529 428.315 321.842 425.825 326.436 420.847C331.03 415.513 334.835 408.401 337.85 399.511C341.009 390.265 343.378 379.597 344.957 367.506C346.68 355.416 347.542 342.614 347.542 329.101C347.542 304.565 344.957 285.718 339.789 272.56C334.62 259.403 327.082 252.824 317.175 252.824C311.719 252.824 306.479 256.203 301.454 262.959C296.428 269.36 292.624 278.25 290.039 289.629H273.672L297.362 90.1358H374.678L371.447 130.141Z" stroke="#C4C4C4" stroke-width="110" mask="url(#path-1-outside-1_229_239)"/>
<path d="M429.524 461.919H410.141L434.908 174.414C428.016 178.325 421.483 181.17 415.309 182.948C409.136 184.371 402.531 185.082 395.496 185.082L398.511 148.81C403.249 148.81 407.987 147.566 412.725 145.076C417.607 142.232 422.273 138.142 426.724 132.808C431.175 127.119 435.195 120.184 438.784 112.005C442.517 103.827 445.532 94.403 447.83 83.7349H462.044L429.524 461.919Z" stroke="#C4C4C4" stroke-width="110" mask="url(#path-1-outside-1_229_239)"/>
<path d="M497.576 567C505.329 544.597 512.436 521.127 518.897 496.591C525.358 472.054 530.814 446.628 535.264 420.314C539.859 393.999 543.377 366.617 545.817 338.169C548.402 309.721 549.694 280.206 549.694 249.624C549.694 219.398 548.832 189.527 547.11 160.012C545.387 130.141 542.515 100.804 538.495 72H550.555C553.14 86.2241 555.437 101.693 557.447 118.406C559.601 134.764 561.467 151.477 563.047 168.546C564.626 185.615 565.846 202.684 566.708 219.753C567.569 236.822 568 253.18 568 268.826C568 299.408 566.564 328.034 563.693 354.705C560.821 381.019 556.873 406.267 551.848 430.448C546.966 454.274 541.151 477.388 534.403 499.791C527.655 522.194 520.404 544.597 512.651 567H497.576Z" stroke="#C4C4C4" stroke-width="110" mask="url(#path-1-outside-1_229_239)"/>
</svg>
