<svg width="55" height="52" viewBox="0 0 55 52" fill="none" xmlns="http://www.w3.org/2000/svg">
<mask id="path-1-outside-1_253_164" maskUnits="userSpaceOnUse" x="0" y="9" width="55" height="33" fill="black">
<rect fill="white" y="9" width="55" height="33"/>
<path d="M18.236 22.364L22.088 20.924L22.808 22.652L18.884 24.02L21.26 27.296L19.784 28.412L17.3 24.956L14.96 28.412L13.34 27.296L15.68 24.02L11.864 22.652L12.512 20.924L16.328 22.364V18.296H18.236V22.364ZM28.0123 22.364L31.8643 20.924L32.5843 22.652L28.6603 24.02L31.0363 27.296L29.5603 28.412L27.0763 24.956L24.7363 28.412L23.1163 27.296L25.4563 24.02L21.6402 22.652L22.2882 20.924L26.1042 22.364V18.296H28.0123V22.364ZM37.7885 22.364L41.6405 20.924L42.3605 22.652L38.4365 24.02L40.8125 27.296L39.3365 28.412L36.8525 24.956L34.5125 28.412L32.8925 27.296L35.2325 24.02L31.4165 22.652L32.0645 20.924L35.8805 22.364V18.296H37.7885V22.364Z"/>
</mask>
<path d="M18.236 22.364L22.088 20.924L22.808 22.652L18.884 24.02L21.26 27.296L19.784 28.412L17.3 24.956L14.96 28.412L13.34 27.296L15.68 24.02L11.864 22.652L12.512 20.924L16.328 22.364V18.296H18.236V22.364ZM28.0123 22.364L31.8643 20.924L32.5843 22.652L28.6603 24.02L31.0363 27.296L29.5603 28.412L27.0763 24.956L24.7363 28.412L23.1163 27.296L25.4563 24.02L21.6402 22.652L22.2882 20.924L26.1042 22.364V18.296H28.0123V22.364ZM37.7885 22.364L41.6405 20.924L42.3605 22.652L38.4365 24.02L40.8125 27.296L39.3365 28.412L36.8525 24.956L34.5125 28.412L32.8925 27.296L35.2325 24.02L31.4165 22.652L32.0645 20.924L35.8805 22.364V18.296H37.7885V22.364Z" fill="black"/>
<path d="M18.236 22.364H9.236V35.3368L21.3875 30.7942L18.236 22.364ZM22.088 20.924L30.3957 17.4625L27.0601 9.45696L18.9365 12.4938L22.088 20.924ZM22.808 22.652L25.7707 31.1504L34.789 28.0064L31.1157 19.1905L22.808 22.652ZM18.884 24.02L15.9213 15.5216L4.49225 19.5061L11.5985 29.304L18.884 24.02ZM21.26 27.296L26.688 34.4749L33.7254 29.1539L28.5455 22.012L21.26 27.296ZM19.784 28.412L12.4759 33.6647L17.8572 41.1518L25.212 35.5909L19.784 28.412ZM17.3 24.956L24.6081 19.7033L17.0796 9.22885L9.84757 19.9101L17.3 24.956ZM14.96 28.412L9.85425 35.8236L17.3257 40.9706L22.4124 33.4579L14.96 28.412ZM13.34 27.296L6.0164 22.0649L0.695455 29.5142L8.23425 34.7076L13.34 27.296ZM15.68 24.02L23.0036 29.2511L29.9223 19.5649L18.7172 15.5479L15.68 24.02ZM11.864 22.652L3.43704 19.4919L0.230602 28.0424L8.82685 31.1241L11.864 22.652ZM12.512 20.924L15.6895 12.5036L7.25169 9.3195L4.08504 17.7639L12.512 20.924ZM16.328 22.364L13.1505 30.7844L25.328 35.3797V22.364H16.328ZM16.328 18.296V9.296H7.328V18.296H16.328ZM18.236 18.296H27.236V9.296H18.236V18.296ZM21.3875 30.7942L25.2395 29.3542L18.9365 12.4938L15.0845 13.9338L21.3875 30.7942ZM13.7803 24.3855L14.5003 26.1135L31.1157 19.1905L30.3957 17.4625L13.7803 24.3855ZM19.8453 14.1536L15.9213 15.5216L21.8467 32.5184L25.7707 31.1504L19.8453 14.1536ZM11.5985 29.304L13.9745 32.58L28.5455 22.012L26.1695 18.736L11.5985 29.304ZM15.832 20.1171L14.356 21.2331L25.212 35.5909L26.688 34.4749L15.832 20.1171ZM27.0921 23.1593L24.6081 19.7033L9.99186 30.2087L12.4759 33.6647L27.0921 23.1593ZM9.84757 19.9101L7.50757 23.3661L22.4124 33.4579L24.7524 30.0019L9.84757 19.9101ZM20.0657 21.0004L18.4457 19.8844L8.23425 34.7076L9.85425 35.8236L20.0657 21.0004ZM20.6636 32.5271L23.0036 29.2511L8.3564 18.7889L6.0164 22.0649L20.6636 32.5271ZM18.7172 15.5479L14.9012 14.1799L8.82685 31.1241L12.6428 32.4921L18.7172 15.5479ZM20.291 25.8121L20.939 24.0841L4.08504 17.7639L3.43704 19.4919L20.291 25.8121ZM9.33448 29.3444L13.1505 30.7844L19.5055 13.9436L15.6895 12.5036L9.33448 29.3444ZM25.328 22.364V18.296H7.328V22.364H25.328ZM16.328 27.296H18.236V9.296H16.328V27.296ZM9.236 18.296V22.364H27.236V18.296H9.236ZM28.0123 22.364H19.0122V35.3368L31.1637 30.7942L28.0123 22.364ZM31.8643 20.924L40.1719 17.4625L36.8363 9.45696L28.7128 12.4938L31.8643 20.924ZM32.5842 22.652L35.547 31.1504L44.5652 28.0064L40.8919 19.1905L32.5842 22.652ZM28.6602 24.02L25.6975 15.5216L14.2685 19.5061L21.3747 29.304L28.6602 24.02ZM31.0363 27.296L36.4642 34.4749L43.5017 29.1539L38.3218 22.012L31.0363 27.296ZM29.5603 28.412L22.2521 33.6647L27.6335 41.1518L34.9882 35.5909L29.5603 28.412ZM27.0763 24.956L34.3844 19.7033L26.8559 9.22885L19.6238 19.9101L27.0763 24.956ZM24.7362 28.412L19.6305 35.8236L27.102 40.9706L32.1887 33.4579L24.7362 28.412ZM23.1163 27.296L15.7926 22.0649L10.4717 29.5142L18.0105 34.7076L23.1163 27.296ZM25.4563 24.02L32.7799 29.2511L39.6986 19.5649L28.4934 15.5479L25.4563 24.02ZM21.6403 22.652L13.2133 19.4919L10.0069 28.0424L18.6031 31.1241L21.6403 22.652ZM22.2882 20.924L25.4658 12.5036L17.0279 9.3195L13.8613 17.7639L22.2882 20.924ZM26.1042 22.364L22.9267 30.7844L35.1042 35.3797V22.364H26.1042ZM26.1042 18.296V9.296H17.1042V18.296H26.1042ZM28.0123 18.296H37.0123V9.296H28.0123V18.296ZM31.1637 30.7942L35.0157 29.3542L28.7128 12.4938L24.8608 13.9338L31.1637 30.7942ZM23.5566 24.3855L24.2766 26.1135L40.8919 19.1905L40.1719 17.4625L23.5566 24.3855ZM29.6215 14.1536L25.6975 15.5216L31.623 32.5184L35.547 31.1504L29.6215 14.1536ZM21.3747 29.304L23.7507 32.58L38.3218 22.012L35.9458 18.736L21.3747 29.304ZM25.6083 20.1171L24.1323 21.2331L34.9882 35.5909L36.4642 34.4749L25.6083 20.1171ZM36.8684 23.1593L34.3844 19.7033L19.7681 30.2087L22.2521 33.6647L36.8684 23.1593ZM19.6238 19.9101L17.2838 23.3661L32.1887 33.4579L34.5287 30.0019L19.6238 19.9101ZM29.842 21.0004L28.222 19.8844L18.0105 34.7076L19.6305 35.8236L29.842 21.0004ZM30.4399 32.5271L32.7799 29.2511L18.1326 18.7889L15.7926 22.0649L30.4399 32.5271ZM28.4934 15.5479L24.6774 14.1799L18.6031 31.1241L22.4191 32.4921L28.4934 15.5479ZM30.0672 25.8121L30.7152 24.0841L13.8613 17.7639L13.2133 19.4919L30.0672 25.8121ZM19.1107 29.3444L22.9267 30.7844L29.2818 13.9436L25.4658 12.5036L19.1107 29.3444ZM35.1042 22.364V18.296H17.1042V22.364H35.1042ZM26.1042 27.296H28.0123V9.296H26.1042V27.296ZM19.0122 18.296V22.364H37.0123V18.296H19.0122ZM37.7885 22.364H28.7885V35.3368L40.94 30.7942L37.7885 22.364ZM41.6405 20.924L49.9482 17.4625L46.6126 9.45696L38.489 12.4938L41.6405 20.924ZM42.3605 22.652L45.3232 31.1504L54.3415 28.0064L50.6682 19.1905L42.3605 22.652ZM38.4365 24.02L35.4738 15.5216L24.0447 19.5061L31.151 29.304L38.4365 24.02ZM40.8125 27.296L46.2405 34.4749L53.2779 29.1539L48.098 22.012L40.8125 27.296ZM39.3365 28.412L32.0284 33.6647L37.4097 41.1518L44.7645 35.5909L39.3365 28.412ZM36.8525 24.956L44.1606 19.7033L36.6322 9.22885L29.4001 19.9101L36.8525 24.956ZM34.5125 28.412L29.4068 35.8236L36.8782 40.9706L41.9649 33.4579L34.5125 28.412ZM32.8925 27.296L25.5689 22.0649L20.248 29.5142L27.7868 34.7076L32.8925 27.296ZM35.2325 24.02L42.5561 29.2511L49.4748 19.5649L38.2697 15.5479L35.2325 24.02ZM31.4165 22.652L22.9895 19.4919L19.7831 28.0424L28.3793 31.1241L31.4165 22.652ZM32.0645 20.924L35.242 12.5036L26.8042 9.3195L23.6375 17.7639L32.0645 20.924ZM35.8805 22.364L32.703 30.7844L44.8805 35.3797V22.364H35.8805ZM35.8805 18.296V9.296H26.8805V18.296H35.8805ZM37.7885 18.296H46.7885V9.296H37.7885V18.296ZM40.94 30.7942L44.792 29.3542L38.489 12.4938L34.637 13.9338L40.94 30.7942ZM33.3328 24.3855L34.0528 26.1135L50.6682 19.1905L49.9482 17.4625L33.3328 24.3855ZM39.3978 14.1536L35.4738 15.5216L41.3992 32.5184L45.3232 31.1504L39.3978 14.1536ZM31.151 29.304L33.527 32.58L48.098 22.012L45.722 18.736L31.151 29.304ZM35.3845 20.1171L33.9085 21.2331L44.7645 35.5909L46.2405 34.4749L35.3845 20.1171ZM46.6446 23.1593L44.1606 19.7033L29.5444 30.2087L32.0284 33.6647L46.6446 23.1593ZM29.4001 19.9101L27.0601 23.3661L41.9649 33.4579L44.3049 30.0019L29.4001 19.9101ZM39.6182 21.0004L37.9982 19.8844L27.7868 34.7076L29.4068 35.8236L39.6182 21.0004ZM40.2161 32.5271L42.5561 29.2511L27.9089 18.7889L25.5689 22.0649L40.2161 32.5271ZM38.2697 15.5479L34.4537 14.1799L28.3793 31.1241L32.1953 32.4921L38.2697 15.5479ZM39.8435 25.8121L40.4915 24.0841L23.6375 17.7639L22.9895 19.4919L39.8435 25.8121ZM28.887 29.3444L32.703 30.7844L39.058 13.9436L35.242 12.5036L28.887 29.3444ZM44.8805 22.364V18.296H26.8805V22.364H44.8805ZM35.8805 27.296H37.7885V9.296H35.8805V27.296ZM28.7885 18.296V22.364H46.7885V18.296H28.7885Z" fill="#C4C4C4" mask="url(#path-1-outside-1_253_164)"/>
</svg>
