<svg width="34" height="10" viewBox="0 0 34 10" fill="none" xmlns="http://www.w3.org/2000/svg">
<path d="M33.5 5C33.5 5.44338 33.1916 5.97036 32.3786 6.53572C31.5803 7.09084 30.3925 7.61092 28.8797 8.05585C25.8608 8.94378 21.6605 9.5 17 9.5C12.3395 9.5 8.13923 8.94378 5.12027 8.05585C3.60751 7.61092 2.41971 7.09084 1.6214 6.53572C0.808374 5.97036 0.5 5.44338 0.5 5C0.5 4.55662 0.808374 4.02964 1.6214 3.46428C2.41971 2.90916 3.60751 2.38908 5.12027 1.94415C8.13923 1.05622 12.3395 0.5 17 0.5C21.6605 0.5 25.8608 1.05622 28.8797 1.94415C30.3925 2.38908 31.5803 2.90916 32.3786 3.46428C33.1916 4.02964 33.5 4.55662 33.5 5Z" fill="white" stroke="black"/>
</svg>
