<svg width="641" height="324" viewBox="0 0 641 324" fill="none" xmlns="http://www.w3.org/2000/svg">
<mask id="path-1-outside-1_323_167" maskUnits="userSpaceOnUse" x="-132" y="2" width="779" height="315" fill="black">
<rect fill="white" x="-132" y="2" width="779" height="315"/>
<path d="M-105 90.7769H-91.2014V151.667H-48.6694V90.7769H-34.8709V243.593H-48.6694V173.245H-91.2014V243.593H-105V90.7769Z"/>
<path d="M-3.93446 246.845C-7.7223 246.845 -11.2937 246.057 -14.6486 244.48C-18.0036 243.101 -20.9797 240.736 -23.5771 237.386C-26.0663 233.839 -28.0684 229.405 -29.5835 224.085C-30.9904 218.567 -31.6939 211.966 -31.6939 204.281C-31.6939 195.61 -30.8822 188.516 -29.2589 182.999C-27.6355 177.481 -25.5251 173.048 -22.9278 169.698C-20.2222 166.151 -17.1919 163.49 -13.837 161.717C-10.3738 159.943 -6.85651 158.465 -3.28512 157.283C0.502724 155.904 4.07411 154.918 7.42905 154.327C10.8922 153.539 13.9225 152.554 16.5199 151.371C19.1172 149.992 21.1735 148.12 22.6886 145.755C24.2038 143.194 24.9613 139.548 24.9613 134.819C24.9613 129.301 24.3661 124.867 23.1756 121.518C22.0934 118.168 20.6324 115.606 18.7926 113.832C17.061 112.059 15.0588 110.877 12.7861 110.285C10.6217 109.694 8.45718 109.399 6.29271 109.399C0.448616 109.399 -4.42147 111.468 -8.31754 115.606C-12.2136 119.547 -14.324 127.134 -14.6486 138.366H-28.4472C-28.2307 128.907 -27.1485 120.926 -25.2005 114.424C-23.2524 107.921 -20.6551 102.699 -17.4083 98.7576C-14.1616 94.6195 -10.482 91.6636 -6.3695 89.8901C-2.14877 88.1166 2.34253 87.2299 7.10439 87.2299C10.8922 87.2299 14.626 87.7225 18.3056 88.7078C22.0934 89.6931 25.5025 91.7622 28.5327 94.9151C31.563 97.8709 33.998 102.108 35.8378 107.625C37.6777 113.143 38.5976 120.335 38.5976 129.203V207.828C38.5976 213.74 38.7599 218.075 39.0846 220.834C39.5175 223.592 40.8161 224.972 42.9806 224.972C43.9547 224.972 45.3616 224.479 47.2014 223.494V243.002C44.8204 245.564 41.5196 246.845 37.2989 246.845C33.7275 246.845 30.8595 245.071 28.6951 241.524C26.6388 237.78 25.6107 231.77 25.6107 223.494C21.8228 231.77 17.3857 237.78 12.2991 241.524C7.32083 245.071 1.90963 246.845 -3.93446 246.845ZM-0.850082 224.972C3.69533 224.972 7.59139 223.888 10.8381 221.72C14.0848 219.356 16.7363 216.498 18.7926 213.148C20.8488 209.601 22.364 205.857 23.338 201.916C24.312 197.778 24.799 193.935 24.799 190.388V164.673C23.0674 167.234 20.7947 169.008 17.9809 169.993C15.1671 170.978 12.1909 171.865 9.05241 172.653C6.02214 173.442 2.93776 174.23 -0.200737 175.018C-3.33923 175.806 -6.15305 177.186 -8.6422 179.156C-11.1314 181.127 -13.1876 183.984 -14.811 187.728C-16.3261 191.275 -17.0837 196.202 -17.0837 202.507C-17.0837 206.646 -16.6508 210.193 -15.785 213.148C-14.811 215.907 -13.6205 218.173 -12.2136 219.947C-10.6985 221.72 -8.96687 223.001 -7.01884 223.789C-5.07081 224.578 -3.01456 224.972 -0.850082 224.972Z"/>
<path d="M47.0568 90.7769H60.8553V215.513L100.465 90.7769H118.16V243.593H104.361V118.857L64.7514 243.593H47.0568V90.7769ZM82.6084 68.3126C79.3616 68.3126 76.3314 67.4258 73.5175 65.6523C70.7037 63.8788 68.2146 61.3171 66.0501 57.9672C63.9938 54.6172 62.3163 50.5776 61.0177 45.8482C59.8272 40.9219 59.232 35.3058 59.232 29H70.7578C70.9743 43.5821 74.8703 50.8732 82.446 50.8732C86.2339 50.8732 89.1018 49.0011 91.0498 45.2571C93.1061 41.316 94.1342 35.8969 94.1342 29H105.66C105.66 34.9117 105.065 40.3307 103.874 45.2571C102.684 50.1835 101.061 54.3216 99.0043 57.6716C96.948 61.0215 94.513 63.6818 91.6992 65.6523C88.8853 67.4258 85.8551 68.3126 82.6084 68.3126Z"/>
<path d="M116.115 221.425H126.018C127.208 217.287 128.399 211.67 129.589 204.576C130.888 197.285 132.024 189.305 132.998 180.634C134.081 171.767 134.946 162.407 135.596 152.554C136.245 142.701 136.57 133.045 136.57 123.587V90.7769H197.283V221.425H208.647V290H195.498V243.593H129.265V290H116.115V221.425ZM183.485 221.425V112.946H150.044V125.951C150.044 135.607 149.719 145.263 149.07 154.918C148.529 164.377 147.771 173.343 146.797 181.817C145.823 190.29 144.741 197.975 143.55 204.872C142.468 211.769 141.386 217.287 140.304 221.425H183.485Z"/>
<path d="M208.625 90.7769H222.424V215.513L262.034 90.7769H279.729V243.593H265.93V118.857L226.32 243.593H208.625V90.7769Z"/>
<path d="M354.521 246.845C348.136 246.845 342.454 244.973 337.476 241.229C332.606 237.485 328.493 232.164 325.138 225.267C321.892 218.37 319.402 210.193 317.671 200.734C316.047 191.275 315.236 180.733 315.236 169.106C315.236 157.677 316.047 147.036 317.671 137.183C319.294 127.134 321.729 118.463 324.976 111.172C328.331 103.684 332.443 97.8709 337.313 93.7327C342.292 89.3975 348.136 87.2299 354.846 87.2299C359.608 87.2299 364.045 88.3137 368.157 90.4813C372.378 92.4519 376.058 95.6048 379.196 99.94C382.443 104.275 385.094 109.793 387.151 116.493C389.207 122.995 390.506 130.779 391.047 139.844H376.761C375.679 130.188 373.406 122.7 369.943 117.379C366.48 112.059 361.826 109.399 355.982 109.399C351.004 109.399 346.837 111.074 343.482 114.424C340.127 117.773 337.422 122.207 335.365 127.725C333.417 133.242 332.01 139.647 331.145 146.938C330.279 154.032 329.846 161.421 329.846 169.106C329.846 176.2 330.279 183.097 331.145 189.797C332.119 196.497 333.58 202.507 335.528 207.828C337.476 212.951 339.965 217.089 342.995 220.242C346.134 223.395 349.922 224.972 354.359 224.972C361.177 224.972 366.48 221.72 370.268 215.217C374.164 208.715 376.545 199.552 377.41 187.728H391.534C390.019 206.843 386.177 221.523 380.008 231.77C373.839 241.82 365.343 246.845 354.521 246.845Z"/>
<path d="M393.986 90.7769H432.785C436.464 90.7769 439.982 91.2695 443.337 92.2548C446.8 93.2401 449.884 95.1121 452.59 97.8709C455.295 100.433 457.46 104.177 459.083 109.103C460.706 114.029 461.518 120.335 461.518 128.02C461.518 136.297 460.436 142.997 458.271 148.12C456.107 153.243 453.077 157.48 449.181 160.83V161.126C454.051 162.899 457.893 167.037 460.706 173.54C463.629 180.043 465.09 188.418 465.09 198.665C465.09 205.168 464.44 211.178 463.142 216.695C461.951 222.213 460.219 226.942 457.947 230.883C455.674 234.824 452.969 237.977 449.83 240.342C446.692 242.51 443.282 243.593 439.603 243.593H393.986V90.7769ZM437.005 222.311C441.551 222.311 444.96 219.947 447.233 215.217C449.614 210.291 450.804 204.182 450.804 196.891C450.804 189.994 449.559 184.477 447.07 180.339C444.581 176.2 440.414 174.131 434.57 174.131H407.623V222.311H437.005ZM431.324 153.441C437.276 153.441 441.389 151.47 443.661 147.529C446.042 143.588 447.233 138.366 447.233 131.863C447.233 125.557 446.096 120.729 443.824 117.379C441.551 113.832 437.384 112.059 431.324 112.059H407.623V153.441H431.324Z"/>
<path d="M504.868 246.845C498.158 246.845 492.26 244.874 487.174 240.933C482.195 236.795 477.975 231.179 474.511 224.085C471.048 216.794 468.451 208.32 466.719 198.665C464.988 189.009 464.122 178.565 464.122 167.333C464.122 156.101 464.988 145.657 466.719 136.001C468.451 126.148 471.048 117.675 474.511 110.581C477.975 103.29 482.195 97.5753 487.174 93.4371C492.26 89.299 498.158 87.2299 504.868 87.2299C511.47 87.2299 517.314 89.299 522.401 93.4371C527.487 97.5753 531.762 103.29 535.225 110.581C538.688 117.675 541.286 126.148 543.017 136.001C544.749 145.657 545.615 156.101 545.615 167.333C545.615 178.565 544.749 189.009 543.017 198.665C541.286 208.32 538.688 216.794 535.225 224.085C531.762 231.179 527.487 236.795 522.401 240.933C517.314 244.874 511.47 246.845 504.868 246.845ZM504.868 224.972C508.44 224.972 511.795 223.691 514.933 221.129C518.18 218.567 520.994 214.922 523.375 210.193C525.755 205.266 527.595 199.256 528.894 192.162C530.301 184.871 531.004 176.595 531.004 167.333C531.004 158.071 530.301 149.894 528.894 142.8C527.595 135.508 525.755 129.4 523.375 124.473C520.994 119.547 518.18 115.803 514.933 113.241C511.795 110.679 508.44 109.399 504.868 109.399C501.297 109.399 497.888 110.679 494.641 113.241C491.503 115.803 488.743 119.547 486.362 124.473C483.981 129.4 482.087 135.508 480.68 142.8C479.382 149.894 478.732 158.071 478.732 167.333C478.732 176.595 479.382 184.871 480.68 192.162C482.087 199.256 483.981 205.266 486.362 210.193C488.743 214.922 491.503 218.567 494.641 221.129C497.888 223.691 501.297 224.972 504.868 224.972Z"/>
<path d="M548.897 90.7769H562.695V215.513L602.305 90.7769H620V243.593H606.201V118.857L566.591 243.593H548.897V90.7769ZM584.448 68.3126C581.202 68.3126 578.171 67.4258 575.358 65.6523C572.544 63.8788 570.055 61.3171 567.89 57.9672C565.834 54.6172 564.156 50.5776 562.858 45.8482C561.667 40.9219 561.072 35.3058 561.072 29H572.598C572.814 43.5821 576.71 50.8732 584.286 50.8732C588.074 50.8732 590.942 49.0011 592.89 45.2571C594.946 41.316 595.974 35.8969 595.974 29H607.5C607.5 34.9117 606.905 40.3307 605.714 45.2571C604.524 50.1835 602.901 54.3216 600.844 57.6716C598.788 61.0215 596.353 63.6818 593.539 65.6523C590.725 67.4258 587.695 68.3126 584.448 68.3126Z"/>
</mask>
<path d="M-105 90.7769H-91.2014V151.667H-48.6694V90.7769H-34.8709V243.593H-48.6694V173.245H-91.2014V243.593H-105V90.7769Z" fill="white"/>
<path d="M-3.93446 246.845C-7.7223 246.845 -11.2937 246.057 -14.6486 244.48C-18.0036 243.101 -20.9797 240.736 -23.5771 237.386C-26.0663 233.839 -28.0684 229.405 -29.5835 224.085C-30.9904 218.567 -31.6939 211.966 -31.6939 204.281C-31.6939 195.61 -30.8822 188.516 -29.2589 182.999C-27.6355 177.481 -25.5251 173.048 -22.9278 169.698C-20.2222 166.151 -17.1919 163.49 -13.837 161.717C-10.3738 159.943 -6.85651 158.465 -3.28512 157.283C0.502724 155.904 4.07411 154.918 7.42905 154.327C10.8922 153.539 13.9225 152.554 16.5199 151.371C19.1172 149.992 21.1735 148.12 22.6886 145.755C24.2038 143.194 24.9613 139.548 24.9613 134.819C24.9613 129.301 24.3661 124.867 23.1756 121.518C22.0934 118.168 20.6324 115.606 18.7926 113.832C17.061 112.059 15.0588 110.877 12.7861 110.285C10.6217 109.694 8.45718 109.399 6.29271 109.399C0.448616 109.399 -4.42147 111.468 -8.31754 115.606C-12.2136 119.547 -14.324 127.134 -14.6486 138.366H-28.4472C-28.2307 128.907 -27.1485 120.926 -25.2005 114.424C-23.2524 107.921 -20.6551 102.699 -17.4083 98.7576C-14.1616 94.6195 -10.482 91.6636 -6.3695 89.8901C-2.14877 88.1166 2.34253 87.2299 7.10439 87.2299C10.8922 87.2299 14.626 87.7225 18.3056 88.7078C22.0934 89.6931 25.5025 91.7622 28.5327 94.9151C31.563 97.8709 33.998 102.108 35.8378 107.625C37.6777 113.143 38.5976 120.335 38.5976 129.203V207.828C38.5976 213.74 38.7599 218.075 39.0846 220.834C39.5175 223.592 40.8161 224.972 42.9806 224.972C43.9547 224.972 45.3616 224.479 47.2014 223.494V243.002C44.8204 245.564 41.5196 246.845 37.2989 246.845C33.7275 246.845 30.8595 245.071 28.6951 241.524C26.6388 237.78 25.6107 231.77 25.6107 223.494C21.8228 231.77 17.3857 237.78 12.2991 241.524C7.32083 245.071 1.90963 246.845 -3.93446 246.845ZM-0.850082 224.972C3.69533 224.972 7.59139 223.888 10.8381 221.72C14.0848 219.356 16.7363 216.498 18.7926 213.148C20.8488 209.601 22.364 205.857 23.338 201.916C24.312 197.778 24.799 193.935 24.799 190.388V164.673C23.0674 167.234 20.7947 169.008 17.9809 169.993C15.1671 170.978 12.1909 171.865 9.05241 172.653C6.02214 173.442 2.93776 174.23 -0.200737 175.018C-3.33923 175.806 -6.15305 177.186 -8.6422 179.156C-11.1314 181.127 -13.1876 183.984 -14.811 187.728C-16.3261 191.275 -17.0837 196.202 -17.0837 202.507C-17.0837 206.646 -16.6508 210.193 -15.785 213.148C-14.811 215.907 -13.6205 218.173 -12.2136 219.947C-10.6985 221.72 -8.96687 223.001 -7.01884 223.789C-5.07081 224.578 -3.01456 224.972 -0.850082 224.972Z" fill="white"/>
<path d="M47.0568 90.7769H60.8553V215.513L100.465 90.7769H118.16V243.593H104.361V118.857L64.7514 243.593H47.0568V90.7769ZM82.6084 68.3126C79.3616 68.3126 76.3314 67.4258 73.5175 65.6523C70.7037 63.8788 68.2146 61.3171 66.0501 57.9672C63.9938 54.6172 62.3163 50.5776 61.0177 45.8482C59.8272 40.9219 59.232 35.3058 59.232 29H70.7578C70.9743 43.5821 74.8703 50.8732 82.446 50.8732C86.2339 50.8732 89.1018 49.0011 91.0498 45.2571C93.1061 41.316 94.1342 35.8969 94.1342 29H105.66C105.66 34.9117 105.065 40.3307 103.874 45.2571C102.684 50.1835 101.061 54.3216 99.0043 57.6716C96.948 61.0215 94.513 63.6818 91.6992 65.6523C88.8853 67.4258 85.8551 68.3126 82.6084 68.3126Z" fill="white"/>
<path d="M116.115 221.425H126.018C127.208 217.287 128.399 211.67 129.589 204.576C130.888 197.285 132.024 189.305 132.998 180.634C134.081 171.767 134.946 162.407 135.596 152.554C136.245 142.701 136.57 133.045 136.57 123.587V90.7769H197.283V221.425H208.647V290H195.498V243.593H129.265V290H116.115V221.425ZM183.485 221.425V112.946H150.044V125.951C150.044 135.607 149.719 145.263 149.07 154.918C148.529 164.377 147.771 173.343 146.797 181.817C145.823 190.29 144.741 197.975 143.55 204.872C142.468 211.769 141.386 217.287 140.304 221.425H183.485Z" fill="white"/>
<path d="M208.625 90.7769H222.424V215.513L262.034 90.7769H279.729V243.593H265.93V118.857L226.32 243.593H208.625V90.7769Z" fill="white"/>
<path d="M354.521 246.845C348.136 246.845 342.454 244.973 337.476 241.229C332.606 237.485 328.493 232.164 325.138 225.267C321.892 218.37 319.402 210.193 317.671 200.734C316.047 191.275 315.236 180.733 315.236 169.106C315.236 157.677 316.047 147.036 317.671 137.183C319.294 127.134 321.729 118.463 324.976 111.172C328.331 103.684 332.443 97.8709 337.313 93.7327C342.292 89.3975 348.136 87.2299 354.846 87.2299C359.608 87.2299 364.045 88.3137 368.157 90.4813C372.378 92.4519 376.058 95.6048 379.196 99.94C382.443 104.275 385.094 109.793 387.151 116.493C389.207 122.995 390.506 130.779 391.047 139.844H376.761C375.679 130.188 373.406 122.7 369.943 117.379C366.48 112.059 361.826 109.399 355.982 109.399C351.004 109.399 346.837 111.074 343.482 114.424C340.127 117.773 337.422 122.207 335.365 127.725C333.417 133.242 332.01 139.647 331.145 146.938C330.279 154.032 329.846 161.421 329.846 169.106C329.846 176.2 330.279 183.097 331.145 189.797C332.119 196.497 333.58 202.507 335.528 207.828C337.476 212.951 339.965 217.089 342.995 220.242C346.134 223.395 349.922 224.972 354.359 224.972C361.177 224.972 366.48 221.72 370.268 215.217C374.164 208.715 376.545 199.552 377.41 187.728H391.534C390.019 206.843 386.177 221.523 380.008 231.77C373.839 241.82 365.343 246.845 354.521 246.845Z" fill="white"/>
<path d="M393.986 90.7769H432.785C436.464 90.7769 439.982 91.2695 443.337 92.2548C446.8 93.2401 449.884 95.1121 452.59 97.8709C455.295 100.433 457.46 104.177 459.083 109.103C460.706 114.029 461.518 120.335 461.518 128.02C461.518 136.297 460.436 142.997 458.271 148.12C456.107 153.243 453.077 157.48 449.181 160.83V161.126C454.051 162.899 457.893 167.037 460.706 173.54C463.629 180.043 465.09 188.418 465.09 198.665C465.09 205.168 464.44 211.178 463.142 216.695C461.951 222.213 460.219 226.942 457.947 230.883C455.674 234.824 452.969 237.977 449.83 240.342C446.692 242.51 443.282 243.593 439.603 243.593H393.986V90.7769ZM437.005 222.311C441.551 222.311 444.96 219.947 447.233 215.217C449.614 210.291 450.804 204.182 450.804 196.891C450.804 189.994 449.559 184.477 447.07 180.339C444.581 176.2 440.414 174.131 434.57 174.131H407.623V222.311H437.005ZM431.324 153.441C437.276 153.441 441.389 151.47 443.661 147.529C446.042 143.588 447.233 138.366 447.233 131.863C447.233 125.557 446.096 120.729 443.824 117.379C441.551 113.832 437.384 112.059 431.324 112.059H407.623V153.441H431.324Z" fill="white"/>
<path d="M504.868 246.845C498.158 246.845 492.26 244.874 487.174 240.933C482.195 236.795 477.975 231.179 474.511 224.085C471.048 216.794 468.451 208.32 466.719 198.665C464.988 189.009 464.122 178.565 464.122 167.333C464.122 156.101 464.988 145.657 466.719 136.001C468.451 126.148 471.048 117.675 474.511 110.581C477.975 103.29 482.195 97.5753 487.174 93.4371C492.26 89.299 498.158 87.2299 504.868 87.2299C511.47 87.2299 517.314 89.299 522.401 93.4371C527.487 97.5753 531.762 103.29 535.225 110.581C538.688 117.675 541.286 126.148 543.017 136.001C544.749 145.657 545.615 156.101 545.615 167.333C545.615 178.565 544.749 189.009 543.017 198.665C541.286 208.32 538.688 216.794 535.225 224.085C531.762 231.179 527.487 236.795 522.401 240.933C517.314 244.874 511.47 246.845 504.868 246.845ZM504.868 224.972C508.44 224.972 511.795 223.691 514.933 221.129C518.18 218.567 520.994 214.922 523.375 210.193C525.755 205.266 527.595 199.256 528.894 192.162C530.301 184.871 531.004 176.595 531.004 167.333C531.004 158.071 530.301 149.894 528.894 142.8C527.595 135.508 525.755 129.4 523.375 124.473C520.994 119.547 518.18 115.803 514.933 113.241C511.795 110.679 508.44 109.399 504.868 109.399C501.297 109.399 497.888 110.679 494.641 113.241C491.503 115.803 488.743 119.547 486.362 124.473C483.981 129.4 482.087 135.508 480.68 142.8C479.382 149.894 478.732 158.071 478.732 167.333C478.732 176.595 479.382 184.871 480.68 192.162C482.087 199.256 483.981 205.266 486.362 210.193C488.743 214.922 491.503 218.567 494.641 221.129C497.888 223.691 501.297 224.972 504.868 224.972Z" fill="white"/>
<path d="M548.897 90.7769H562.695V215.513L602.305 90.7769H620V243.593H606.201V118.857L566.591 243.593H548.897V90.7769ZM584.448 68.3126C581.202 68.3126 578.171 67.4258 575.358 65.6523C572.544 63.8788 570.055 61.3171 567.89 57.9672C565.834 54.6172 564.156 50.5776 562.858 45.8482C561.667 40.9219 561.072 35.3058 561.072 29H572.598C572.814 43.5821 576.71 50.8732 584.286 50.8732C588.074 50.8732 590.942 49.0011 592.89 45.2571C594.946 41.316 595.974 35.8969 595.974 29H607.5C607.5 34.9117 606.905 40.3307 605.714 45.2571C604.524 50.1835 602.901 54.3216 600.844 57.6716C598.788 61.0215 596.353 63.6818 593.539 65.6523C590.725 67.4258 587.695 68.3126 584.448 68.3126Z" fill="white"/>
<path d="M-105 90.7769H-91.2014V151.667H-48.6694V90.7769H-34.8709V243.593H-48.6694V173.245H-91.2014V243.593H-105V90.7769Z" stroke="#C4C4C4" stroke-width="54" mask="url(#path-1-outside-1_323_167)"/>
<path d="M-3.93446 246.845C-7.7223 246.845 -11.2937 246.057 -14.6486 244.48C-18.0036 243.101 -20.9797 240.736 -23.5771 237.386C-26.0663 233.839 -28.0684 229.405 -29.5835 224.085C-30.9904 218.567 -31.6939 211.966 -31.6939 204.281C-31.6939 195.61 -30.8822 188.516 -29.2589 182.999C-27.6355 177.481 -25.5251 173.048 -22.9278 169.698C-20.2222 166.151 -17.1919 163.49 -13.837 161.717C-10.3738 159.943 -6.85651 158.465 -3.28512 157.283C0.502724 155.904 4.07411 154.918 7.42905 154.327C10.8922 153.539 13.9225 152.554 16.5199 151.371C19.1172 149.992 21.1735 148.12 22.6886 145.755C24.2038 143.194 24.9613 139.548 24.9613 134.819C24.9613 129.301 24.3661 124.867 23.1756 121.518C22.0934 118.168 20.6324 115.606 18.7926 113.832C17.061 112.059 15.0588 110.877 12.7861 110.285C10.6217 109.694 8.45718 109.399 6.29271 109.399C0.448616 109.399 -4.42147 111.468 -8.31754 115.606C-12.2136 119.547 -14.324 127.134 -14.6486 138.366H-28.4472C-28.2307 128.907 -27.1485 120.926 -25.2005 114.424C-23.2524 107.921 -20.6551 102.699 -17.4083 98.7576C-14.1616 94.6195 -10.482 91.6636 -6.3695 89.8901C-2.14877 88.1166 2.34253 87.2299 7.10439 87.2299C10.8922 87.2299 14.626 87.7225 18.3056 88.7078C22.0934 89.6931 25.5025 91.7622 28.5327 94.9151C31.563 97.8709 33.998 102.108 35.8378 107.625C37.6777 113.143 38.5976 120.335 38.5976 129.203V207.828C38.5976 213.74 38.7599 218.075 39.0846 220.834C39.5175 223.592 40.8161 224.972 42.9806 224.972C43.9547 224.972 45.3616 224.479 47.2014 223.494V243.002C44.8204 245.564 41.5196 246.845 37.2989 246.845C33.7275 246.845 30.8595 245.071 28.6951 241.524C26.6388 237.78 25.6107 231.77 25.6107 223.494C21.8228 231.77 17.3857 237.78 12.2991 241.524C7.32083 245.071 1.90963 246.845 -3.93446 246.845ZM-0.850082 224.972C3.69533 224.972 7.59139 223.888 10.8381 221.72C14.0848 219.356 16.7363 216.498 18.7926 213.148C20.8488 209.601 22.364 205.857 23.338 201.916C24.312 197.778 24.799 193.935 24.799 190.388V164.673C23.0674 167.234 20.7947 169.008 17.9809 169.993C15.1671 170.978 12.1909 171.865 9.05241 172.653C6.02214 173.442 2.93776 174.23 -0.200737 175.018C-3.33923 175.806 -6.15305 177.186 -8.6422 179.156C-11.1314 181.127 -13.1876 183.984 -14.811 187.728C-16.3261 191.275 -17.0837 196.202 -17.0837 202.507C-17.0837 206.646 -16.6508 210.193 -15.785 213.148C-14.811 215.907 -13.6205 218.173 -12.2136 219.947C-10.6985 221.72 -8.96687 223.001 -7.01884 223.789C-5.07081 224.578 -3.01456 224.972 -0.850082 224.972Z" stroke="#C4C4C4" stroke-width="54" mask="url(#path-1-outside-1_323_167)"/>
<path d="M47.0568 90.7769H60.8553V215.513L100.465 90.7769H118.16V243.593H104.361V118.857L64.7514 243.593H47.0568V90.7769ZM82.6084 68.3126C79.3616 68.3126 76.3314 67.4258 73.5175 65.6523C70.7037 63.8788 68.2146 61.3171 66.0501 57.9672C63.9938 54.6172 62.3163 50.5776 61.0177 45.8482C59.8272 40.9219 59.232 35.3058 59.232 29H70.7578C70.9743 43.5821 74.8703 50.8732 82.446 50.8732C86.2339 50.8732 89.1018 49.0011 91.0498 45.2571C93.1061 41.316 94.1342 35.8969 94.1342 29H105.66C105.66 34.9117 105.065 40.3307 103.874 45.2571C102.684 50.1835 101.061 54.3216 99.0043 57.6716C96.948 61.0215 94.513 63.6818 91.6992 65.6523C88.8853 67.4258 85.8551 68.3126 82.6084 68.3126Z" stroke="#C4C4C4" stroke-width="54" mask="url(#path-1-outside-1_323_167)"/>
<path d="M116.115 221.425H126.018C127.208 217.287 128.399 211.67 129.589 204.576C130.888 197.285 132.024 189.305 132.998 180.634C134.081 171.767 134.946 162.407 135.596 152.554C136.245 142.701 136.57 133.045 136.57 123.587V90.7769H197.283V221.425H208.647V290H195.498V243.593H129.265V290H116.115V221.425ZM183.485 221.425V112.946H150.044V125.951C150.044 135.607 149.719 145.263 149.07 154.918C148.529 164.377 147.771 173.343 146.797 181.817C145.823 190.29 144.741 197.975 143.55 204.872C142.468 211.769 141.386 217.287 140.304 221.425H183.485Z" stroke="#C4C4C4" stroke-width="54" mask="url(#path-1-outside-1_323_167)"/>
<path d="M208.625 90.7769H222.424V215.513L262.034 90.7769H279.729V243.593H265.93V118.857L226.32 243.593H208.625V90.7769Z" stroke="#C4C4C4" stroke-width="54" mask="url(#path-1-outside-1_323_167)"/>
<path d="M354.521 246.845C348.136 246.845 342.454 244.973 337.476 241.229C332.606 237.485 328.493 232.164 325.138 225.267C321.892 218.37 319.402 210.193 317.671 200.734C316.047 191.275 315.236 180.733 315.236 169.106C315.236 157.677 316.047 147.036 317.671 137.183C319.294 127.134 321.729 118.463 324.976 111.172C328.331 103.684 332.443 97.8709 337.313 93.7327C342.292 89.3975 348.136 87.2299 354.846 87.2299C359.608 87.2299 364.045 88.3137 368.157 90.4813C372.378 92.4519 376.058 95.6048 379.196 99.94C382.443 104.275 385.094 109.793 387.151 116.493C389.207 122.995 390.506 130.779 391.047 139.844H376.761C375.679 130.188 373.406 122.7 369.943 117.379C366.48 112.059 361.826 109.399 355.982 109.399C351.004 109.399 346.837 111.074 343.482 114.424C340.127 117.773 337.422 122.207 335.365 127.725C333.417 133.242 332.01 139.647 331.145 146.938C330.279 154.032 329.846 161.421 329.846 169.106C329.846 176.2 330.279 183.097 331.145 189.797C332.119 196.497 333.58 202.507 335.528 207.828C337.476 212.951 339.965 217.089 342.995 220.242C346.134 223.395 349.922 224.972 354.359 224.972C361.177 224.972 366.48 221.72 370.268 215.217C374.164 208.715 376.545 199.552 377.41 187.728H391.534C390.019 206.843 386.177 221.523 380.008 231.77C373.839 241.82 365.343 246.845 354.521 246.845Z" stroke="#C4C4C4" stroke-width="54" mask="url(#path-1-outside-1_323_167)"/>
<path d="M393.986 90.7769H432.785C436.464 90.7769 439.982 91.2695 443.337 92.2548C446.8 93.2401 449.884 95.1121 452.59 97.8709C455.295 100.433 457.46 104.177 459.083 109.103C460.706 114.029 461.518 120.335 461.518 128.02C461.518 136.297 460.436 142.997 458.271 148.12C456.107 153.243 453.077 157.48 449.181 160.83V161.126C454.051 162.899 457.893 167.037 460.706 173.54C463.629 180.043 465.09 188.418 465.09 198.665C465.09 205.168 464.44 211.178 463.142 216.695C461.951 222.213 460.219 226.942 457.947 230.883C455.674 234.824 452.969 237.977 449.83 240.342C446.692 242.51 443.282 243.593 439.603 243.593H393.986V90.7769ZM437.005 222.311C441.551 222.311 444.96 219.947 447.233 215.217C449.614 210.291 450.804 204.182 450.804 196.891C450.804 189.994 449.559 184.477 447.07 180.339C444.581 176.2 440.414 174.131 434.57 174.131H407.623V222.311H437.005ZM431.324 153.441C437.276 153.441 441.389 151.47 443.661 147.529C446.042 143.588 447.233 138.366 447.233 131.863C447.233 125.557 446.096 120.729 443.824 117.379C441.551 113.832 437.384 112.059 431.324 112.059H407.623V153.441H431.324Z" stroke="#C4C4C4" stroke-width="54" mask="url(#path-1-outside-1_323_167)"/>
<path d="M504.868 246.845C498.158 246.845 492.26 244.874 487.174 240.933C482.195 236.795 477.975 231.179 474.511 224.085C471.048 216.794 468.451 208.32 466.719 198.665C464.988 189.009 464.122 178.565 464.122 167.333C464.122 156.101 464.988 145.657 466.719 136.001C468.451 126.148 471.048 117.675 474.511 110.581C477.975 103.29 482.195 97.5753 487.174 93.4371C492.26 89.299 498.158 87.2299 504.868 87.2299C511.47 87.2299 517.314 89.299 522.401 93.4371C527.487 97.5753 531.762 103.29 535.225 110.581C538.688 117.675 541.286 126.148 543.017 136.001C544.749 145.657 545.615 156.101 545.615 167.333C545.615 178.565 544.749 189.009 543.017 198.665C541.286 208.32 538.688 216.794 535.225 224.085C531.762 231.179 527.487 236.795 522.401 240.933C517.314 244.874 511.47 246.845 504.868 246.845ZM504.868 224.972C508.44 224.972 511.795 223.691 514.933 221.129C518.18 218.567 520.994 214.922 523.375 210.193C525.755 205.266 527.595 199.256 528.894 192.162C530.301 184.871 531.004 176.595 531.004 167.333C531.004 158.071 530.301 149.894 528.894 142.8C527.595 135.508 525.755 129.4 523.375 124.473C520.994 119.547 518.18 115.803 514.933 113.241C511.795 110.679 508.44 109.399 504.868 109.399C501.297 109.399 497.888 110.679 494.641 113.241C491.503 115.803 488.743 119.547 486.362 124.473C483.981 129.4 482.087 135.508 480.68 142.8C479.382 149.894 478.732 158.071 478.732 167.333C478.732 176.595 479.382 184.871 480.68 192.162C482.087 199.256 483.981 205.266 486.362 210.193C488.743 214.922 491.503 218.567 494.641 221.129C497.888 223.691 501.297 224.972 504.868 224.972Z" stroke="#C4C4C4" stroke-width="54" mask="url(#path-1-outside-1_323_167)"/>
<path d="M548.897 90.7769H562.695V215.513L602.305 90.7769H620V243.593H606.201V118.857L566.591 243.593H548.897V90.7769ZM584.448 68.3126C581.202 68.3126 578.171 67.4258 575.358 65.6523C572.544 63.8788 570.055 61.3171 567.89 57.9672C565.834 54.6172 564.156 50.5776 562.858 45.8482C561.667 40.9219 561.072 35.3058 561.072 29H572.598C572.814 43.5821 576.71 50.8732 584.286 50.8732C588.074 50.8732 590.942 49.0011 592.89 45.2571C594.946 41.316 595.974 35.8969 595.974 29H607.5C607.5 34.9117 606.905 40.3307 605.714 45.2571C604.524 50.1835 602.901 54.3216 600.844 57.6716C598.788 61.0215 596.353 63.6818 593.539 65.6523C590.725 67.4258 587.695 68.3126 584.448 68.3126Z" stroke="#C4C4C4" stroke-width="54" mask="url(#path-1-outside-1_323_167)"/>
</svg>
