<svg width="779" height="335" viewBox="0 0 779 335" fill="none" xmlns="http://www.w3.org/2000/svg">
<mask id="path-1-outside-1_259_165" maskUnits="userSpaceOnUse" x="0" y="13" width="779" height="315" fill="black">
<rect fill="white" y="13" width="779" height="315"/>
<path d="M27 101.777H40.7986V162.667H83.3306V101.777H97.1291V254.593H83.3306V184.245H40.7986V254.593H27V101.777Z"/>
<path d="M128.066 257.845C124.278 257.845 120.706 257.057 117.351 255.48C113.996 254.101 111.02 251.736 108.423 248.386C105.934 244.839 103.932 240.405 102.416 235.085C101.01 229.567 100.306 222.966 100.306 215.281C100.306 206.61 101.118 199.516 102.741 193.999C104.364 188.481 106.475 184.048 109.072 180.698C111.778 177.151 114.808 174.49 118.163 172.717C121.626 170.943 125.143 169.465 128.715 168.283C132.503 166.904 136.074 165.918 139.429 165.327C142.892 164.539 145.922 163.554 148.52 162.371C151.117 160.992 153.174 159.12 154.689 156.755C156.204 154.194 156.961 150.548 156.961 145.819C156.961 140.301 156.366 135.867 155.176 132.518C154.093 129.168 152.632 126.606 150.793 124.832C149.061 123.059 147.059 121.877 144.786 121.285C142.622 120.694 140.457 120.399 138.293 120.399C132.449 120.399 127.579 122.468 123.682 126.606C119.786 130.547 117.676 138.134 117.351 149.366H103.553C103.769 139.907 104.852 131.926 106.8 125.424C108.748 118.921 111.345 113.699 114.592 109.758C117.838 105.619 121.518 102.664 125.631 100.89C129.851 99.1166 134.343 98.2299 139.104 98.2299C142.892 98.2299 146.626 98.7225 150.306 99.7078C154.093 100.693 157.502 102.762 160.533 105.915C163.563 108.871 165.998 113.108 167.838 118.625C169.678 124.143 170.598 131.335 170.598 140.203V218.828C170.598 224.74 170.76 229.075 171.085 231.834C171.517 234.592 172.816 235.972 174.981 235.972C175.955 235.972 177.362 235.479 179.201 234.494V254.002C176.82 256.564 173.52 257.845 169.299 257.845C165.727 257.845 162.86 256.071 160.695 252.524C158.639 248.78 157.611 242.77 157.611 234.494C153.823 242.77 149.386 248.78 144.299 252.524C139.321 256.071 133.91 257.845 128.066 257.845ZM131.15 235.972C135.695 235.972 139.591 234.888 142.838 232.72C146.085 230.356 148.736 227.498 150.793 224.148C152.849 220.601 154.364 216.857 155.338 212.916C156.312 208.778 156.799 204.935 156.799 201.388V175.673C155.067 178.234 152.795 180.008 149.981 180.993C147.167 181.978 144.191 182.865 141.052 183.653C138.022 184.442 134.938 185.23 131.799 186.018C128.661 186.806 125.847 188.186 123.358 190.156C120.869 192.127 118.812 194.984 117.189 198.728C115.674 202.275 114.916 207.202 114.916 213.507C114.916 217.646 115.349 221.193 116.215 224.148C117.189 226.907 118.379 229.173 119.786 230.947C121.302 232.72 123.033 234.001 124.981 234.789C126.929 235.578 128.985 235.972 131.15 235.972Z"/>
<path d="M179.057 101.777H192.855V226.513L232.465 101.777H250.16V254.593H236.361V129.857L196.751 254.593H179.057V101.777ZM214.608 79.3126C211.362 79.3126 208.331 78.4258 205.518 76.6523C202.704 74.8788 200.215 72.3171 198.05 68.9672C195.994 65.6172 194.316 61.5776 193.018 56.8482C191.827 51.9219 191.232 46.3058 191.232 40H202.758C202.974 54.5821 206.87 61.8732 214.446 61.8732C218.234 61.8732 221.102 60.0011 223.05 56.2571C225.106 52.316 226.134 46.8969 226.134 40H237.66C237.66 45.9117 237.065 51.3307 235.874 56.2571C234.684 61.1835 233.061 65.3216 231.004 68.6716C228.948 72.0215 226.513 74.6818 223.699 76.6523C220.885 78.4258 217.855 79.3126 214.608 79.3126Z"/>
<path d="M248.115 232.425H258.018C259.208 228.287 260.399 222.67 261.589 215.576C262.888 208.285 264.024 200.305 264.998 191.634C266.081 182.767 266.946 173.407 267.596 163.554C268.245 153.701 268.57 144.045 268.57 134.587V101.777H329.283V232.425H340.647V301H327.498V254.593H261.265V301H248.115V232.425ZM315.485 232.425V123.946H282.044V136.951C282.044 146.607 281.719 156.263 281.07 165.918C280.529 175.377 279.771 184.343 278.797 192.817C277.823 201.29 276.741 208.975 275.55 215.872C274.468 222.769 273.386 228.287 272.304 232.425H315.485Z"/>
<path d="M340.625 101.777H354.424V226.513L394.034 101.777H411.729V254.593H397.93V129.857L358.32 254.593H340.625V101.777Z"/>
<path d="M486.521 257.845C480.136 257.845 474.454 255.973 469.476 252.229C464.606 248.485 460.493 243.164 457.138 236.267C453.892 229.37 451.402 221.193 449.671 211.734C448.047 202.275 447.236 191.733 447.236 180.106C447.236 168.677 448.047 158.036 449.671 148.183C451.294 138.134 453.729 129.463 456.976 122.172C460.331 114.684 464.443 108.871 469.313 104.733C474.292 100.397 480.136 98.2299 486.846 98.2299C491.608 98.2299 496.045 99.3137 500.157 101.481C504.378 103.452 508.058 106.605 511.196 110.94C514.443 115.275 517.094 120.793 519.151 127.493C521.207 133.995 522.506 141.779 523.047 150.844H508.761C507.679 141.188 505.406 133.7 501.943 128.379C498.48 123.059 493.826 120.399 487.982 120.399C483.004 120.399 478.837 122.074 475.482 125.424C472.127 128.773 469.422 133.207 467.365 138.725C465.417 144.242 464.01 150.647 463.145 157.938C462.279 165.032 461.846 172.421 461.846 180.106C461.846 187.2 462.279 194.097 463.145 200.797C464.119 207.497 465.58 213.507 467.528 218.828C469.476 223.951 471.965 228.089 474.995 231.242C478.134 234.395 481.922 235.972 486.359 235.972C493.177 235.972 498.48 232.72 502.268 226.217C506.164 219.715 508.545 210.552 509.41 198.728H523.534C522.019 217.843 518.177 232.523 512.008 242.77C505.839 252.82 497.343 257.845 486.521 257.845Z"/>
<path d="M525.986 101.777H564.785C568.464 101.777 571.982 102.27 575.337 103.255C578.8 104.24 581.884 106.112 584.59 108.871C587.295 111.433 589.46 115.177 591.083 120.103C592.706 125.029 593.518 131.335 593.518 139.02C593.518 147.297 592.436 153.997 590.271 159.12C588.107 164.243 585.077 168.48 581.181 171.83V172.126C586.051 173.899 589.893 178.037 592.706 184.54C595.629 191.043 597.09 199.418 597.09 209.665C597.09 216.168 596.44 222.178 595.142 227.695C593.951 233.213 592.219 237.942 589.947 241.883C587.674 245.824 584.969 248.977 581.83 251.342C578.692 253.51 575.282 254.593 571.603 254.593H525.986V101.777ZM569.005 233.311C573.551 233.311 576.96 230.947 579.233 226.217C581.614 221.291 582.804 215.182 582.804 207.891C582.804 200.994 581.559 195.477 579.07 191.339C576.581 187.2 572.414 185.131 566.57 185.131H539.623V233.311H569.005ZM563.324 164.441C569.276 164.441 573.389 162.47 575.661 158.529C578.042 154.588 579.233 149.366 579.233 142.863C579.233 136.557 578.096 131.729 575.824 128.379C573.551 124.832 569.384 123.059 563.324 123.059H539.623V164.441H563.324Z"/>
<path d="M636.868 257.845C630.158 257.845 624.26 255.874 619.174 251.933C614.195 247.795 609.975 242.179 606.511 235.085C603.048 227.794 600.451 219.32 598.719 209.665C596.988 200.009 596.122 189.565 596.122 178.333C596.122 167.101 596.988 156.657 598.719 147.001C600.451 137.148 603.048 128.675 606.511 121.581C609.975 114.29 614.195 108.575 619.174 104.437C624.26 100.299 630.158 98.2299 636.868 98.2299C643.47 98.2299 649.314 100.299 654.401 104.437C659.487 108.575 663.762 114.29 667.225 121.581C670.688 128.675 673.286 137.148 675.017 147.001C676.749 156.657 677.615 167.101 677.615 178.333C677.615 189.565 676.749 200.009 675.017 209.665C673.286 219.32 670.688 227.794 667.225 235.085C663.762 242.179 659.487 247.795 654.401 251.933C649.314 255.874 643.47 257.845 636.868 257.845ZM636.868 235.972C640.44 235.972 643.795 234.691 646.933 232.129C650.18 229.567 652.994 225.922 655.375 221.193C657.755 216.266 659.595 210.256 660.894 203.162C662.301 195.871 663.004 187.595 663.004 178.333C663.004 169.071 662.301 160.894 660.894 153.8C659.595 146.508 657.755 140.4 655.375 135.473C652.994 130.547 650.18 126.803 646.933 124.241C643.795 121.679 640.44 120.399 636.868 120.399C633.297 120.399 629.888 121.679 626.641 124.241C623.503 126.803 620.743 130.547 618.362 135.473C615.981 140.4 614.087 146.508 612.68 153.8C611.382 160.894 610.732 169.071 610.732 178.333C610.732 187.595 611.382 195.871 612.68 203.162C614.087 210.256 615.981 216.266 618.362 221.193C620.743 225.922 623.503 229.567 626.641 232.129C629.888 234.691 633.297 235.972 636.868 235.972Z"/>
<path d="M680.897 101.777H694.695V226.513L734.305 101.777H752V254.593H738.201V129.857L698.591 254.593H680.897V101.777ZM716.448 79.3126C713.202 79.3126 710.171 78.4258 707.358 76.6523C704.544 74.8788 702.055 72.3171 699.89 68.9672C697.834 65.6172 696.156 61.5776 694.858 56.8482C693.667 51.9219 693.072 46.3058 693.072 40H704.598C704.814 54.5821 708.71 61.8732 716.286 61.8732C720.074 61.8732 722.942 60.0011 724.89 56.2571C726.946 52.316 727.974 46.8969 727.974 40H739.5C739.5 45.9117 738.905 51.3307 737.714 56.2571C736.524 61.1835 734.901 65.3216 732.844 68.6716C730.788 72.0215 728.353 74.6818 725.539 76.6523C722.725 78.4258 719.695 79.3126 716.448 79.3126Z"/>
</mask>
<path d="M27 101.777H40.7986V162.667H83.3306V101.777H97.1291V254.593H83.3306V184.245H40.7986V254.593H27V101.777Z" fill="white"/>
<path d="M128.066 257.845C124.278 257.845 120.706 257.057 117.351 255.48C113.996 254.101 111.02 251.736 108.423 248.386C105.934 244.839 103.932 240.405 102.416 235.085C101.01 229.567 100.306 222.966 100.306 215.281C100.306 206.61 101.118 199.516 102.741 193.999C104.364 188.481 106.475 184.048 109.072 180.698C111.778 177.151 114.808 174.49 118.163 172.717C121.626 170.943 125.143 169.465 128.715 168.283C132.503 166.904 136.074 165.918 139.429 165.327C142.892 164.539 145.922 163.554 148.52 162.371C151.117 160.992 153.174 159.12 154.689 156.755C156.204 154.194 156.961 150.548 156.961 145.819C156.961 140.301 156.366 135.867 155.176 132.518C154.093 129.168 152.632 126.606 150.793 124.832C149.061 123.059 147.059 121.877 144.786 121.285C142.622 120.694 140.457 120.399 138.293 120.399C132.449 120.399 127.579 122.468 123.682 126.606C119.786 130.547 117.676 138.134 117.351 149.366H103.553C103.769 139.907 104.852 131.926 106.8 125.424C108.748 118.921 111.345 113.699 114.592 109.758C117.838 105.619 121.518 102.664 125.631 100.89C129.851 99.1166 134.343 98.2299 139.104 98.2299C142.892 98.2299 146.626 98.7225 150.306 99.7078C154.093 100.693 157.502 102.762 160.533 105.915C163.563 108.871 165.998 113.108 167.838 118.625C169.678 124.143 170.598 131.335 170.598 140.203V218.828C170.598 224.74 170.76 229.075 171.085 231.834C171.517 234.592 172.816 235.972 174.981 235.972C175.955 235.972 177.362 235.479 179.201 234.494V254.002C176.82 256.564 173.52 257.845 169.299 257.845C165.727 257.845 162.86 256.071 160.695 252.524C158.639 248.78 157.611 242.77 157.611 234.494C153.823 242.77 149.386 248.78 144.299 252.524C139.321 256.071 133.91 257.845 128.066 257.845ZM131.15 235.972C135.695 235.972 139.591 234.888 142.838 232.72C146.085 230.356 148.736 227.498 150.793 224.148C152.849 220.601 154.364 216.857 155.338 212.916C156.312 208.778 156.799 204.935 156.799 201.388V175.673C155.067 178.234 152.795 180.008 149.981 180.993C147.167 181.978 144.191 182.865 141.052 183.653C138.022 184.442 134.938 185.23 131.799 186.018C128.661 186.806 125.847 188.186 123.358 190.156C120.869 192.127 118.812 194.984 117.189 198.728C115.674 202.275 114.916 207.202 114.916 213.507C114.916 217.646 115.349 221.193 116.215 224.148C117.189 226.907 118.379 229.173 119.786 230.947C121.302 232.72 123.033 234.001 124.981 234.789C126.929 235.578 128.985 235.972 131.15 235.972Z" fill="white"/>
<path d="M179.057 101.777H192.855V226.513L232.465 101.777H250.16V254.593H236.361V129.857L196.751 254.593H179.057V101.777ZM214.608 79.3126C211.362 79.3126 208.331 78.4258 205.518 76.6523C202.704 74.8788 200.215 72.3171 198.05 68.9672C195.994 65.6172 194.316 61.5776 193.018 56.8482C191.827 51.9219 191.232 46.3058 191.232 40H202.758C202.974 54.5821 206.87 61.8732 214.446 61.8732C218.234 61.8732 221.102 60.0011 223.05 56.2571C225.106 52.316 226.134 46.8969 226.134 40H237.66C237.66 45.9117 237.065 51.3307 235.874 56.2571C234.684 61.1835 233.061 65.3216 231.004 68.6716C228.948 72.0215 226.513 74.6818 223.699 76.6523C220.885 78.4258 217.855 79.3126 214.608 79.3126Z" fill="white"/>
<path d="M248.115 232.425H258.018C259.208 228.287 260.399 222.67 261.589 215.576C262.888 208.285 264.024 200.305 264.998 191.634C266.081 182.767 266.946 173.407 267.596 163.554C268.245 153.701 268.57 144.045 268.57 134.587V101.777H329.283V232.425H340.647V301H327.498V254.593H261.265V301H248.115V232.425ZM315.485 232.425V123.946H282.044V136.951C282.044 146.607 281.719 156.263 281.07 165.918C280.529 175.377 279.771 184.343 278.797 192.817C277.823 201.29 276.741 208.975 275.55 215.872C274.468 222.769 273.386 228.287 272.304 232.425H315.485Z" fill="white"/>
<path d="M340.625 101.777H354.424V226.513L394.034 101.777H411.729V254.593H397.93V129.857L358.32 254.593H340.625V101.777Z" fill="white"/>
<path d="M486.521 257.845C480.136 257.845 474.454 255.973 469.476 252.229C464.606 248.485 460.493 243.164 457.138 236.267C453.892 229.37 451.402 221.193 449.671 211.734C448.047 202.275 447.236 191.733 447.236 180.106C447.236 168.677 448.047 158.036 449.671 148.183C451.294 138.134 453.729 129.463 456.976 122.172C460.331 114.684 464.443 108.871 469.313 104.733C474.292 100.397 480.136 98.2299 486.846 98.2299C491.608 98.2299 496.045 99.3137 500.157 101.481C504.378 103.452 508.058 106.605 511.196 110.94C514.443 115.275 517.094 120.793 519.151 127.493C521.207 133.995 522.506 141.779 523.047 150.844H508.761C507.679 141.188 505.406 133.7 501.943 128.379C498.48 123.059 493.826 120.399 487.982 120.399C483.004 120.399 478.837 122.074 475.482 125.424C472.127 128.773 469.422 133.207 467.365 138.725C465.417 144.242 464.01 150.647 463.145 157.938C462.279 165.032 461.846 172.421 461.846 180.106C461.846 187.2 462.279 194.097 463.145 200.797C464.119 207.497 465.58 213.507 467.528 218.828C469.476 223.951 471.965 228.089 474.995 231.242C478.134 234.395 481.922 235.972 486.359 235.972C493.177 235.972 498.48 232.72 502.268 226.217C506.164 219.715 508.545 210.552 509.41 198.728H523.534C522.019 217.843 518.177 232.523 512.008 242.77C505.839 252.82 497.343 257.845 486.521 257.845Z" fill="white"/>
<path d="M525.986 101.777H564.785C568.464 101.777 571.982 102.27 575.337 103.255C578.8 104.24 581.884 106.112 584.59 108.871C587.295 111.433 589.46 115.177 591.083 120.103C592.706 125.029 593.518 131.335 593.518 139.02C593.518 147.297 592.436 153.997 590.271 159.12C588.107 164.243 585.077 168.48 581.181 171.83V172.126C586.051 173.899 589.893 178.037 592.706 184.54C595.629 191.043 597.09 199.418 597.09 209.665C597.09 216.168 596.44 222.178 595.142 227.695C593.951 233.213 592.219 237.942 589.947 241.883C587.674 245.824 584.969 248.977 581.83 251.342C578.692 253.51 575.282 254.593 571.603 254.593H525.986V101.777ZM569.005 233.311C573.551 233.311 576.96 230.947 579.233 226.217C581.614 221.291 582.804 215.182 582.804 207.891C582.804 200.994 581.559 195.477 579.07 191.339C576.581 187.2 572.414 185.131 566.57 185.131H539.623V233.311H569.005ZM563.324 164.441C569.276 164.441 573.389 162.47 575.661 158.529C578.042 154.588 579.233 149.366 579.233 142.863C579.233 136.557 578.096 131.729 575.824 128.379C573.551 124.832 569.384 123.059 563.324 123.059H539.623V164.441H563.324Z" fill="white"/>
<path d="M636.868 257.845C630.158 257.845 624.26 255.874 619.174 251.933C614.195 247.795 609.975 242.179 606.511 235.085C603.048 227.794 600.451 219.32 598.719 209.665C596.988 200.009 596.122 189.565 596.122 178.333C596.122 167.101 596.988 156.657 598.719 147.001C600.451 137.148 603.048 128.675 606.511 121.581C609.975 114.29 614.195 108.575 619.174 104.437C624.26 100.299 630.158 98.2299 636.868 98.2299C643.47 98.2299 649.314 100.299 654.401 104.437C659.487 108.575 663.762 114.29 667.225 121.581C670.688 128.675 673.286 137.148 675.017 147.001C676.749 156.657 677.615 167.101 677.615 178.333C677.615 189.565 676.749 200.009 675.017 209.665C673.286 219.32 670.688 227.794 667.225 235.085C663.762 242.179 659.487 247.795 654.401 251.933C649.314 255.874 643.47 257.845 636.868 257.845ZM636.868 235.972C640.44 235.972 643.795 234.691 646.933 232.129C650.18 229.567 652.994 225.922 655.375 221.193C657.755 216.266 659.595 210.256 660.894 203.162C662.301 195.871 663.004 187.595 663.004 178.333C663.004 169.071 662.301 160.894 660.894 153.8C659.595 146.508 657.755 140.4 655.375 135.473C652.994 130.547 650.18 126.803 646.933 124.241C643.795 121.679 640.44 120.399 636.868 120.399C633.297 120.399 629.888 121.679 626.641 124.241C623.503 126.803 620.743 130.547 618.362 135.473C615.981 140.4 614.087 146.508 612.68 153.8C611.382 160.894 610.732 169.071 610.732 178.333C610.732 187.595 611.382 195.871 612.68 203.162C614.087 210.256 615.981 216.266 618.362 221.193C620.743 225.922 623.503 229.567 626.641 232.129C629.888 234.691 633.297 235.972 636.868 235.972Z" fill="white"/>
<path d="M680.897 101.777H694.695V226.513L734.305 101.777H752V254.593H738.201V129.857L698.591 254.593H680.897V101.777ZM716.448 79.3126C713.202 79.3126 710.171 78.4258 707.358 76.6523C704.544 74.8788 702.055 72.3171 699.89 68.9672C697.834 65.6172 696.156 61.5776 694.858 56.8482C693.667 51.9219 693.072 46.3058 693.072 40H704.598C704.814 54.5821 708.71 61.8732 716.286 61.8732C720.074 61.8732 722.942 60.0011 724.89 56.2571C726.946 52.316 727.974 46.8969 727.974 40H739.5C739.5 45.9117 738.905 51.3307 737.714 56.2571C736.524 61.1835 734.901 65.3216 732.844 68.6716C730.788 72.0215 728.353 74.6818 725.539 76.6523C722.725 78.4258 719.695 79.3126 716.448 79.3126Z" fill="white"/>
<path d="M27 101.777H40.7986V162.667H83.3306V101.777H97.1291V254.593H83.3306V184.245H40.7986V254.593H27V101.777Z" stroke="#C4C4C4" stroke-width="54" mask="url(#path-1-outside-1_259_165)"/>
<path d="M128.066 257.845C124.278 257.845 120.706 257.057 117.351 255.48C113.996 254.101 111.02 251.736 108.423 248.386C105.934 244.839 103.932 240.405 102.416 235.085C101.01 229.567 100.306 222.966 100.306 215.281C100.306 206.61 101.118 199.516 102.741 193.999C104.364 188.481 106.475 184.048 109.072 180.698C111.778 177.151 114.808 174.49 118.163 172.717C121.626 170.943 125.143 169.465 128.715 168.283C132.503 166.904 136.074 165.918 139.429 165.327C142.892 164.539 145.922 163.554 148.52 162.371C151.117 160.992 153.174 159.12 154.689 156.755C156.204 154.194 156.961 150.548 156.961 145.819C156.961 140.301 156.366 135.867 155.176 132.518C154.093 129.168 152.632 126.606 150.793 124.832C149.061 123.059 147.059 121.877 144.786 121.285C142.622 120.694 140.457 120.399 138.293 120.399C132.449 120.399 127.579 122.468 123.682 126.606C119.786 130.547 117.676 138.134 117.351 149.366H103.553C103.769 139.907 104.852 131.926 106.8 125.424C108.748 118.921 111.345 113.699 114.592 109.758C117.838 105.619 121.518 102.664 125.631 100.89C129.851 99.1166 134.343 98.2299 139.104 98.2299C142.892 98.2299 146.626 98.7225 150.306 99.7078C154.093 100.693 157.502 102.762 160.533 105.915C163.563 108.871 165.998 113.108 167.838 118.625C169.678 124.143 170.598 131.335 170.598 140.203V218.828C170.598 224.74 170.76 229.075 171.085 231.834C171.517 234.592 172.816 235.972 174.981 235.972C175.955 235.972 177.362 235.479 179.201 234.494V254.002C176.82 256.564 173.52 257.845 169.299 257.845C165.727 257.845 162.86 256.071 160.695 252.524C158.639 248.78 157.611 242.77 157.611 234.494C153.823 242.77 149.386 248.78 144.299 252.524C139.321 256.071 133.91 257.845 128.066 257.845ZM131.15 235.972C135.695 235.972 139.591 234.888 142.838 232.72C146.085 230.356 148.736 227.498 150.793 224.148C152.849 220.601 154.364 216.857 155.338 212.916C156.312 208.778 156.799 204.935 156.799 201.388V175.673C155.067 178.234 152.795 180.008 149.981 180.993C147.167 181.978 144.191 182.865 141.052 183.653C138.022 184.442 134.938 185.23 131.799 186.018C128.661 186.806 125.847 188.186 123.358 190.156C120.869 192.127 118.812 194.984 117.189 198.728C115.674 202.275 114.916 207.202 114.916 213.507C114.916 217.646 115.349 221.193 116.215 224.148C117.189 226.907 118.379 229.173 119.786 230.947C121.302 232.72 123.033 234.001 124.981 234.789C126.929 235.578 128.985 235.972 131.15 235.972Z" stroke="#C4C4C4" stroke-width="54" mask="url(#path-1-outside-1_259_165)"/>
<path d="M179.057 101.777H192.855V226.513L232.465 101.777H250.16V254.593H236.361V129.857L196.751 254.593H179.057V101.777ZM214.608 79.3126C211.362 79.3126 208.331 78.4258 205.518 76.6523C202.704 74.8788 200.215 72.3171 198.05 68.9672C195.994 65.6172 194.316 61.5776 193.018 56.8482C191.827 51.9219 191.232 46.3058 191.232 40H202.758C202.974 54.5821 206.87 61.8732 214.446 61.8732C218.234 61.8732 221.102 60.0011 223.05 56.2571C225.106 52.316 226.134 46.8969 226.134 40H237.66C237.66 45.9117 237.065 51.3307 235.874 56.2571C234.684 61.1835 233.061 65.3216 231.004 68.6716C228.948 72.0215 226.513 74.6818 223.699 76.6523C220.885 78.4258 217.855 79.3126 214.608 79.3126Z" stroke="#C4C4C4" stroke-width="54" mask="url(#path-1-outside-1_259_165)"/>
<path d="M248.115 232.425H258.018C259.208 228.287 260.399 222.67 261.589 215.576C262.888 208.285 264.024 200.305 264.998 191.634C266.081 182.767 266.946 173.407 267.596 163.554C268.245 153.701 268.57 144.045 268.57 134.587V101.777H329.283V232.425H340.647V301H327.498V254.593H261.265V301H248.115V232.425ZM315.485 232.425V123.946H282.044V136.951C282.044 146.607 281.719 156.263 281.07 165.918C280.529 175.377 279.771 184.343 278.797 192.817C277.823 201.29 276.741 208.975 275.55 215.872C274.468 222.769 273.386 228.287 272.304 232.425H315.485Z" stroke="#C4C4C4" stroke-width="54" mask="url(#path-1-outside-1_259_165)"/>
<path d="M340.625 101.777H354.424V226.513L394.034 101.777H411.729V254.593H397.93V129.857L358.32 254.593H340.625V101.777Z" stroke="#C4C4C4" stroke-width="54" mask="url(#path-1-outside-1_259_165)"/>
<path d="M486.521 257.845C480.136 257.845 474.454 255.973 469.476 252.229C464.606 248.485 460.493 243.164 457.138 236.267C453.892 229.37 451.402 221.193 449.671 211.734C448.047 202.275 447.236 191.733 447.236 180.106C447.236 168.677 448.047 158.036 449.671 148.183C451.294 138.134 453.729 129.463 456.976 122.172C460.331 114.684 464.443 108.871 469.313 104.733C474.292 100.397 480.136 98.2299 486.846 98.2299C491.608 98.2299 496.045 99.3137 500.157 101.481C504.378 103.452 508.058 106.605 511.196 110.94C514.443 115.275 517.094 120.793 519.151 127.493C521.207 133.995 522.506 141.779 523.047 150.844H508.761C507.679 141.188 505.406 133.7 501.943 128.379C498.48 123.059 493.826 120.399 487.982 120.399C483.004 120.399 478.837 122.074 475.482 125.424C472.127 128.773 469.422 133.207 467.365 138.725C465.417 144.242 464.01 150.647 463.145 157.938C462.279 165.032 461.846 172.421 461.846 180.106C461.846 187.2 462.279 194.097 463.145 200.797C464.119 207.497 465.58 213.507 467.528 218.828C469.476 223.951 471.965 228.089 474.995 231.242C478.134 234.395 481.922 235.972 486.359 235.972C493.177 235.972 498.48 232.72 502.268 226.217C506.164 219.715 508.545 210.552 509.41 198.728H523.534C522.019 217.843 518.177 232.523 512.008 242.77C505.839 252.82 497.343 257.845 486.521 257.845Z" stroke="#C4C4C4" stroke-width="54" mask="url(#path-1-outside-1_259_165)"/>
<path d="M525.986 101.777H564.785C568.464 101.777 571.982 102.27 575.337 103.255C578.8 104.24 581.884 106.112 584.59 108.871C587.295 111.433 589.46 115.177 591.083 120.103C592.706 125.029 593.518 131.335 593.518 139.02C593.518 147.297 592.436 153.997 590.271 159.12C588.107 164.243 585.077 168.48 581.181 171.83V172.126C586.051 173.899 589.893 178.037 592.706 184.54C595.629 191.043 597.09 199.418 597.09 209.665C597.09 216.168 596.44 222.178 595.142 227.695C593.951 233.213 592.219 237.942 589.947 241.883C587.674 245.824 584.969 248.977 581.83 251.342C578.692 253.51 575.282 254.593 571.603 254.593H525.986V101.777ZM569.005 233.311C573.551 233.311 576.96 230.947 579.233 226.217C581.614 221.291 582.804 215.182 582.804 207.891C582.804 200.994 581.559 195.477 579.07 191.339C576.581 187.2 572.414 185.131 566.57 185.131H539.623V233.311H569.005ZM563.324 164.441C569.276 164.441 573.389 162.47 575.661 158.529C578.042 154.588 579.233 149.366 579.233 142.863C579.233 136.557 578.096 131.729 575.824 128.379C573.551 124.832 569.384 123.059 563.324 123.059H539.623V164.441H563.324Z" stroke="#C4C4C4" stroke-width="54" mask="url(#path-1-outside-1_259_165)"/>
<path d="M636.868 257.845C630.158 257.845 624.26 255.874 619.174 251.933C614.195 247.795 609.975 242.179 606.511 235.085C603.048 227.794 600.451 219.32 598.719 209.665C596.988 200.009 596.122 189.565 596.122 178.333C596.122 167.101 596.988 156.657 598.719 147.001C600.451 137.148 603.048 128.675 606.511 121.581C609.975 114.29 614.195 108.575 619.174 104.437C624.26 100.299 630.158 98.2299 636.868 98.2299C643.47 98.2299 649.314 100.299 654.401 104.437C659.487 108.575 663.762 114.29 667.225 121.581C670.688 128.675 673.286 137.148 675.017 147.001C676.749 156.657 677.615 167.101 677.615 178.333C677.615 189.565 676.749 200.009 675.017 209.665C673.286 219.32 670.688 227.794 667.225 235.085C663.762 242.179 659.487 247.795 654.401 251.933C649.314 255.874 643.47 257.845 636.868 257.845ZM636.868 235.972C640.44 235.972 643.795 234.691 646.933 232.129C650.18 229.567 652.994 225.922 655.375 221.193C657.755 216.266 659.595 210.256 660.894 203.162C662.301 195.871 663.004 187.595 663.004 178.333C663.004 169.071 662.301 160.894 660.894 153.8C659.595 146.508 657.755 140.4 655.375 135.473C652.994 130.547 650.18 126.803 646.933 124.241C643.795 121.679 640.44 120.399 636.868 120.399C633.297 120.399 629.888 121.679 626.641 124.241C623.503 126.803 620.743 130.547 618.362 135.473C615.981 140.4 614.087 146.508 612.68 153.8C611.382 160.894 610.732 169.071 610.732 178.333C610.732 187.595 611.382 195.871 612.68 203.162C614.087 210.256 615.981 216.266 618.362 221.193C620.743 225.922 623.503 229.567 626.641 232.129C629.888 234.691 633.297 235.972 636.868 235.972Z" stroke="#C4C4C4" stroke-width="54" mask="url(#path-1-outside-1_259_165)"/>
<path d="M680.897 101.777H694.695V226.513L734.305 101.777H752V254.593H738.201V129.857L698.591 254.593H680.897V101.777ZM716.448 79.3126C713.202 79.3126 710.171 78.4258 707.358 76.6523C704.544 74.8788 702.055 72.3171 699.89 68.9672C697.834 65.6172 696.156 61.5776 694.858 56.8482C693.667 51.9219 693.072 46.3058 693.072 40H704.598C704.814 54.5821 708.71 61.8732 716.286 61.8732C720.074 61.8732 722.942 60.0011 724.89 56.2571C726.946 52.316 727.974 46.8969 727.974 40H739.5C739.5 45.9117 738.905 51.3307 737.714 56.2571C736.524 61.1835 734.901 65.3216 732.844 68.6716C730.788 72.0215 728.353 74.6818 725.539 76.6523C722.725 78.4258 719.695 79.3126 716.448 79.3126Z" stroke="#C4C4C4" stroke-width="54" mask="url(#path-1-outside-1_259_165)"/>
</svg>
