<svg width="641" height="335" viewBox="0 0 641 335" fill="none" xmlns="http://www.w3.org/2000/svg">
<mask id="path-1-outside-1_259_165" maskUnits="userSpaceOnUse" x="-132" y="13" width="779" height="315" fill="black">
<rect fill="white" x="-132" y="13" width="779" height="315"/>
<path d="M-105 101.777H-91.2014V162.667H-48.6694V101.777H-34.8709V254.593H-48.6694V184.245H-91.2014V254.593H-105V101.777Z"/>
<path d="M-3.93446 257.845C-7.7223 257.845 -11.2937 257.057 -14.6486 255.48C-18.0036 254.101 -20.9797 251.736 -23.5771 248.386C-26.0663 244.839 -28.0684 240.405 -29.5835 235.085C-30.9904 229.567 -31.6939 222.966 -31.6939 215.281C-31.6939 206.61 -30.8822 199.516 -29.2589 193.999C-27.6355 188.481 -25.5251 184.048 -22.9278 180.698C-20.2222 177.151 -17.1919 174.49 -13.837 172.717C-10.3738 170.943 -6.85651 169.465 -3.28512 168.283C0.502724 166.904 4.07411 165.918 7.42905 165.327C10.8922 164.539 13.9225 163.554 16.5199 162.371C19.1172 160.992 21.1735 159.12 22.6886 156.755C24.2038 154.194 24.9613 150.548 24.9613 145.819C24.9613 140.301 24.3661 135.867 23.1756 132.518C22.0934 129.168 20.6324 126.606 18.7926 124.832C17.061 123.059 15.0588 121.877 12.7861 121.285C10.6217 120.694 8.45718 120.399 6.29271 120.399C0.448616 120.399 -4.42147 122.468 -8.31754 126.606C-12.2136 130.547 -14.324 138.134 -14.6486 149.366H-28.4472C-28.2307 139.907 -27.1485 131.926 -25.2005 125.424C-23.2524 118.921 -20.6551 113.699 -17.4083 109.758C-14.1616 105.619 -10.482 102.664 -6.3695 100.89C-2.14877 99.1166 2.34253 98.2299 7.10439 98.2299C10.8922 98.2299 14.626 98.7225 18.3056 99.7078C22.0934 100.693 25.5025 102.762 28.5327 105.915C31.563 108.871 33.998 113.108 35.8378 118.625C37.6777 124.143 38.5976 131.335 38.5976 140.203V218.828C38.5976 224.74 38.7599 229.075 39.0846 231.834C39.5175 234.592 40.8161 235.972 42.9806 235.972C43.9547 235.972 45.3616 235.479 47.2014 234.494V254.002C44.8204 256.564 41.5196 257.845 37.2989 257.845C33.7275 257.845 30.8595 256.071 28.6951 252.524C26.6388 248.78 25.6107 242.77 25.6107 234.494C21.8228 242.77 17.3857 248.78 12.2991 252.524C7.32083 256.071 1.90963 257.845 -3.93446 257.845ZM-0.850082 235.972C3.69533 235.972 7.59139 234.888 10.8381 232.72C14.0848 230.356 16.7363 227.498 18.7926 224.148C20.8488 220.601 22.364 216.857 23.338 212.916C24.312 208.778 24.799 204.935 24.799 201.388V175.673C23.0674 178.234 20.7947 180.008 17.9809 180.993C15.1671 181.978 12.1909 182.865 9.05241 183.653C6.02214 184.442 2.93776 185.23 -0.200737 186.018C-3.33923 186.806 -6.15305 188.186 -8.6422 190.156C-11.1314 192.127 -13.1876 194.984 -14.811 198.728C-16.3261 202.275 -17.0837 207.202 -17.0837 213.507C-17.0837 217.646 -16.6508 221.193 -15.785 224.148C-14.811 226.907 -13.6205 229.173 -12.2136 230.947C-10.6985 232.72 -8.96687 234.001 -7.01884 234.789C-5.07081 235.578 -3.01456 235.972 -0.850082 235.972Z"/>
<path d="M47.0568 101.777H60.8553V226.513L100.465 101.777H118.16V254.593H104.361V129.857L64.7514 254.593H47.0568V101.777ZM82.6084 79.3126C79.3616 79.3126 76.3314 78.4258 73.5175 76.6523C70.7037 74.8788 68.2146 72.3171 66.0501 68.9672C63.9938 65.6172 62.3163 61.5776 61.0177 56.8482C59.8272 51.9219 59.232 46.3058 59.232 40H70.7578C70.9743 54.5821 74.8703 61.8732 82.446 61.8732C86.2339 61.8732 89.1018 60.0011 91.0498 56.2571C93.1061 52.316 94.1342 46.8969 94.1342 40H105.66C105.66 45.9117 105.065 51.3307 103.874 56.2571C102.684 61.1835 101.061 65.3216 99.0043 68.6716C96.948 72.0215 94.513 74.6818 91.6992 76.6523C88.8853 78.4258 85.8551 79.3126 82.6084 79.3126Z"/>
<path d="M116.115 232.425H126.018C127.208 228.287 128.399 222.67 129.589 215.576C130.888 208.285 132.024 200.305 132.998 191.634C134.081 182.767 134.946 173.407 135.596 163.554C136.245 153.701 136.57 144.045 136.57 134.587V101.777H197.283V232.425H208.647V301H195.498V254.593H129.265V301H116.115V232.425ZM183.485 232.425V123.946H150.044V136.951C150.044 146.607 149.719 156.263 149.07 165.918C148.529 175.377 147.771 184.343 146.797 192.817C145.823 201.29 144.741 208.975 143.55 215.872C142.468 222.769 141.386 228.287 140.304 232.425H183.485Z"/>
<path d="M208.625 101.777H222.424V226.513L262.034 101.777H279.729V254.593H265.93V129.857L226.32 254.593H208.625V101.777Z"/>
<path d="M354.521 257.845C348.136 257.845 342.454 255.973 337.476 252.229C332.606 248.485 328.493 243.164 325.138 236.267C321.892 229.37 319.402 221.193 317.671 211.734C316.047 202.275 315.236 191.733 315.236 180.106C315.236 168.677 316.047 158.036 317.671 148.183C319.294 138.134 321.729 129.463 324.976 122.172C328.331 114.684 332.443 108.871 337.313 104.733C342.292 100.397 348.136 98.2299 354.846 98.2299C359.608 98.2299 364.045 99.3137 368.157 101.481C372.378 103.452 376.058 106.605 379.196 110.94C382.443 115.275 385.094 120.793 387.151 127.493C389.207 133.995 390.506 141.779 391.047 150.844H376.761C375.679 141.188 373.406 133.7 369.943 128.379C366.48 123.059 361.826 120.399 355.982 120.399C351.004 120.399 346.837 122.074 343.482 125.424C340.127 128.773 337.422 133.207 335.365 138.725C333.417 144.242 332.01 150.647 331.145 157.938C330.279 165.032 329.846 172.421 329.846 180.106C329.846 187.2 330.279 194.097 331.145 200.797C332.119 207.497 333.58 213.507 335.528 218.828C337.476 223.951 339.965 228.089 342.995 231.242C346.134 234.395 349.922 235.972 354.359 235.972C361.177 235.972 366.48 232.72 370.268 226.217C374.164 219.715 376.545 210.552 377.41 198.728H391.534C390.019 217.843 386.177 232.523 380.008 242.77C373.839 252.82 365.343 257.845 354.521 257.845Z"/>
<path d="M393.986 101.777H432.785C436.464 101.777 439.982 102.27 443.337 103.255C446.8 104.24 449.884 106.112 452.59 108.871C455.295 111.433 457.46 115.177 459.083 120.103C460.706 125.029 461.518 131.335 461.518 139.02C461.518 147.297 460.436 153.997 458.271 159.12C456.107 164.243 453.077 168.48 449.181 171.83V172.126C454.051 173.899 457.893 178.037 460.706 184.54C463.629 191.043 465.09 199.418 465.09 209.665C465.09 216.168 464.44 222.178 463.142 227.695C461.951 233.213 460.219 237.942 457.947 241.883C455.674 245.824 452.969 248.977 449.83 251.342C446.692 253.51 443.282 254.593 439.603 254.593H393.986V101.777ZM437.005 233.311C441.551 233.311 444.96 230.947 447.233 226.217C449.614 221.291 450.804 215.182 450.804 207.891C450.804 200.994 449.559 195.477 447.07 191.339C444.581 187.2 440.414 185.131 434.57 185.131H407.623V233.311H437.005ZM431.324 164.441C437.276 164.441 441.389 162.47 443.661 158.529C446.042 154.588 447.233 149.366 447.233 142.863C447.233 136.557 446.096 131.729 443.824 128.379C441.551 124.832 437.384 123.059 431.324 123.059H407.623V164.441H431.324Z"/>
<path d="M504.868 257.845C498.158 257.845 492.26 255.874 487.174 251.933C482.195 247.795 477.975 242.179 474.511 235.085C471.048 227.794 468.451 219.32 466.719 209.665C464.988 200.009 464.122 189.565 464.122 178.333C464.122 167.101 464.988 156.657 466.719 147.001C468.451 137.148 471.048 128.675 474.511 121.581C477.975 114.29 482.195 108.575 487.174 104.437C492.26 100.299 498.158 98.2299 504.868 98.2299C511.47 98.2299 517.314 100.299 522.401 104.437C527.487 108.575 531.762 114.29 535.225 121.581C538.688 128.675 541.286 137.148 543.017 147.001C544.749 156.657 545.615 167.101 545.615 178.333C545.615 189.565 544.749 200.009 543.017 209.665C541.286 219.32 538.688 227.794 535.225 235.085C531.762 242.179 527.487 247.795 522.401 251.933C517.314 255.874 511.47 257.845 504.868 257.845ZM504.868 235.972C508.44 235.972 511.795 234.691 514.933 232.129C518.18 229.567 520.994 225.922 523.375 221.193C525.755 216.266 527.595 210.256 528.894 203.162C530.301 195.871 531.004 187.595 531.004 178.333C531.004 169.071 530.301 160.894 528.894 153.8C527.595 146.508 525.755 140.4 523.375 135.473C520.994 130.547 518.18 126.803 514.933 124.241C511.795 121.679 508.44 120.399 504.868 120.399C501.297 120.399 497.888 121.679 494.641 124.241C491.503 126.803 488.743 130.547 486.362 135.473C483.981 140.4 482.087 146.508 480.68 153.8C479.382 160.894 478.732 169.071 478.732 178.333C478.732 187.595 479.382 195.871 480.68 203.162C482.087 210.256 483.981 216.266 486.362 221.193C488.743 225.922 491.503 229.567 494.641 232.129C497.888 234.691 501.297 235.972 504.868 235.972Z"/>
<path d="M548.897 101.777H562.695V226.513L602.305 101.777H620V254.593H606.201V129.857L566.591 254.593H548.897V101.777ZM584.448 79.3126C581.202 79.3126 578.171 78.4258 575.358 76.6523C572.544 74.8788 570.055 72.3171 567.89 68.9672C565.834 65.6172 564.156 61.5776 562.858 56.8482C561.667 51.9219 561.072 46.3058 561.072 40H572.598C572.814 54.5821 576.71 61.8732 584.286 61.8732C588.074 61.8732 590.942 60.0011 592.89 56.2571C594.946 52.316 595.974 46.8969 595.974 40H607.5C607.5 45.9117 606.905 51.3307 605.714 56.2571C604.524 61.1835 602.901 65.3216 600.844 68.6716C598.788 72.0215 596.353 74.6818 593.539 76.6523C590.725 78.4258 587.695 79.3126 584.448 79.3126Z"/>
</mask>
<path d="M-105 101.777H-91.2014V162.667H-48.6694V101.777H-34.8709V254.593H-48.6694V184.245H-91.2014V254.593H-105V101.777Z" fill="white"/>
<path d="M-3.93446 257.845C-7.7223 257.845 -11.2937 257.057 -14.6486 255.48C-18.0036 254.101 -20.9797 251.736 -23.5771 248.386C-26.0663 244.839 -28.0684 240.405 -29.5835 235.085C-30.9904 229.567 -31.6939 222.966 -31.6939 215.281C-31.6939 206.61 -30.8822 199.516 -29.2589 193.999C-27.6355 188.481 -25.5251 184.048 -22.9278 180.698C-20.2222 177.151 -17.1919 174.49 -13.837 172.717C-10.3738 170.943 -6.85651 169.465 -3.28512 168.283C0.502724 166.904 4.07411 165.918 7.42905 165.327C10.8922 164.539 13.9225 163.554 16.5199 162.371C19.1172 160.992 21.1735 159.12 22.6886 156.755C24.2038 154.194 24.9613 150.548 24.9613 145.819C24.9613 140.301 24.3661 135.867 23.1756 132.518C22.0934 129.168 20.6324 126.606 18.7926 124.832C17.061 123.059 15.0588 121.877 12.7861 121.285C10.6217 120.694 8.45718 120.399 6.29271 120.399C0.448616 120.399 -4.42147 122.468 -8.31754 126.606C-12.2136 130.547 -14.324 138.134 -14.6486 149.366H-28.4472C-28.2307 139.907 -27.1485 131.926 -25.2005 125.424C-23.2524 118.921 -20.6551 113.699 -17.4083 109.758C-14.1616 105.619 -10.482 102.664 -6.3695 100.89C-2.14877 99.1166 2.34253 98.2299 7.10439 98.2299C10.8922 98.2299 14.626 98.7225 18.3056 99.7078C22.0934 100.693 25.5025 102.762 28.5327 105.915C31.563 108.871 33.998 113.108 35.8378 118.625C37.6777 124.143 38.5976 131.335 38.5976 140.203V218.828C38.5976 224.74 38.7599 229.075 39.0846 231.834C39.5175 234.592 40.8161 235.972 42.9806 235.972C43.9547 235.972 45.3616 235.479 47.2014 234.494V254.002C44.8204 256.564 41.5196 257.845 37.2989 257.845C33.7275 257.845 30.8595 256.071 28.6951 252.524C26.6388 248.78 25.6107 242.77 25.6107 234.494C21.8228 242.77 17.3857 248.78 12.2991 252.524C7.32083 256.071 1.90963 257.845 -3.93446 257.845ZM-0.850082 235.972C3.69533 235.972 7.59139 234.888 10.8381 232.72C14.0848 230.356 16.7363 227.498 18.7926 224.148C20.8488 220.601 22.364 216.857 23.338 212.916C24.312 208.778 24.799 204.935 24.799 201.388V175.673C23.0674 178.234 20.7947 180.008 17.9809 180.993C15.1671 181.978 12.1909 182.865 9.05241 183.653C6.02214 184.442 2.93776 185.23 -0.200737 186.018C-3.33923 186.806 -6.15305 188.186 -8.6422 190.156C-11.1314 192.127 -13.1876 194.984 -14.811 198.728C-16.3261 202.275 -17.0837 207.202 -17.0837 213.507C-17.0837 217.646 -16.6508 221.193 -15.785 224.148C-14.811 226.907 -13.6205 229.173 -12.2136 230.947C-10.6985 232.72 -8.96687 234.001 -7.01884 234.789C-5.07081 235.578 -3.01456 235.972 -0.850082 235.972Z" fill="white"/>
<path d="M47.0568 101.777H60.8553V226.513L100.465 101.777H118.16V254.593H104.361V129.857L64.7514 254.593H47.0568V101.777ZM82.6084 79.3126C79.3616 79.3126 76.3314 78.4258 73.5175 76.6523C70.7037 74.8788 68.2146 72.3171 66.0501 68.9672C63.9938 65.6172 62.3163 61.5776 61.0177 56.8482C59.8272 51.9219 59.232 46.3058 59.232 40H70.7578C70.9743 54.5821 74.8703 61.8732 82.446 61.8732C86.2339 61.8732 89.1018 60.0011 91.0498 56.2571C93.1061 52.316 94.1342 46.8969 94.1342 40H105.66C105.66 45.9117 105.065 51.3307 103.874 56.2571C102.684 61.1835 101.061 65.3216 99.0043 68.6716C96.948 72.0215 94.513 74.6818 91.6992 76.6523C88.8853 78.4258 85.8551 79.3126 82.6084 79.3126Z" fill="white"/>
<path d="M116.115 232.425H126.018C127.208 228.287 128.399 222.67 129.589 215.576C130.888 208.285 132.024 200.305 132.998 191.634C134.081 182.767 134.946 173.407 135.596 163.554C136.245 153.701 136.57 144.045 136.57 134.587V101.777H197.283V232.425H208.647V301H195.498V254.593H129.265V301H116.115V232.425ZM183.485 232.425V123.946H150.044V136.951C150.044 146.607 149.719 156.263 149.07 165.918C148.529 175.377 147.771 184.343 146.797 192.817C145.823 201.29 144.741 208.975 143.55 215.872C142.468 222.769 141.386 228.287 140.304 232.425H183.485Z" fill="white"/>
<path d="M208.625 101.777H222.424V226.513L262.034 101.777H279.729V254.593H265.93V129.857L226.32 254.593H208.625V101.777Z" fill="white"/>
<path d="M354.521 257.845C348.136 257.845 342.454 255.973 337.476 252.229C332.606 248.485 328.493 243.164 325.138 236.267C321.892 229.37 319.402 221.193 317.671 211.734C316.047 202.275 315.236 191.733 315.236 180.106C315.236 168.677 316.047 158.036 317.671 148.183C319.294 138.134 321.729 129.463 324.976 122.172C328.331 114.684 332.443 108.871 337.313 104.733C342.292 100.397 348.136 98.2299 354.846 98.2299C359.608 98.2299 364.045 99.3137 368.157 101.481C372.378 103.452 376.058 106.605 379.196 110.94C382.443 115.275 385.094 120.793 387.151 127.493C389.207 133.995 390.506 141.779 391.047 150.844H376.761C375.679 141.188 373.406 133.7 369.943 128.379C366.48 123.059 361.826 120.399 355.982 120.399C351.004 120.399 346.837 122.074 343.482 125.424C340.127 128.773 337.422 133.207 335.365 138.725C333.417 144.242 332.01 150.647 331.145 157.938C330.279 165.032 329.846 172.421 329.846 180.106C329.846 187.2 330.279 194.097 331.145 200.797C332.119 207.497 333.58 213.507 335.528 218.828C337.476 223.951 339.965 228.089 342.995 231.242C346.134 234.395 349.922 235.972 354.359 235.972C361.177 235.972 366.48 232.72 370.268 226.217C374.164 219.715 376.545 210.552 377.41 198.728H391.534C390.019 217.843 386.177 232.523 380.008 242.77C373.839 252.82 365.343 257.845 354.521 257.845Z" fill="white"/>
<path d="M393.986 101.777H432.785C436.464 101.777 439.982 102.27 443.337 103.255C446.8 104.24 449.884 106.112 452.59 108.871C455.295 111.433 457.46 115.177 459.083 120.103C460.706 125.029 461.518 131.335 461.518 139.02C461.518 147.297 460.436 153.997 458.271 159.12C456.107 164.243 453.077 168.48 449.181 171.83V172.126C454.051 173.899 457.893 178.037 460.706 184.54C463.629 191.043 465.09 199.418 465.09 209.665C465.09 216.168 464.44 222.178 463.142 227.695C461.951 233.213 460.219 237.942 457.947 241.883C455.674 245.824 452.969 248.977 449.83 251.342C446.692 253.51 443.282 254.593 439.603 254.593H393.986V101.777ZM437.005 233.311C441.551 233.311 444.96 230.947 447.233 226.217C449.614 221.291 450.804 215.182 450.804 207.891C450.804 200.994 449.559 195.477 447.07 191.339C444.581 187.2 440.414 185.131 434.57 185.131H407.623V233.311H437.005ZM431.324 164.441C437.276 164.441 441.389 162.47 443.661 158.529C446.042 154.588 447.233 149.366 447.233 142.863C447.233 136.557 446.096 131.729 443.824 128.379C441.551 124.832 437.384 123.059 431.324 123.059H407.623V164.441H431.324Z" fill="white"/>
<path d="M504.868 257.845C498.158 257.845 492.26 255.874 487.174 251.933C482.195 247.795 477.975 242.179 474.511 235.085C471.048 227.794 468.451 219.32 466.719 209.665C464.988 200.009 464.122 189.565 464.122 178.333C464.122 167.101 464.988 156.657 466.719 147.001C468.451 137.148 471.048 128.675 474.511 121.581C477.975 114.29 482.195 108.575 487.174 104.437C492.26 100.299 498.158 98.2299 504.868 98.2299C511.47 98.2299 517.314 100.299 522.401 104.437C527.487 108.575 531.762 114.29 535.225 121.581C538.688 128.675 541.286 137.148 543.017 147.001C544.749 156.657 545.615 167.101 545.615 178.333C545.615 189.565 544.749 200.009 543.017 209.665C541.286 219.32 538.688 227.794 535.225 235.085C531.762 242.179 527.487 247.795 522.401 251.933C517.314 255.874 511.47 257.845 504.868 257.845ZM504.868 235.972C508.44 235.972 511.795 234.691 514.933 232.129C518.18 229.567 520.994 225.922 523.375 221.193C525.755 216.266 527.595 210.256 528.894 203.162C530.301 195.871 531.004 187.595 531.004 178.333C531.004 169.071 530.301 160.894 528.894 153.8C527.595 146.508 525.755 140.4 523.375 135.473C520.994 130.547 518.18 126.803 514.933 124.241C511.795 121.679 508.44 120.399 504.868 120.399C501.297 120.399 497.888 121.679 494.641 124.241C491.503 126.803 488.743 130.547 486.362 135.473C483.981 140.4 482.087 146.508 480.68 153.8C479.382 160.894 478.732 169.071 478.732 178.333C478.732 187.595 479.382 195.871 480.68 203.162C482.087 210.256 483.981 216.266 486.362 221.193C488.743 225.922 491.503 229.567 494.641 232.129C497.888 234.691 501.297 235.972 504.868 235.972Z" fill="white"/>
<path d="M548.897 101.777H562.695V226.513L602.305 101.777H620V254.593H606.201V129.857L566.591 254.593H548.897V101.777ZM584.448 79.3126C581.202 79.3126 578.171 78.4258 575.358 76.6523C572.544 74.8788 570.055 72.3171 567.89 68.9672C565.834 65.6172 564.156 61.5776 562.858 56.8482C561.667 51.9219 561.072 46.3058 561.072 40H572.598C572.814 54.5821 576.71 61.8732 584.286 61.8732C588.074 61.8732 590.942 60.0011 592.89 56.2571C594.946 52.316 595.974 46.8969 595.974 40H607.5C607.5 45.9117 606.905 51.3307 605.714 56.2571C604.524 61.1835 602.901 65.3216 600.844 68.6716C598.788 72.0215 596.353 74.6818 593.539 76.6523C590.725 78.4258 587.695 79.3126 584.448 79.3126Z" fill="white"/>
<path d="M-105 101.777H-91.2014V162.667H-48.6694V101.777H-34.8709V254.593H-48.6694V184.245H-91.2014V254.593H-105V101.777Z" stroke="#C4C4C4" stroke-width="54" mask="url(#path-1-outside-1_259_165)"/>
<path d="M-3.93446 257.845C-7.7223 257.845 -11.2937 257.057 -14.6486 255.48C-18.0036 254.101 -20.9797 251.736 -23.5771 248.386C-26.0663 244.839 -28.0684 240.405 -29.5835 235.085C-30.9904 229.567 -31.6939 222.966 -31.6939 215.281C-31.6939 206.61 -30.8822 199.516 -29.2589 193.999C-27.6355 188.481 -25.5251 184.048 -22.9278 180.698C-20.2222 177.151 -17.1919 174.49 -13.837 172.717C-10.3738 170.943 -6.85651 169.465 -3.28512 168.283C0.502724 166.904 4.07411 165.918 7.42905 165.327C10.8922 164.539 13.9225 163.554 16.5199 162.371C19.1172 160.992 21.1735 159.12 22.6886 156.755C24.2038 154.194 24.9613 150.548 24.9613 145.819C24.9613 140.301 24.3661 135.867 23.1756 132.518C22.0934 129.168 20.6324 126.606 18.7926 124.832C17.061 123.059 15.0588 121.877 12.7861 121.285C10.6217 120.694 8.45718 120.399 6.29271 120.399C0.448616 120.399 -4.42147 122.468 -8.31754 126.606C-12.2136 130.547 -14.324 138.134 -14.6486 149.366H-28.4472C-28.2307 139.907 -27.1485 131.926 -25.2005 125.424C-23.2524 118.921 -20.6551 113.699 -17.4083 109.758C-14.1616 105.619 -10.482 102.664 -6.3695 100.89C-2.14877 99.1166 2.34253 98.2299 7.10439 98.2299C10.8922 98.2299 14.626 98.7225 18.3056 99.7078C22.0934 100.693 25.5025 102.762 28.5327 105.915C31.563 108.871 33.998 113.108 35.8378 118.625C37.6777 124.143 38.5976 131.335 38.5976 140.203V218.828C38.5976 224.74 38.7599 229.075 39.0846 231.834C39.5175 234.592 40.8161 235.972 42.9806 235.972C43.9547 235.972 45.3616 235.479 47.2014 234.494V254.002C44.8204 256.564 41.5196 257.845 37.2989 257.845C33.7275 257.845 30.8595 256.071 28.6951 252.524C26.6388 248.78 25.6107 242.77 25.6107 234.494C21.8228 242.77 17.3857 248.78 12.2991 252.524C7.32083 256.071 1.90963 257.845 -3.93446 257.845ZM-0.850082 235.972C3.69533 235.972 7.59139 234.888 10.8381 232.72C14.0848 230.356 16.7363 227.498 18.7926 224.148C20.8488 220.601 22.364 216.857 23.338 212.916C24.312 208.778 24.799 204.935 24.799 201.388V175.673C23.0674 178.234 20.7947 180.008 17.9809 180.993C15.1671 181.978 12.1909 182.865 9.05241 183.653C6.02214 184.442 2.93776 185.23 -0.200737 186.018C-3.33923 186.806 -6.15305 188.186 -8.6422 190.156C-11.1314 192.127 -13.1876 194.984 -14.811 198.728C-16.3261 202.275 -17.0837 207.202 -17.0837 213.507C-17.0837 217.646 -16.6508 221.193 -15.785 224.148C-14.811 226.907 -13.6205 229.173 -12.2136 230.947C-10.6985 232.72 -8.96687 234.001 -7.01884 234.789C-5.07081 235.578 -3.01456 235.972 -0.850082 235.972Z" stroke="#C4C4C4" stroke-width="54" mask="url(#path-1-outside-1_259_165)"/>
<path d="M47.0568 101.777H60.8553V226.513L100.465 101.777H118.16V254.593H104.361V129.857L64.7514 254.593H47.0568V101.777ZM82.6084 79.3126C79.3616 79.3126 76.3314 78.4258 73.5175 76.6523C70.7037 74.8788 68.2146 72.3171 66.0501 68.9672C63.9938 65.6172 62.3163 61.5776 61.0177 56.8482C59.8272 51.9219 59.232 46.3058 59.232 40H70.7578C70.9743 54.5821 74.8703 61.8732 82.446 61.8732C86.2339 61.8732 89.1018 60.0011 91.0498 56.2571C93.1061 52.316 94.1342 46.8969 94.1342 40H105.66C105.66 45.9117 105.065 51.3307 103.874 56.2571C102.684 61.1835 101.061 65.3216 99.0043 68.6716C96.948 72.0215 94.513 74.6818 91.6992 76.6523C88.8853 78.4258 85.8551 79.3126 82.6084 79.3126Z" stroke="#C4C4C4" stroke-width="54" mask="url(#path-1-outside-1_259_165)"/>
<path d="M116.115 232.425H126.018C127.208 228.287 128.399 222.67 129.589 215.576C130.888 208.285 132.024 200.305 132.998 191.634C134.081 182.767 134.946 173.407 135.596 163.554C136.245 153.701 136.57 144.045 136.57 134.587V101.777H197.283V232.425H208.647V301H195.498V254.593H129.265V301H116.115V232.425ZM183.485 232.425V123.946H150.044V136.951C150.044 146.607 149.719 156.263 149.07 165.918C148.529 175.377 147.771 184.343 146.797 192.817C145.823 201.29 144.741 208.975 143.55 215.872C142.468 222.769 141.386 228.287 140.304 232.425H183.485Z" stroke="#C4C4C4" stroke-width="54" mask="url(#path-1-outside-1_259_165)"/>
<path d="M208.625 101.777H222.424V226.513L262.034 101.777H279.729V254.593H265.93V129.857L226.32 254.593H208.625V101.777Z" stroke="#C4C4C4" stroke-width="54" mask="url(#path-1-outside-1_259_165)"/>
<path d="M354.521 257.845C348.136 257.845 342.454 255.973 337.476 252.229C332.606 248.485 328.493 243.164 325.138 236.267C321.892 229.37 319.402 221.193 317.671 211.734C316.047 202.275 315.236 191.733 315.236 180.106C315.236 168.677 316.047 158.036 317.671 148.183C319.294 138.134 321.729 129.463 324.976 122.172C328.331 114.684 332.443 108.871 337.313 104.733C342.292 100.397 348.136 98.2299 354.846 98.2299C359.608 98.2299 364.045 99.3137 368.157 101.481C372.378 103.452 376.058 106.605 379.196 110.94C382.443 115.275 385.094 120.793 387.151 127.493C389.207 133.995 390.506 141.779 391.047 150.844H376.761C375.679 141.188 373.406 133.7 369.943 128.379C366.48 123.059 361.826 120.399 355.982 120.399C351.004 120.399 346.837 122.074 343.482 125.424C340.127 128.773 337.422 133.207 335.365 138.725C333.417 144.242 332.01 150.647 331.145 157.938C330.279 165.032 329.846 172.421 329.846 180.106C329.846 187.2 330.279 194.097 331.145 200.797C332.119 207.497 333.58 213.507 335.528 218.828C337.476 223.951 339.965 228.089 342.995 231.242C346.134 234.395 349.922 235.972 354.359 235.972C361.177 235.972 366.48 232.72 370.268 226.217C374.164 219.715 376.545 210.552 377.41 198.728H391.534C390.019 217.843 386.177 232.523 380.008 242.77C373.839 252.82 365.343 257.845 354.521 257.845Z" stroke="#C4C4C4" stroke-width="54" mask="url(#path-1-outside-1_259_165)"/>
<path d="M393.986 101.777H432.785C436.464 101.777 439.982 102.27 443.337 103.255C446.8 104.24 449.884 106.112 452.59 108.871C455.295 111.433 457.46 115.177 459.083 120.103C460.706 125.029 461.518 131.335 461.518 139.02C461.518 147.297 460.436 153.997 458.271 159.12C456.107 164.243 453.077 168.48 449.181 171.83V172.126C454.051 173.899 457.893 178.037 460.706 184.54C463.629 191.043 465.09 199.418 465.09 209.665C465.09 216.168 464.44 222.178 463.142 227.695C461.951 233.213 460.219 237.942 457.947 241.883C455.674 245.824 452.969 248.977 449.83 251.342C446.692 253.51 443.282 254.593 439.603 254.593H393.986V101.777ZM437.005 233.311C441.551 233.311 444.96 230.947 447.233 226.217C449.614 221.291 450.804 215.182 450.804 207.891C450.804 200.994 449.559 195.477 447.07 191.339C444.581 187.2 440.414 185.131 434.57 185.131H407.623V233.311H437.005ZM431.324 164.441C437.276 164.441 441.389 162.47 443.661 158.529C446.042 154.588 447.233 149.366 447.233 142.863C447.233 136.557 446.096 131.729 443.824 128.379C441.551 124.832 437.384 123.059 431.324 123.059H407.623V164.441H431.324Z" stroke="#C4C4C4" stroke-width="54" mask="url(#path-1-outside-1_259_165)"/>
<path d="M504.868 257.845C498.158 257.845 492.26 255.874 487.174 251.933C482.195 247.795 477.975 242.179 474.511 235.085C471.048 227.794 468.451 219.32 466.719 209.665C464.988 200.009 464.122 189.565 464.122 178.333C464.122 167.101 464.988 156.657 466.719 147.001C468.451 137.148 471.048 128.675 474.511 121.581C477.975 114.29 482.195 108.575 487.174 104.437C492.26 100.299 498.158 98.2299 504.868 98.2299C511.47 98.2299 517.314 100.299 522.401 104.437C527.487 108.575 531.762 114.29 535.225 121.581C538.688 128.675 541.286 137.148 543.017 147.001C544.749 156.657 545.615 167.101 545.615 178.333C545.615 189.565 544.749 200.009 543.017 209.665C541.286 219.32 538.688 227.794 535.225 235.085C531.762 242.179 527.487 247.795 522.401 251.933C517.314 255.874 511.47 257.845 504.868 257.845ZM504.868 235.972C508.44 235.972 511.795 234.691 514.933 232.129C518.18 229.567 520.994 225.922 523.375 221.193C525.755 216.266 527.595 210.256 528.894 203.162C530.301 195.871 531.004 187.595 531.004 178.333C531.004 169.071 530.301 160.894 528.894 153.8C527.595 146.508 525.755 140.4 523.375 135.473C520.994 130.547 518.18 126.803 514.933 124.241C511.795 121.679 508.44 120.399 504.868 120.399C501.297 120.399 497.888 121.679 494.641 124.241C491.503 126.803 488.743 130.547 486.362 135.473C483.981 140.4 482.087 146.508 480.68 153.8C479.382 160.894 478.732 169.071 478.732 178.333C478.732 187.595 479.382 195.871 480.68 203.162C482.087 210.256 483.981 216.266 486.362 221.193C488.743 225.922 491.503 229.567 494.641 232.129C497.888 234.691 501.297 235.972 504.868 235.972Z" stroke="#C4C4C4" stroke-width="54" mask="url(#path-1-outside-1_259_165)"/>
<path d="M548.897 101.777H562.695V226.513L602.305 101.777H620V254.593H606.201V129.857L566.591 254.593H548.897V101.777ZM584.448 79.3126C581.202 79.3126 578.171 78.4258 575.358 76.6523C572.544 74.8788 570.055 72.3171 567.89 68.9672C565.834 65.6172 564.156 61.5776 562.858 56.8482C561.667 51.9219 561.072 46.3058 561.072 40H572.598C572.814 54.5821 576.71 61.8732 584.286 61.8732C588.074 61.8732 590.942 60.0011 592.89 56.2571C594.946 52.316 595.974 46.8969 595.974 40H607.5C607.5 45.9117 606.905 51.3307 605.714 56.2571C604.524 61.1835 602.901 65.3216 600.844 68.6716C598.788 72.0215 596.353 74.6818 593.539 76.6523C590.725 78.4258 587.695 79.3126 584.448 79.3126Z" stroke="#C4C4C4" stroke-width="54" mask="url(#path-1-outside-1_259_165)"/>
</svg>
